<?xml version="1.0" encoding="utf-8" standalone="no"?>
<!DOCTYPE svg PUBLIC "-//W3C//DTD SVG 1.1//EN"
  "http://www.w3.org/Graphics/SVG/1.1/DTD/svg11.dtd">
<!-- Created with matplotlib (http://matplotlib.org/) -->
<svg height="345pt" version="1.1" viewBox="0 0 460 345" width="460pt" xmlns="http://www.w3.org/2000/svg" xmlns:xlink="http://www.w3.org/1999/xlink">
 <defs>
  <style type="text/css">
*{stroke-linecap:butt;stroke-linejoin:round;}
  </style>
 </defs>
 <g id="figure_1">
  <g id="patch_1">
   <path d="M 0 345.6 
L 460.8 345.6 
L 460.8 0 
L 0 0 
z
" style="fill:#ffffff;"/>
  </g>
  <g id="axes_1">
   <g id="patch_2">
    <path d="M 362.013037 183.410087 
C 362.013037 166.126822 358.608611 149.011614 351.994592 133.043959 
C 345.380572 117.076303 335.685586 102.566731 323.464471 90.345616 
C 311.243357 78.124502 296.733784 68.429515 280.766129 61.815496 
C 264.798473 55.201476 247.683266 51.79705 230.4 51.79705 
C 213.116734 51.79705 196.001527 55.201476 180.033871 61.815496 
C 164.066216 68.429515 149.556643 78.124502 137.335529 90.345616 
C 125.114414 102.566731 115.419428 117.076303 108.805408 133.043959 
C 102.191389 149.011614 98.786963 166.126822 98.786963 183.410087 
C 98.786963 200.693353 102.191389 217.808561 108.805408 233.776216 
C 115.419428 249.743872 125.114414 264.253444 137.335529 276.474559 
C 149.556643 288.695673 164.066216 298.39066 180.033871 305.004679 
C 196.001527 311.618699 213.116734 315.023125 230.4 315.023125 
C 247.683266 315.023125 264.798473 311.618699 280.766129 305.004679 
C 296.733784 298.39066 311.243357 288.695673 323.464471 276.474559 
C 335.685586 264.253444 345.380572 249.743872 351.994592 233.776216 
C 358.608611 217.808561 362.013037 200.693353 362.013037 183.410088 
M 230.4 183.410087 
C 230.4 183.410087 230.4 183.410087 230.4 183.410087 
C 230.4 183.410087 230.4 183.410087 230.4 183.410087 
C 230.4 183.410087 230.4 183.410087 230.4 183.410087 
C 230.4 183.410087 230.4 183.410087 230.4 183.410087 
C 230.4 183.410087 230.4 183.410087 230.4 183.410087 
C 230.4 183.410087 230.4 183.410087 230.4 183.410087 
C 230.4 183.410087 230.4 183.410087 230.4 183.410087 
C 230.4 183.410087 230.4 183.410087 230.4 183.410087 
C 230.4 183.410087 230.4 183.410087 230.4 183.410087 
C 230.4 183.410087 230.4 183.410087 230.4 183.410087 
C 230.4 183.410087 230.4 183.410087 230.4 183.410087 
C 230.4 183.410087 230.4 183.410087 230.4 183.410087 
C 230.4 183.410087 230.4 183.410087 230.4 183.410087 
C 230.4 183.410087 230.4 183.410087 230.4 183.410087 
C 230.4 183.410087 230.4 183.410087 230.4 183.410087 
C 230.4 183.410087 230.4 183.410087 230.4 183.410087 
M 362.013037 183.410087 
z
" style="fill:#eaeaf2;"/>
   </g>
   <g id="matplotlib.axis_1">
    <g id="xtick_1">
     <g id="line2d_1">
      <path clip-path="url(#paa83908064)" d="M 230.4 183.410087 
L 230.4 51.79705 
" style="fill:none;stroke:#ffffff;stroke-linecap:round;"/>
     </g>
     <g id="text_1">
      <!-- valence -->
      <defs>
       <path d="M 21 0 
L 1.265625 51.859375 
L 10.546875 51.859375 
L 21.6875 20.796875 
Q 23.484375 15.765625 25 10.359375 
Q 26.171875 14.453125 28.265625 20.21875 
L 39.796875 51.859375 
L 48.828125 51.859375 
L 29.203125 0 
z
" id="ArialMT-76"/>
       <path d="M 40.4375 6.390625 
Q 35.546875 2.25 31.03125 0.53125 
Q 26.515625 -1.171875 21.34375 -1.171875 
Q 12.796875 -1.171875 8.203125 3 
Q 3.609375 7.171875 3.609375 13.671875 
Q 3.609375 17.484375 5.34375 20.625 
Q 7.078125 23.78125 9.890625 25.6875 
Q 12.703125 27.59375 16.21875 28.5625 
Q 18.796875 29.25 24.03125 29.890625 
Q 34.671875 31.15625 39.703125 32.90625 
Q 39.75 34.71875 39.75 35.203125 
Q 39.75 40.578125 37.25 42.78125 
Q 33.890625 45.75 27.25 45.75 
Q 21.046875 45.75 18.09375 43.578125 
Q 15.140625 41.40625 13.71875 35.890625 
L 5.125 37.0625 
Q 6.296875 42.578125 8.984375 45.96875 
Q 11.671875 49.359375 16.75 51.1875 
Q 21.828125 53.03125 28.515625 53.03125 
Q 35.15625 53.03125 39.296875 51.46875 
Q 43.453125 49.90625 45.40625 47.53125 
Q 47.359375 45.171875 48.140625 41.546875 
Q 48.578125 39.3125 48.578125 33.453125 
L 48.578125 21.734375 
Q 48.578125 9.46875 49.140625 6.21875 
Q 49.703125 2.984375 51.375 0 
L 42.1875 0 
Q 40.828125 2.734375 40.4375 6.390625 
z
M 39.703125 26.03125 
Q 34.90625 24.078125 25.34375 22.703125 
Q 19.921875 21.921875 17.671875 20.9375 
Q 15.4375 19.96875 14.203125 18.09375 
Q 12.984375 16.21875 12.984375 13.921875 
Q 12.984375 10.40625 15.640625 8.0625 
Q 18.3125 5.71875 23.4375 5.71875 
Q 28.515625 5.71875 32.46875 7.9375 
Q 36.421875 10.15625 38.28125 14.015625 
Q 39.703125 17 39.703125 22.796875 
z
" id="ArialMT-61"/>
       <path d="M 6.390625 0 
L 6.390625 71.578125 
L 15.1875 71.578125 
L 15.1875 0 
z
" id="ArialMT-6c"/>
       <path d="M 42.09375 16.703125 
L 51.171875 15.578125 
Q 49.03125 7.625 43.21875 3.21875 
Q 37.40625 -1.171875 28.375 -1.171875 
Q 17 -1.171875 10.328125 5.828125 
Q 3.65625 12.84375 3.65625 25.484375 
Q 3.65625 38.578125 10.390625 45.796875 
Q 17.140625 53.03125 27.875 53.03125 
Q 38.28125 53.03125 44.875 45.953125 
Q 51.46875 38.875 51.46875 26.03125 
Q 51.46875 25.25 51.421875 23.6875 
L 12.75 23.6875 
Q 13.234375 15.140625 17.578125 10.59375 
Q 21.921875 6.0625 28.421875 6.0625 
Q 33.25 6.0625 36.671875 8.59375 
Q 40.09375 11.140625 42.09375 16.703125 
z
M 13.234375 30.90625 
L 42.1875 30.90625 
Q 41.609375 37.453125 38.875 40.71875 
Q 34.671875 45.796875 27.984375 45.796875 
Q 21.921875 45.796875 17.796875 41.75 
Q 13.671875 37.703125 13.234375 30.90625 
z
" id="ArialMT-65"/>
       <path d="M 6.59375 0 
L 6.59375 51.859375 
L 14.5 51.859375 
L 14.5 44.484375 
Q 20.21875 53.03125 31 53.03125 
Q 35.6875 53.03125 39.625 51.34375 
Q 43.5625 49.65625 45.515625 46.921875 
Q 47.46875 44.1875 48.25 40.4375 
Q 48.734375 37.984375 48.734375 31.890625 
L 48.734375 0 
L 39.9375 0 
L 39.9375 31.546875 
Q 39.9375 36.921875 38.90625 39.578125 
Q 37.890625 42.234375 35.28125 43.8125 
Q 32.671875 45.40625 29.15625 45.40625 
Q 23.53125 45.40625 19.453125 41.84375 
Q 15.375 38.28125 15.375 28.328125 
L 15.375 0 
z
" id="ArialMT-6e"/>
       <path d="M 40.4375 19 
L 49.078125 17.875 
Q 47.65625 8.9375 41.8125 3.875 
Q 35.984375 -1.171875 27.484375 -1.171875 
Q 16.84375 -1.171875 10.375 5.78125 
Q 3.90625 12.75 3.90625 25.734375 
Q 3.90625 34.125 6.6875 40.421875 
Q 9.46875 46.734375 15.15625 49.875 
Q 20.84375 53.03125 27.546875 53.03125 
Q 35.984375 53.03125 41.359375 48.75 
Q 46.734375 44.484375 48.25 36.625 
L 39.703125 35.296875 
Q 38.484375 40.53125 35.375 43.15625 
Q 32.28125 45.796875 27.875 45.796875 
Q 21.234375 45.796875 17.078125 41.03125 
Q 12.9375 36.28125 12.9375 25.984375 
Q 12.9375 15.53125 16.9375 10.796875 
Q 20.953125 6.0625 27.390625 6.0625 
Q 32.5625 6.0625 36.03125 9.234375 
Q 39.5 12.40625 40.4375 19 
z
" id="ArialMT-63"/>
      </defs>
      <g style="fill:#808080;" transform="translate(216.61375 39.865175)scale(0.08 -0.08)">
       <use xlink:href="#ArialMT-76"/>
       <use x="50" xlink:href="#ArialMT-61"/>
       <use x="105.615234" xlink:href="#ArialMT-6c"/>
       <use x="127.832031" xlink:href="#ArialMT-65"/>
       <use x="183.447266" xlink:href="#ArialMT-6e"/>
       <use x="239.0625" xlink:href="#ArialMT-63"/>
       <use x="289.0625" xlink:href="#ArialMT-65"/>
      </g>
     </g>
    </g>
    <g id="xtick_2">
     <g id="line2d_2">
      <path clip-path="url(#paa83908064)" d="M 230.4 183.410087 
L 323.464471 90.345616 
" style="fill:none;stroke:#ffffff;stroke-linecap:round;"/>
     </g>
     <g id="text_2">
      <!-- energy -->
      <defs>
       <path d="M 6.5 0 
L 6.5 51.859375 
L 14.40625 51.859375 
L 14.40625 44 
Q 17.4375 49.515625 20 51.265625 
Q 22.5625 53.03125 25.640625 53.03125 
Q 30.078125 53.03125 34.671875 50.203125 
L 31.640625 42.046875 
Q 28.421875 43.953125 25.203125 43.953125 
Q 22.3125 43.953125 20.015625 42.21875 
Q 17.71875 40.484375 16.75 37.40625 
Q 15.28125 32.71875 15.28125 27.15625 
L 15.28125 0 
z
" id="ArialMT-72"/>
       <path d="M 4.984375 -4.296875 
L 13.53125 -5.5625 
Q 14.0625 -9.515625 16.5 -11.328125 
Q 19.78125 -13.765625 25.4375 -13.765625 
Q 31.546875 -13.765625 34.859375 -11.328125 
Q 38.1875 -8.890625 39.359375 -4.5 
Q 40.046875 -1.8125 39.984375 6.78125 
Q 34.234375 0 25.640625 0 
Q 14.9375 0 9.078125 7.71875 
Q 3.21875 15.4375 3.21875 26.21875 
Q 3.21875 33.640625 5.90625 39.90625 
Q 8.59375 46.1875 13.6875 49.609375 
Q 18.796875 53.03125 25.6875 53.03125 
Q 34.859375 53.03125 40.828125 45.609375 
L 40.828125 51.859375 
L 48.921875 51.859375 
L 48.921875 7.03125 
Q 48.921875 -5.078125 46.453125 -10.125 
Q 44 -15.1875 38.640625 -18.109375 
Q 33.296875 -21.046875 25.484375 -21.046875 
Q 16.21875 -21.046875 10.5 -16.875 
Q 4.78125 -12.703125 4.984375 -4.296875 
z
M 12.25 26.859375 
Q 12.25 16.65625 16.296875 11.96875 
Q 20.359375 7.28125 26.46875 7.28125 
Q 32.515625 7.28125 36.609375 11.9375 
Q 40.71875 16.609375 40.71875 26.5625 
Q 40.71875 36.078125 36.5 40.90625 
Q 32.28125 45.75 26.3125 45.75 
Q 20.453125 45.75 16.34375 40.984375 
Q 12.25 36.234375 12.25 26.859375 
z
" id="ArialMT-67"/>
       <path d="M 6.203125 -19.96875 
L 5.21875 -11.71875 
Q 8.109375 -12.5 10.25 -12.5 
Q 13.1875 -12.5 14.9375 -11.515625 
Q 16.703125 -10.546875 17.828125 -8.796875 
Q 18.65625 -7.46875 20.515625 -2.25 
Q 20.75 -1.515625 21.296875 -0.09375 
L 1.609375 51.859375 
L 11.078125 51.859375 
L 21.875 21.828125 
Q 23.96875 16.109375 25.640625 9.8125 
Q 27.15625 15.875 29.25 21.625 
L 40.328125 51.859375 
L 49.125 51.859375 
L 29.390625 -0.875 
Q 26.21875 -9.421875 24.46875 -12.640625 
Q 22.125 -17 19.09375 -19.015625 
Q 16.0625 -21.046875 11.859375 -21.046875 
Q 9.328125 -21.046875 6.203125 -19.96875 
z
" id="ArialMT-79"/>
      </defs>
      <g style="fill:#808080;" transform="translate(321.134591 82.420496)scale(0.08 -0.08)">
       <use xlink:href="#ArialMT-65"/>
       <use x="55.615234" xlink:href="#ArialMT-6e"/>
       <use x="111.230469" xlink:href="#ArialMT-65"/>
       <use x="166.845703" xlink:href="#ArialMT-72"/>
       <use x="200.146484" xlink:href="#ArialMT-67"/>
       <use x="255.761719" xlink:href="#ArialMT-79"/>
      </g>
     </g>
    </g>
    <g id="xtick_3">
     <g id="line2d_3">
      <path clip-path="url(#paa83908064)" d="M 230.4 183.410087 
L 362.013037 183.410087 
" style="fill:none;stroke:#ffffff;stroke-linecap:round;"/>
     </g>
     <g id="text_3">
      <!-- acousticness -->
      <defs>
       <path d="M 3.328125 25.921875 
Q 3.328125 40.328125 11.328125 47.265625 
Q 18.015625 53.03125 27.640625 53.03125 
Q 38.328125 53.03125 45.109375 46.015625 
Q 51.90625 39.015625 51.90625 26.65625 
Q 51.90625 16.65625 48.90625 10.90625 
Q 45.90625 5.171875 40.15625 2 
Q 34.421875 -1.171875 27.640625 -1.171875 
Q 16.75 -1.171875 10.03125 5.8125 
Q 3.328125 12.796875 3.328125 25.921875 
z
M 12.359375 25.921875 
Q 12.359375 15.96875 16.703125 11.015625 
Q 21.046875 6.0625 27.640625 6.0625 
Q 34.1875 6.0625 38.53125 11.03125 
Q 42.875 16.015625 42.875 26.21875 
Q 42.875 35.84375 38.5 40.796875 
Q 34.125 45.75 27.640625 45.75 
Q 21.046875 45.75 16.703125 40.8125 
Q 12.359375 35.890625 12.359375 25.921875 
z
" id="ArialMT-6f"/>
       <path d="M 40.578125 0 
L 40.578125 7.625 
Q 34.515625 -1.171875 24.125 -1.171875 
Q 19.53125 -1.171875 15.546875 0.578125 
Q 11.578125 2.34375 9.640625 5 
Q 7.71875 7.671875 6.9375 11.53125 
Q 6.390625 14.109375 6.390625 19.734375 
L 6.390625 51.859375 
L 15.1875 51.859375 
L 15.1875 23.09375 
Q 15.1875 16.21875 15.71875 13.8125 
Q 16.546875 10.359375 19.234375 8.375 
Q 21.921875 6.390625 25.875 6.390625 
Q 29.828125 6.390625 33.296875 8.421875 
Q 36.765625 10.453125 38.203125 13.9375 
Q 39.65625 17.4375 39.65625 24.078125 
L 39.65625 51.859375 
L 48.4375 51.859375 
L 48.4375 0 
z
" id="ArialMT-75"/>
       <path d="M 3.078125 15.484375 
L 11.765625 16.84375 
Q 12.5 11.625 15.84375 8.84375 
Q 19.1875 6.0625 25.203125 6.0625 
Q 31.25 6.0625 34.171875 8.515625 
Q 37.109375 10.984375 37.109375 14.3125 
Q 37.109375 17.28125 34.515625 19 
Q 32.71875 20.171875 25.53125 21.96875 
Q 15.875 24.421875 12.140625 26.203125 
Q 8.40625 27.984375 6.46875 31.125 
Q 4.546875 34.28125 4.546875 38.09375 
Q 4.546875 41.546875 6.125 44.5 
Q 7.71875 47.46875 10.453125 49.421875 
Q 12.5 50.921875 16.03125 51.96875 
Q 19.578125 53.03125 23.640625 53.03125 
Q 29.734375 53.03125 34.34375 51.265625 
Q 38.96875 49.515625 41.15625 46.5 
Q 43.359375 43.5 44.1875 38.484375 
L 35.59375 37.3125 
Q 35.015625 41.3125 32.203125 43.546875 
Q 29.390625 45.796875 24.265625 45.796875 
Q 18.21875 45.796875 15.625 43.796875 
Q 13.03125 41.796875 13.03125 39.109375 
Q 13.03125 37.40625 14.109375 36.03125 
Q 15.1875 34.625 17.484375 33.6875 
Q 18.796875 33.203125 25.25 31.453125 
Q 34.578125 28.953125 38.25 27.359375 
Q 41.9375 25.78125 44.03125 22.75 
Q 46.140625 19.734375 46.140625 15.234375 
Q 46.140625 10.84375 43.578125 6.953125 
Q 41.015625 3.078125 36.171875 0.953125 
Q 31.34375 -1.171875 25.25 -1.171875 
Q 15.140625 -1.171875 9.84375 3.03125 
Q 4.546875 7.234375 3.078125 15.484375 
z
" id="ArialMT-73"/>
       <path d="M 25.78125 7.859375 
L 27.046875 0.09375 
Q 23.34375 -0.6875 20.40625 -0.6875 
Q 15.625 -0.6875 12.984375 0.828125 
Q 10.359375 2.34375 9.28125 4.8125 
Q 8.203125 7.28125 8.203125 15.1875 
L 8.203125 45.015625 
L 1.765625 45.015625 
L 1.765625 51.859375 
L 8.203125 51.859375 
L 8.203125 64.703125 
L 16.9375 69.96875 
L 16.9375 51.859375 
L 25.78125 51.859375 
L 25.78125 45.015625 
L 16.9375 45.015625 
L 16.9375 14.703125 
Q 16.9375 10.9375 17.40625 9.859375 
Q 17.875 8.796875 18.921875 8.15625 
Q 19.96875 7.515625 21.921875 7.515625 
Q 23.390625 7.515625 25.78125 7.859375 
z
" id="ArialMT-74"/>
       <path d="M 6.640625 61.46875 
L 6.640625 71.578125 
L 15.4375 71.578125 
L 15.4375 61.46875 
z
M 6.640625 0 
L 6.640625 51.859375 
L 15.4375 51.859375 
L 15.4375 0 
z
" id="ArialMT-69"/>
      </defs>
      <g style="fill:#808080;" transform="translate(352.891163 185.478212)scale(0.08 -0.08)">
       <use xlink:href="#ArialMT-61"/>
       <use x="55.615234" xlink:href="#ArialMT-63"/>
       <use x="105.615234" xlink:href="#ArialMT-6f"/>
       <use x="161.230469" xlink:href="#ArialMT-75"/>
       <use x="216.845703" xlink:href="#ArialMT-73"/>
       <use x="266.845703" xlink:href="#ArialMT-74"/>
       <use x="294.628906" xlink:href="#ArialMT-69"/>
       <use x="316.845703" xlink:href="#ArialMT-63"/>
       <use x="366.845703" xlink:href="#ArialMT-6e"/>
       <use x="422.460938" xlink:href="#ArialMT-65"/>
       <use x="478.076172" xlink:href="#ArialMT-73"/>
       <use x="528.076172" xlink:href="#ArialMT-73"/>
      </g>
     </g>
    </g>
    <g id="xtick_4">
     <g id="line2d_4">
      <path clip-path="url(#paa83908064)" d="M 230.4 183.410087 
L 323.464471 276.474559 
" style="fill:none;stroke:#ffffff;stroke-linecap:round;"/>
     </g>
     <g id="text_4">
      <!-- speechiness -->
      <defs>
       <path d="M 6.59375 -19.875 
L 6.59375 51.859375 
L 14.59375 51.859375 
L 14.59375 45.125 
Q 17.4375 49.078125 21 51.046875 
Q 24.5625 53.03125 29.640625 53.03125 
Q 36.28125 53.03125 41.359375 49.609375 
Q 46.4375 46.1875 49.015625 39.953125 
Q 51.609375 33.734375 51.609375 26.3125 
Q 51.609375 18.359375 48.75 11.984375 
Q 45.90625 5.609375 40.453125 2.21875 
Q 35.015625 -1.171875 29 -1.171875 
Q 24.609375 -1.171875 21.109375 0.6875 
Q 17.625 2.546875 15.375 5.375 
L 15.375 -19.875 
z
M 14.546875 25.640625 
Q 14.546875 15.625 18.59375 10.84375 
Q 22.65625 6.0625 28.421875 6.0625 
Q 34.28125 6.0625 38.453125 11.015625 
Q 42.625 15.96875 42.625 26.375 
Q 42.625 36.28125 38.546875 41.203125 
Q 34.46875 46.140625 28.8125 46.140625 
Q 23.1875 46.140625 18.859375 40.890625 
Q 14.546875 35.640625 14.546875 25.640625 
z
" id="ArialMT-70"/>
       <path d="M 6.59375 0 
L 6.59375 71.578125 
L 15.375 71.578125 
L 15.375 45.90625 
Q 21.53125 53.03125 30.90625 53.03125 
Q 36.671875 53.03125 40.921875 50.75 
Q 45.171875 48.484375 47 44.484375 
Q 48.828125 40.484375 48.828125 32.859375 
L 48.828125 0 
L 40.046875 0 
L 40.046875 32.859375 
Q 40.046875 39.453125 37.1875 42.453125 
Q 34.328125 45.453125 29.109375 45.453125 
Q 25.203125 45.453125 21.75 43.421875 
Q 18.3125 41.40625 16.84375 37.9375 
Q 15.375 34.46875 15.375 28.375 
L 15.375 0 
z
" id="ArialMT-68"/>
      </defs>
      <g style="fill:#808080;" transform="translate(311.128966 288.442179)scale(0.08 -0.08)">
       <use xlink:href="#ArialMT-73"/>
       <use x="50" xlink:href="#ArialMT-70"/>
       <use x="105.615234" xlink:href="#ArialMT-65"/>
       <use x="161.230469" xlink:href="#ArialMT-65"/>
       <use x="216.845703" xlink:href="#ArialMT-63"/>
       <use x="266.845703" xlink:href="#ArialMT-68"/>
       <use x="322.460938" xlink:href="#ArialMT-69"/>
       <use x="344.677734" xlink:href="#ArialMT-6e"/>
       <use x="400.292969" xlink:href="#ArialMT-65"/>
       <use x="455.908203" xlink:href="#ArialMT-73"/>
       <use x="505.908203" xlink:href="#ArialMT-73"/>
      </g>
     </g>
    </g>
    <g id="xtick_5">
     <g id="line2d_5">
      <path clip-path="url(#paa83908064)" d="M 230.4 183.410087 
L 230.4 315.023125 
" style="fill:none;stroke:#ffffff;stroke-linecap:round;"/>
     </g>
     <g id="text_5">
      <!-- danceability -->
      <defs>
       <path d="M 40.234375 0 
L 40.234375 6.546875 
Q 35.296875 -1.171875 25.734375 -1.171875 
Q 19.53125 -1.171875 14.328125 2.25 
Q 9.125 5.671875 6.265625 11.796875 
Q 3.421875 17.921875 3.421875 25.875 
Q 3.421875 33.640625 6 39.96875 
Q 8.59375 46.296875 13.765625 49.65625 
Q 18.953125 53.03125 25.34375 53.03125 
Q 30.03125 53.03125 33.6875 51.046875 
Q 37.359375 49.078125 39.65625 45.90625 
L 39.65625 71.578125 
L 48.390625 71.578125 
L 48.390625 0 
z
M 12.453125 25.875 
Q 12.453125 15.921875 16.640625 10.984375 
Q 20.84375 6.0625 26.5625 6.0625 
Q 32.328125 6.0625 36.34375 10.765625 
Q 40.375 15.484375 40.375 25.140625 
Q 40.375 35.796875 36.265625 40.765625 
Q 32.171875 45.75 26.171875 45.75 
Q 20.3125 45.75 16.375 40.96875 
Q 12.453125 36.1875 12.453125 25.875 
z
" id="ArialMT-64"/>
       <path d="M 14.703125 0 
L 6.546875 0 
L 6.546875 71.578125 
L 15.328125 71.578125 
L 15.328125 46.046875 
Q 20.90625 53.03125 29.546875 53.03125 
Q 34.328125 53.03125 38.59375 51.09375 
Q 42.875 49.171875 45.625 45.671875 
Q 48.390625 42.1875 49.953125 37.25 
Q 51.515625 32.328125 51.515625 26.703125 
Q 51.515625 13.375 44.921875 6.09375 
Q 38.328125 -1.171875 29.109375 -1.171875 
Q 19.921875 -1.171875 14.703125 6.5 
z
M 14.59375 26.3125 
Q 14.59375 17 17.140625 12.84375 
Q 21.296875 6.0625 28.375 6.0625 
Q 34.125 6.0625 38.328125 11.0625 
Q 42.53125 16.0625 42.53125 25.984375 
Q 42.53125 36.140625 38.5 40.96875 
Q 34.46875 45.796875 28.765625 45.796875 
Q 23 45.796875 18.796875 40.796875 
Q 14.59375 35.796875 14.59375 26.3125 
z
" id="ArialMT-62"/>
      </defs>
      <g style="fill:#808080;" transform="translate(209.27625 331.044375)scale(0.08 -0.08)">
       <use xlink:href="#ArialMT-64"/>
       <use x="55.615234" xlink:href="#ArialMT-61"/>
       <use x="111.230469" xlink:href="#ArialMT-6e"/>
       <use x="166.845703" xlink:href="#ArialMT-63"/>
       <use x="216.845703" xlink:href="#ArialMT-65"/>
       <use x="272.460938" xlink:href="#ArialMT-61"/>
       <use x="328.076172" xlink:href="#ArialMT-62"/>
       <use x="383.691406" xlink:href="#ArialMT-69"/>
       <use x="405.908203" xlink:href="#ArialMT-6c"/>
       <use x="428.125" xlink:href="#ArialMT-69"/>
       <use x="450.341797" xlink:href="#ArialMT-74"/>
       <use x="478.125" xlink:href="#ArialMT-79"/>
      </g>
     </g>
    </g>
    <g id="xtick_6">
     <g id="line2d_6">
      <path clip-path="url(#paa83908064)" d="M 230.4 183.410087 
L 137.335529 276.474559 
" style="fill:none;stroke:#ffffff;stroke-linecap:round;"/>
     </g>
     <g id="text_6">
      <!-- instrumentalness -->
      <defs>
       <path d="M 6.59375 0 
L 6.59375 51.859375 
L 14.453125 51.859375 
L 14.453125 44.578125 
Q 16.890625 48.390625 20.9375 50.703125 
Q 25 53.03125 30.171875 53.03125 
Q 35.9375 53.03125 39.625 50.640625 
Q 43.3125 48.25 44.828125 43.953125 
Q 50.984375 53.03125 60.84375 53.03125 
Q 68.5625 53.03125 72.703125 48.75 
Q 76.859375 44.484375 76.859375 35.59375 
L 76.859375 0 
L 68.109375 0 
L 68.109375 32.671875 
Q 68.109375 37.9375 67.25 40.25 
Q 66.40625 42.578125 64.15625 43.984375 
Q 61.921875 45.40625 58.890625 45.40625 
Q 53.421875 45.40625 49.796875 41.765625 
Q 46.1875 38.140625 46.1875 30.125 
L 46.1875 0 
L 37.40625 0 
L 37.40625 33.6875 
Q 37.40625 39.546875 35.25 42.46875 
Q 33.109375 45.40625 28.21875 45.40625 
Q 24.515625 45.40625 21.359375 43.453125 
Q 18.21875 41.5 16.796875 37.734375 
Q 15.375 33.984375 15.375 26.90625 
L 15.375 0 
z
" id="ArialMT-6d"/>
      </defs>
      <g style="fill:#808080;" transform="translate(97.201659 288.442179)scale(0.08 -0.08)">
       <use xlink:href="#ArialMT-69"/>
       <use x="22.216797" xlink:href="#ArialMT-6e"/>
       <use x="77.832031" xlink:href="#ArialMT-73"/>
       <use x="127.832031" xlink:href="#ArialMT-74"/>
       <use x="155.615234" xlink:href="#ArialMT-72"/>
       <use x="188.916016" xlink:href="#ArialMT-75"/>
       <use x="244.53125" xlink:href="#ArialMT-6d"/>
       <use x="327.832031" xlink:href="#ArialMT-65"/>
       <use x="383.447266" xlink:href="#ArialMT-6e"/>
       <use x="439.0625" xlink:href="#ArialMT-74"/>
       <use x="466.845703" xlink:href="#ArialMT-61"/>
       <use x="522.460938" xlink:href="#ArialMT-6c"/>
       <use x="544.677734" xlink:href="#ArialMT-6e"/>
       <use x="600.292969" xlink:href="#ArialMT-65"/>
       <use x="655.908203" xlink:href="#ArialMT-73"/>
       <use x="705.908203" xlink:href="#ArialMT-73"/>
      </g>
     </g>
    </g>
    <g id="xtick_7">
     <g id="line2d_7">
      <path clip-path="url(#paa83908064)" d="M 230.4 183.410087 
L 98.786963 183.410088 
" style="fill:none;stroke:#ffffff;stroke-linecap:round;"/>
     </g>
     <g id="text_7">
      <!-- liveness -->
      <g style="fill:#808080;" transform="translate(70.336338 185.478213)scale(0.08 -0.08)">
       <use xlink:href="#ArialMT-6c"/>
       <use x="22.216797" xlink:href="#ArialMT-69"/>
       <use x="44.433594" xlink:href="#ArialMT-76"/>
       <use x="94.433594" xlink:href="#ArialMT-65"/>
       <use x="150.048828" xlink:href="#ArialMT-6e"/>
       <use x="205.664062" xlink:href="#ArialMT-65"/>
       <use x="261.279297" xlink:href="#ArialMT-73"/>
       <use x="311.279297" xlink:href="#ArialMT-73"/>
      </g>
     </g>
    </g>
    <g id="xtick_8">
     <g id="line2d_8">
      <path clip-path="url(#paa83908064)" d="M 230.4 183.410087 
L 137.335529 90.345616 
" style="fill:none;stroke:#ffffff;stroke-linecap:round;"/>
     </g>
     <g id="text_8">
      <!-- mode -->
      <g style="fill:#808080;" transform="translate(117.431034 82.514246)scale(0.08 -0.08)">
       <use xlink:href="#ArialMT-6d"/>
       <use x="83.300781" xlink:href="#ArialMT-6f"/>
       <use x="138.916016" xlink:href="#ArialMT-64"/>
       <use x="194.53125" xlink:href="#ArialMT-65"/>
      </g>
     </g>
    </g>
   </g>
   <g id="matplotlib.axis_2">
    <g id="ytick_1">
     <g id="line2d_9">
      <path clip-path="url(#paa83908064)" d="M 230.4 157.08748 
L 233.151462 157.231678 
L 235.872778 157.662692 
L 238.534133 158.3758 
L 241.106369 159.363189 
L 243.561304 160.614041 
L 245.87204 162.114651 
L 248.013262 163.848578 
L 249.96151 165.796825 
L 251.695437 167.938047 
L 253.196047 170.248784 
L 254.446899 172.703718 
L 255.434287 175.275954 
L 256.147395 177.93731 
L 256.57841 180.658626 
L 256.722608 183.410087 
L 256.57841 186.161549 
L 256.147395 188.882865 
L 255.434287 191.544221 
L 254.446899 194.116457 
L 253.196047 196.571391 
L 251.695437 198.882128 
L 249.96151 201.02335 
L 248.013262 202.971597 
L 245.87204 204.705524 
L 243.561304 206.206134 
L 241.106369 207.456986 
L 238.534133 208.444375 
L 235.872778 209.157483 
L 233.151462 209.588497 
L 230.4 209.732695 
L 227.648538 209.588497 
L 224.927222 209.157483 
L 222.265867 208.444375 
L 219.693631 207.456986 
L 217.238696 206.206134 
L 214.92796 204.705524 
L 212.786738 202.971597 
L 210.83849 201.02335 
L 209.104563 198.882128 
L 207.603953 196.571391 
L 206.353101 194.116457 
L 205.365713 191.544221 
L 204.652605 188.882865 
L 204.22159 186.161549 
L 204.077393 183.410087 
L 204.22159 180.658626 
L 204.652605 177.93731 
L 205.365713 175.275954 
L 206.353101 172.703718 
L 207.603953 170.248784 
L 209.104563 167.938047 
L 210.83849 165.796825 
L 212.786738 163.848578 
L 214.92796 162.114651 
L 217.238696 160.614041 
L 219.693631 159.363189 
L 222.265867 158.3758 
L 224.927222 157.662692 
L 227.648538 157.231678 
L 230.4 157.08748 
L 230.4 157.08748 
" style="fill:none;stroke:#ffffff;stroke-linecap:round;"/>
     </g>
     <g id="text_9">
      <!-- 0.2 -->
      <defs>
       <path d="M 4.15625 35.296875 
Q 4.15625 48 6.765625 55.734375 
Q 9.375 63.484375 14.515625 67.671875 
Q 19.671875 71.875 27.484375 71.875 
Q 33.25 71.875 37.59375 69.546875 
Q 41.9375 67.234375 44.765625 62.859375 
Q 47.609375 58.5 49.21875 52.21875 
Q 50.828125 45.953125 50.828125 35.296875 
Q 50.828125 22.703125 48.234375 14.96875 
Q 45.65625 7.234375 40.5 3 
Q 35.359375 -1.21875 27.484375 -1.21875 
Q 17.140625 -1.21875 11.234375 6.203125 
Q 4.15625 15.140625 4.15625 35.296875 
z
M 13.1875 35.296875 
Q 13.1875 17.671875 17.3125 11.828125 
Q 21.4375 6 27.484375 6 
Q 33.546875 6 37.671875 11.859375 
Q 41.796875 17.71875 41.796875 35.296875 
Q 41.796875 52.984375 37.671875 58.78125 
Q 33.546875 64.59375 27.390625 64.59375 
Q 21.34375 64.59375 17.71875 59.46875 
Q 13.1875 52.9375 13.1875 35.296875 
z
" id="ArialMT-30"/>
       <path d="M 9.078125 0 
L 9.078125 10.015625 
L 19.09375 10.015625 
L 19.09375 0 
z
" id="ArialMT-2e"/>
       <path d="M 50.34375 8.453125 
L 50.34375 0 
L 3.03125 0 
Q 2.9375 3.171875 4.046875 6.109375 
Q 5.859375 10.9375 9.828125 15.625 
Q 13.8125 20.3125 21.34375 26.46875 
Q 33.015625 36.03125 37.109375 41.625 
Q 41.21875 47.21875 41.21875 52.203125 
Q 41.21875 57.421875 37.46875 61 
Q 33.734375 64.59375 27.734375 64.59375 
Q 21.390625 64.59375 17.578125 60.78125 
Q 13.765625 56.984375 13.71875 50.25 
L 4.6875 51.171875 
Q 5.609375 61.28125 11.65625 66.578125 
Q 17.71875 71.875 27.9375 71.875 
Q 38.234375 71.875 44.234375 66.15625 
Q 50.25 60.453125 50.25 52 
Q 50.25 47.703125 48.484375 43.546875 
Q 46.734375 39.40625 42.65625 34.8125 
Q 38.578125 30.21875 29.109375 22.21875 
Q 21.1875 15.578125 18.9375 13.203125 
Q 16.703125 10.84375 15.234375 8.453125 
z
" id="ArialMT-32"/>
      </defs>
      <g style="fill:#808080;" transform="translate(230.4 155.69623)scale(0.07 -0.07)">
       <use xlink:href="#ArialMT-30"/>
       <use x="55.615234" xlink:href="#ArialMT-2e"/>
       <use x="83.398438" xlink:href="#ArialMT-32"/>
      </g>
     </g>
    </g>
    <g id="ytick_2">
     <g id="line2d_10">
      <path clip-path="url(#paa83908064)" d="M 230.4 130.764872 
L 234.072345 130.893114 
L 237.726798 131.277212 
L 241.345556 131.915297 
L 244.910988 132.804259 
L 248.405724 133.939767 
L 251.812738 135.31629 
L 255.115431 136.927122 
L 258.297714 138.764413 
L 261.344081 140.819214 
L 264.239692 143.081513 
L 266.970439 145.540289 
L 269.523019 148.183563 
L 271.884996 150.998457 
L 274.044861 153.971257 
L 275.992094 157.08748 
L 277.717206 160.331944 
L 279.211793 163.688843 
L 280.468575 167.141821 
L 281.481427 170.674057 
L 282.245416 174.268342 
L 282.756819 177.907164 
L 283.013145 181.572796 
L 283.013145 185.247379 
L 282.756819 188.913011 
L 282.245416 192.551833 
L 281.481427 196.146118 
L 280.468575 199.678354 
L 279.211793 203.131332 
L 277.717206 206.488231 
L 275.992094 209.732695 
L 274.044861 212.848918 
L 271.884996 215.821718 
L 269.523019 218.636612 
L 266.970439 221.279886 
L 264.239692 223.738662 
L 261.344081 226.000961 
L 258.297714 228.055762 
L 255.115431 229.893053 
L 251.812738 231.503885 
L 248.405724 232.880408 
L 244.910988 234.015916 
L 241.345556 234.904878 
L 237.726798 235.542963 
L 234.072345 235.927061 
L 230.4 236.055302 
L 226.727655 235.927061 
L 223.073202 235.542963 
L 219.454444 234.904878 
L 215.889012 234.015916 
L 212.394276 232.880408 
L 208.987262 231.503885 
L 205.684569 229.893053 
L 202.502286 228.055762 
L 199.455919 226.000961 
L 196.560308 223.738662 
L 193.829561 221.279886 
L 191.276981 218.636612 
L 188.915004 215.821718 
L 186.755139 212.848918 
L 184.807906 209.732695 
L 183.082794 206.488231 
L 181.588207 203.131332 
L 180.331425 199.678354 
L 179.318573 196.146118 
L 178.554584 192.551833 
L 178.043181 188.913011 
L 177.786855 185.247379 
L 177.786855 181.572796 
L 178.043181 177.907164 
L 178.554584 174.268342 
L 179.318573 170.674057 
L 180.331425 167.141821 
L 181.588207 163.688843 
L 183.082794 160.331944 
L 184.807906 157.08748 
L 186.755139 153.971257 
L 188.915004 150.998457 
L 191.276981 148.183563 
L 193.829561 145.540289 
L 196.560308 143.081513 
L 199.455919 140.819214 
L 202.502286 138.764413 
L 205.684569 136.927122 
L 208.987262 135.31629 
L 212.394276 133.939767 
L 215.889012 132.804259 
L 219.454444 131.915297 
L 223.073202 131.277212 
L 226.727655 130.893114 
L 230.4 130.764872 
L 230.4 130.764872 
" style="fill:none;stroke:#ffffff;stroke-linecap:round;"/>
     </g>
     <g id="text_10">
      <!-- 0.4 -->
      <defs>
       <path d="M 32.328125 0 
L 32.328125 17.140625 
L 1.265625 17.140625 
L 1.265625 25.203125 
L 33.9375 71.578125 
L 41.109375 71.578125 
L 41.109375 25.203125 
L 50.78125 25.203125 
L 50.78125 17.140625 
L 41.109375 17.140625 
L 41.109375 0 
z
M 32.328125 25.203125 
L 32.328125 57.46875 
L 9.90625 25.203125 
z
" id="ArialMT-34"/>
      </defs>
      <g style="fill:#808080;" transform="translate(230.4 129.373622)scale(0.07 -0.07)">
       <use xlink:href="#ArialMT-30"/>
       <use x="55.615234" xlink:href="#ArialMT-2e"/>
       <use x="83.398438" xlink:href="#ArialMT-34"/>
      </g>
     </g>
    </g>
    <g id="ytick_3">
     <g id="line2d_11">
      <path clip-path="url(#paa83908064)" d="M 230.4 104.442265 
L 235.908517 104.634627 
L 241.390197 105.210774 
L 246.818333 106.167901 
L 252.166482 107.501345 
L 257.408586 109.204607 
L 262.519107 111.269392 
L 267.473147 113.685639 
L 272.24657 116.441576 
L 276.816121 119.523777 
L 281.159538 122.917226 
L 285.255659 126.60539 
L 289.084529 130.570301 
L 292.627493 134.792641 
L 295.867292 139.251842 
L 298.78814 143.926176 
L 301.375809 148.792873 
L 303.61769 153.828221 
L 305.502862 159.007688 
L 307.022141 164.306042 
L 308.168124 169.697469 
L 308.935229 175.155702 
L 309.319717 180.65415 
L 309.319717 186.166025 
L 308.935229 191.664473 
L 308.168124 197.122706 
L 307.022141 202.514133 
L 305.502862 207.812487 
L 303.61769 212.991954 
L 301.375809 218.027302 
L 298.78814 222.893999 
L 295.867292 227.568333 
L 292.627493 232.027534 
L 289.084529 236.249874 
L 285.255659 240.214785 
L 281.159538 243.902949 
L 276.816121 247.296398 
L 272.24657 250.378599 
L 267.473147 253.134536 
L 262.519107 255.550783 
L 257.408586 257.615568 
L 252.166482 259.31883 
L 246.818333 260.652274 
L 241.390197 261.609401 
L 235.908517 262.185548 
L 230.4 262.37791 
L 224.891483 262.185548 
L 219.409803 261.609401 
L 213.981667 260.652274 
L 208.633518 259.31883 
L 203.391414 257.615568 
L 198.280893 255.550783 
L 193.326853 253.134536 
L 188.55343 250.378599 
L 183.983879 247.296398 
L 179.640462 243.902949 
L 175.544341 240.214785 
L 171.715471 236.249874 
L 168.172507 232.027534 
L 164.932708 227.568333 
L 162.01186 222.893999 
L 159.424191 218.027302 
L 157.18231 212.991954 
L 155.297138 207.812487 
L 153.777859 202.514133 
L 152.631876 197.122706 
L 151.864771 191.664473 
L 151.480283 186.166025 
L 151.480283 180.65415 
L 151.864771 175.155702 
L 152.631876 169.697469 
L 153.777859 164.306042 
L 155.297138 159.007688 
L 157.18231 153.828221 
L 159.424191 148.792873 
L 162.01186 143.926176 
L 164.932708 139.251842 
L 168.172507 134.792641 
L 171.715471 130.570301 
L 175.544341 126.60539 
L 179.640462 122.917226 
L 183.983879 119.523777 
L 188.55343 116.441576 
L 193.326853 113.685639 
L 198.280893 111.269392 
L 203.391414 109.204607 
L 208.633518 107.501345 
L 213.981667 106.167901 
L 219.409803 105.210774 
L 224.891483 104.634627 
L 230.4 104.442265 
L 230.4 104.442265 
" style="fill:none;stroke:#ffffff;stroke-linecap:round;"/>
     </g>
     <g id="text_11">
      <!-- 0.6 -->
      <defs>
       <path d="M 49.75 54.046875 
L 41.015625 53.375 
Q 39.84375 58.546875 37.703125 60.890625 
Q 34.125 64.65625 28.90625 64.65625 
Q 24.703125 64.65625 21.53125 62.3125 
Q 17.390625 59.28125 14.984375 53.46875 
Q 12.59375 47.65625 12.5 36.921875 
Q 15.671875 41.75 20.265625 44.09375 
Q 24.859375 46.4375 29.890625 46.4375 
Q 38.671875 46.4375 44.84375 39.96875 
Q 51.03125 33.5 51.03125 23.25 
Q 51.03125 16.5 48.125 10.71875 
Q 45.21875 4.9375 40.140625 1.859375 
Q 35.0625 -1.21875 28.609375 -1.21875 
Q 17.625 -1.21875 10.6875 6.859375 
Q 3.765625 14.9375 3.765625 33.5 
Q 3.765625 54.25 11.421875 63.671875 
Q 18.109375 71.875 29.4375 71.875 
Q 37.890625 71.875 43.28125 67.140625 
Q 48.6875 62.40625 49.75 54.046875 
z
M 13.875 23.1875 
Q 13.875 18.65625 15.796875 14.5 
Q 17.71875 10.359375 21.1875 8.171875 
Q 24.65625 6 28.46875 6 
Q 34.03125 6 38.03125 10.484375 
Q 42.046875 14.984375 42.046875 22.703125 
Q 42.046875 30.125 38.078125 34.390625 
Q 34.125 38.671875 28.125 38.671875 
Q 22.171875 38.671875 18.015625 34.390625 
Q 13.875 30.125 13.875 23.1875 
z
" id="ArialMT-36"/>
      </defs>
      <g style="fill:#808080;" transform="translate(230.4 103.051015)scale(0.07 -0.07)">
       <use xlink:href="#ArialMT-30"/>
       <use x="55.615234" xlink:href="#ArialMT-2e"/>
       <use x="83.398438" xlink:href="#ArialMT-36"/>
      </g>
     </g>
    </g>
    <g id="ytick_4">
     <g id="line2d_12">
      <path clip-path="url(#paa83908064)" d="M 230.4 78.119658 
L 234.074583 78.183798 
L 237.744689 78.37614 
L 241.405847 78.696449 
L 245.053596 79.144337 
L 248.683491 79.719256 
L 252.291111 80.420506 
L 255.87206 81.247233 
L 259.421976 82.19843 
L 262.936532 83.272938 
L 266.411448 84.469447 
L 269.842489 85.786501 
L 273.225476 87.222493 
L 276.556287 88.775676 
L 279.830863 90.444156 
L 283.045215 92.2259 
L 286.195427 94.118739 
L 289.277661 96.120365 
L 292.288162 98.22834 
L 295.223261 100.440096 
L 298.079384 102.752939 
L 300.853049 105.164049 
L 303.540879 107.670491 
L 306.139597 110.269209 
L 308.646038 112.957038 
L 311.057149 115.730704 
L 313.369991 118.586826 
L 315.581747 121.521926 
L 317.689723 124.532426 
L 319.691349 127.61466 
L 321.584187 130.764872 
L 323.365932 133.979225 
L 325.034412 137.253801 
L 326.587594 140.584611 
L 328.023587 143.967598 
L 329.34064 147.39864 
L 330.53715 150.873555 
L 331.611657 154.388112 
L 332.562854 157.938027 
L 333.389581 161.518976 
L 334.090832 165.126596 
L 334.665751 168.756492 
L 335.113638 172.404241 
L 335.433948 176.065398 
L 335.62629 179.735504 
L 335.69043 183.410087 
L 335.62629 187.084671 
L 335.433948 190.754777 
L 335.113638 194.415934 
L 334.665751 198.063683 
L 334.090832 201.693579 
L 333.389581 205.301199 
L 332.562854 208.882148 
L 331.611657 212.432063 
L 330.53715 215.94662 
L 329.34064 219.421535 
L 328.023587 222.852577 
L 326.587594 226.235564 
L 325.034412 229.566374 
L 323.365932 232.84095 
L 321.584187 236.055302 
L 319.691349 239.205515 
L 317.689723 242.287749 
L 315.581747 245.298249 
L 313.369991 248.233349 
L 311.057149 251.089471 
L 308.646038 253.863137 
L 306.139597 256.550966 
L 303.540879 259.149684 
L 300.853049 261.656126 
L 298.079384 264.067236 
L 295.223261 266.380079 
L 292.288162 268.591835 
L 289.277661 270.69981 
L 286.195427 272.701436 
L 283.045215 274.594275 
L 279.830863 276.376019 
L 276.556287 278.044499 
L 273.225476 279.597682 
L 269.842489 281.033674 
L 266.411448 282.350728 
L 262.936532 283.547237 
L 259.421976 284.621745 
L 255.87206 285.572942 
L 252.291111 286.399669 
L 248.683491 287.100919 
L 245.053596 287.675838 
L 241.405847 288.123726 
L 237.744689 288.444035 
L 234.074583 288.636377 
L 230.4 288.700517 
L 226.725417 288.636377 
L 223.055311 288.444035 
L 219.394153 288.123726 
L 215.746404 287.675838 
L 212.116509 287.100919 
L 208.508889 286.399669 
L 204.92794 285.572942 
L 201.378024 284.621745 
L 197.863468 283.547237 
L 194.388552 282.350728 
L 190.957511 281.033674 
L 187.574524 279.597682 
L 184.243713 278.044499 
L 180.969137 276.376019 
L 177.754785 274.594275 
L 174.604573 272.701436 
L 171.522339 270.69981 
L 168.511838 268.591835 
L 165.576739 266.380079 
L 162.720616 264.067236 
L 159.946951 261.656126 
L 157.259121 259.149684 
L 154.660403 256.550966 
L 152.153962 253.863137 
L 149.742851 251.089471 
L 147.430009 248.233349 
L 145.218253 245.298249 
L 143.110277 242.287749 
L 141.108651 239.205515 
L 139.215813 236.055302 
L 137.434068 232.84095 
L 135.765588 229.566374 
L 134.212406 226.235564 
L 132.776413 222.852577 
L 131.45936 219.421535 
L 130.26285 215.94662 
L 129.188343 212.432063 
L 128.237146 208.882148 
L 127.410419 205.301199 
L 126.709168 201.693579 
L 126.134249 198.063683 
L 125.686362 194.415934 
L 125.366052 190.754777 
L 125.17371 187.084671 
L 125.10957 183.410087 
L 125.17371 179.735504 
L 125.366052 176.065398 
L 125.686362 172.404241 
L 126.134249 168.756492 
L 126.709168 165.126596 
L 127.410419 161.518976 
L 128.237146 157.938027 
L 129.188343 154.388112 
L 130.26285 150.873555 
L 131.45936 147.39864 
L 132.776413 143.967598 
L 134.212406 140.584611 
L 135.765588 137.253801 
L 137.434068 133.979225 
L 139.215813 130.764872 
L 141.108651 127.61466 
L 143.110277 124.532426 
L 145.218253 121.521926 
L 147.430009 118.586826 
L 149.742851 115.730704 
L 152.153962 112.957038 
L 154.660403 110.269209 
L 157.259121 107.670491 
L 159.946951 105.164049 
L 162.720616 102.752939 
L 165.576739 100.440096 
L 168.511838 98.22834 
L 171.522339 96.120365 
L 174.604573 94.118739 
L 177.754785 92.2259 
L 180.969137 90.444156 
L 184.243713 88.775676 
L 187.574524 87.222493 
L 190.957511 85.786501 
L 194.388552 84.469447 
L 197.863468 83.272938 
L 201.378024 82.19843 
L 204.92794 81.247233 
L 208.508889 80.420506 
L 212.116509 79.719256 
L 215.746404 79.144337 
L 219.394153 78.696449 
L 223.055311 78.37614 
L 226.725417 78.183798 
L 230.4 78.119658 
L 230.4 78.119658 
" style="fill:none;stroke:#ffffff;stroke-linecap:round;"/>
     </g>
     <g id="text_12">
      <!-- 0.8 -->
      <defs>
       <path d="M 17.671875 38.8125 
Q 12.203125 40.828125 9.5625 44.53125 
Q 6.9375 48.25 6.9375 53.421875 
Q 6.9375 61.234375 12.546875 66.546875 
Q 18.171875 71.875 27.484375 71.875 
Q 36.859375 71.875 42.578125 66.421875 
Q 48.296875 60.984375 48.296875 53.171875 
Q 48.296875 48.1875 45.671875 44.5 
Q 43.0625 40.828125 37.75 38.8125 
Q 44.34375 36.671875 47.78125 31.875 
Q 51.21875 27.09375 51.21875 20.453125 
Q 51.21875 11.28125 44.71875 5.03125 
Q 38.234375 -1.21875 27.640625 -1.21875 
Q 17.046875 -1.21875 10.546875 5.046875 
Q 4.046875 11.328125 4.046875 20.703125 
Q 4.046875 27.6875 7.59375 32.390625 
Q 11.140625 37.109375 17.671875 38.8125 
z
M 15.921875 53.71875 
Q 15.921875 48.640625 19.1875 45.40625 
Q 22.46875 42.1875 27.6875 42.1875 
Q 32.765625 42.1875 36.015625 45.375 
Q 39.265625 48.578125 39.265625 53.21875 
Q 39.265625 58.0625 35.90625 61.359375 
Q 32.5625 64.65625 27.59375 64.65625 
Q 22.5625 64.65625 19.234375 61.421875 
Q 15.921875 58.203125 15.921875 53.71875 
z
M 13.09375 20.65625 
Q 13.09375 16.890625 14.875 13.375 
Q 16.65625 9.859375 20.171875 7.921875 
Q 23.6875 6 27.734375 6 
Q 34.03125 6 38.125 10.046875 
Q 42.234375 14.109375 42.234375 20.359375 
Q 42.234375 26.703125 38.015625 30.859375 
Q 33.796875 35.015625 27.4375 35.015625 
Q 21.234375 35.015625 17.15625 30.90625 
Q 13.09375 26.8125 13.09375 20.65625 
z
" id="ArialMT-38"/>
      </defs>
      <g style="fill:#808080;" transform="translate(230.4 76.728408)scale(0.07 -0.07)">
       <use xlink:href="#ArialMT-30"/>
       <use x="55.615234" xlink:href="#ArialMT-2e"/>
       <use x="83.398438" xlink:href="#ArialMT-38"/>
      </g>
     </g>
    </g>
   </g>
   <g id="patch_3">
    <path clip-path="url(#paa83908064)" d="M 230.4 131.855381 
L 288.591884 125.218203 
L 266.222249 183.410087 
L 238.293861 191.303949 
L 230.4 252.201402 
L 216.623135 197.186953 
L 205.797763 183.410087 
L 174.707561 127.717649 
z
" style="fill:#808080;opacity:0.5;stroke:#808080;stroke-linejoin:miter;stroke-width:0.3;"/>
   </g>
   <g id="patch_4">
    <path clip-path="url(#paa83908064)" d="M 230.4 128.264225 
L 292.380938 121.42915 
L 256.196155 183.410087 
L 239.706447 192.716535 
L 230.4 258.824358 
L 217.27791 196.532178 
L 206.446427 183.410087 
L 174.561317 127.571405 
z
" style="fill:#92c6ff;opacity:0.5;stroke:#92c6ff;stroke-linejoin:miter;stroke-width:0.3;"/>
   </g>
   <g id="line2d_13">
    <path clip-path="url(#paa83908064)" d="M 230.4 131.855381 
L 288.591884 125.218203 
L 266.222249 183.410087 
L 238.293861 191.303949 
L 230.4 252.201402 
L 216.623135 197.186953 
L 205.797763 183.410087 
L 174.707561 127.717649 
L 230.4 131.855381 
" style="fill:none;stroke:#808080;stroke-linecap:round;"/>
   </g>
   <g id="line2d_14">
    <path clip-path="url(#paa83908064)" d="M 230.4 128.264225 
L 292.380938 121.42915 
L 256.196155 183.410087 
L 239.706447 192.716535 
L 230.4 258.824358 
L 217.27791 196.532178 
L 206.446427 183.410087 
L 174.561317 127.571405 
L 230.4 128.264225 
" style="fill:none;stroke:#92c6ff;stroke-linecap:round;"/>
   </g>
   <g id="patch_5">
    <path d="M 230.4 51.79705 
C 213.116734 51.79705 196.001527 55.201476 180.033871 61.815496 
C 164.066216 68.429515 149.556643 78.124502 137.335529 90.345616 
C 125.114414 102.566731 115.419428 117.076303 108.805408 133.043959 
C 102.191389 149.011614 98.786963 166.126822 98.786963 183.410088 
C 98.786963 200.693353 102.191389 217.808561 108.805408 233.776216 
C 115.419428 249.743872 125.114414 264.253444 137.335529 276.474559 
C 149.556643 288.695673 164.066216 298.39066 180.033871 305.004679 
C 196.001527 311.618699 213.116734 315.023125 230.4 315.023125 
C 247.683266 315.023125 264.798473 311.618699 280.766129 305.004679 
C 296.733784 298.39066 311.243357 288.695673 323.464471 276.474559 
C 335.685586 264.253444 345.380572 249.743872 351.994592 233.776216 
C 358.608611 217.808561 362.013037 200.693353 362.013037 183.410087 
C 362.013037 166.126822 358.608611 149.011614 351.994592 133.043959 
C 345.380572 117.076303 335.685586 102.566731 323.464471 90.345616 
C 311.243357 78.124502 296.733784 68.429515 280.766129 61.815496 
C 264.798473 55.201476 247.683266 51.79705 230.4 51.79705 
" style="fill:none;"/>
   </g>
   <g id="text_13">
    <!-- 2018 -->
    <defs>
     <path d="M 50.59375 12.75 
L 50.59375 0 
L 2.484375 0 
Q 3.265625 7.234375 7.171875 13.703125 
Q 11.078125 20.171875 22.609375 30.859375 
Q 31.890625 39.5 33.984375 42.578125 
Q 36.8125 46.828125 36.8125 50.984375 
Q 36.8125 55.5625 34.34375 58.03125 
Q 31.890625 60.5 27.546875 60.5 
Q 23.25 60.5 20.703125 57.90625 
Q 18.171875 55.328125 17.78125 49.3125 
L 4.109375 50.6875 
Q 5.328125 62.015625 11.765625 66.9375 
Q 18.21875 71.875 27.875 71.875 
Q 38.484375 71.875 44.53125 66.15625 
Q 50.59375 60.453125 50.59375 51.953125 
Q 50.59375 47.125 48.859375 42.75 
Q 47.125 38.375 43.359375 33.59375 
Q 40.875 30.421875 34.375 24.453125 
Q 27.875 18.5 26.140625 16.546875 
Q 24.421875 14.59375 23.34375 12.75 
z
" id="Arial-BoldMT-32"/>
     <path d="M 27.4375 71.875 
Q 37.84375 71.875 43.703125 64.453125 
Q 50.6875 55.671875 50.6875 35.296875 
Q 50.6875 14.984375 43.65625 6.109375 
Q 37.84375 -1.21875 27.4375 -1.21875 
Q 17 -1.21875 10.59375 6.8125 
Q 4.203125 14.84375 4.203125 35.453125 
Q 4.203125 55.671875 11.234375 64.546875 
Q 17.046875 71.875 27.4375 71.875 
z
M 27.4375 60.5 
Q 24.953125 60.5 23 58.90625 
Q 21.046875 57.328125 19.96875 53.21875 
Q 18.5625 47.90625 18.5625 35.296875 
Q 18.5625 22.703125 19.828125 17.984375 
Q 21.09375 13.28125 23.015625 11.71875 
Q 24.953125 10.15625 27.4375 10.15625 
Q 29.9375 10.15625 31.890625 11.734375 
Q 33.84375 13.328125 34.90625 17.4375 
Q 36.328125 22.703125 36.328125 35.296875 
Q 36.328125 47.90625 35.0625 52.609375 
Q 33.796875 57.328125 31.859375 58.90625 
Q 29.9375 60.5 27.4375 60.5 
z
" id="Arial-BoldMT-30"/>
     <path d="M 39.359375 0 
L 25.640625 0 
L 25.640625 51.703125 
Q 18.109375 44.671875 7.90625 41.3125 
L 7.90625 53.765625 
Q 13.28125 55.515625 19.578125 60.421875 
Q 25.875 65.328125 28.21875 71.875 
L 39.359375 71.875 
z
" id="Arial-BoldMT-31"/>
     <path d="M 16.015625 38.625 
Q 10.6875 40.875 8.265625 44.796875 
Q 5.859375 48.734375 5.859375 53.421875 
Q 5.859375 61.421875 11.453125 66.640625 
Q 17.046875 71.875 27.34375 71.875 
Q 37.546875 71.875 43.1875 66.640625 
Q 48.828125 61.421875 48.828125 53.421875 
Q 48.828125 48.4375 46.234375 44.546875 
Q 43.65625 40.671875 38.96875 38.625 
Q 44.921875 36.234375 48.015625 31.640625 
Q 51.125 27.046875 51.125 21.046875 
Q 51.125 11.140625 44.796875 4.9375 
Q 38.484375 -1.265625 27.984375 -1.265625 
Q 18.21875 -1.265625 11.71875 3.859375 
Q 4.046875 9.90625 4.046875 20.453125 
Q 4.046875 26.265625 6.921875 31.125 
Q 9.8125 35.984375 16.015625 38.625 
z
M 18.84375 52.4375 
Q 18.84375 48.34375 21.15625 46.046875 
Q 23.484375 43.75 27.34375 43.75 
Q 31.25 43.75 33.59375 46.0625 
Q 35.9375 48.390625 35.9375 52.484375 
Q 35.9375 56.34375 33.609375 58.65625 
Q 31.296875 60.984375 27.484375 60.984375 
Q 23.53125 60.984375 21.1875 58.640625 
Q 18.84375 56.296875 18.84375 52.4375 
z
M 17.578125 21.78125 
Q 17.578125 16.109375 20.484375 12.9375 
Q 23.390625 9.765625 27.734375 9.765625 
Q 31.984375 9.765625 34.765625 12.8125 
Q 37.546875 15.875 37.546875 21.625 
Q 37.546875 26.65625 34.71875 29.703125 
Q 31.890625 32.765625 27.546875 32.765625 
Q 22.515625 32.765625 20.046875 29.296875 
Q 17.578125 25.828125 17.578125 21.78125 
z
" id="Arial-BoldMT-38"/>
    </defs>
    <g style="fill:#92c6ff;" transform="translate(214.829375 24.738964)scale(0.14 -0.14)">
     <use xlink:href="#Arial-BoldMT-32"/>
     <use x="55.615234" xlink:href="#Arial-BoldMT-30"/>
     <use x="111.230469" xlink:href="#Arial-BoldMT-31"/>
     <use x="166.845703" xlink:href="#Arial-BoldMT-38"/>
    </g>
   </g>
  </g>
 </g>
 <defs>
  <clipPath id="paa83908064">
   <path d="M 362.013037 183.410087 
C 362.013037 166.126822 358.608611 149.011614 351.994592 133.043959 
C 345.380572 117.076303 335.685586 102.566731 323.464471 90.345616 
C 311.243357 78.124502 296.733784 68.429515 280.766129 61.815496 
C 264.798473 55.201476 247.683266 51.79705 230.4 51.79705 
C 213.116734 51.79705 196.001527 55.201476 180.033871 61.815496 
C 164.066216 68.429515 149.556643 78.124502 137.335529 90.345616 
C 125.114414 102.566731 115.419428 117.076303 108.805408 133.043959 
C 102.191389 149.011614 98.786963 166.126822 98.786963 183.410087 
C 98.786963 200.693353 102.191389 217.808561 108.805408 233.776216 
C 115.419428 249.743872 125.114414 264.253444 137.335529 276.474559 
C 149.556643 288.695673 164.066216 298.39066 180.033871 305.004679 
C 196.001527 311.618699 213.116734 315.023125 230.4 315.023125 
C 247.683266 315.023125 264.798473 311.618699 280.766129 305.004679 
C 296.733784 298.39066 311.243357 288.695673 323.464471 276.474559 
C 335.685586 264.253444 345.380572 249.743872 351.994592 233.776216 
C 358.608611 217.808561 362.013037 200.693353 362.013037 183.410088 
M 230.4 183.410087 
C 230.4 183.410087 230.4 183.410087 230.4 183.410087 
C 230.4 183.410087 230.4 183.410087 230.4 183.410087 
C 230.4 183.410087 230.4 183.410087 230.4 183.410087 
C 230.4 183.410087 230.4 183.410087 230.4 183.410087 
C 230.4 183.410087 230.4 183.410087 230.4 183.410087 
C 230.4 183.410087 230.4 183.410087 230.4 183.410087 
C 230.4 183.410087 230.4 183.410087 230.4 183.410087 
C 230.4 183.410087 230.4 183.410087 230.4 183.410087 
C 230.4 183.410087 230.4 183.410087 230.4 183.410087 
C 230.4 183.410087 230.4 183.410087 230.4 183.410087 
C 230.4 183.410087 230.4 183.410087 230.4 183.410087 
C 230.4 183.410087 230.4 183.410087 230.4 183.410087 
C 230.4 183.410087 230.4 183.410087 230.4 183.410087 
C 230.4 183.410087 230.4 183.410087 230.4 183.410087 
C 230.4 183.410087 230.4 183.410087 230.4 183.410087 
C 230.4 183.410087 230.4 183.410087 230.4 183.410087 
M 362.013037 183.410087 
z
"/>
  </clipPath>
 </defs>
</svg>
