<?xml version="1.0" encoding="utf-8" standalone="no"?>
<!DOCTYPE svg PUBLIC "-//W3C//DTD SVG 1.1//EN"
  "http://www.w3.org/Graphics/SVG/1.1/DTD/svg11.dtd">
<!-- Created with matplotlib (http://matplotlib.org/) -->
<svg height="396pt" version="1.1" viewBox="0 0 576 396" width="576pt" xmlns="http://www.w3.org/2000/svg" xmlns:xlink="http://www.w3.org/1999/xlink">
 <defs>
  <style type="text/css">
*{stroke-linecap:butt;stroke-linejoin:round;}
  </style>
 </defs>
 <g id="figure_1">
  <g id="patch_1">
   <path d="M 0 396 
L 576 396 
L 576 0 
L 0 0 
z
" style="fill:#ffffff;"/>
  </g>
  <g id="axes_1">
   <g id="patch_2">
    <path d="M 288 362.804569 
C 328.731865 362.804569 367.800942 346.621627 396.60272 317.819849 
C 425.404498 289.018071 441.587439 249.948994 441.587439 209.217129 
C 441.587439 168.485264 425.404498 129.416187 396.60272 100.614409 
C 367.800942 71.812632 328.731865 55.62969 288 55.62969 
C 247.268135 55.62969 208.199058 71.812632 179.39728 100.614409 
C 150.595502 129.416187 134.412561 168.485264 134.412561 209.217129 
C 134.412561 249.948994 150.595502 289.018071 179.39728 317.819849 
C 208.199058 346.621627 247.268135 362.804569 288 362.804569 
z
" style="fill:#eaeaf2;"/>
   </g>
   <g id="matplotlib.axis_1">
    <g id="xtick_1">
     <g id="line2d_1">
      <path clip-path="url(#p2bbf9a8b89)" d="M 288 209.217129 
L 288 55.62969 
" style="fill:none;stroke:#ffffff;stroke-linecap:round;"/>
     </g>
     <g id="text_1">
      <!-- valence -->
      <defs>
       <path d="M 21 0 
L 1.265625 51.859375 
L 10.546875 51.859375 
L 21.6875 20.796875 
Q 23.484375 15.765625 25 10.359375 
Q 26.171875 14.453125 28.265625 20.21875 
L 39.796875 51.859375 
L 48.828125 51.859375 
L 29.203125 0 
z
" id="ArialMT-76"/>
       <path d="M 40.4375 6.390625 
Q 35.546875 2.25 31.03125 0.53125 
Q 26.515625 -1.171875 21.34375 -1.171875 
Q 12.796875 -1.171875 8.203125 3 
Q 3.609375 7.171875 3.609375 13.671875 
Q 3.609375 17.484375 5.34375 20.625 
Q 7.078125 23.78125 9.890625 25.6875 
Q 12.703125 27.59375 16.21875 28.5625 
Q 18.796875 29.25 24.03125 29.890625 
Q 34.671875 31.15625 39.703125 32.90625 
Q 39.75 34.71875 39.75 35.203125 
Q 39.75 40.578125 37.25 42.78125 
Q 33.890625 45.75 27.25 45.75 
Q 21.046875 45.75 18.09375 43.578125 
Q 15.140625 41.40625 13.71875 35.890625 
L 5.125 37.0625 
Q 6.296875 42.578125 8.984375 45.96875 
Q 11.671875 49.359375 16.75 51.1875 
Q 21.828125 53.03125 28.515625 53.03125 
Q 35.15625 53.03125 39.296875 51.46875 
Q 43.453125 49.90625 45.40625 47.53125 
Q 47.359375 45.171875 48.140625 41.546875 
Q 48.578125 39.3125 48.578125 33.453125 
L 48.578125 21.734375 
Q 48.578125 9.46875 49.140625 6.21875 
Q 49.703125 2.984375 51.375 0 
L 42.1875 0 
Q 40.828125 2.734375 40.4375 6.390625 
M 39.703125 26.03125 
Q 34.90625 24.078125 25.34375 22.703125 
Q 19.921875 21.921875 17.671875 20.9375 
Q 15.4375 19.96875 14.203125 18.09375 
Q 12.984375 16.21875 12.984375 13.921875 
Q 12.984375 10.40625 15.640625 8.0625 
Q 18.3125 5.71875 23.4375 5.71875 
Q 28.515625 5.71875 32.46875 7.9375 
Q 36.421875 10.15625 38.28125 14.015625 
Q 39.703125 17 39.703125 22.796875 
z
" id="ArialMT-61"/>
       <path d="M 6.390625 0 
L 6.390625 71.578125 
L 15.1875 71.578125 
L 15.1875 0 
z
" id="ArialMT-6c"/>
       <path d="M 42.09375 16.703125 
L 51.171875 15.578125 
Q 49.03125 7.625 43.21875 3.21875 
Q 37.40625 -1.171875 28.375 -1.171875 
Q 17 -1.171875 10.328125 5.828125 
Q 3.65625 12.84375 3.65625 25.484375 
Q 3.65625 38.578125 10.390625 45.796875 
Q 17.140625 53.03125 27.875 53.03125 
Q 38.28125 53.03125 44.875 45.953125 
Q 51.46875 38.875 51.46875 26.03125 
Q 51.46875 25.25 51.421875 23.6875 
L 12.75 23.6875 
Q 13.234375 15.140625 17.578125 10.59375 
Q 21.921875 6.0625 28.421875 6.0625 
Q 33.25 6.0625 36.671875 8.59375 
Q 40.09375 11.140625 42.09375 16.703125 
M 13.234375 30.90625 
L 42.1875 30.90625 
Q 41.609375 37.453125 38.875 40.71875 
Q 34.671875 45.796875 27.984375 45.796875 
Q 21.921875 45.796875 17.796875 41.75 
Q 13.671875 37.703125 13.234375 30.90625 
" id="ArialMT-65"/>
       <path d="M 6.59375 0 
L 6.59375 51.859375 
L 14.5 51.859375 
L 14.5 44.484375 
Q 20.21875 53.03125 31 53.03125 
Q 35.6875 53.03125 39.625 51.34375 
Q 43.5625 49.65625 45.515625 46.921875 
Q 47.46875 44.1875 48.25 40.4375 
Q 48.734375 37.984375 48.734375 31.890625 
L 48.734375 0 
L 39.9375 0 
L 39.9375 31.546875 
Q 39.9375 36.921875 38.90625 39.578125 
Q 37.890625 42.234375 35.28125 43.8125 
Q 32.671875 45.40625 29.15625 45.40625 
Q 23.53125 45.40625 19.453125 41.84375 
Q 15.375 38.28125 15.375 28.328125 
L 15.375 0 
z
" id="ArialMT-6e"/>
       <path d="M 40.4375 19 
L 49.078125 17.875 
Q 47.65625 8.9375 41.8125 3.875 
Q 35.984375 -1.171875 27.484375 -1.171875 
Q 16.84375 -1.171875 10.375 5.78125 
Q 3.90625 12.75 3.90625 25.734375 
Q 3.90625 34.125 6.6875 40.421875 
Q 9.46875 46.734375 15.15625 49.875 
Q 20.84375 53.03125 27.546875 53.03125 
Q 35.984375 53.03125 41.359375 48.75 
Q 46.734375 44.484375 48.25 36.625 
L 39.703125 35.296875 
Q 38.484375 40.53125 35.375 43.15625 
Q 32.28125 45.796875 27.875 45.796875 
Q 21.234375 45.796875 17.078125 41.03125 
Q 12.9375 36.28125 12.9375 25.984375 
Q 12.9375 15.53125 16.9375 10.796875 
Q 20.953125 6.0625 27.390625 6.0625 
Q 32.5625 6.0625 36.03125 9.234375 
Q 39.5 12.40625 40.4375 19 
" id="ArialMT-63"/>
      </defs>
      <g style="fill:#808080;" transform="translate(274.21375 42.339071)scale(0.08 -0.08)">
       <use xlink:href="#ArialMT-76"/>
       <use x="50" xlink:href="#ArialMT-61"/>
       <use x="105.615234" xlink:href="#ArialMT-6c"/>
       <use x="127.832031" xlink:href="#ArialMT-65"/>
       <use x="183.447266" xlink:href="#ArialMT-6e"/>
       <use x="239.0625" xlink:href="#ArialMT-63"/>
       <use x="289.0625" xlink:href="#ArialMT-65"/>
      </g>
     </g>
    </g>
    <g id="xtick_2">
     <g id="line2d_2">
      <path clip-path="url(#p2bbf9a8b89)" d="M 288 209.217129 
L 396.60272 100.614409 
" style="fill:none;stroke:#ffffff;stroke-linecap:round;"/>
     </g>
     <g id="text_2">
      <!-- energy -->
      <defs>
       <path d="M 6.5 0 
L 6.5 51.859375 
L 14.40625 51.859375 
L 14.40625 44 
Q 17.4375 49.515625 20 51.265625 
Q 22.5625 53.03125 25.640625 53.03125 
Q 30.078125 53.03125 34.671875 50.203125 
L 31.640625 42.046875 
Q 28.421875 43.953125 25.203125 43.953125 
Q 22.3125 43.953125 20.015625 42.21875 
Q 17.71875 40.484375 16.75 37.40625 
Q 15.28125 32.71875 15.28125 27.15625 
L 15.28125 0 
z
" id="ArialMT-72"/>
       <path d="M 4.984375 -4.296875 
L 13.53125 -5.5625 
Q 14.0625 -9.515625 16.5 -11.328125 
Q 19.78125 -13.765625 25.4375 -13.765625 
Q 31.546875 -13.765625 34.859375 -11.328125 
Q 38.1875 -8.890625 39.359375 -4.5 
Q 40.046875 -1.8125 39.984375 6.78125 
Q 34.234375 0 25.640625 0 
Q 14.9375 0 9.078125 7.71875 
Q 3.21875 15.4375 3.21875 26.21875 
Q 3.21875 33.640625 5.90625 39.90625 
Q 8.59375 46.1875 13.6875 49.609375 
Q 18.796875 53.03125 25.6875 53.03125 
Q 34.859375 53.03125 40.828125 45.609375 
L 40.828125 51.859375 
L 48.921875 51.859375 
L 48.921875 7.03125 
Q 48.921875 -5.078125 46.453125 -10.125 
Q 44 -15.1875 38.640625 -18.109375 
Q 33.296875 -21.046875 25.484375 -21.046875 
Q 16.21875 -21.046875 10.5 -16.875 
Q 4.78125 -12.703125 4.984375 -4.296875 
M 12.25 26.859375 
Q 12.25 16.65625 16.296875 11.96875 
Q 20.359375 7.28125 26.46875 7.28125 
Q 32.515625 7.28125 36.609375 11.9375 
Q 40.71875 16.609375 40.71875 26.5625 
Q 40.71875 36.078125 36.5 40.90625 
Q 32.28125 45.75 26.3125 45.75 
Q 20.453125 45.75 16.34375 40.984375 
Q 12.25 36.234375 12.25 26.859375 
" id="ArialMT-67"/>
       <path d="M 6.203125 -19.96875 
L 5.21875 -11.71875 
Q 8.109375 -12.5 10.25 -12.5 
Q 13.1875 -12.5 14.9375 -11.515625 
Q 16.703125 -10.546875 17.828125 -8.796875 
Q 18.65625 -7.46875 20.515625 -2.25 
Q 20.75 -1.515625 21.296875 -0.09375 
L 1.609375 51.859375 
L 11.078125 51.859375 
L 21.875 21.828125 
Q 23.96875 16.109375 25.640625 9.8125 
Q 27.15625 15.875 29.25 21.625 
L 40.328125 51.859375 
L 49.125 51.859375 
L 29.390625 -0.875 
Q 26.21875 -9.421875 24.46875 -12.640625 
Q 22.125 -17 19.09375 -19.015625 
Q 16.0625 -21.046875 11.859375 -21.046875 
Q 9.328125 -21.046875 6.203125 -19.96875 
" id="ArialMT-79"/>
      </defs>
      <g style="fill:#808080;" transform="translate(395.233617 91.728512)scale(0.08 -0.08)">
       <use xlink:href="#ArialMT-65"/>
       <use x="55.615234" xlink:href="#ArialMT-6e"/>
       <use x="111.230469" xlink:href="#ArialMT-65"/>
       <use x="166.845703" xlink:href="#ArialMT-72"/>
       <use x="200.146484" xlink:href="#ArialMT-67"/>
       <use x="255.761719" xlink:href="#ArialMT-79"/>
      </g>
     </g>
    </g>
    <g id="xtick_3">
     <g id="line2d_3">
      <path clip-path="url(#p2bbf9a8b89)" d="M 288 209.217129 
L 441.587439 209.217129 
" style="fill:none;stroke:#ffffff;stroke-linecap:round;"/>
     </g>
     <g id="text_3">
      <!-- acousticness -->
      <defs>
       <path d="M 3.328125 25.921875 
Q 3.328125 40.328125 11.328125 47.265625 
Q 18.015625 53.03125 27.640625 53.03125 
Q 38.328125 53.03125 45.109375 46.015625 
Q 51.90625 39.015625 51.90625 26.65625 
Q 51.90625 16.65625 48.90625 10.90625 
Q 45.90625 5.171875 40.15625 2 
Q 34.421875 -1.171875 27.640625 -1.171875 
Q 16.75 -1.171875 10.03125 5.8125 
Q 3.328125 12.796875 3.328125 25.921875 
M 12.359375 25.921875 
Q 12.359375 15.96875 16.703125 11.015625 
Q 21.046875 6.0625 27.640625 6.0625 
Q 34.1875 6.0625 38.53125 11.03125 
Q 42.875 16.015625 42.875 26.21875 
Q 42.875 35.84375 38.5 40.796875 
Q 34.125 45.75 27.640625 45.75 
Q 21.046875 45.75 16.703125 40.8125 
Q 12.359375 35.890625 12.359375 25.921875 
" id="ArialMT-6f"/>
       <path d="M 40.578125 0 
L 40.578125 7.625 
Q 34.515625 -1.171875 24.125 -1.171875 
Q 19.53125 -1.171875 15.546875 0.578125 
Q 11.578125 2.34375 9.640625 5 
Q 7.71875 7.671875 6.9375 11.53125 
Q 6.390625 14.109375 6.390625 19.734375 
L 6.390625 51.859375 
L 15.1875 51.859375 
L 15.1875 23.09375 
Q 15.1875 16.21875 15.71875 13.8125 
Q 16.546875 10.359375 19.234375 8.375 
Q 21.921875 6.390625 25.875 6.390625 
Q 29.828125 6.390625 33.296875 8.421875 
Q 36.765625 10.453125 38.203125 13.9375 
Q 39.65625 17.4375 39.65625 24.078125 
L 39.65625 51.859375 
L 48.4375 51.859375 
L 48.4375 0 
z
" id="ArialMT-75"/>
       <path d="M 3.078125 15.484375 
L 11.765625 16.84375 
Q 12.5 11.625 15.84375 8.84375 
Q 19.1875 6.0625 25.203125 6.0625 
Q 31.25 6.0625 34.171875 8.515625 
Q 37.109375 10.984375 37.109375 14.3125 
Q 37.109375 17.28125 34.515625 19 
Q 32.71875 20.171875 25.53125 21.96875 
Q 15.875 24.421875 12.140625 26.203125 
Q 8.40625 27.984375 6.46875 31.125 
Q 4.546875 34.28125 4.546875 38.09375 
Q 4.546875 41.546875 6.125 44.5 
Q 7.71875 47.46875 10.453125 49.421875 
Q 12.5 50.921875 16.03125 51.96875 
Q 19.578125 53.03125 23.640625 53.03125 
Q 29.734375 53.03125 34.34375 51.265625 
Q 38.96875 49.515625 41.15625 46.5 
Q 43.359375 43.5 44.1875 38.484375 
L 35.59375 37.3125 
Q 35.015625 41.3125 32.203125 43.546875 
Q 29.390625 45.796875 24.265625 45.796875 
Q 18.21875 45.796875 15.625 43.796875 
Q 13.03125 41.796875 13.03125 39.109375 
Q 13.03125 37.40625 14.109375 36.03125 
Q 15.1875 34.625 17.484375 33.6875 
Q 18.796875 33.203125 25.25 31.453125 
Q 34.578125 28.953125 38.25 27.359375 
Q 41.9375 25.78125 44.03125 22.75 
Q 46.140625 19.734375 46.140625 15.234375 
Q 46.140625 10.84375 43.578125 6.953125 
Q 41.015625 3.078125 36.171875 0.953125 
Q 31.34375 -1.171875 25.25 -1.171875 
Q 15.140625 -1.171875 9.84375 3.03125 
Q 4.546875 7.234375 3.078125 15.484375 
" id="ArialMT-73"/>
       <path d="M 25.78125 7.859375 
L 27.046875 0.09375 
Q 23.34375 -0.6875 20.40625 -0.6875 
Q 15.625 -0.6875 12.984375 0.828125 
Q 10.359375 2.34375 9.28125 4.8125 
Q 8.203125 7.28125 8.203125 15.1875 
L 8.203125 45.015625 
L 1.765625 45.015625 
L 1.765625 51.859375 
L 8.203125 51.859375 
L 8.203125 64.703125 
L 16.9375 69.96875 
L 16.9375 51.859375 
L 25.78125 51.859375 
L 25.78125 45.015625 
L 16.9375 45.015625 
L 16.9375 14.703125 
Q 16.9375 10.9375 17.40625 9.859375 
Q 17.875 8.796875 18.921875 8.15625 
Q 19.96875 7.515625 21.921875 7.515625 
Q 23.390625 7.515625 25.78125 7.859375 
" id="ArialMT-74"/>
       <path d="M 6.640625 61.46875 
L 6.640625 71.578125 
L 15.4375 71.578125 
L 15.4375 61.46875 
z
M 6.640625 0 
L 6.640625 51.859375 
L 15.4375 51.859375 
L 15.4375 0 
z
" id="ArialMT-69"/>
      </defs>
      <g style="fill:#808080;" transform="translate(433.824308 211.285254)scale(0.08 -0.08)">
       <use xlink:href="#ArialMT-61"/>
       <use x="55.615234" xlink:href="#ArialMT-63"/>
       <use x="105.615234" xlink:href="#ArialMT-6f"/>
       <use x="161.230469" xlink:href="#ArialMT-75"/>
       <use x="216.845703" xlink:href="#ArialMT-73"/>
       <use x="266.845703" xlink:href="#ArialMT-74"/>
       <use x="294.628906" xlink:href="#ArialMT-69"/>
       <use x="316.845703" xlink:href="#ArialMT-63"/>
       <use x="366.845703" xlink:href="#ArialMT-6e"/>
       <use x="422.460938" xlink:href="#ArialMT-65"/>
       <use x="478.076172" xlink:href="#ArialMT-73"/>
       <use x="528.076172" xlink:href="#ArialMT-73"/>
      </g>
     </g>
    </g>
    <g id="xtick_4">
     <g id="line2d_4">
      <path clip-path="url(#p2bbf9a8b89)" d="M 288 209.217129 
L 396.60272 317.819849 
" style="fill:none;stroke:#ffffff;stroke-linecap:round;"/>
     </g>
     <g id="text_4">
      <!-- speechiness -->
      <defs>
       <path d="M 6.59375 -19.875 
L 6.59375 51.859375 
L 14.59375 51.859375 
L 14.59375 45.125 
Q 17.4375 49.078125 21 51.046875 
Q 24.5625 53.03125 29.640625 53.03125 
Q 36.28125 53.03125 41.359375 49.609375 
Q 46.4375 46.1875 49.015625 39.953125 
Q 51.609375 33.734375 51.609375 26.3125 
Q 51.609375 18.359375 48.75 11.984375 
Q 45.90625 5.609375 40.453125 2.21875 
Q 35.015625 -1.171875 29 -1.171875 
Q 24.609375 -1.171875 21.109375 0.6875 
Q 17.625 2.546875 15.375 5.375 
L 15.375 -19.875 
z
M 14.546875 25.640625 
Q 14.546875 15.625 18.59375 10.84375 
Q 22.65625 6.0625 28.421875 6.0625 
Q 34.28125 6.0625 38.453125 11.015625 
Q 42.625 15.96875 42.625 26.375 
Q 42.625 36.28125 38.546875 41.203125 
Q 34.46875 46.140625 28.8125 46.140625 
Q 23.1875 46.140625 18.859375 40.890625 
Q 14.546875 35.640625 14.546875 25.640625 
" id="ArialMT-70"/>
       <path d="M 6.59375 0 
L 6.59375 71.578125 
L 15.375 71.578125 
L 15.375 45.90625 
Q 21.53125 53.03125 30.90625 53.03125 
Q 36.671875 53.03125 40.921875 50.75 
Q 45.171875 48.484375 47 44.484375 
Q 48.828125 40.484375 48.828125 32.859375 
L 48.828125 0 
L 40.046875 0 
L 40.046875 32.859375 
Q 40.046875 39.453125 37.1875 42.453125 
Q 34.328125 45.453125 29.109375 45.453125 
Q 25.203125 45.453125 21.75 43.421875 
Q 18.3125 41.40625 16.84375 37.9375 
Q 15.375 34.46875 15.375 28.375 
L 15.375 0 
z
" id="ArialMT-68"/>
      </defs>
      <g style="fill:#808080;" transform="translate(385.227992 330.748246)scale(0.08 -0.08)">
       <use xlink:href="#ArialMT-73"/>
       <use x="50" xlink:href="#ArialMT-70"/>
       <use x="105.615234" xlink:href="#ArialMT-65"/>
       <use x="161.230469" xlink:href="#ArialMT-65"/>
       <use x="216.845703" xlink:href="#ArialMT-63"/>
       <use x="266.845703" xlink:href="#ArialMT-68"/>
       <use x="322.460938" xlink:href="#ArialMT-69"/>
       <use x="344.677734" xlink:href="#ArialMT-6e"/>
       <use x="400.292969" xlink:href="#ArialMT-65"/>
       <use x="455.908203" xlink:href="#ArialMT-73"/>
       <use x="505.908203" xlink:href="#ArialMT-73"/>
      </g>
     </g>
    </g>
    <g id="xtick_5">
     <g id="line2d_5">
      <path clip-path="url(#p2bbf9a8b89)" d="M 288 209.217129 
L 288 362.804569 
" style="fill:none;stroke:#ffffff;stroke-linecap:round;"/>
     </g>
     <g id="text_5">
      <!-- danceability -->
      <defs>
       <path d="M 40.234375 0 
L 40.234375 6.546875 
Q 35.296875 -1.171875 25.734375 -1.171875 
Q 19.53125 -1.171875 14.328125 2.25 
Q 9.125 5.671875 6.265625 11.796875 
Q 3.421875 17.921875 3.421875 25.875 
Q 3.421875 33.640625 6 39.96875 
Q 8.59375 46.296875 13.765625 49.65625 
Q 18.953125 53.03125 25.34375 53.03125 
Q 30.03125 53.03125 33.6875 51.046875 
Q 37.359375 49.078125 39.65625 45.90625 
L 39.65625 71.578125 
L 48.390625 71.578125 
L 48.390625 0 
z
M 12.453125 25.875 
Q 12.453125 15.921875 16.640625 10.984375 
Q 20.84375 6.0625 26.5625 6.0625 
Q 32.328125 6.0625 36.34375 10.765625 
Q 40.375 15.484375 40.375 25.140625 
Q 40.375 35.796875 36.265625 40.765625 
Q 32.171875 45.75 26.171875 45.75 
Q 20.3125 45.75 16.375 40.96875 
Q 12.453125 36.1875 12.453125 25.875 
" id="ArialMT-64"/>
       <path d="M 14.703125 0 
L 6.546875 0 
L 6.546875 71.578125 
L 15.328125 71.578125 
L 15.328125 46.046875 
Q 20.90625 53.03125 29.546875 53.03125 
Q 34.328125 53.03125 38.59375 51.09375 
Q 42.875 49.171875 45.625 45.671875 
Q 48.390625 42.1875 49.953125 37.25 
Q 51.515625 32.328125 51.515625 26.703125 
Q 51.515625 13.375 44.921875 6.09375 
Q 38.328125 -1.171875 29.109375 -1.171875 
Q 19.921875 -1.171875 14.703125 6.5 
z
M 14.59375 26.3125 
Q 14.59375 17 17.140625 12.84375 
Q 21.296875 6.0625 28.375 6.0625 
Q 34.125 6.0625 38.328125 11.0625 
Q 42.53125 16.0625 42.53125 25.984375 
Q 42.53125 36.140625 38.5 40.96875 
Q 34.46875 45.796875 28.765625 45.796875 
Q 23 45.796875 18.796875 40.796875 
Q 14.59375 35.796875 14.59375 26.3125 
" id="ArialMT-62"/>
      </defs>
      <g style="fill:#808080;" transform="translate(266.87625 380.184563)scale(0.08 -0.08)">
       <use xlink:href="#ArialMT-64"/>
       <use x="55.615234" xlink:href="#ArialMT-61"/>
       <use x="111.230469" xlink:href="#ArialMT-6e"/>
       <use x="166.845703" xlink:href="#ArialMT-63"/>
       <use x="216.845703" xlink:href="#ArialMT-65"/>
       <use x="272.460938" xlink:href="#ArialMT-61"/>
       <use x="328.076172" xlink:href="#ArialMT-62"/>
       <use x="383.691406" xlink:href="#ArialMT-69"/>
       <use x="405.908203" xlink:href="#ArialMT-6c"/>
       <use x="428.125" xlink:href="#ArialMT-69"/>
       <use x="450.341797" xlink:href="#ArialMT-74"/>
       <use x="478.125" xlink:href="#ArialMT-79"/>
      </g>
     </g>
    </g>
    <g id="xtick_6">
     <g id="line2d_6">
      <path clip-path="url(#p2bbf9a8b89)" d="M 288 209.217129 
L 179.39728 317.819849 
" style="fill:none;stroke:#ffffff;stroke-linecap:round;"/>
     </g>
     <g id="text_6">
      <!-- instrumentalness -->
      <defs>
       <path d="M 6.59375 0 
L 6.59375 51.859375 
L 14.453125 51.859375 
L 14.453125 44.578125 
Q 16.890625 48.390625 20.9375 50.703125 
Q 25 53.03125 30.171875 53.03125 
Q 35.9375 53.03125 39.625 50.640625 
Q 43.3125 48.25 44.828125 43.953125 
Q 50.984375 53.03125 60.84375 53.03125 
Q 68.5625 53.03125 72.703125 48.75 
Q 76.859375 44.484375 76.859375 35.59375 
L 76.859375 0 
L 68.109375 0 
L 68.109375 32.671875 
Q 68.109375 37.9375 67.25 40.25 
Q 66.40625 42.578125 64.15625 43.984375 
Q 61.921875 45.40625 58.890625 45.40625 
Q 53.421875 45.40625 49.796875 41.765625 
Q 46.1875 38.140625 46.1875 30.125 
L 46.1875 0 
L 37.40625 0 
L 37.40625 33.6875 
Q 37.40625 39.546875 35.25 42.46875 
Q 33.109375 45.40625 28.21875 45.40625 
Q 24.515625 45.40625 21.359375 43.453125 
Q 18.21875 41.5 16.796875 37.734375 
Q 15.375 33.984375 15.375 26.90625 
L 15.375 0 
z
" id="ArialMT-6d"/>
      </defs>
      <g style="fill:#808080;" transform="translate(138.302633 330.748246)scale(0.08 -0.08)">
       <use xlink:href="#ArialMT-69"/>
       <use x="22.216797" xlink:href="#ArialMT-6e"/>
       <use x="77.832031" xlink:href="#ArialMT-73"/>
       <use x="127.832031" xlink:href="#ArialMT-74"/>
       <use x="155.615234" xlink:href="#ArialMT-72"/>
       <use x="188.916016" xlink:href="#ArialMT-75"/>
       <use x="244.53125" xlink:href="#ArialMT-6d"/>
       <use x="327.832031" xlink:href="#ArialMT-65"/>
       <use x="383.447266" xlink:href="#ArialMT-6e"/>
       <use x="439.0625" xlink:href="#ArialMT-74"/>
       <use x="466.845703" xlink:href="#ArialMT-61"/>
       <use x="522.460938" xlink:href="#ArialMT-6c"/>
       <use x="544.677734" xlink:href="#ArialMT-6e"/>
       <use x="600.292969" xlink:href="#ArialMT-65"/>
       <use x="655.908203" xlink:href="#ArialMT-73"/>
       <use x="705.908203" xlink:href="#ArialMT-73"/>
      </g>
     </g>
    </g>
    <g id="xtick_7">
     <g id="line2d_7">
      <path clip-path="url(#p2bbf9a8b89)" d="M 288 209.217129 
L 134.412561 209.217129 
" style="fill:none;stroke:#ffffff;stroke-linecap:round;"/>
     </g>
     <g id="text_7">
      <!-- liveness -->
      <g style="fill:#808080;" transform="translate(104.603192 211.285254)scale(0.08 -0.08)">
       <use xlink:href="#ArialMT-6c"/>
       <use x="22.216797" xlink:href="#ArialMT-69"/>
       <use x="44.433594" xlink:href="#ArialMT-76"/>
       <use x="94.433594" xlink:href="#ArialMT-65"/>
       <use x="150.048828" xlink:href="#ArialMT-6e"/>
       <use x="205.664062" xlink:href="#ArialMT-65"/>
       <use x="261.279297" xlink:href="#ArialMT-73"/>
       <use x="311.279297" xlink:href="#ArialMT-73"/>
      </g>
     </g>
    </g>
    <g id="xtick_8">
     <g id="line2d_8">
      <path clip-path="url(#p2bbf9a8b89)" d="M 288 209.217129 
L 179.39728 100.614409 
" style="fill:none;stroke:#ffffff;stroke-linecap:round;"/>
     </g>
     <g id="text_8">
      <!-- mode -->
      <g style="fill:#808080;" transform="translate(158.532008 91.822262)scale(0.08 -0.08)">
       <use xlink:href="#ArialMT-6d"/>
       <use x="83.300781" xlink:href="#ArialMT-6f"/>
       <use x="138.916016" xlink:href="#ArialMT-64"/>
       <use x="194.53125" xlink:href="#ArialMT-65"/>
      </g>
     </g>
    </g>
   </g>
   <g id="matplotlib.axis_2">
    <g id="ytick_1">
     <g id="line2d_9">
      <path clip-path="url(#p2bbf9a8b89)" d="M 288 178.499642 
L 289.072025 178.518354 
L 290.142744 178.574468 
L 292.275048 178.798582 
L 294.386525 179.170892 
L 296.466887 179.689585 
L 298.506 180.352133 
L 300.493928 181.155308 
L 302.420987 182.095197 
L 304.277789 183.167222 
L 306.055286 184.36616 
L 307.744821 185.686168 
L 309.33816 187.120818 
L 310.827542 188.663118 
L 312.205711 190.305555 
L 313.465952 192.040128 
L 314.602125 193.858385 
L 315.608695 195.751469 
L 316.480759 197.710156 
L 317.214067 199.724904 
L 317.805047 201.785896 
L 318.25082 203.883094 
L 318.549214 206.006278 
L 318.698776 208.145105 
L 318.698776 210.289154 
L 318.549214 212.427981 
L 318.25082 214.551165 
L 317.805047 216.648362 
L 317.214067 218.709355 
L 316.480759 220.724103 
L 315.608695 222.68279 
L 314.602125 224.575873 
L 313.465952 226.394131 
L 312.205711 228.128703 
L 310.827542 229.771141 
L 309.33816 231.313441 
L 307.744821 232.74809 
L 306.055286 234.068099 
L 304.277789 235.267036 
L 302.420987 236.339061 
L 300.493928 237.278951 
L 298.506 238.082126 
L 296.466887 238.744674 
L 294.386525 239.263366 
L 292.275048 239.635677 
L 290.142744 239.859791 
L 288 239.934617 
L 285.857256 239.859791 
L 283.724952 239.635677 
L 281.613475 239.263366 
L 279.533113 238.744674 
L 277.494 238.082126 
L 275.506072 237.278951 
L 273.579013 236.339061 
L 271.722211 235.267036 
L 269.944714 234.068099 
L 268.255179 232.74809 
L 266.66184 231.313441 
L 265.172458 229.771141 
L 263.794289 228.128703 
L 262.534048 226.394131 
L 261.397875 224.575873 
L 260.391305 222.68279 
L 259.519241 220.724103 
L 258.785933 218.709355 
L 258.194953 216.648362 
L 257.74918 214.551165 
L 257.450786 212.427981 
L 257.301224 210.289154 
L 257.301224 208.145105 
L 257.450786 206.006278 
L 257.74918 203.883094 
L 258.194953 201.785896 
L 258.785933 199.724904 
L 259.519241 197.710156 
L 260.391305 195.751469 
L 261.397875 193.858385 
L 262.534048 192.040128 
L 263.794289 190.305555 
L 265.172458 188.663118 
L 266.66184 187.120818 
L 268.255179 185.686168 
L 269.944714 184.36616 
L 271.722211 183.167222 
L 273.579013 182.095197 
L 275.506072 181.155308 
L 277.494 180.352133 
L 279.533113 179.689585 
L 281.613475 179.170892 
L 283.724952 178.798582 
L 285.857256 178.574468 
L 288 178.499642 
L 288 178.499642 
" style="fill:none;stroke:#ffffff;stroke-linecap:round;"/>
     </g>
     <g id="text_9">
      <!-- 0.2 -->
      <defs>
       <path d="M 4.15625 35.296875 
Q 4.15625 48 6.765625 55.734375 
Q 9.375 63.484375 14.515625 67.671875 
Q 19.671875 71.875 27.484375 71.875 
Q 33.25 71.875 37.59375 69.546875 
Q 41.9375 67.234375 44.765625 62.859375 
Q 47.609375 58.5 49.21875 52.21875 
Q 50.828125 45.953125 50.828125 35.296875 
Q 50.828125 22.703125 48.234375 14.96875 
Q 45.65625 7.234375 40.5 3 
Q 35.359375 -1.21875 27.484375 -1.21875 
Q 17.140625 -1.21875 11.234375 6.203125 
Q 4.15625 15.140625 4.15625 35.296875 
M 13.1875 35.296875 
Q 13.1875 17.671875 17.3125 11.828125 
Q 21.4375 6 27.484375 6 
Q 33.546875 6 37.671875 11.859375 
Q 41.796875 17.71875 41.796875 35.296875 
Q 41.796875 52.984375 37.671875 58.78125 
Q 33.546875 64.59375 27.390625 64.59375 
Q 21.34375 64.59375 17.71875 59.46875 
Q 13.1875 52.9375 13.1875 35.296875 
" id="ArialMT-30"/>
       <path d="M 9.078125 0 
L 9.078125 10.015625 
L 19.09375 10.015625 
L 19.09375 0 
z
" id="ArialMT-2e"/>
       <path d="M 50.34375 8.453125 
L 50.34375 0 
L 3.03125 0 
Q 2.9375 3.171875 4.046875 6.109375 
Q 5.859375 10.9375 9.828125 15.625 
Q 13.8125 20.3125 21.34375 26.46875 
Q 33.015625 36.03125 37.109375 41.625 
Q 41.21875 47.21875 41.21875 52.203125 
Q 41.21875 57.421875 37.46875 61 
Q 33.734375 64.59375 27.734375 64.59375 
Q 21.390625 64.59375 17.578125 60.78125 
Q 13.765625 56.984375 13.71875 50.25 
L 4.6875 51.171875 
Q 5.609375 61.28125 11.65625 66.578125 
Q 17.71875 71.875 27.9375 71.875 
Q 38.234375 71.875 44.234375 66.15625 
Q 50.25 60.453125 50.25 52 
Q 50.25 47.703125 48.484375 43.546875 
Q 46.734375 39.40625 42.65625 34.8125 
Q 38.578125 30.21875 29.109375 22.21875 
Q 21.1875 15.578125 18.9375 13.203125 
Q 16.703125 10.84375 15.234375 8.453125 
z
" id="ArialMT-32"/>
      </defs>
      <g style="fill:#808080;" transform="translate(288 177.108392)scale(0.07 -0.07)">
       <use xlink:href="#ArialMT-30"/>
       <use x="55.615234" xlink:href="#ArialMT-2e"/>
       <use x="83.398438" xlink:href="#ArialMT-32"/>
      </g>
     </g>
    </g>
    <g id="ytick_2">
     <g id="line2d_10">
      <path clip-path="url(#p2bbf9a8b89)" d="M 288 147.782154 
L 290.14405 147.819578 
L 292.285487 147.931806 
L 296.550096 148.380035 
L 300.77305 149.124655 
L 304.933774 150.16204 
L 309.011999 151.487136 
L 312.987856 153.093486 
L 316.841974 154.973265 
L 320.555577 157.117315 
L 324.110573 159.51519 
L 327.489641 162.155208 
L 330.67632 165.024506 
L 333.655084 168.109107 
L 336.411422 171.393982 
L 338.931903 174.863127 
L 341.20425 178.499642 
L 343.21739 182.285809 
L 344.961518 186.203182 
L 346.428134 190.232678 
L 347.610094 194.354664 
L 348.50164 198.549058 
L 349.098429 202.795426 
L 349.397551 207.07308 
L 349.397551 211.361179 
L 349.098429 215.638833 
L 348.50164 219.885201 
L 347.610094 224.079595 
L 346.428134 228.201581 
L 344.961518 232.231076 
L 343.21739 236.14845 
L 341.20425 239.934617 
L 338.931903 243.571132 
L 336.411422 247.040277 
L 333.655084 250.325152 
L 330.67632 253.409753 
L 327.489641 256.279051 
L 324.110573 258.919069 
L 320.555577 261.316944 
L 316.841974 263.460993 
L 312.987856 265.340772 
L 309.011999 266.947123 
L 304.933774 268.272218 
L 300.77305 269.309604 
L 296.550096 270.054224 
L 292.285487 270.502453 
L 288 270.652105 
L 283.714513 270.502453 
L 279.449904 270.054224 
L 275.22695 269.309604 
L 271.066226 268.272218 
L 266.988001 266.947123 
L 263.012144 265.340772 
L 259.158026 263.460993 
L 255.444423 261.316944 
L 251.889427 258.919069 
L 248.510359 256.279051 
L 245.32368 253.409753 
L 242.344916 250.325152 
L 239.588578 247.040277 
L 237.068097 243.571132 
L 234.79575 239.934617 
L 232.78261 236.14845 
L 231.038482 232.231076 
L 229.571866 228.201581 
L 228.389906 224.079595 
L 227.49836 219.885201 
L 226.901571 215.638833 
L 226.602449 211.361179 
L 226.602449 207.07308 
L 226.901571 202.795426 
L 227.49836 198.549058 
L 228.389906 194.354664 
L 229.571866 190.232678 
L 231.038482 186.203182 
L 232.78261 182.285809 
L 234.79575 178.499641 
L 237.068097 174.863127 
L 239.588578 171.393982 
L 242.344916 168.109107 
L 245.32368 165.024506 
L 248.510359 162.155208 
L 251.889427 159.51519 
L 255.444423 157.117315 
L 259.158026 154.973265 
L 263.012144 153.093486 
L 266.988001 151.487136 
L 271.066226 150.16204 
L 275.22695 149.124655 
L 279.449904 148.380035 
L 283.714513 147.931806 
L 288 147.782154 
L 288 147.782154 
" style="fill:none;stroke:#ffffff;stroke-linecap:round;"/>
     </g>
     <g id="text_10">
      <!-- 0.4 -->
      <defs>
       <path d="M 32.328125 0 
L 32.328125 17.140625 
L 1.265625 17.140625 
L 1.265625 25.203125 
L 33.9375 71.578125 
L 41.109375 71.578125 
L 41.109375 25.203125 
L 50.78125 25.203125 
L 50.78125 17.140625 
L 41.109375 17.140625 
L 41.109375 0 
z
M 32.328125 25.203125 
L 32.328125 57.46875 
L 9.90625 25.203125 
z
" id="ArialMT-34"/>
      </defs>
      <g style="fill:#808080;" transform="translate(288 146.390904)scale(0.07 -0.07)">
       <use xlink:href="#ArialMT-30"/>
       <use x="55.615234" xlink:href="#ArialMT-2e"/>
       <use x="83.398438" xlink:href="#ArialMT-34"/>
      </g>
     </g>
    </g>
    <g id="ytick_3">
     <g id="line2d_11">
      <path clip-path="url(#p2bbf9a8b89)" d="M 288 117.064666 
L 291.216075 117.120803 
L 294.428231 117.289145 
L 297.632555 117.569487 
L 300.825144 117.961487 
L 304.002107 118.464669 
L 307.159575 119.078418 
L 310.293699 119.801988 
L 313.400661 120.634496 
L 316.476677 121.574928 
L 319.517999 122.622139 
L 322.52092 123.774853 
L 325.481784 125.031665 
L 328.396981 126.391044 
L 331.262961 127.851333 
L 334.076232 129.410755 
L 336.833366 131.067408 
L 339.531004 132.819275 
L 342.165859 134.66422 
L 344.734722 136.599997 
L 347.234462 138.624247 
L 349.662034 140.734503 
L 352.01448 142.928195 
L 354.288935 145.202649 
L 356.482626 147.555096 
L 358.592883 149.982668 
L 360.617132 152.482408 
L 362.552909 155.05127 
L 364.397855 157.686126 
L 366.149721 160.383764 
L 367.806375 163.140898 
L 369.365796 165.954168 
L 370.826086 168.820148 
L 372.185465 171.735346 
L 373.442276 174.696209 
L 374.59499 177.699131 
L 375.642201 180.740452 
L 376.582633 183.816468 
L 377.415142 186.923431 
L 378.138711 190.057555 
L 378.752461 193.215022 
L 379.255642 196.391985 
L 379.647643 199.584574 
L 379.927985 202.788898 
L 380.096327 206.001055 
L 380.152464 209.217129 
L 380.096327 212.433204 
L 379.927985 215.64536 
L 379.647643 218.849685 
L 379.255642 222.042273 
L 378.752461 225.219237 
L 378.138711 228.376704 
L 377.415142 231.510828 
L 376.582633 234.617791 
L 375.642201 237.693807 
L 374.59499 240.735128 
L 373.442276 243.73805 
L 372.185465 246.698913 
L 370.826086 249.614111 
L 369.365796 252.48009 
L 367.806375 255.293361 
L 366.149721 258.050495 
L 364.397855 260.748133 
L 362.552909 263.382988 
L 360.617132 265.951851 
L 358.592883 268.451591 
L 356.482626 270.879163 
L 354.288935 273.23161 
L 352.01448 275.506064 
L 349.662034 277.699756 
L 347.234462 279.810012 
L 344.734722 281.834262 
L 342.165859 283.770039 
L 339.531004 285.614984 
L 336.833366 287.366851 
L 334.076232 289.023504 
L 331.262961 290.582925 
L 328.396981 292.043215 
L 325.481784 293.402594 
L 322.52092 294.659406 
L 319.517999 295.812119 
L 316.476677 296.85933 
L 313.400661 297.799763 
L 310.293699 298.632271 
L 307.159575 299.355841 
L 304.002107 299.96959 
L 300.825144 300.472772 
L 297.632555 300.864772 
L 294.428231 301.145114 
L 291.216075 301.313456 
L 288 301.369593 
L 284.783925 301.313456 
L 281.571769 301.145114 
L 278.367445 300.864772 
L 275.174856 300.472772 
L 271.997893 299.96959 
L 268.840425 299.355841 
L 265.706301 298.632271 
L 262.599339 297.799763 
L 259.523323 296.85933 
L 256.482001 295.812119 
L 253.47908 294.659406 
L 250.518216 293.402594 
L 247.603019 292.043215 
L 244.737039 290.582925 
L 241.923768 289.023504 
L 239.166634 287.366851 
L 236.468996 285.614984 
L 233.834141 283.770039 
L 231.265278 281.834262 
L 228.765538 279.810012 
L 226.337966 277.699756 
L 223.98552 275.506064 
L 221.711065 273.23161 
L 219.517374 270.879163 
L 217.407117 268.451591 
L 215.382868 265.951851 
L 213.447091 263.382988 
L 211.602145 260.748133 
L 209.850279 258.050495 
L 208.193625 255.293361 
L 206.634204 252.48009 
L 205.173914 249.614111 
L 203.814535 246.698913 
L 202.557724 243.73805 
L 201.40501 240.735128 
L 200.357799 237.693807 
L 199.417367 234.617791 
L 198.584858 231.510828 
L 197.861289 228.376704 
L 197.247539 225.219237 
L 196.744358 222.042273 
L 196.352357 218.849685 
L 196.072015 215.64536 
L 195.903673 212.433204 
L 195.847536 209.217129 
L 195.903673 206.001055 
L 196.072015 202.788898 
L 196.352357 199.584574 
L 196.744358 196.391985 
L 197.247539 193.215022 
L 197.861289 190.057555 
L 198.584858 186.923431 
L 199.417367 183.816468 
L 200.357799 180.740452 
L 201.40501 177.699131 
L 202.557724 174.696209 
L 203.814535 171.735346 
L 205.173914 168.820148 
L 206.634204 165.954168 
L 208.193625 163.140898 
L 209.850279 160.383764 
L 211.602145 157.686126 
L 213.447091 155.05127 
L 215.382868 152.482408 
L 217.407117 149.982668 
L 219.517374 147.555096 
L 221.711065 145.202649 
L 223.98552 142.928195 
L 226.337966 140.734503 
L 228.765538 138.624247 
L 231.265278 136.599997 
L 233.834141 134.66422 
L 236.468996 132.819275 
L 239.166634 131.067408 
L 241.923768 129.410755 
L 244.737039 127.851333 
L 247.603019 126.391044 
L 250.518216 125.031665 
L 253.47908 123.774853 
L 256.482001 122.622139 
L 259.523323 121.574928 
L 262.599339 120.634496 
L 265.706301 119.801988 
L 268.840425 119.078418 
L 271.997893 118.464669 
L 275.174856 117.961487 
L 278.367445 117.569487 
L 281.571769 117.289145 
L 284.783925 117.120803 
L 288 117.064666 
L 288 117.064666 
" style="fill:none;stroke:#ffffff;stroke-linecap:round;"/>
     </g>
     <g id="text_11">
      <!-- 0.6 -->
      <defs>
       <path d="M 49.75 54.046875 
L 41.015625 53.375 
Q 39.84375 58.546875 37.703125 60.890625 
Q 34.125 64.65625 28.90625 64.65625 
Q 24.703125 64.65625 21.53125 62.3125 
Q 17.390625 59.28125 14.984375 53.46875 
Q 12.59375 47.65625 12.5 36.921875 
Q 15.671875 41.75 20.265625 44.09375 
Q 24.859375 46.4375 29.890625 46.4375 
Q 38.671875 46.4375 44.84375 39.96875 
Q 51.03125 33.5 51.03125 23.25 
Q 51.03125 16.5 48.125 10.71875 
Q 45.21875 4.9375 40.140625 1.859375 
Q 35.0625 -1.21875 28.609375 -1.21875 
Q 17.625 -1.21875 10.6875 6.859375 
Q 3.765625 14.9375 3.765625 33.5 
Q 3.765625 54.25 11.421875 63.671875 
Q 18.109375 71.875 29.4375 71.875 
Q 37.890625 71.875 43.28125 67.140625 
Q 48.6875 62.40625 49.75 54.046875 
M 13.875 23.1875 
Q 13.875 18.65625 15.796875 14.5 
Q 17.71875 10.359375 21.1875 8.171875 
Q 24.65625 6 28.46875 6 
Q 34.03125 6 38.03125 10.484375 
Q 42.046875 14.984375 42.046875 22.703125 
Q 42.046875 30.125 38.078125 34.390625 
Q 34.125 38.671875 28.125 38.671875 
Q 22.171875 38.671875 18.015625 34.390625 
Q 13.875 30.125 13.875 23.1875 
" id="ArialMT-36"/>
      </defs>
      <g style="fill:#808080;" transform="translate(288 115.673416)scale(0.07 -0.07)">
       <use xlink:href="#ArialMT-30"/>
       <use x="55.615234" xlink:href="#ArialMT-2e"/>
       <use x="83.398438" xlink:href="#ArialMT-36"/>
      </g>
     </g>
    </g>
    <g id="ytick_4">
     <g id="line2d_12">
      <path clip-path="url(#p2bbf9a8b89)" d="M 288 86.347178 
L 292.288099 86.422027 
L 296.570975 86.646483 
L 300.843407 87.020272 
L 305.100192 87.54294 
L 309.336143 88.213849 
L 313.546099 89.032181 
L 317.724932 89.996941 
L 321.867549 91.106951 
L 325.968903 92.360861 
L 330.023998 93.757143 
L 334.027894 95.294094 
L 337.975712 96.969843 
L 341.862642 98.782348 
L 345.683948 100.729401 
L 349.434976 102.80863 
L 353.111154 105.017501 
L 356.708005 107.353323 
L 360.221145 109.813251 
L 363.646296 112.394286 
L 366.979282 115.093286 
L 370.216045 117.906961 
L 373.35264 120.831883 
L 376.385246 123.864489 
L 379.310169 127.001084 
L 382.123844 130.237847 
L 384.822843 133.570834 
L 387.403879 136.995984 
L 389.863806 140.509124 
L 392.199628 144.105975 
L 394.408499 147.782154 
L 396.487728 151.533181 
L 398.434781 155.354488 
L 400.247286 159.241418 
L 401.923035 163.189235 
L 403.459987 167.193131 
L 404.856268 171.248226 
L 406.110178 175.349581 
L 407.220189 179.492198 
L 408.184948 183.67103 
L 409.003281 187.880986 
L 409.67419 192.116937 
L 410.196857 196.373722 
L 410.570646 200.646155 
L 410.795102 204.92903 
L 410.869951 209.217129 
L 410.795102 213.505229 
L 410.570646 217.788104 
L 410.196857 222.060537 
L 409.67419 226.317322 
L 409.003281 230.553273 
L 408.184948 234.763229 
L 407.220189 238.942061 
L 406.110178 243.084678 
L 404.856268 247.186032 
L 403.459987 251.241128 
L 401.923035 255.245023 
L 400.247286 259.192841 
L 398.434781 263.079771 
L 396.487728 266.901078 
L 394.408499 270.652105 
L 392.199628 274.328284 
L 389.863806 277.925134 
L 387.403879 281.438275 
L 384.822843 284.863425 
L 382.123844 288.196412 
L 379.310169 291.433175 
L 376.385246 294.56977 
L 373.35264 297.602376 
L 370.216045 300.527298 
L 366.979282 303.340973 
L 363.646296 306.039972 
L 360.221145 308.621008 
L 356.708005 311.080936 
L 353.111154 313.416758 
L 349.434976 315.625629 
L 345.683948 317.704857 
L 341.862642 319.65191 
L 337.975712 321.464415 
L 334.027894 323.140165 
L 330.023998 324.677116 
L 325.968903 326.073397 
L 321.867549 327.327307 
L 317.724932 328.437318 
L 313.546099 329.402078 
L 309.336143 330.22041 
L 305.100192 330.891319 
L 300.843407 331.413986 
L 296.570975 331.787776 
L 292.288099 332.012232 
L 288 332.087081 
L 283.711901 332.012232 
L 279.429025 331.787776 
L 275.156593 331.413986 
L 270.899808 330.891319 
L 266.663857 330.22041 
L 262.453901 329.402078 
L 258.275068 328.437318 
L 254.132451 327.327307 
L 250.031097 326.073397 
L 245.976002 324.677116 
L 241.972106 323.140165 
L 238.024288 321.464415 
L 234.137358 319.65191 
L 230.316052 317.704857 
L 226.565024 315.625629 
L 222.888846 313.416758 
L 219.291995 311.080936 
L 215.778855 308.621008 
L 212.353704 306.039972 
L 209.020718 303.340973 
L 205.783955 300.527298 
L 202.64736 297.602376 
L 199.614754 294.56977 
L 196.689831 291.433175 
L 193.876156 288.196412 
L 191.177157 284.863425 
L 188.596121 281.438275 
L 186.136194 277.925134 
L 183.800372 274.328284 
L 181.591501 270.652105 
L 179.512272 266.901078 
L 177.565219 263.079771 
L 175.752714 259.192841 
L 174.076965 255.245023 
L 172.540013 251.241128 
L 171.143732 247.186032 
L 169.889822 243.084678 
L 168.779811 238.942061 
L 167.815052 234.763229 
L 166.996719 230.553273 
L 166.32581 226.317322 
L 165.803143 222.060537 
L 165.429354 217.788104 
L 165.204898 213.505229 
L 165.130049 209.217129 
L 165.204898 204.92903 
L 165.429354 200.646155 
L 165.803143 196.373722 
L 166.32581 192.116937 
L 166.996719 187.880986 
L 167.815052 183.67103 
L 168.779811 179.492198 
L 169.889822 175.349581 
L 171.143732 171.248226 
L 172.540013 167.193131 
L 174.076965 163.189235 
L 175.752714 159.241418 
L 177.565219 155.354488 
L 179.512272 151.533181 
L 181.591501 147.782154 
L 183.800372 144.105975 
L 186.136194 140.509124 
L 188.596121 136.995984 
L 191.177157 133.570834 
L 193.876156 130.237847 
L 196.689831 127.001084 
L 199.614754 123.864489 
L 202.64736 120.831883 
L 205.783955 117.906961 
L 209.020718 115.093286 
L 212.353704 112.394286 
L 215.778855 109.813251 
L 219.291995 107.353323 
L 222.888846 105.017501 
L 226.565024 102.80863 
L 230.316052 100.729401 
L 234.137358 98.782348 
L 238.024288 96.969843 
L 241.972106 95.294094 
L 245.976002 93.757143 
L 250.031097 92.360861 
L 254.132451 91.106951 
L 258.275068 89.996941 
L 262.453901 89.032181 
L 266.663857 88.213849 
L 270.899808 87.54294 
L 275.156593 87.020272 
L 279.429025 86.646483 
L 283.711901 86.422027 
L 288 86.347178 
L 288 86.347178 
" style="fill:none;stroke:#ffffff;stroke-linecap:round;"/>
     </g>
     <g id="text_12">
      <!-- 0.8 -->
      <defs>
       <path d="M 17.671875 38.8125 
Q 12.203125 40.828125 9.5625 44.53125 
Q 6.9375 48.25 6.9375 53.421875 
Q 6.9375 61.234375 12.546875 66.546875 
Q 18.171875 71.875 27.484375 71.875 
Q 36.859375 71.875 42.578125 66.421875 
Q 48.296875 60.984375 48.296875 53.171875 
Q 48.296875 48.1875 45.671875 44.5 
Q 43.0625 40.828125 37.75 38.8125 
Q 44.34375 36.671875 47.78125 31.875 
Q 51.21875 27.09375 51.21875 20.453125 
Q 51.21875 11.28125 44.71875 5.03125 
Q 38.234375 -1.21875 27.640625 -1.21875 
Q 17.046875 -1.21875 10.546875 5.046875 
Q 4.046875 11.328125 4.046875 20.703125 
Q 4.046875 27.6875 7.59375 32.390625 
Q 11.140625 37.109375 17.671875 38.8125 
M 15.921875 53.71875 
Q 15.921875 48.640625 19.1875 45.40625 
Q 22.46875 42.1875 27.6875 42.1875 
Q 32.765625 42.1875 36.015625 45.375 
Q 39.265625 48.578125 39.265625 53.21875 
Q 39.265625 58.0625 35.90625 61.359375 
Q 32.5625 64.65625 27.59375 64.65625 
Q 22.5625 64.65625 19.234375 61.421875 
Q 15.921875 58.203125 15.921875 53.71875 
M 13.09375 20.65625 
Q 13.09375 16.890625 14.875 13.375 
Q 16.65625 9.859375 20.171875 7.921875 
Q 23.6875 6 27.734375 6 
Q 34.03125 6 38.125 10.046875 
Q 42.234375 14.109375 42.234375 20.359375 
Q 42.234375 26.703125 38.015625 30.859375 
Q 33.796875 35.015625 27.4375 35.015625 
Q 21.234375 35.015625 17.15625 30.90625 
Q 13.09375 26.8125 13.09375 20.65625 
" id="ArialMT-38"/>
      </defs>
      <g style="fill:#808080;" transform="translate(288 84.955928)scale(0.07 -0.07)">
       <use xlink:href="#ArialMT-30"/>
       <use x="55.615234" xlink:href="#ArialMT-2e"/>
       <use x="83.398438" xlink:href="#ArialMT-38"/>
      </g>
     </g>
    </g>
   </g>
   <g id="patch_3">
    <path clip-path="url(#p2bbf9a8b89)" d="M 288 149.093132 
L 355.868943 141.348187 
L 329.951312 209.217129 
L 297.23511 218.452239 
L 288 289.422684 
L 271.934555 225.282575 
L 259.218811 209.217129 
L 222.737523 143.954652 
z
" style="fill:#808080;opacity:0.5;stroke:#808080;stroke-linejoin:miter;stroke-width:0.3;"/>
   </g>
   <g id="patch_4">
    <path clip-path="url(#p2bbf9a8b89)" d="M 288 144.096055 
L 360.220809 136.996321 
L 318.717488 209.217129 
L 298.968875 220.186004 
L 288 297.37632 
L 272.904222 224.312907 
L 260.047086 209.217129 
L 221.752341 142.96947 
z
" style="fill:#92c6ff;opacity:0.5;stroke:#92c6ff;stroke-linejoin:miter;stroke-width:0.3;"/>
   </g>
   <g id="line2d_13">
    <path clip-path="url(#p2bbf9a8b89)" d="M 288 149.093132 
L 355.868943 141.348187 
L 329.951312 209.217129 
L 297.23511 218.452239 
L 288 289.422684 
L 271.934555 225.282575 
L 259.218811 209.217129 
L 222.737523 143.954652 
L 288 149.093132 
" style="fill:none;stroke:#808080;stroke-linecap:round;"/>
   </g>
   <g id="line2d_14">
    <path clip-path="url(#p2bbf9a8b89)" d="M 288 144.096055 
L 360.220809 136.996321 
L 318.717488 209.217129 
L 298.968875 220.186004 
L 288 297.37632 
L 272.904222 224.312907 
L 260.047086 209.217129 
L 221.752341 142.96947 
L 288 144.096055 
" style="fill:none;stroke:#92c6ff;stroke-linecap:round;"/>
   </g>
   <g id="patch_5">
    <path d="M 288 362.804569 
C 328.731865 362.804569 367.800942 346.621627 396.60272 317.819849 
C 425.404498 289.018071 441.587439 249.948994 441.587439 209.217129 
C 441.587439 168.485264 425.404498 129.416187 396.60272 100.614409 
C 367.800942 71.812632 328.731865 55.62969 288 55.62969 
C 247.268135 55.62969 208.199058 71.812632 179.39728 100.614409 
C 150.595502 129.416187 134.412561 168.485264 134.412561 209.217129 
C 134.412561 249.948994 150.595502 289.018071 179.39728 317.819849 
C 208.199058 346.621627 247.268135 362.804569 288 362.804569 
z
" style="fill:none;"/>
   </g>
   <g id="text_13">
    <!-- 2018 -->
    <defs>
     <path d="M 50.59375 12.75 
L 50.59375 0 
L 2.484375 0 
Q 3.265625 7.234375 7.171875 13.703125 
Q 11.078125 20.171875 22.609375 30.859375 
Q 31.890625 39.5 33.984375 42.578125 
Q 36.8125 46.828125 36.8125 50.984375 
Q 36.8125 55.5625 34.34375 58.03125 
Q 31.890625 60.5 27.546875 60.5 
Q 23.25 60.5 20.703125 57.90625 
Q 18.171875 55.328125 17.78125 49.3125 
L 4.109375 50.6875 
Q 5.328125 62.015625 11.765625 66.9375 
Q 18.21875 71.875 27.875 71.875 
Q 38.484375 71.875 44.53125 66.15625 
Q 50.59375 60.453125 50.59375 51.953125 
Q 50.59375 47.125 48.859375 42.75 
Q 47.125 38.375 43.359375 33.59375 
Q 40.875 30.421875 34.375 24.453125 
Q 27.875 18.5 26.140625 16.546875 
Q 24.421875 14.59375 23.34375 12.75 
z
" id="Arial-BoldMT-32"/>
     <path d="M 27.4375 71.875 
Q 37.84375 71.875 43.703125 64.453125 
Q 50.6875 55.671875 50.6875 35.296875 
Q 50.6875 14.984375 43.65625 6.109375 
Q 37.84375 -1.21875 27.4375 -1.21875 
Q 17 -1.21875 10.59375 6.8125 
Q 4.203125 14.84375 4.203125 35.453125 
Q 4.203125 55.671875 11.234375 64.546875 
Q 17.046875 71.875 27.4375 71.875 
M 27.4375 60.5 
Q 24.953125 60.5 23 58.90625 
Q 21.046875 57.328125 19.96875 53.21875 
Q 18.5625 47.90625 18.5625 35.296875 
Q 18.5625 22.703125 19.828125 17.984375 
Q 21.09375 13.28125 23.015625 11.71875 
Q 24.953125 10.15625 27.4375 10.15625 
Q 29.9375 10.15625 31.890625 11.734375 
Q 33.84375 13.328125 34.90625 17.4375 
Q 36.328125 22.703125 36.328125 35.296875 
Q 36.328125 47.90625 35.0625 52.609375 
Q 33.796875 57.328125 31.859375 58.90625 
Q 29.9375 60.5 27.4375 60.5 
" id="Arial-BoldMT-30"/>
     <path d="M 39.359375 0 
L 25.640625 0 
L 25.640625 51.703125 
Q 18.109375 44.671875 7.90625 41.3125 
L 7.90625 53.765625 
Q 13.28125 55.515625 19.578125 60.421875 
Q 25.875 65.328125 28.21875 71.875 
L 39.359375 71.875 
z
" id="Arial-BoldMT-31"/>
     <path d="M 16.015625 38.625 
Q 10.6875 40.875 8.265625 44.796875 
Q 5.859375 48.734375 5.859375 53.421875 
Q 5.859375 61.421875 11.453125 66.640625 
Q 17.046875 71.875 27.34375 71.875 
Q 37.546875 71.875 43.1875 66.640625 
Q 48.828125 61.421875 48.828125 53.421875 
Q 48.828125 48.4375 46.234375 44.546875 
Q 43.65625 40.671875 38.96875 38.625 
Q 44.921875 36.234375 48.015625 31.640625 
Q 51.125 27.046875 51.125 21.046875 
Q 51.125 11.140625 44.796875 4.9375 
Q 38.484375 -1.265625 27.984375 -1.265625 
Q 18.21875 -1.265625 11.71875 3.859375 
Q 4.046875 9.90625 4.046875 20.453125 
Q 4.046875 26.265625 6.921875 31.125 
Q 9.8125 35.984375 16.015625 38.625 
M 18.84375 52.4375 
Q 18.84375 48.34375 21.15625 46.046875 
Q 23.484375 43.75 27.34375 43.75 
Q 31.25 43.75 33.59375 46.0625 
Q 35.9375 48.390625 35.9375 52.484375 
Q 35.9375 56.34375 33.609375 58.65625 
Q 31.296875 60.984375 27.484375 60.984375 
Q 23.53125 60.984375 21.1875 58.640625 
Q 18.84375 56.296875 18.84375 52.4375 
M 17.578125 21.78125 
Q 17.578125 16.109375 20.484375 12.9375 
Q 23.390625 9.765625 27.734375 9.765625 
Q 31.984375 9.765625 34.765625 12.8125 
Q 37.546875 15.875 37.546875 21.625 
Q 37.546875 26.65625 34.71875 29.703125 
Q 31.890625 32.765625 27.546875 32.765625 
Q 22.515625 32.765625 20.046875 29.296875 
Q 17.578125 25.828125 17.578125 21.78125 
" id="Arial-BoldMT-38"/>
    </defs>
    <g style="fill:#92c6ff;" transform="translate(272.429375 25.0557)scale(0.14 -0.14)">
     <use xlink:href="#Arial-BoldMT-32"/>
     <use x="55.615234" xlink:href="#Arial-BoldMT-30"/>
     <use x="111.230469" xlink:href="#Arial-BoldMT-31"/>
     <use x="166.845703" xlink:href="#Arial-BoldMT-38"/>
    </g>
   </g>
  </g>
 </g>
 <defs>
  <clipPath id="p2bbf9a8b89">
   <path d="M 288 362.804569 
C 328.731865 362.804569 367.800942 346.621627 396.60272 317.819849 
C 425.404498 289.018071 441.587439 249.948994 441.587439 209.217129 
C 441.587439 168.485264 425.404498 129.416187 396.60272 100.614409 
C 367.800942 71.812632 328.731865 55.62969 288 55.62969 
C 247.268135 55.62969 208.199058 71.812632 179.39728 100.614409 
C 150.595502 129.416187 134.412561 168.485264 134.412561 209.217129 
C 134.412561 249.948994 150.595502 289.018071 179.39728 317.819849 
C 208.199058 346.621627 247.268135 362.804569 288 362.804569 
z
"/>
  </clipPath>
 </defs>
</svg>
