<?xml version="1.0" encoding="utf-8" standalone="no"?>
<!DOCTYPE svg PUBLIC "-//W3C//DTD SVG 1.1//EN"
  "http://www.w3.org/Graphics/SVG/1.1/DTD/svg11.dtd">
<!-- Created with matplotlib (http://matplotlib.org/) -->
<svg height="396pt" version="1.1" viewBox="0 0 576 396" width="576pt" xmlns="http://www.w3.org/2000/svg" xmlns:xlink="http://www.w3.org/1999/xlink">
 <defs>
  <style type="text/css">
*{stroke-linecap:butt;stroke-linejoin:round;}
  </style>
 </defs>
 <g id="figure_1">
  <g id="patch_1">
   <path d="M 0 396 
L 576 396 
L 576 0 
L 0 0 
z
" style="fill:#ffffff;"/>
  </g>
  <g id="axes_1">
   <g id="patch_2">
    <path d="M 288 363.669347 
C 329.208502 363.669347 368.734759 347.297035 397.87357 318.158224 
C 427.012382 289.019412 443.384693 249.493156 443.384693 208.284653 
C 443.384693 167.076151 427.012382 127.549894 397.87357 98.411083 
C 368.734759 69.272272 329.208502 52.89996 288 52.89996 
C 246.791498 52.89996 207.265241 69.272272 178.12643 98.411083 
C 148.987618 127.549894 132.615307 167.076151 132.615307 208.284653 
C 132.615307 249.493156 148.987618 289.019412 178.12643 318.158224 
C 207.265241 347.297035 246.791498 363.669347 288 363.669347 
z
" style="fill:#eaeaf2;"/>
   </g>
   <g id="matplotlib.axis_1">
    <g id="xtick_1">
     <g id="line2d_1">
      <path clip-path="url(#p82d8ab10f9)" d="M 288 208.284653 
L 288 52.89996 
" style="fill:none;stroke:#ffffff;stroke-linecap:round;"/>
     </g>
     <g id="text_1">
      <!-- valence -->
      <defs>
       <path d="M 21 0 
L 1.265625 51.859375 
L 10.546875 51.859375 
L 21.6875 20.796875 
Q 23.484375 15.765625 25 10.359375 
Q 26.171875 14.453125 28.265625 20.21875 
L 39.796875 51.859375 
L 48.828125 51.859375 
L 29.203125 0 
z
" id="ArialMT-76"/>
       <path d="M 40.4375 6.390625 
Q 35.546875 2.25 31.03125 0.53125 
Q 26.515625 -1.171875 21.34375 -1.171875 
Q 12.796875 -1.171875 8.203125 3 
Q 3.609375 7.171875 3.609375 13.671875 
Q 3.609375 17.484375 5.34375 20.625 
Q 7.078125 23.78125 9.890625 25.6875 
Q 12.703125 27.59375 16.21875 28.5625 
Q 18.796875 29.25 24.03125 29.890625 
Q 34.671875 31.15625 39.703125 32.90625 
Q 39.75 34.71875 39.75 35.203125 
Q 39.75 40.578125 37.25 42.78125 
Q 33.890625 45.75 27.25 45.75 
Q 21.046875 45.75 18.09375 43.578125 
Q 15.140625 41.40625 13.71875 35.890625 
L 5.125 37.0625 
Q 6.296875 42.578125 8.984375 45.96875 
Q 11.671875 49.359375 16.75 51.1875 
Q 21.828125 53.03125 28.515625 53.03125 
Q 35.15625 53.03125 39.296875 51.46875 
Q 43.453125 49.90625 45.40625 47.53125 
Q 47.359375 45.171875 48.140625 41.546875 
Q 48.578125 39.3125 48.578125 33.453125 
L 48.578125 21.734375 
Q 48.578125 9.46875 49.140625 6.21875 
Q 49.703125 2.984375 51.375 0 
L 42.1875 0 
Q 40.828125 2.734375 40.4375 6.390625 
M 39.703125 26.03125 
Q 34.90625 24.078125 25.34375 22.703125 
Q 19.921875 21.921875 17.671875 20.9375 
Q 15.4375 19.96875 14.203125 18.09375 
Q 12.984375 16.21875 12.984375 13.921875 
Q 12.984375 10.40625 15.640625 8.0625 
Q 18.3125 5.71875 23.4375 5.71875 
Q 28.515625 5.71875 32.46875 7.9375 
Q 36.421875 10.15625 38.28125 14.015625 
Q 39.703125 17 39.703125 22.796875 
z
" id="ArialMT-61"/>
       <path d="M 6.390625 0 
L 6.390625 71.578125 
L 15.1875 71.578125 
L 15.1875 0 
z
" id="ArialMT-6c"/>
       <path d="M 42.09375 16.703125 
L 51.171875 15.578125 
Q 49.03125 7.625 43.21875 3.21875 
Q 37.40625 -1.171875 28.375 -1.171875 
Q 17 -1.171875 10.328125 5.828125 
Q 3.65625 12.84375 3.65625 25.484375 
Q 3.65625 38.578125 10.390625 45.796875 
Q 17.140625 53.03125 27.875 53.03125 
Q 38.28125 53.03125 44.875 45.953125 
Q 51.46875 38.875 51.46875 26.03125 
Q 51.46875 25.25 51.421875 23.6875 
L 12.75 23.6875 
Q 13.234375 15.140625 17.578125 10.59375 
Q 21.921875 6.0625 28.421875 6.0625 
Q 33.25 6.0625 36.671875 8.59375 
Q 40.09375 11.140625 42.09375 16.703125 
M 13.234375 30.90625 
L 42.1875 30.90625 
Q 41.609375 37.453125 38.875 40.71875 
Q 34.671875 45.796875 27.984375 45.796875 
Q 21.921875 45.796875 17.796875 41.75 
Q 13.671875 37.703125 13.234375 30.90625 
" id="ArialMT-65"/>
       <path d="M 6.59375 0 
L 6.59375 51.859375 
L 14.5 51.859375 
L 14.5 44.484375 
Q 20.21875 53.03125 31 53.03125 
Q 35.6875 53.03125 39.625 51.34375 
Q 43.5625 49.65625 45.515625 46.921875 
Q 47.46875 44.1875 48.25 40.4375 
Q 48.734375 37.984375 48.734375 31.890625 
L 48.734375 0 
L 39.9375 0 
L 39.9375 31.546875 
Q 39.9375 36.921875 38.90625 39.578125 
Q 37.890625 42.234375 35.28125 43.8125 
Q 32.671875 45.40625 29.15625 45.40625 
Q 23.53125 45.40625 19.453125 41.84375 
Q 15.375 38.28125 15.375 28.328125 
L 15.375 0 
z
" id="ArialMT-6e"/>
       <path d="M 40.4375 19 
L 49.078125 17.875 
Q 47.65625 8.9375 41.8125 3.875 
Q 35.984375 -1.171875 27.484375 -1.171875 
Q 16.84375 -1.171875 10.375 5.78125 
Q 3.90625 12.75 3.90625 25.734375 
Q 3.90625 34.125 6.6875 40.421875 
Q 9.46875 46.734375 15.15625 49.875 
Q 20.84375 53.03125 27.546875 53.03125 
Q 35.984375 53.03125 41.359375 48.75 
Q 46.734375 44.484375 48.25 36.625 
L 39.703125 35.296875 
Q 38.484375 40.53125 35.375 43.15625 
Q 32.28125 45.796875 27.875 45.796875 
Q 21.234375 45.796875 17.078125 41.03125 
Q 12.9375 36.28125 12.9375 25.984375 
Q 12.9375 15.53125 16.9375 10.796875 
Q 20.953125 6.0625 27.390625 6.0625 
Q 32.5625 6.0625 36.03125 9.234375 
Q 39.5 12.40625 40.4375 19 
" id="ArialMT-63"/>
      </defs>
      <g style="fill:#808080;" transform="translate(274.21375 39.429616)scale(0.08 -0.08)">
       <use xlink:href="#ArialMT-76"/>
       <use x="50" xlink:href="#ArialMT-61"/>
       <use x="105.615234" xlink:href="#ArialMT-6c"/>
       <use x="127.832031" xlink:href="#ArialMT-65"/>
       <use x="183.447266" xlink:href="#ArialMT-6e"/>
       <use x="239.0625" xlink:href="#ArialMT-63"/>
       <use x="289.0625" xlink:href="#ArialMT-65"/>
      </g>
     </g>
    </g>
    <g id="xtick_2">
     <g id="line2d_2">
      <path clip-path="url(#p82d8ab10f9)" d="M 288 208.284653 
L 397.87357 98.411083 
" style="fill:none;stroke:#ffffff;stroke-linecap:round;"/>
     </g>
     <g id="text_2">
      <!-- energy -->
      <defs>
       <path d="M 6.5 0 
L 6.5 51.859375 
L 14.40625 51.859375 
L 14.40625 44 
Q 17.4375 49.515625 20 51.265625 
Q 22.5625 53.03125 25.640625 53.03125 
Q 30.078125 53.03125 34.671875 50.203125 
L 31.640625 42.046875 
Q 28.421875 43.953125 25.203125 43.953125 
Q 22.3125 43.953125 20.015625 42.21875 
Q 17.71875 40.484375 16.75 37.40625 
Q 15.28125 32.71875 15.28125 27.15625 
L 15.28125 0 
z
" id="ArialMT-72"/>
       <path d="M 4.984375 -4.296875 
L 13.53125 -5.5625 
Q 14.0625 -9.515625 16.5 -11.328125 
Q 19.78125 -13.765625 25.4375 -13.765625 
Q 31.546875 -13.765625 34.859375 -11.328125 
Q 38.1875 -8.890625 39.359375 -4.5 
Q 40.046875 -1.8125 39.984375 6.78125 
Q 34.234375 0 25.640625 0 
Q 14.9375 0 9.078125 7.71875 
Q 3.21875 15.4375 3.21875 26.21875 
Q 3.21875 33.640625 5.90625 39.90625 
Q 8.59375 46.1875 13.6875 49.609375 
Q 18.796875 53.03125 25.6875 53.03125 
Q 34.859375 53.03125 40.828125 45.609375 
L 40.828125 51.859375 
L 48.921875 51.859375 
L 48.921875 7.03125 
Q 48.921875 -5.078125 46.453125 -10.125 
Q 44 -15.1875 38.640625 -18.109375 
Q 33.296875 -21.046875 25.484375 -21.046875 
Q 16.21875 -21.046875 10.5 -16.875 
Q 4.78125 -12.703125 4.984375 -4.296875 
M 12.25 26.859375 
Q 12.25 16.65625 16.296875 11.96875 
Q 20.359375 7.28125 26.46875 7.28125 
Q 32.515625 7.28125 36.609375 11.9375 
Q 40.71875 16.609375 40.71875 26.5625 
Q 40.71875 36.078125 36.5 40.90625 
Q 32.28125 45.75 26.3125 45.75 
Q 20.453125 45.75 16.34375 40.984375 
Q 12.25 36.234375 12.25 26.859375 
" id="ArialMT-67"/>
       <path d="M 6.203125 -19.96875 
L 5.21875 -11.71875 
Q 8.109375 -12.5 10.25 -12.5 
Q 13.1875 -12.5 14.9375 -11.515625 
Q 16.703125 -10.546875 17.828125 -8.796875 
Q 18.65625 -7.46875 20.515625 -2.25 
Q 20.75 -1.515625 21.296875 -0.09375 
L 1.609375 51.859375 
L 11.078125 51.859375 
L 21.875 21.828125 
Q 23.96875 16.109375 25.640625 9.8125 
Q 27.15625 15.875 29.25 21.625 
L 40.328125 51.859375 
L 49.125 51.859375 
L 29.390625 -0.875 
Q 26.21875 -9.421875 24.46875 -12.640625 
Q 22.125 -17 19.09375 -19.015625 
Q 16.0625 -21.046875 11.859375 -21.046875 
Q 9.328125 -21.046875 6.203125 -19.96875 
" id="ArialMT-79"/>
      </defs>
      <g style="fill:#808080;" transform="translate(396.631552 89.398101)scale(0.08 -0.08)">
       <use xlink:href="#ArialMT-65"/>
       <use x="55.615234" xlink:href="#ArialMT-6e"/>
       <use x="111.230469" xlink:href="#ArialMT-65"/>
       <use x="166.845703" xlink:href="#ArialMT-72"/>
       <use x="200.146484" xlink:href="#ArialMT-67"/>
       <use x="255.761719" xlink:href="#ArialMT-79"/>
      </g>
     </g>
    </g>
    <g id="xtick_3">
     <g id="line2d_3">
      <path clip-path="url(#p82d8ab10f9)" d="M 288 208.284653 
L 443.384693 208.284653 
" style="fill:none;stroke:#ffffff;stroke-linecap:round;"/>
     </g>
     <g id="text_3">
      <!-- acousticness -->
      <defs>
       <path d="M 3.328125 25.921875 
Q 3.328125 40.328125 11.328125 47.265625 
Q 18.015625 53.03125 27.640625 53.03125 
Q 38.328125 53.03125 45.109375 46.015625 
Q 51.90625 39.015625 51.90625 26.65625 
Q 51.90625 16.65625 48.90625 10.90625 
Q 45.90625 5.171875 40.15625 2 
Q 34.421875 -1.171875 27.640625 -1.171875 
Q 16.75 -1.171875 10.03125 5.8125 
Q 3.328125 12.796875 3.328125 25.921875 
M 12.359375 25.921875 
Q 12.359375 15.96875 16.703125 11.015625 
Q 21.046875 6.0625 27.640625 6.0625 
Q 34.1875 6.0625 38.53125 11.03125 
Q 42.875 16.015625 42.875 26.21875 
Q 42.875 35.84375 38.5 40.796875 
Q 34.125 45.75 27.640625 45.75 
Q 21.046875 45.75 16.703125 40.8125 
Q 12.359375 35.890625 12.359375 25.921875 
" id="ArialMT-6f"/>
       <path d="M 40.578125 0 
L 40.578125 7.625 
Q 34.515625 -1.171875 24.125 -1.171875 
Q 19.53125 -1.171875 15.546875 0.578125 
Q 11.578125 2.34375 9.640625 5 
Q 7.71875 7.671875 6.9375 11.53125 
Q 6.390625 14.109375 6.390625 19.734375 
L 6.390625 51.859375 
L 15.1875 51.859375 
L 15.1875 23.09375 
Q 15.1875 16.21875 15.71875 13.8125 
Q 16.546875 10.359375 19.234375 8.375 
Q 21.921875 6.390625 25.875 6.390625 
Q 29.828125 6.390625 33.296875 8.421875 
Q 36.765625 10.453125 38.203125 13.9375 
Q 39.65625 17.4375 39.65625 24.078125 
L 39.65625 51.859375 
L 48.4375 51.859375 
L 48.4375 0 
z
" id="ArialMT-75"/>
       <path d="M 3.078125 15.484375 
L 11.765625 16.84375 
Q 12.5 11.625 15.84375 8.84375 
Q 19.1875 6.0625 25.203125 6.0625 
Q 31.25 6.0625 34.171875 8.515625 
Q 37.109375 10.984375 37.109375 14.3125 
Q 37.109375 17.28125 34.515625 19 
Q 32.71875 20.171875 25.53125 21.96875 
Q 15.875 24.421875 12.140625 26.203125 
Q 8.40625 27.984375 6.46875 31.125 
Q 4.546875 34.28125 4.546875 38.09375 
Q 4.546875 41.546875 6.125 44.5 
Q 7.71875 47.46875 10.453125 49.421875 
Q 12.5 50.921875 16.03125 51.96875 
Q 19.578125 53.03125 23.640625 53.03125 
Q 29.734375 53.03125 34.34375 51.265625 
Q 38.96875 49.515625 41.15625 46.5 
Q 43.359375 43.5 44.1875 38.484375 
L 35.59375 37.3125 
Q 35.015625 41.3125 32.203125 43.546875 
Q 29.390625 45.796875 24.265625 45.796875 
Q 18.21875 45.796875 15.625 43.796875 
Q 13.03125 41.796875 13.03125 39.109375 
Q 13.03125 37.40625 14.109375 36.03125 
Q 15.1875 34.625 17.484375 33.6875 
Q 18.796875 33.203125 25.25 31.453125 
Q 34.578125 28.953125 38.25 27.359375 
Q 41.9375 25.78125 44.03125 22.75 
Q 46.140625 19.734375 46.140625 15.234375 
Q 46.140625 10.84375 43.578125 6.953125 
Q 41.015625 3.078125 36.171875 0.953125 
Q 31.34375 -1.171875 25.25 -1.171875 
Q 15.140625 -1.171875 9.84375 3.03125 
Q 4.546875 7.234375 3.078125 15.484375 
" id="ArialMT-73"/>
       <path d="M 25.78125 7.859375 
L 27.046875 0.09375 
Q 23.34375 -0.6875 20.40625 -0.6875 
Q 15.625 -0.6875 12.984375 0.828125 
Q 10.359375 2.34375 9.28125 4.8125 
Q 8.203125 7.28125 8.203125 15.1875 
L 8.203125 45.015625 
L 1.765625 45.015625 
L 1.765625 51.859375 
L 8.203125 51.859375 
L 8.203125 64.703125 
L 16.9375 69.96875 
L 16.9375 51.859375 
L 25.78125 51.859375 
L 25.78125 45.015625 
L 16.9375 45.015625 
L 16.9375 14.703125 
Q 16.9375 10.9375 17.40625 9.859375 
Q 17.875 8.796875 18.921875 8.15625 
Q 19.96875 7.515625 21.921875 7.515625 
Q 23.390625 7.515625 25.78125 7.859375 
" id="ArialMT-74"/>
       <path d="M 6.640625 61.46875 
L 6.640625 71.578125 
L 15.4375 71.578125 
L 15.4375 61.46875 
z
M 6.640625 0 
L 6.640625 51.859375 
L 15.4375 51.859375 
L 15.4375 0 
z
" id="ArialMT-69"/>
      </defs>
      <g style="fill:#808080;" transform="translate(435.801288 210.352778)scale(0.08 -0.08)">
       <use xlink:href="#ArialMT-61"/>
       <use x="55.615234" xlink:href="#ArialMT-63"/>
       <use x="105.615234" xlink:href="#ArialMT-6f"/>
       <use x="161.230469" xlink:href="#ArialMT-75"/>
       <use x="216.845703" xlink:href="#ArialMT-73"/>
       <use x="266.845703" xlink:href="#ArialMT-74"/>
       <use x="294.628906" xlink:href="#ArialMT-69"/>
       <use x="316.845703" xlink:href="#ArialMT-63"/>
       <use x="366.845703" xlink:href="#ArialMT-6e"/>
       <use x="422.460938" xlink:href="#ArialMT-65"/>
       <use x="478.076172" xlink:href="#ArialMT-73"/>
       <use x="528.076172" xlink:href="#ArialMT-73"/>
      </g>
     </g>
    </g>
    <g id="xtick_4">
     <g id="line2d_4">
      <path clip-path="url(#p82d8ab10f9)" d="M 288 208.284653 
L 397.87357 318.158224 
" style="fill:none;stroke:#ffffff;stroke-linecap:round;"/>
     </g>
     <g id="text_4">
      <!-- speechiness -->
      <defs>
       <path d="M 6.59375 -19.875 
L 6.59375 51.859375 
L 14.59375 51.859375 
L 14.59375 45.125 
Q 17.4375 49.078125 21 51.046875 
Q 24.5625 53.03125 29.640625 53.03125 
Q 36.28125 53.03125 41.359375 49.609375 
Q 46.4375 46.1875 49.015625 39.953125 
Q 51.609375 33.734375 51.609375 26.3125 
Q 51.609375 18.359375 48.75 11.984375 
Q 45.90625 5.609375 40.453125 2.21875 
Q 35.015625 -1.171875 29 -1.171875 
Q 24.609375 -1.171875 21.109375 0.6875 
Q 17.625 2.546875 15.375 5.375 
L 15.375 -19.875 
z
M 14.546875 25.640625 
Q 14.546875 15.625 18.59375 10.84375 
Q 22.65625 6.0625 28.421875 6.0625 
Q 34.28125 6.0625 38.453125 11.015625 
Q 42.625 15.96875 42.625 26.375 
Q 42.625 36.28125 38.546875 41.203125 
Q 34.46875 46.140625 28.8125 46.140625 
Q 23.1875 46.140625 18.859375 40.890625 
Q 14.546875 35.640625 14.546875 25.640625 
" id="ArialMT-70"/>
       <path d="M 6.59375 0 
L 6.59375 71.578125 
L 15.375 71.578125 
L 15.375 45.90625 
Q 21.53125 53.03125 30.90625 53.03125 
Q 36.671875 53.03125 40.921875 50.75 
Q 45.171875 48.484375 47 44.484375 
Q 48.828125 40.484375 48.828125 32.859375 
L 48.828125 0 
L 40.046875 0 
L 40.046875 32.859375 
Q 40.046875 39.453125 37.1875 42.453125 
Q 34.328125 45.453125 29.109375 45.453125 
Q 25.203125 45.453125 21.75 43.421875 
Q 18.3125 41.40625 16.84375 37.9375 
Q 15.375 34.46875 15.375 28.375 
L 15.375 0 
z
" id="ArialMT-68"/>
      </defs>
      <g style="fill:#808080;" transform="translate(386.625927 331.213706)scale(0.08 -0.08)">
       <use xlink:href="#ArialMT-73"/>
       <use x="50" xlink:href="#ArialMT-70"/>
       <use x="105.615234" xlink:href="#ArialMT-65"/>
       <use x="161.230469" xlink:href="#ArialMT-65"/>
       <use x="216.845703" xlink:href="#ArialMT-63"/>
       <use x="266.845703" xlink:href="#ArialMT-68"/>
       <use x="322.460938" xlink:href="#ArialMT-69"/>
       <use x="344.677734" xlink:href="#ArialMT-6e"/>
       <use x="400.292969" xlink:href="#ArialMT-65"/>
       <use x="455.908203" xlink:href="#ArialMT-73"/>
       <use x="505.908203" xlink:href="#ArialMT-73"/>
      </g>
     </g>
    </g>
    <g id="xtick_5">
     <g id="line2d_5">
      <path clip-path="url(#p82d8ab10f9)" d="M 288 208.284653 
L 288 363.669347 
" style="fill:none;stroke:#ffffff;stroke-linecap:round;"/>
     </g>
     <g id="text_5">
      <!-- danceability -->
      <defs>
       <path d="M 40.234375 0 
L 40.234375 6.546875 
Q 35.296875 -1.171875 25.734375 -1.171875 
Q 19.53125 -1.171875 14.328125 2.25 
Q 9.125 5.671875 6.265625 11.796875 
Q 3.421875 17.921875 3.421875 25.875 
Q 3.421875 33.640625 6 39.96875 
Q 8.59375 46.296875 13.765625 49.65625 
Q 18.953125 53.03125 25.34375 53.03125 
Q 30.03125 53.03125 33.6875 51.046875 
Q 37.359375 49.078125 39.65625 45.90625 
L 39.65625 71.578125 
L 48.390625 71.578125 
L 48.390625 0 
z
M 12.453125 25.875 
Q 12.453125 15.921875 16.640625 10.984375 
Q 20.84375 6.0625 26.5625 6.0625 
Q 32.328125 6.0625 36.34375 10.765625 
Q 40.375 15.484375 40.375 25.140625 
Q 40.375 35.796875 36.265625 40.765625 
Q 32.171875 45.75 26.171875 45.75 
Q 20.3125 45.75 16.375 40.96875 
Q 12.453125 36.1875 12.453125 25.875 
" id="ArialMT-64"/>
       <path d="M 14.703125 0 
L 6.546875 0 
L 6.546875 71.578125 
L 15.328125 71.578125 
L 15.328125 46.046875 
Q 20.90625 53.03125 29.546875 53.03125 
Q 34.328125 53.03125 38.59375 51.09375 
Q 42.875 49.171875 45.625 45.671875 
Q 48.390625 42.1875 49.953125 37.25 
Q 51.515625 32.328125 51.515625 26.703125 
Q 51.515625 13.375 44.921875 6.09375 
Q 38.328125 -1.171875 29.109375 -1.171875 
Q 19.921875 -1.171875 14.703125 6.5 
z
M 14.59375 26.3125 
Q 14.59375 17 17.140625 12.84375 
Q 21.296875 6.0625 28.375 6.0625 
Q 34.125 6.0625 38.328125 11.0625 
Q 42.53125 16.0625 42.53125 25.984375 
Q 42.53125 36.140625 38.5 40.96875 
Q 34.46875 45.796875 28.765625 45.796875 
Q 23 45.796875 18.796875 40.796875 
Q 14.59375 35.796875 14.59375 26.3125 
" id="ArialMT-62"/>
      </defs>
      <g style="fill:#808080;" transform="translate(266.87625 381.229066)scale(0.08 -0.08)">
       <use xlink:href="#ArialMT-64"/>
       <use x="55.615234" xlink:href="#ArialMT-61"/>
       <use x="111.230469" xlink:href="#ArialMT-6e"/>
       <use x="166.845703" xlink:href="#ArialMT-63"/>
       <use x="216.845703" xlink:href="#ArialMT-65"/>
       <use x="272.460938" xlink:href="#ArialMT-61"/>
       <use x="328.076172" xlink:href="#ArialMT-62"/>
       <use x="383.691406" xlink:href="#ArialMT-69"/>
       <use x="405.908203" xlink:href="#ArialMT-6c"/>
       <use x="428.125" xlink:href="#ArialMT-69"/>
       <use x="450.341797" xlink:href="#ArialMT-74"/>
       <use x="478.125" xlink:href="#ArialMT-79"/>
      </g>
     </g>
    </g>
    <g id="xtick_6">
     <g id="line2d_6">
      <path clip-path="url(#p82d8ab10f9)" d="M 288 208.284653 
L 178.12643 318.158224 
" style="fill:none;stroke:#ffffff;stroke-linecap:round;"/>
     </g>
     <g id="text_6">
      <!-- instrumentalness -->
      <defs>
       <path d="M 6.59375 0 
L 6.59375 51.859375 
L 14.453125 51.859375 
L 14.453125 44.578125 
Q 16.890625 48.390625 20.9375 50.703125 
Q 25 53.03125 30.171875 53.03125 
Q 35.9375 53.03125 39.625 50.640625 
Q 43.3125 48.25 44.828125 43.953125 
Q 50.984375 53.03125 60.84375 53.03125 
Q 68.5625 53.03125 72.703125 48.75 
Q 76.859375 44.484375 76.859375 35.59375 
L 76.859375 0 
L 68.109375 0 
L 68.109375 32.671875 
Q 68.109375 37.9375 67.25 40.25 
Q 66.40625 42.578125 64.15625 43.984375 
Q 61.921875 45.40625 58.890625 45.40625 
Q 53.421875 45.40625 49.796875 41.765625 
Q 46.1875 38.140625 46.1875 30.125 
L 46.1875 0 
L 37.40625 0 
L 37.40625 33.6875 
Q 37.40625 39.546875 35.25 42.46875 
Q 33.109375 45.40625 28.21875 45.40625 
Q 24.515625 45.40625 21.359375 43.453125 
Q 18.21875 41.5 16.796875 37.734375 
Q 15.375 33.984375 15.375 26.90625 
L 15.375 0 
z
" id="ArialMT-6d"/>
      </defs>
      <g style="fill:#808080;" transform="translate(136.904698 331.213706)scale(0.08 -0.08)">
       <use xlink:href="#ArialMT-69"/>
       <use x="22.216797" xlink:href="#ArialMT-6e"/>
       <use x="77.832031" xlink:href="#ArialMT-73"/>
       <use x="127.832031" xlink:href="#ArialMT-74"/>
       <use x="155.615234" xlink:href="#ArialMT-72"/>
       <use x="188.916016" xlink:href="#ArialMT-75"/>
       <use x="244.53125" xlink:href="#ArialMT-6d"/>
       <use x="327.832031" xlink:href="#ArialMT-65"/>
       <use x="383.447266" xlink:href="#ArialMT-6e"/>
       <use x="439.0625" xlink:href="#ArialMT-74"/>
       <use x="466.845703" xlink:href="#ArialMT-61"/>
       <use x="522.460938" xlink:href="#ArialMT-6c"/>
       <use x="544.677734" xlink:href="#ArialMT-6e"/>
       <use x="600.292969" xlink:href="#ArialMT-65"/>
       <use x="655.908203" xlink:href="#ArialMT-73"/>
       <use x="705.908203" xlink:href="#ArialMT-73"/>
      </g>
     </g>
    </g>
    <g id="xtick_7">
     <g id="line2d_7">
      <path clip-path="url(#p82d8ab10f9)" d="M 288 208.284653 
L 132.615307 208.284653 
" style="fill:none;stroke:#ffffff;stroke-linecap:round;"/>
     </g>
     <g id="text_7">
      <!-- liveness -->
      <g style="fill:#808080;" transform="translate(102.626212 210.352778)scale(0.08 -0.08)">
       <use xlink:href="#ArialMT-6c"/>
       <use x="22.216797" xlink:href="#ArialMT-69"/>
       <use x="44.433594" xlink:href="#ArialMT-76"/>
       <use x="94.433594" xlink:href="#ArialMT-65"/>
       <use x="150.048828" xlink:href="#ArialMT-6e"/>
       <use x="205.664062" xlink:href="#ArialMT-65"/>
       <use x="261.279297" xlink:href="#ArialMT-73"/>
       <use x="311.279297" xlink:href="#ArialMT-73"/>
      </g>
     </g>
    </g>
    <g id="xtick_8">
     <g id="line2d_8">
      <path clip-path="url(#p82d8ab10f9)" d="M 288 208.284653 
L 178.12643 98.411083 
" style="fill:none;stroke:#ffffff;stroke-linecap:round;"/>
     </g>
     <g id="text_8">
      <!-- mode -->
      <g style="fill:#808080;" transform="translate(157.134073 89.491851)scale(0.08 -0.08)">
       <use xlink:href="#ArialMT-6d"/>
       <use x="83.300781" xlink:href="#ArialMT-6f"/>
       <use x="138.916016" xlink:href="#ArialMT-64"/>
       <use x="194.53125" xlink:href="#ArialMT-65"/>
      </g>
     </g>
    </g>
   </g>
   <g id="matplotlib.axis_2">
    <g id="ytick_1">
     <g id="line2d_9">
      <path clip-path="url(#p82d8ab10f9)" d="M 288 177.207715 
L 289.08457 177.226646 
L 290.167818 177.283417 
L 292.325074 177.510153 
L 294.461259 177.88682 
L 296.565965 178.411583 
L 298.628939 179.081883 
L 300.64013 179.894457 
L 302.589739 180.845345 
L 304.468268 181.929915 
L 306.266566 183.142882 
L 307.975871 184.478337 
L 309.587856 185.929775 
L 311.094666 187.490123 
L 312.488962 189.15178 
L 313.76395 190.90665 
L 314.913418 192.746184 
L 315.931767 194.66142 
L 316.814036 196.643027 
L 317.555925 198.681351 
L 318.153821 200.766462 
L 318.60481 202.8882 
L 318.906696 205.036229 
L 319.058007 207.200084 
L 319.058007 209.369223 
L 318.906696 211.533078 
L 318.60481 213.681107 
L 318.153821 215.802845 
L 317.555925 217.887956 
L 316.814036 219.92628 
L 315.931767 221.907887 
L 314.913418 223.823123 
L 313.76395 225.662657 
L 312.488962 227.417527 
L 311.094666 229.079184 
L 309.587856 230.639532 
L 307.975871 232.09097 
L 306.266566 233.426425 
L 304.468268 234.639392 
L 302.589739 235.723962 
L 300.64013 236.67485 
L 298.628939 237.487423 
L 296.565965 238.157724 
L 294.461259 238.682486 
L 292.325074 239.059153 
L 290.167818 239.28589 
L 288 239.361592 
L 285.832182 239.28589 
L 283.674926 239.059153 
L 281.538741 238.682486 
L 279.434035 238.157724 
L 277.371061 237.487423 
L 275.35987 236.67485 
L 273.410261 235.723962 
L 271.531732 234.639392 
L 269.733434 233.426425 
L 268.024129 232.09097 
L 266.412144 230.639532 
L 264.905334 229.079184 
L 263.511038 227.417527 
L 262.23605 225.662657 
L 261.086582 223.823123 
L 260.068233 221.907887 
L 259.185964 219.92628 
L 258.444075 217.887956 
L 257.846179 215.802845 
L 257.39519 213.681107 
L 257.093304 211.533078 
L 256.941993 209.369223 
L 256.941993 207.200084 
L 257.093304 205.036229 
L 257.39519 202.8882 
L 257.846179 200.766462 
L 258.444075 198.681351 
L 259.185964 196.643027 
L 260.068233 194.66142 
L 261.086582 192.746184 
L 262.23605 190.90665 
L 263.511038 189.15178 
L 264.905334 187.490123 
L 266.412144 185.929775 
L 268.024129 184.478337 
L 269.733434 183.142882 
L 271.531732 181.929915 
L 273.410261 180.845345 
L 275.35987 179.894457 
L 277.371061 179.081883 
L 279.434035 178.411583 
L 281.538741 177.88682 
L 283.674926 177.510153 
L 285.832182 177.283417 
L 288 177.207715 
L 288 177.207715 
" style="fill:none;stroke:#ffffff;stroke-linecap:round;"/>
     </g>
     <g id="text_9">
      <!-- 0.2 -->
      <defs>
       <path d="M 4.15625 35.296875 
Q 4.15625 48 6.765625 55.734375 
Q 9.375 63.484375 14.515625 67.671875 
Q 19.671875 71.875 27.484375 71.875 
Q 33.25 71.875 37.59375 69.546875 
Q 41.9375 67.234375 44.765625 62.859375 
Q 47.609375 58.5 49.21875 52.21875 
Q 50.828125 45.953125 50.828125 35.296875 
Q 50.828125 22.703125 48.234375 14.96875 
Q 45.65625 7.234375 40.5 3 
Q 35.359375 -1.21875 27.484375 -1.21875 
Q 17.140625 -1.21875 11.234375 6.203125 
Q 4.15625 15.140625 4.15625 35.296875 
M 13.1875 35.296875 
Q 13.1875 17.671875 17.3125 11.828125 
Q 21.4375 6 27.484375 6 
Q 33.546875 6 37.671875 11.859375 
Q 41.796875 17.71875 41.796875 35.296875 
Q 41.796875 52.984375 37.671875 58.78125 
Q 33.546875 64.59375 27.390625 64.59375 
Q 21.34375 64.59375 17.71875 59.46875 
Q 13.1875 52.9375 13.1875 35.296875 
" id="ArialMT-30"/>
       <path d="M 9.078125 0 
L 9.078125 10.015625 
L 19.09375 10.015625 
L 19.09375 0 
z
" id="ArialMT-2e"/>
       <path d="M 50.34375 8.453125 
L 50.34375 0 
L 3.03125 0 
Q 2.9375 3.171875 4.046875 6.109375 
Q 5.859375 10.9375 9.828125 15.625 
Q 13.8125 20.3125 21.34375 26.46875 
Q 33.015625 36.03125 37.109375 41.625 
Q 41.21875 47.21875 41.21875 52.203125 
Q 41.21875 57.421875 37.46875 61 
Q 33.734375 64.59375 27.734375 64.59375 
Q 21.390625 64.59375 17.578125 60.78125 
Q 13.765625 56.984375 13.71875 50.25 
L 4.6875 51.171875 
Q 5.609375 61.28125 11.65625 66.578125 
Q 17.71875 71.875 27.9375 71.875 
Q 38.234375 71.875 44.234375 66.15625 
Q 50.25 60.453125 50.25 52 
Q 50.25 47.703125 48.484375 43.546875 
Q 46.734375 39.40625 42.65625 34.8125 
Q 38.578125 30.21875 29.109375 22.21875 
Q 21.1875 15.578125 18.9375 13.203125 
Q 16.703125 10.84375 15.234375 8.453125 
z
" id="ArialMT-32"/>
      </defs>
      <g style="fill:#808080;" transform="translate(288 175.816465)scale(0.07 -0.07)">
       <use xlink:href="#ArialMT-30"/>
       <use x="55.615234" xlink:href="#ArialMT-2e"/>
       <use x="83.398438" xlink:href="#ArialMT-32"/>
      </g>
     </g>
    </g>
    <g id="ytick_2">
     <g id="line2d_10">
      <path clip-path="url(#p82d8ab10f9)" d="M 288 146.130776 
L 290.169139 146.168639 
L 292.335635 146.28218 
L 296.650148 146.735653 
L 300.922518 147.488987 
L 305.13193 148.538512 
L 309.257878 149.879114 
L 313.280259 151.504261 
L 317.179478 153.406037 
L 320.936537 155.575176 
L 324.533132 158.00111 
L 327.951742 160.672021 
L 331.175711 163.574896 
L 334.189332 166.695592 
L 336.977924 170.018906 
L 339.5279 173.528646 
L 341.826837 177.207715 
L 343.863535 181.038187 
L 345.628072 185.001401 
L 347.11185 189.078049 
L 348.307642 193.24827 
L 349.20962 197.491746 
L 349.813392 201.787804 
L 350.116015 206.115514 
L 350.116015 210.453792 
L 349.813392 214.781503 
L 349.20962 219.077561 
L 348.307642 223.321037 
L 347.11185 227.491258 
L 345.628072 231.567906 
L 343.863535 235.53112 
L 341.826837 239.361592 
L 339.5279 243.040661 
L 336.977924 246.550401 
L 334.189332 249.873715 
L 331.175711 252.994411 
L 327.951742 255.897286 
L 324.533132 258.568197 
L 320.936537 260.994131 
L 317.179478 263.16327 
L 313.280259 265.065046 
L 309.257878 266.690193 
L 305.13193 268.030795 
L 300.922518 269.080319 
L 296.650148 269.833654 
L 292.335635 270.287127 
L 288 270.438531 
L 283.664365 270.287127 
L 279.349852 269.833654 
L 275.077482 269.080319 
L 270.86807 268.030795 
L 266.742122 266.690193 
L 262.719741 265.065046 
L 258.820522 263.16327 
L 255.063463 260.994131 
L 251.466868 258.568197 
L 248.048258 255.897286 
L 244.824289 252.994411 
L 241.810668 249.873715 
L 239.022076 246.550401 
L 236.4721 243.040661 
L 234.173163 239.361592 
L 232.136465 235.53112 
L 230.371928 231.567906 
L 228.88815 227.491258 
L 227.692358 223.321037 
L 226.79038 219.077561 
L 226.186608 214.781503 
L 225.883985 210.453792 
L 225.883985 206.115514 
L 226.186608 201.787804 
L 226.79038 197.491746 
L 227.692358 193.24827 
L 228.88815 189.078049 
L 230.371928 185.001401 
L 232.136465 181.038187 
L 234.173163 177.207715 
L 236.4721 173.528646 
L 239.022076 170.018906 
L 241.810668 166.695592 
L 244.824289 163.574896 
L 248.048258 160.672021 
L 251.466868 158.00111 
L 255.063463 155.575176 
L 258.820522 153.406037 
L 262.719741 151.504261 
L 266.742122 149.879114 
L 270.86807 148.538512 
L 275.077482 147.488987 
L 279.349852 146.735653 
L 283.664365 146.28218 
L 288 146.130776 
L 288 146.130776 
" style="fill:none;stroke:#ffffff;stroke-linecap:round;"/>
     </g>
     <g id="text_10">
      <!-- 0.4 -->
      <defs>
       <path d="M 32.328125 0 
L 32.328125 17.140625 
L 1.265625 17.140625 
L 1.265625 25.203125 
L 33.9375 71.578125 
L 41.109375 71.578125 
L 41.109375 25.203125 
L 50.78125 25.203125 
L 50.78125 17.140625 
L 41.109375 17.140625 
L 41.109375 0 
z
M 32.328125 25.203125 
L 32.328125 57.46875 
L 9.90625 25.203125 
z
" id="ArialMT-34"/>
      </defs>
      <g style="fill:#808080;" transform="translate(288 144.739526)scale(0.07 -0.07)">
       <use xlink:href="#ArialMT-30"/>
       <use x="55.615234" xlink:href="#ArialMT-2e"/>
       <use x="83.398438" xlink:href="#ArialMT-34"/>
      </g>
     </g>
    </g>
    <g id="ytick_3">
     <g id="line2d_11">
      <path clip-path="url(#p82d8ab10f9)" d="M 288 115.053837 
L 291.253709 115.110631 
L 294.503453 115.280943 
L 297.745274 115.564566 
L 300.975222 115.961153 
L 304.189361 116.470223 
L 307.383777 117.091154 
L 310.554576 117.823191 
L 313.697896 118.665441 
L 316.809907 119.616878 
L 319.886817 120.676344 
L 322.924878 121.842546 
L 325.920389 123.114065 
L 328.8697 124.489351 
L 331.769217 125.966729 
L 334.615408 127.544398 
L 337.404805 129.220437 
L 340.134011 130.992804 
L 342.799699 132.859339 
L 345.398622 134.817768 
L 347.927613 136.865705 
L 350.383592 139.000655 
L 352.763567 141.220017 
L 355.064637 143.521087 
L 357.283999 145.901061 
L 359.418949 148.35704 
L 361.466886 150.886032 
L 363.425315 153.484955 
L 365.291849 156.150643 
L 367.064216 158.879848 
L 368.740255 161.669245 
L 370.317925 164.515437 
L 371.795302 167.414954 
L 373.170589 170.364264 
L 374.442107 173.359775 
L 375.60831 176.397836 
L 376.667775 179.474747 
L 377.619212 182.586758 
L 378.461462 185.730078 
L 379.193499 188.900877 
L 379.81443 192.095292 
L 380.3235 195.309432 
L 380.720088 198.539379 
L 381.00371 201.7812 
L 381.174022 205.030945 
L 381.230816 208.284653 
L 381.174022 211.538362 
L 381.00371 214.788106 
L 380.720088 218.029927 
L 380.3235 221.259875 
L 379.81443 224.474015 
L 379.193499 227.66843 
L 378.461462 230.839229 
L 377.619212 233.982549 
L 376.667775 237.09456 
L 375.60831 240.171471 
L 374.442107 243.209532 
L 373.170589 246.205043 
L 371.795302 249.154353 
L 370.317925 252.05387 
L 368.740255 254.900061 
L 367.064216 257.689459 
L 365.291849 260.418664 
L 363.425315 263.084352 
L 361.466886 265.683275 
L 359.418949 268.212267 
L 357.283999 270.668246 
L 355.064637 273.04822 
L 352.763567 275.34929 
L 350.383592 277.568652 
L 347.927613 279.703602 
L 345.398622 281.751539 
L 342.799699 283.709968 
L 340.134011 285.576503 
L 337.404805 287.34887 
L 334.615408 289.024909 
L 331.769217 290.602578 
L 328.8697 292.079956 
L 325.920389 293.455242 
L 322.924878 294.726761 
L 319.886817 295.892963 
L 316.809907 296.952429 
L 313.697896 297.903866 
L 310.554576 298.746116 
L 307.383777 299.478152 
L 304.189361 300.099084 
L 300.975222 300.608154 
L 297.745274 301.004741 
L 294.503453 301.288364 
L 291.253709 301.458676 
L 288 301.51547 
L 284.746291 301.458676 
L 281.496547 301.288364 
L 278.254726 301.004741 
L 275.024778 300.608154 
L 271.810639 300.099084 
L 268.616223 299.478152 
L 265.445424 298.746116 
L 262.302104 297.903866 
L 259.190093 296.952429 
L 256.113183 295.892963 
L 253.075122 294.726761 
L 250.079611 293.455242 
L 247.1303 292.079956 
L 244.230783 290.602578 
L 241.384592 289.024909 
L 238.595195 287.34887 
L 235.865989 285.576503 
L 233.200301 283.709968 
L 230.601378 281.751539 
L 228.072387 279.703602 
L 225.616408 277.568652 
L 223.236433 275.34929 
L 220.935363 273.04822 
L 218.716001 270.668246 
L 216.581051 268.212267 
L 214.533114 265.683275 
L 212.574685 263.084352 
L 210.708151 260.418664 
L 208.935784 257.689459 
L 207.259745 254.900061 
L 205.682075 252.05387 
L 204.204698 249.154353 
L 202.829411 246.205043 
L 201.557893 243.209532 
L 200.39169 240.171471 
L 199.332225 237.09456 
L 198.380788 233.982549 
L 197.538538 230.839229 
L 196.806501 227.66843 
L 196.18557 224.474015 
L 195.6765 221.259875 
L 195.279912 218.029927 
L 194.99629 214.788106 
L 194.825978 211.538362 
L 194.769184 208.284653 
L 194.825978 205.030945 
L 194.99629 201.7812 
L 195.279912 198.539379 
L 195.6765 195.309432 
L 196.18557 192.095292 
L 196.806501 188.900877 
L 197.538538 185.730078 
L 198.380788 182.586758 
L 199.332225 179.474747 
L 200.39169 176.397836 
L 201.557893 173.359775 
L 202.829411 170.364264 
L 204.204698 167.414954 
L 205.682075 164.515437 
L 207.259745 161.669245 
L 208.935784 158.879848 
L 210.708151 156.150643 
L 212.574685 153.484955 
L 214.533114 150.886032 
L 216.581051 148.35704 
L 218.716001 145.901061 
L 220.935363 143.521087 
L 223.236433 141.220017 
L 225.616408 139.000655 
L 228.072387 136.865705 
L 230.601378 134.817768 
L 233.200301 132.859339 
L 235.865989 130.992804 
L 238.595195 129.220437 
L 241.384592 127.544398 
L 244.230783 125.966729 
L 247.1303 124.489351 
L 250.079611 123.114065 
L 253.075122 121.842546 
L 256.113183 120.676344 
L 259.190093 119.616878 
L 262.302104 118.665441 
L 265.445424 117.823191 
L 268.616223 117.091154 
L 271.810639 116.470223 
L 275.024778 115.961153 
L 278.254726 115.564566 
L 281.496547 115.280943 
L 284.746291 115.110631 
L 288 115.053837 
L 288 115.053837 
" style="fill:none;stroke:#ffffff;stroke-linecap:round;"/>
     </g>
     <g id="text_11">
      <!-- 0.6 -->
      <defs>
       <path d="M 49.75 54.046875 
L 41.015625 53.375 
Q 39.84375 58.546875 37.703125 60.890625 
Q 34.125 64.65625 28.90625 64.65625 
Q 24.703125 64.65625 21.53125 62.3125 
Q 17.390625 59.28125 14.984375 53.46875 
Q 12.59375 47.65625 12.5 36.921875 
Q 15.671875 41.75 20.265625 44.09375 
Q 24.859375 46.4375 29.890625 46.4375 
Q 38.671875 46.4375 44.84375 39.96875 
Q 51.03125 33.5 51.03125 23.25 
Q 51.03125 16.5 48.125 10.71875 
Q 45.21875 4.9375 40.140625 1.859375 
Q 35.0625 -1.21875 28.609375 -1.21875 
Q 17.625 -1.21875 10.6875 6.859375 
Q 3.765625 14.9375 3.765625 33.5 
Q 3.765625 54.25 11.421875 63.671875 
Q 18.109375 71.875 29.4375 71.875 
Q 37.890625 71.875 43.28125 67.140625 
Q 48.6875 62.40625 49.75 54.046875 
M 13.875 23.1875 
Q 13.875 18.65625 15.796875 14.5 
Q 17.71875 10.359375 21.1875 8.171875 
Q 24.65625 6 28.46875 6 
Q 34.03125 6 38.03125 10.484375 
Q 42.046875 14.984375 42.046875 22.703125 
Q 42.046875 30.125 38.078125 34.390625 
Q 34.125 38.671875 28.125 38.671875 
Q 22.171875 38.671875 18.015625 34.390625 
Q 13.875 30.125 13.875 23.1875 
" id="ArialMT-36"/>
      </defs>
      <g style="fill:#808080;" transform="translate(288 113.662587)scale(0.07 -0.07)">
       <use xlink:href="#ArialMT-30"/>
       <use x="55.615234" xlink:href="#ArialMT-2e"/>
       <use x="83.398438" xlink:href="#ArialMT-36"/>
      </g>
     </g>
    </g>
    <g id="ytick_4">
     <g id="line2d_12">
      <path clip-path="url(#p82d8ab10f9)" d="M 288 83.976899 
L 292.338278 84.052624 
L 296.671271 84.279706 
L 300.993699 84.65787 
L 305.300296 85.186653 
L 309.585815 85.865413 
L 313.845035 86.693321 
L 318.072768 87.66937 
L 322.263861 88.79237 
L 326.413209 90.060953 
L 330.515756 91.473574 
L 334.566505 93.02851 
L 338.560519 94.723869 
L 342.492933 96.557584 
L 346.358956 98.527421 
L 350.153877 100.63098 
L 353.873074 102.865699 
L 357.512014 105.228854 
L 361.066265 107.717567 
L 364.531496 110.328806 
L 367.903485 113.059389 
L 371.178123 115.905989 
L 374.351422 118.865138 
L 377.419515 121.933231 
L 380.378665 125.10653 
L 383.225265 128.381169 
L 385.955848 131.753158 
L 388.567086 135.218388 
L 391.055799 138.772639 
L 393.418955 142.411579 
L 395.653674 146.130776 
L 397.757233 149.925698 
L 399.72707 153.79172 
L 401.560785 157.724135 
L 403.256143 161.718149 
L 404.81108 165.768897 
L 406.2237 169.871445 
L 407.492283 174.020793 
L 408.615283 178.211886 
L 409.591332 182.439618 
L 410.419241 186.698838 
L 411.098 190.984358 
L 411.626784 195.290955 
L 412.004947 199.613383 
L 412.23203 203.946375 
L 412.307755 208.284653 
L 412.23203 212.622932 
L 412.004947 216.955924 
L 411.626784 221.278352 
L 411.098 225.584949 
L 410.419241 229.870469 
L 409.591332 234.129689 
L 408.615283 238.357421 
L 407.492283 242.548514 
L 406.2237 246.697862 
L 404.81108 250.80041 
L 403.256143 254.851158 
L 401.560785 258.845172 
L 399.72707 262.777586 
L 397.757233 266.643609 
L 395.653674 270.438531 
L 393.418955 274.157727 
L 391.055799 277.796668 
L 388.567086 281.350918 
L 385.955848 284.816149 
L 383.225265 288.188138 
L 380.378665 291.462777 
L 377.419515 294.636076 
L 374.351422 297.704169 
L 371.178123 300.663318 
L 367.903485 303.509918 
L 364.531496 306.240501 
L 361.066265 308.85174 
L 357.512014 311.340453 
L 353.873074 313.703608 
L 350.153877 315.938327 
L 346.358956 318.041886 
L 342.492933 320.011723 
L 338.560519 321.845438 
L 334.566505 323.540797 
L 330.515756 325.095733 
L 326.413209 326.508354 
L 322.263861 327.776937 
L 318.072768 328.899937 
L 313.845035 329.875986 
L 309.585815 330.703894 
L 305.300296 331.382654 
L 300.993699 331.911437 
L 296.671271 332.289601 
L 292.338278 332.516683 
L 288 332.592408 
L 283.661722 332.516683 
L 279.328729 332.289601 
L 275.006301 331.911437 
L 270.699704 331.382654 
L 266.414185 330.703894 
L 262.154965 329.875986 
L 257.927232 328.899937 
L 253.736139 327.776937 
L 249.586791 326.508354 
L 245.484244 325.095733 
L 241.433495 323.540797 
L 237.439481 321.845438 
L 233.507067 320.011723 
L 229.641044 318.041886 
L 225.846123 315.938327 
L 222.126926 313.703608 
L 218.487986 311.340453 
L 214.933735 308.85174 
L 211.468504 306.240501 
L 208.096515 303.509918 
L 204.821877 300.663318 
L 201.648578 297.704169 
L 198.580485 294.636076 
L 195.621335 291.462777 
L 192.774735 288.188138 
L 190.044152 284.816149 
L 187.432914 281.350918 
L 184.944201 277.796668 
L 182.581045 274.157727 
L 180.346326 270.438531 
L 178.242767 266.643609 
L 176.27293 262.777586 
L 174.439215 258.845172 
L 172.743857 254.851158 
L 171.18892 250.80041 
L 169.7763 246.697862 
L 168.507717 242.548514 
L 167.384717 238.357421 
L 166.408668 234.129689 
L 165.580759 229.870469 
L 164.902 225.584949 
L 164.373216 221.278352 
L 163.995053 216.955924 
L 163.76797 212.622932 
L 163.692245 208.284653 
L 163.76797 203.946375 
L 163.995053 199.613383 
L 164.373216 195.290955 
L 164.902 190.984358 
L 165.580759 186.698838 
L 166.408668 182.439618 
L 167.384717 178.211886 
L 168.507717 174.020793 
L 169.7763 169.871445 
L 171.18892 165.768897 
L 172.743857 161.718149 
L 174.439215 157.724135 
L 176.27293 153.79172 
L 178.242767 149.925698 
L 180.346326 146.130776 
L 182.581045 142.411579 
L 184.944201 138.772639 
L 187.432914 135.218388 
L 190.044152 131.753158 
L 192.774735 128.381169 
L 195.621335 125.10653 
L 198.580485 121.933231 
L 201.648578 118.865138 
L 204.821877 115.905989 
L 208.096515 113.059389 
L 211.468504 110.328806 
L 214.933735 107.717567 
L 218.487986 105.228854 
L 222.126926 102.865699 
L 225.846123 100.63098 
L 229.641044 98.527421 
L 233.507067 96.557584 
L 237.439481 94.723869 
L 241.433495 93.02851 
L 245.484244 91.473574 
L 249.586791 90.060953 
L 253.736139 88.79237 
L 257.927232 87.66937 
L 262.154965 86.693321 
L 266.414185 85.865413 
L 270.699704 85.186653 
L 275.006301 84.65787 
L 279.328729 84.279706 
L 283.661722 84.052624 
L 288 83.976899 
L 288 83.976899 
" style="fill:none;stroke:#ffffff;stroke-linecap:round;"/>
     </g>
     <g id="text_12">
      <!-- 0.8 -->
      <defs>
       <path d="M 17.671875 38.8125 
Q 12.203125 40.828125 9.5625 44.53125 
Q 6.9375 48.25 6.9375 53.421875 
Q 6.9375 61.234375 12.546875 66.546875 
Q 18.171875 71.875 27.484375 71.875 
Q 36.859375 71.875 42.578125 66.421875 
Q 48.296875 60.984375 48.296875 53.171875 
Q 48.296875 48.1875 45.671875 44.5 
Q 43.0625 40.828125 37.75 38.8125 
Q 44.34375 36.671875 47.78125 31.875 
Q 51.21875 27.09375 51.21875 20.453125 
Q 51.21875 11.28125 44.71875 5.03125 
Q 38.234375 -1.21875 27.640625 -1.21875 
Q 17.046875 -1.21875 10.546875 5.046875 
Q 4.046875 11.328125 4.046875 20.703125 
Q 4.046875 27.6875 7.59375 32.390625 
Q 11.140625 37.109375 17.671875 38.8125 
M 15.921875 53.71875 
Q 15.921875 48.640625 19.1875 45.40625 
Q 22.46875 42.1875 27.6875 42.1875 
Q 32.765625 42.1875 36.015625 45.375 
Q 39.265625 48.578125 39.265625 53.21875 
Q 39.265625 58.0625 35.90625 61.359375 
Q 32.5625 64.65625 27.59375 64.65625 
Q 22.5625 64.65625 19.234375 61.421875 
Q 15.921875 58.203125 15.921875 53.71875 
M 13.09375 20.65625 
Q 13.09375 16.890625 14.875 13.375 
Q 16.65625 9.859375 20.171875 7.921875 
Q 23.6875 6 27.734375 6 
Q 34.03125 6 38.125 10.046875 
Q 42.234375 14.109375 42.234375 20.359375 
Q 42.234375 26.703125 38.015625 30.859375 
Q 33.796875 35.015625 27.4375 35.015625 
Q 21.234375 35.015625 17.15625 30.90625 
Q 13.09375 26.8125 13.09375 20.65625 
" id="ArialMT-38"/>
      </defs>
      <g style="fill:#808080;" transform="translate(288 82.585649)scale(0.07 -0.07)">
       <use xlink:href="#ArialMT-30"/>
       <use x="55.615234" xlink:href="#ArialMT-2e"/>
       <use x="83.398438" xlink:href="#ArialMT-38"/>
      </g>
     </g>
    </g>
   </g>
   <g id="patch_3">
    <path clip-path="url(#p82d8ab10f9)" d="M 288 147.457095 
L 356.663133 139.62152 
L 330.442219 208.284653 
L 297.343178 217.627831 
L 288 289.42876 
L 271.74656 224.538094 
L 258.882018 208.284653 
L 221.973832 142.258486 
z
" style="fill:#808080;opacity:0.5;stroke:#808080;stroke-linejoin:miter;stroke-width:0.3;"/>
   </g>
   <g id="patch_4">
    <path clip-path="url(#p82d8ab10f9)" d="M 288 128.106152 
L 367.328718 128.955936 
L 298.410774 208.284653 
L 293.713426 213.998079 
L 288 282.403152 
L 268.772125 227.512528 
L 265.624604 208.284653 
L 212.846478 133.131131 
z
" style="fill:#97f0aa;opacity:0.5;stroke:#97f0aa;stroke-linejoin:miter;stroke-width:0.3;"/>
   </g>
   <g id="line2d_13">
    <path clip-path="url(#p82d8ab10f9)" d="M 288 147.457095 
L 356.663133 139.62152 
L 330.442219 208.284653 
L 297.343178 217.627831 
L 288 289.42876 
L 271.74656 224.538094 
L 258.882018 208.284653 
L 221.973832 142.258486 
L 288 147.457095 
" style="fill:none;stroke:#808080;stroke-linecap:round;"/>
   </g>
   <g id="line2d_14">
    <path clip-path="url(#p82d8ab10f9)" d="M 288 128.106152 
L 367.328718 128.955936 
L 298.410774 208.284653 
L 293.713426 213.998079 
L 288 282.403152 
L 268.772125 227.512528 
L 265.624604 208.284653 
L 212.846478 133.131131 
L 288 128.106152 
" style="fill:none;stroke:#97f0aa;stroke-linecap:round;"/>
   </g>
   <g id="patch_5">
    <path d="M 288 363.669347 
C 329.208502 363.669347 368.734759 347.297035 397.87357 318.158224 
C 427.012382 289.019412 443.384693 249.493156 443.384693 208.284653 
C 443.384693 167.076151 427.012382 127.549894 397.87357 98.411083 
C 368.734759 69.272272 329.208502 52.89996 288 52.89996 
C 246.791498 52.89996 207.265241 69.272272 178.12643 98.411083 
C 148.987618 127.549894 132.615307 167.076151 132.615307 208.284653 
C 132.615307 249.493156 148.987618 289.019412 178.12643 318.158224 
C 207.265241 347.297035 246.791498 363.669347 288 363.669347 
z
" style="fill:none;"/>
   </g>
   <g id="text_13">
    <!-- Alt Rock -->
    <defs>
     <path d="M 71.828125 0 
L 56.109375 0 
L 49.859375 16.265625 
L 21.234375 16.265625 
L 15.328125 0 
L 0 0 
L 27.875 71.578125 
L 43.171875 71.578125 
z
M 45.21875 28.328125 
L 35.359375 54.890625 
L 25.6875 28.328125 
z
" id="Arial-BoldMT-41"/>
     <path d="M 7.171875 0 
L 7.171875 71.578125 
L 20.90625 71.578125 
L 20.90625 0 
z
" id="Arial-BoldMT-6c"/>
     <path d="M 30.953125 51.859375 
L 30.953125 40.921875 
L 21.578125 40.921875 
L 21.578125 20.015625 
Q 21.578125 13.671875 21.84375 12.625 
Q 22.125 11.578125 23.078125 10.890625 
Q 24.03125 10.203125 25.390625 10.203125 
Q 27.296875 10.203125 30.90625 11.53125 
L 32.078125 0.875 
Q 27.296875 -1.171875 21.234375 -1.171875 
Q 17.53125 -1.171875 14.546875 0.0625 
Q 11.578125 1.3125 10.1875 3.296875 
Q 8.796875 5.28125 8.25 8.640625 
Q 7.8125 11.03125 7.8125 18.3125 
L 7.8125 40.921875 
L 1.515625 40.921875 
L 1.515625 51.859375 
L 7.8125 51.859375 
L 7.8125 62.15625 
L 21.578125 70.171875 
L 21.578125 51.859375 
z
" id="Arial-BoldMT-74"/>
     <path id="Arial-BoldMT-20"/>
     <path d="M 7.328125 0 
L 7.328125 71.578125 
L 37.75 71.578125 
Q 49.21875 71.578125 54.421875 69.640625 
Q 59.625 67.71875 62.75 62.78125 
Q 65.875 57.859375 65.875 51.515625 
Q 65.875 43.453125 61.125 38.203125 
Q 56.390625 32.953125 46.96875 31.59375 
Q 51.65625 28.859375 54.703125 25.578125 
Q 57.765625 22.3125 62.9375 13.96875 
L 71.6875 0 
L 54.390625 0 
L 43.953125 15.578125 
Q 38.375 23.921875 36.328125 26.09375 
Q 34.28125 28.265625 31.984375 29.078125 
Q 29.6875 29.890625 24.703125 29.890625 
L 21.78125 29.890625 
L 21.78125 0 
z
M 21.78125 41.3125 
L 32.46875 41.3125 
Q 42.875 41.3125 45.453125 42.1875 
Q 48.046875 43.0625 49.515625 45.203125 
Q 50.984375 47.359375 50.984375 50.59375 
Q 50.984375 54.203125 49.046875 56.421875 
Q 47.125 58.640625 43.609375 59.234375 
Q 41.84375 59.46875 33.0625 59.46875 
L 21.78125 59.46875 
z
" id="Arial-BoldMT-52"/>
     <path d="M 4 26.65625 
Q 4 33.5 7.375 39.890625 
Q 10.75 46.296875 16.921875 49.65625 
Q 23.09375 53.03125 30.71875 53.03125 
Q 42.484375 53.03125 50 45.390625 
Q 57.515625 37.75 57.515625 26.078125 
Q 57.515625 14.3125 49.921875 6.5625 
Q 42.328125 -1.171875 30.8125 -1.171875 
Q 23.6875 -1.171875 17.21875 2.046875 
Q 10.75 5.28125 7.375 11.5 
Q 4 17.71875 4 26.65625 
M 18.0625 25.921875 
Q 18.0625 18.21875 21.71875 14.109375 
Q 25.390625 10.015625 30.765625 10.015625 
Q 36.140625 10.015625 39.765625 14.109375 
Q 43.40625 18.21875 43.40625 26.03125 
Q 43.40625 33.640625 39.765625 37.734375 
Q 36.140625 41.84375 30.765625 41.84375 
Q 25.390625 41.84375 21.71875 37.734375 
Q 18.0625 33.640625 18.0625 25.921875 
" id="Arial-BoldMT-6f"/>
     <path d="M 52.390625 36.53125 
L 38.875 34.078125 
Q 38.1875 38.140625 35.765625 40.1875 
Q 33.34375 42.234375 29.5 42.234375 
Q 24.359375 42.234375 21.3125 38.6875 
Q 18.265625 35.15625 18.265625 26.859375 
Q 18.265625 17.625 21.359375 13.8125 
Q 24.46875 10.015625 29.6875 10.015625 
Q 33.59375 10.015625 36.078125 12.234375 
Q 38.578125 14.453125 39.59375 19.875 
L 53.078125 17.578125 
Q 50.984375 8.296875 45.015625 3.5625 
Q 39.0625 -1.171875 29.046875 -1.171875 
Q 17.671875 -1.171875 10.90625 6 
Q 4.15625 13.1875 4.15625 25.875 
Q 4.15625 38.71875 10.9375 45.875 
Q 17.71875 53.03125 29.296875 53.03125 
Q 38.765625 53.03125 44.359375 48.953125 
Q 49.953125 44.875 52.390625 36.53125 
" id="Arial-BoldMT-63"/>
     <path d="M 6.6875 0 
L 6.6875 71.578125 
L 20.40625 71.578125 
L 20.40625 33.59375 
L 36.46875 51.859375 
L 53.375 51.859375 
L 35.640625 32.90625 
L 54.640625 0 
L 39.84375 0 
L 26.8125 23.296875 
L 20.40625 16.609375 
L 20.40625 0 
z
" id="Arial-BoldMT-6b"/>
    </defs>
    <g style="fill:#97f0aa;" transform="translate(259.608437 22.038409)scale(0.14 -0.14)">
     <use xlink:href="#Arial-BoldMT-41"/>
     <use x="72.216797" xlink:href="#Arial-BoldMT-6c"/>
     <use x="100" xlink:href="#Arial-BoldMT-74"/>
     <use x="133.300781" xlink:href="#Arial-BoldMT-20"/>
     <use x="161.083984" xlink:href="#Arial-BoldMT-52"/>
     <use x="233.300781" xlink:href="#Arial-BoldMT-6f"/>
     <use x="294.384766" xlink:href="#Arial-BoldMT-63"/>
     <use x="350" xlink:href="#Arial-BoldMT-6b"/>
    </g>
   </g>
  </g>
 </g>
 <defs>
  <clipPath id="p82d8ab10f9">
   <path d="M 288 363.669347 
C 329.208502 363.669347 368.734759 347.297035 397.87357 318.158224 
C 427.012382 289.019412 443.384693 249.493156 443.384693 208.284653 
C 443.384693 167.076151 427.012382 127.549894 397.87357 98.411083 
C 368.734759 69.272272 329.208502 52.89996 288 52.89996 
C 246.791498 52.89996 207.265241 69.272272 178.12643 98.411083 
C 148.987618 127.549894 132.615307 167.076151 132.615307 208.284653 
C 132.615307 249.493156 148.987618 289.019412 178.12643 318.158224 
C 207.265241 347.297035 246.791498 363.669347 288 363.669347 
z
"/>
  </clipPath>
 </defs>
</svg>
