<?xml version="1.0" encoding="utf-8" standalone="no"?>
<!DOCTYPE svg PUBLIC "-//W3C//DTD SVG 1.1//EN"
  "http://www.w3.org/Graphics/SVG/1.1/DTD/svg11.dtd">
<!-- Created with matplotlib (http://matplotlib.org/) -->
<svg height="396pt" version="1.1" viewBox="0 0 576 396" width="576pt" xmlns="http://www.w3.org/2000/svg" xmlns:xlink="http://www.w3.org/1999/xlink">
 <defs>
  <style type="text/css">
*{stroke-linecap:butt;stroke-linejoin:round;}
  </style>
 </defs>
 <g id="figure_1">
  <g id="patch_1">
   <path d="M 0 396 
L 576 396 
L 576 0 
L 0 0 
z
" style="fill:#ffffff;"/>
  </g>
  <g id="axes_1">
   <g id="patch_2">
    <path d="M 288 363.687319 
C 329.214699 363.687319 368.746899 347.312546 397.890091 318.169353 
C 427.033284 289.02616 443.408058 249.49396 443.408058 208.279262 
C 443.408058 167.064563 427.033284 127.532363 397.890091 98.38917 
C 368.746899 69.245977 329.214699 52.871204 288 52.871204 
C 246.785301 52.871204 207.253101 69.245977 178.109909 98.38917 
C 148.966716 127.532363 132.591942 167.064563 132.591942 208.279262 
C 132.591942 249.49396 148.966716 289.02616 178.109909 318.169353 
C 207.253101 347.312546 246.785301 363.687319 288 363.687319 
z
" style="fill:#eaeaf2;"/>
   </g>
   <g id="matplotlib.axis_1">
    <g id="xtick_1">
     <g id="line2d_1">
      <path clip-path="url(#pf2ee9199c9)" d="M 288 208.279262 
L 288 52.871204 
" style="fill:none;stroke:#ffffff;stroke-linecap:round;"/>
     </g>
     <g id="text_1">
      <!-- valence -->
      <defs>
       <path d="M 21 0 
L 1.265625 51.859375 
L 10.546875 51.859375 
L 21.6875 20.796875 
Q 23.484375 15.765625 25 10.359375 
Q 26.171875 14.453125 28.265625 20.21875 
L 39.796875 51.859375 
L 48.828125 51.859375 
L 29.203125 0 
z
" id="ArialMT-76"/>
       <path d="M 40.4375 6.390625 
Q 35.546875 2.25 31.03125 0.53125 
Q 26.515625 -1.171875 21.34375 -1.171875 
Q 12.796875 -1.171875 8.203125 3 
Q 3.609375 7.171875 3.609375 13.671875 
Q 3.609375 17.484375 5.34375 20.625 
Q 7.078125 23.78125 9.890625 25.6875 
Q 12.703125 27.59375 16.21875 28.5625 
Q 18.796875 29.25 24.03125 29.890625 
Q 34.671875 31.15625 39.703125 32.90625 
Q 39.75 34.71875 39.75 35.203125 
Q 39.75 40.578125 37.25 42.78125 
Q 33.890625 45.75 27.25 45.75 
Q 21.046875 45.75 18.09375 43.578125 
Q 15.140625 41.40625 13.71875 35.890625 
L 5.125 37.0625 
Q 6.296875 42.578125 8.984375 45.96875 
Q 11.671875 49.359375 16.75 51.1875 
Q 21.828125 53.03125 28.515625 53.03125 
Q 35.15625 53.03125 39.296875 51.46875 
Q 43.453125 49.90625 45.40625 47.53125 
Q 47.359375 45.171875 48.140625 41.546875 
Q 48.578125 39.3125 48.578125 33.453125 
L 48.578125 21.734375 
Q 48.578125 9.46875 49.140625 6.21875 
Q 49.703125 2.984375 51.375 0 
L 42.1875 0 
Q 40.828125 2.734375 40.4375 6.390625 
M 39.703125 26.03125 
Q 34.90625 24.078125 25.34375 22.703125 
Q 19.921875 21.921875 17.671875 20.9375 
Q 15.4375 19.96875 14.203125 18.09375 
Q 12.984375 16.21875 12.984375 13.921875 
Q 12.984375 10.40625 15.640625 8.0625 
Q 18.3125 5.71875 23.4375 5.71875 
Q 28.515625 5.71875 32.46875 7.9375 
Q 36.421875 10.15625 38.28125 14.015625 
Q 39.703125 17 39.703125 22.796875 
z
" id="ArialMT-61"/>
       <path d="M 6.390625 0 
L 6.390625 71.578125 
L 15.1875 71.578125 
L 15.1875 0 
z
" id="ArialMT-6c"/>
       <path d="M 42.09375 16.703125 
L 51.171875 15.578125 
Q 49.03125 7.625 43.21875 3.21875 
Q 37.40625 -1.171875 28.375 -1.171875 
Q 17 -1.171875 10.328125 5.828125 
Q 3.65625 12.84375 3.65625 25.484375 
Q 3.65625 38.578125 10.390625 45.796875 
Q 17.140625 53.03125 27.875 53.03125 
Q 38.28125 53.03125 44.875 45.953125 
Q 51.46875 38.875 51.46875 26.03125 
Q 51.46875 25.25 51.421875 23.6875 
L 12.75 23.6875 
Q 13.234375 15.140625 17.578125 10.59375 
Q 21.921875 6.0625 28.421875 6.0625 
Q 33.25 6.0625 36.671875 8.59375 
Q 40.09375 11.140625 42.09375 16.703125 
M 13.234375 30.90625 
L 42.1875 30.90625 
Q 41.609375 37.453125 38.875 40.71875 
Q 34.671875 45.796875 27.984375 45.796875 
Q 21.921875 45.796875 17.796875 41.75 
Q 13.671875 37.703125 13.234375 30.90625 
" id="ArialMT-65"/>
       <path d="M 6.59375 0 
L 6.59375 51.859375 
L 14.5 51.859375 
L 14.5 44.484375 
Q 20.21875 53.03125 31 53.03125 
Q 35.6875 53.03125 39.625 51.34375 
Q 43.5625 49.65625 45.515625 46.921875 
Q 47.46875 44.1875 48.25 40.4375 
Q 48.734375 37.984375 48.734375 31.890625 
L 48.734375 0 
L 39.9375 0 
L 39.9375 31.546875 
Q 39.9375 36.921875 38.90625 39.578125 
Q 37.890625 42.234375 35.28125 43.8125 
Q 32.671875 45.40625 29.15625 45.40625 
Q 23.53125 45.40625 19.453125 41.84375 
Q 15.375 38.28125 15.375 28.328125 
L 15.375 0 
z
" id="ArialMT-6e"/>
       <path d="M 40.4375 19 
L 49.078125 17.875 
Q 47.65625 8.9375 41.8125 3.875 
Q 35.984375 -1.171875 27.484375 -1.171875 
Q 16.84375 -1.171875 10.375 5.78125 
Q 3.90625 12.75 3.90625 25.734375 
Q 3.90625 34.125 6.6875 40.421875 
Q 9.46875 46.734375 15.15625 49.875 
Q 20.84375 53.03125 27.546875 53.03125 
Q 35.984375 53.03125 41.359375 48.75 
Q 46.734375 44.484375 48.25 36.625 
L 39.703125 35.296875 
Q 38.484375 40.53125 35.375 43.15625 
Q 32.28125 45.796875 27.875 45.796875 
Q 21.234375 45.796875 17.078125 41.03125 
Q 12.9375 36.28125 12.9375 25.984375 
Q 12.9375 15.53125 16.9375 10.796875 
Q 20.953125 6.0625 27.390625 6.0625 
Q 32.5625 6.0625 36.03125 9.234375 
Q 39.5 12.40625 40.4375 19 
" id="ArialMT-63"/>
      </defs>
      <g style="fill:#808080;" transform="translate(274.21375 39.398523)scale(0.08 -0.08)">
       <use xlink:href="#ArialMT-76"/>
       <use x="50" xlink:href="#ArialMT-61"/>
       <use x="105.615234" xlink:href="#ArialMT-6c"/>
       <use x="127.832031" xlink:href="#ArialMT-65"/>
       <use x="183.447266" xlink:href="#ArialMT-6e"/>
       <use x="239.0625" xlink:href="#ArialMT-63"/>
       <use x="289.0625" xlink:href="#ArialMT-65"/>
      </g>
     </g>
    </g>
    <g id="xtick_2">
     <g id="line2d_2">
      <path clip-path="url(#pf2ee9199c9)" d="M 288 208.279262 
L 397.890091 98.38917 
" style="fill:none;stroke:#ffffff;stroke-linecap:round;"/>
     </g>
     <g id="text_2">
      <!-- energy -->
      <defs>
       <path d="M 6.5 0 
L 6.5 51.859375 
L 14.40625 51.859375 
L 14.40625 44 
Q 17.4375 49.515625 20 51.265625 
Q 22.5625 53.03125 25.640625 53.03125 
Q 30.078125 53.03125 34.671875 50.203125 
L 31.640625 42.046875 
Q 28.421875 43.953125 25.203125 43.953125 
Q 22.3125 43.953125 20.015625 42.21875 
Q 17.71875 40.484375 16.75 37.40625 
Q 15.28125 32.71875 15.28125 27.15625 
L 15.28125 0 
z
" id="ArialMT-72"/>
       <path d="M 4.984375 -4.296875 
L 13.53125 -5.5625 
Q 14.0625 -9.515625 16.5 -11.328125 
Q 19.78125 -13.765625 25.4375 -13.765625 
Q 31.546875 -13.765625 34.859375 -11.328125 
Q 38.1875 -8.890625 39.359375 -4.5 
Q 40.046875 -1.8125 39.984375 6.78125 
Q 34.234375 0 25.640625 0 
Q 14.9375 0 9.078125 7.71875 
Q 3.21875 15.4375 3.21875 26.21875 
Q 3.21875 33.640625 5.90625 39.90625 
Q 8.59375 46.1875 13.6875 49.609375 
Q 18.796875 53.03125 25.6875 53.03125 
Q 34.859375 53.03125 40.828125 45.609375 
L 40.828125 51.859375 
L 48.921875 51.859375 
L 48.921875 7.03125 
Q 48.921875 -5.078125 46.453125 -10.125 
Q 44 -15.1875 38.640625 -18.109375 
Q 33.296875 -21.046875 25.484375 -21.046875 
Q 16.21875 -21.046875 10.5 -16.875 
Q 4.78125 -12.703125 4.984375 -4.296875 
M 12.25 26.859375 
Q 12.25 16.65625 16.296875 11.96875 
Q 20.359375 7.28125 26.46875 7.28125 
Q 32.515625 7.28125 36.609375 11.9375 
Q 40.71875 16.609375 40.71875 26.5625 
Q 40.71875 36.078125 36.5 40.90625 
Q 32.28125 45.75 26.3125 45.75 
Q 20.453125 45.75 16.34375 40.984375 
Q 12.25 36.234375 12.25 26.859375 
" id="ArialMT-67"/>
       <path d="M 6.203125 -19.96875 
L 5.21875 -11.71875 
Q 8.109375 -12.5 10.25 -12.5 
Q 13.1875 -12.5 14.9375 -11.515625 
Q 16.703125 -10.546875 17.828125 -8.796875 
Q 18.65625 -7.46875 20.515625 -2.25 
Q 20.75 -1.515625 21.296875 -0.09375 
L 1.609375 51.859375 
L 11.078125 51.859375 
L 21.875 21.828125 
Q 23.96875 16.109375 25.640625 9.8125 
Q 27.15625 15.875 29.25 21.625 
L 40.328125 51.859375 
L 49.125 51.859375 
L 29.390625 -0.875 
Q 26.21875 -9.421875 24.46875 -12.640625 
Q 22.125 -17 19.09375 -19.015625 
Q 16.0625 -21.046875 11.859375 -21.046875 
Q 9.328125 -21.046875 6.203125 -19.96875 
" id="ArialMT-79"/>
      </defs>
      <g style="fill:#808080;" transform="translate(396.649726 89.374536)scale(0.08 -0.08)">
       <use xlink:href="#ArialMT-65"/>
       <use x="55.615234" xlink:href="#ArialMT-6e"/>
       <use x="111.230469" xlink:href="#ArialMT-65"/>
       <use x="166.845703" xlink:href="#ArialMT-72"/>
       <use x="200.146484" xlink:href="#ArialMT-67"/>
       <use x="255.761719" xlink:href="#ArialMT-79"/>
      </g>
     </g>
    </g>
    <g id="xtick_3">
     <g id="line2d_3">
      <path clip-path="url(#pf2ee9199c9)" d="M 288 208.279262 
L 443.408058 208.279262 
" style="fill:none;stroke:#ffffff;stroke-linecap:round;"/>
     </g>
     <g id="text_3">
      <!-- acousticness -->
      <defs>
       <path d="M 3.328125 25.921875 
Q 3.328125 40.328125 11.328125 47.265625 
Q 18.015625 53.03125 27.640625 53.03125 
Q 38.328125 53.03125 45.109375 46.015625 
Q 51.90625 39.015625 51.90625 26.65625 
Q 51.90625 16.65625 48.90625 10.90625 
Q 45.90625 5.171875 40.15625 2 
Q 34.421875 -1.171875 27.640625 -1.171875 
Q 16.75 -1.171875 10.03125 5.8125 
Q 3.328125 12.796875 3.328125 25.921875 
M 12.359375 25.921875 
Q 12.359375 15.96875 16.703125 11.015625 
Q 21.046875 6.0625 27.640625 6.0625 
Q 34.1875 6.0625 38.53125 11.03125 
Q 42.875 16.015625 42.875 26.21875 
Q 42.875 35.84375 38.5 40.796875 
Q 34.125 45.75 27.640625 45.75 
Q 21.046875 45.75 16.703125 40.8125 
Q 12.359375 35.890625 12.359375 25.921875 
" id="ArialMT-6f"/>
       <path d="M 40.578125 0 
L 40.578125 7.625 
Q 34.515625 -1.171875 24.125 -1.171875 
Q 19.53125 -1.171875 15.546875 0.578125 
Q 11.578125 2.34375 9.640625 5 
Q 7.71875 7.671875 6.9375 11.53125 
Q 6.390625 14.109375 6.390625 19.734375 
L 6.390625 51.859375 
L 15.1875 51.859375 
L 15.1875 23.09375 
Q 15.1875 16.21875 15.71875 13.8125 
Q 16.546875 10.359375 19.234375 8.375 
Q 21.921875 6.390625 25.875 6.390625 
Q 29.828125 6.390625 33.296875 8.421875 
Q 36.765625 10.453125 38.203125 13.9375 
Q 39.65625 17.4375 39.65625 24.078125 
L 39.65625 51.859375 
L 48.4375 51.859375 
L 48.4375 0 
z
" id="ArialMT-75"/>
       <path d="M 3.078125 15.484375 
L 11.765625 16.84375 
Q 12.5 11.625 15.84375 8.84375 
Q 19.1875 6.0625 25.203125 6.0625 
Q 31.25 6.0625 34.171875 8.515625 
Q 37.109375 10.984375 37.109375 14.3125 
Q 37.109375 17.28125 34.515625 19 
Q 32.71875 20.171875 25.53125 21.96875 
Q 15.875 24.421875 12.140625 26.203125 
Q 8.40625 27.984375 6.46875 31.125 
Q 4.546875 34.28125 4.546875 38.09375 
Q 4.546875 41.546875 6.125 44.5 
Q 7.71875 47.46875 10.453125 49.421875 
Q 12.5 50.921875 16.03125 51.96875 
Q 19.578125 53.03125 23.640625 53.03125 
Q 29.734375 53.03125 34.34375 51.265625 
Q 38.96875 49.515625 41.15625 46.5 
Q 43.359375 43.5 44.1875 38.484375 
L 35.59375 37.3125 
Q 35.015625 41.3125 32.203125 43.546875 
Q 29.390625 45.796875 24.265625 45.796875 
Q 18.21875 45.796875 15.625 43.796875 
Q 13.03125 41.796875 13.03125 39.109375 
Q 13.03125 37.40625 14.109375 36.03125 
Q 15.1875 34.625 17.484375 33.6875 
Q 18.796875 33.203125 25.25 31.453125 
Q 34.578125 28.953125 38.25 27.359375 
Q 41.9375 25.78125 44.03125 22.75 
Q 46.140625 19.734375 46.140625 15.234375 
Q 46.140625 10.84375 43.578125 6.953125 
Q 41.015625 3.078125 36.171875 0.953125 
Q 31.34375 -1.171875 25.25 -1.171875 
Q 15.140625 -1.171875 9.84375 3.03125 
Q 4.546875 7.234375 3.078125 15.484375 
" id="ArialMT-73"/>
       <path d="M 25.78125 7.859375 
L 27.046875 0.09375 
Q 23.34375 -0.6875 20.40625 -0.6875 
Q 15.625 -0.6875 12.984375 0.828125 
Q 10.359375 2.34375 9.28125 4.8125 
Q 8.203125 7.28125 8.203125 15.1875 
L 8.203125 45.015625 
L 1.765625 45.015625 
L 1.765625 51.859375 
L 8.203125 51.859375 
L 8.203125 64.703125 
L 16.9375 69.96875 
L 16.9375 51.859375 
L 25.78125 51.859375 
L 25.78125 45.015625 
L 16.9375 45.015625 
L 16.9375 14.703125 
Q 16.9375 10.9375 17.40625 9.859375 
Q 17.875 8.796875 18.921875 8.15625 
Q 19.96875 7.515625 21.921875 7.515625 
Q 23.390625 7.515625 25.78125 7.859375 
" id="ArialMT-74"/>
       <path d="M 6.640625 61.46875 
L 6.640625 71.578125 
L 15.4375 71.578125 
L 15.4375 61.46875 
z
M 6.640625 0 
L 6.640625 51.859375 
L 15.4375 51.859375 
L 15.4375 0 
z
" id="ArialMT-69"/>
      </defs>
      <g style="fill:#808080;" transform="translate(435.826989 210.347387)scale(0.08 -0.08)">
       <use xlink:href="#ArialMT-61"/>
       <use x="55.615234" xlink:href="#ArialMT-63"/>
       <use x="105.615234" xlink:href="#ArialMT-6f"/>
       <use x="161.230469" xlink:href="#ArialMT-75"/>
       <use x="216.845703" xlink:href="#ArialMT-73"/>
       <use x="266.845703" xlink:href="#ArialMT-74"/>
       <use x="294.628906" xlink:href="#ArialMT-69"/>
       <use x="316.845703" xlink:href="#ArialMT-63"/>
       <use x="366.845703" xlink:href="#ArialMT-6e"/>
       <use x="422.460938" xlink:href="#ArialMT-65"/>
       <use x="478.076172" xlink:href="#ArialMT-73"/>
       <use x="528.076172" xlink:href="#ArialMT-73"/>
      </g>
     </g>
    </g>
    <g id="xtick_4">
     <g id="line2d_4">
      <path clip-path="url(#pf2ee9199c9)" d="M 288 208.279262 
L 397.890091 318.169353 
" style="fill:none;stroke:#ffffff;stroke-linecap:round;"/>
     </g>
     <g id="text_4">
      <!-- speechiness -->
      <defs>
       <path d="M 6.59375 -19.875 
L 6.59375 51.859375 
L 14.59375 51.859375 
L 14.59375 45.125 
Q 17.4375 49.078125 21 51.046875 
Q 24.5625 53.03125 29.640625 53.03125 
Q 36.28125 53.03125 41.359375 49.609375 
Q 46.4375 46.1875 49.015625 39.953125 
Q 51.609375 33.734375 51.609375 26.3125 
Q 51.609375 18.359375 48.75 11.984375 
Q 45.90625 5.609375 40.453125 2.21875 
Q 35.015625 -1.171875 29 -1.171875 
Q 24.609375 -1.171875 21.109375 0.6875 
Q 17.625 2.546875 15.375 5.375 
L 15.375 -19.875 
z
M 14.546875 25.640625 
Q 14.546875 15.625 18.59375 10.84375 
Q 22.65625 6.0625 28.421875 6.0625 
Q 34.28125 6.0625 38.453125 11.015625 
Q 42.625 15.96875 42.625 26.375 
Q 42.625 36.28125 38.546875 41.203125 
Q 34.46875 46.140625 28.8125 46.140625 
Q 23.1875 46.140625 18.859375 40.890625 
Q 14.546875 35.640625 14.546875 25.640625 
" id="ArialMT-70"/>
       <path d="M 6.59375 0 
L 6.59375 71.578125 
L 15.375 71.578125 
L 15.375 45.90625 
Q 21.53125 53.03125 30.90625 53.03125 
Q 36.671875 53.03125 40.921875 50.75 
Q 45.171875 48.484375 47 44.484375 
Q 48.828125 40.484375 48.828125 32.859375 
L 48.828125 0 
L 40.046875 0 
L 40.046875 32.859375 
Q 40.046875 39.453125 37.1875 42.453125 
Q 34.328125 45.453125 29.109375 45.453125 
Q 25.203125 45.453125 21.75 43.421875 
Q 18.3125 41.40625 16.84375 37.9375 
Q 15.375 34.46875 15.375 28.375 
L 15.375 0 
z
" id="ArialMT-68"/>
      </defs>
      <g style="fill:#808080;" transform="translate(386.644101 331.226487)scale(0.08 -0.08)">
       <use xlink:href="#ArialMT-73"/>
       <use x="50" xlink:href="#ArialMT-70"/>
       <use x="105.615234" xlink:href="#ArialMT-65"/>
       <use x="161.230469" xlink:href="#ArialMT-65"/>
       <use x="216.845703" xlink:href="#ArialMT-63"/>
       <use x="266.845703" xlink:href="#ArialMT-68"/>
       <use x="322.460938" xlink:href="#ArialMT-69"/>
       <use x="344.677734" xlink:href="#ArialMT-6e"/>
       <use x="400.292969" xlink:href="#ArialMT-65"/>
       <use x="455.908203" xlink:href="#ArialMT-73"/>
       <use x="505.908203" xlink:href="#ArialMT-73"/>
      </g>
     </g>
    </g>
    <g id="xtick_5">
     <g id="line2d_5">
      <path clip-path="url(#pf2ee9199c9)" d="M 288 208.279262 
L 288 363.687319 
" style="fill:none;stroke:#ffffff;stroke-linecap:round;"/>
     </g>
     <g id="text_5">
      <!-- danceability -->
      <defs>
       <path d="M 40.234375 0 
L 40.234375 6.546875 
Q 35.296875 -1.171875 25.734375 -1.171875 
Q 19.53125 -1.171875 14.328125 2.25 
Q 9.125 5.671875 6.265625 11.796875 
Q 3.421875 17.921875 3.421875 25.875 
Q 3.421875 33.640625 6 39.96875 
Q 8.59375 46.296875 13.765625 49.65625 
Q 18.953125 53.03125 25.34375 53.03125 
Q 30.03125 53.03125 33.6875 51.046875 
Q 37.359375 49.078125 39.65625 45.90625 
L 39.65625 71.578125 
L 48.390625 71.578125 
L 48.390625 0 
z
M 12.453125 25.875 
Q 12.453125 15.921875 16.640625 10.984375 
Q 20.84375 6.0625 26.5625 6.0625 
Q 32.328125 6.0625 36.34375 10.765625 
Q 40.375 15.484375 40.375 25.140625 
Q 40.375 35.796875 36.265625 40.765625 
Q 32.171875 45.75 26.171875 45.75 
Q 20.3125 45.75 16.375 40.96875 
Q 12.453125 36.1875 12.453125 25.875 
" id="ArialMT-64"/>
       <path d="M 14.703125 0 
L 6.546875 0 
L 6.546875 71.578125 
L 15.328125 71.578125 
L 15.328125 46.046875 
Q 20.90625 53.03125 29.546875 53.03125 
Q 34.328125 53.03125 38.59375 51.09375 
Q 42.875 49.171875 45.625 45.671875 
Q 48.390625 42.1875 49.953125 37.25 
Q 51.515625 32.328125 51.515625 26.703125 
Q 51.515625 13.375 44.921875 6.09375 
Q 38.328125 -1.171875 29.109375 -1.171875 
Q 19.921875 -1.171875 14.703125 6.5 
z
M 14.59375 26.3125 
Q 14.59375 17 17.140625 12.84375 
Q 21.296875 6.0625 28.375 6.0625 
Q 34.125 6.0625 38.328125 11.0625 
Q 42.53125 16.0625 42.53125 25.984375 
Q 42.53125 36.140625 38.5 40.96875 
Q 34.46875 45.796875 28.765625 45.796875 
Q 23 45.796875 18.796875 40.796875 
Q 14.59375 35.796875 14.59375 26.3125 
" id="ArialMT-62"/>
      </defs>
      <g style="fill:#808080;" transform="translate(266.87625 381.249375)scale(0.08 -0.08)">
       <use xlink:href="#ArialMT-64"/>
       <use x="55.615234" xlink:href="#ArialMT-61"/>
       <use x="111.230469" xlink:href="#ArialMT-6e"/>
       <use x="166.845703" xlink:href="#ArialMT-63"/>
       <use x="216.845703" xlink:href="#ArialMT-65"/>
       <use x="272.460938" xlink:href="#ArialMT-61"/>
       <use x="328.076172" xlink:href="#ArialMT-62"/>
       <use x="383.691406" xlink:href="#ArialMT-69"/>
       <use x="405.908203" xlink:href="#ArialMT-6c"/>
       <use x="428.125" xlink:href="#ArialMT-69"/>
       <use x="450.341797" xlink:href="#ArialMT-74"/>
       <use x="478.125" xlink:href="#ArialMT-79"/>
      </g>
     </g>
    </g>
    <g id="xtick_6">
     <g id="line2d_6">
      <path clip-path="url(#pf2ee9199c9)" d="M 288 208.279262 
L 178.109909 318.169353 
" style="fill:none;stroke:#ffffff;stroke-linecap:round;"/>
     </g>
     <g id="text_6">
      <!-- instrumentalness -->
      <defs>
       <path d="M 6.59375 0 
L 6.59375 51.859375 
L 14.453125 51.859375 
L 14.453125 44.578125 
Q 16.890625 48.390625 20.9375 50.703125 
Q 25 53.03125 30.171875 53.03125 
Q 35.9375 53.03125 39.625 50.640625 
Q 43.3125 48.25 44.828125 43.953125 
Q 50.984375 53.03125 60.84375 53.03125 
Q 68.5625 53.03125 72.703125 48.75 
Q 76.859375 44.484375 76.859375 35.59375 
L 76.859375 0 
L 68.109375 0 
L 68.109375 32.671875 
Q 68.109375 37.9375 67.25 40.25 
Q 66.40625 42.578125 64.15625 43.984375 
Q 61.921875 45.40625 58.890625 45.40625 
Q 53.421875 45.40625 49.796875 41.765625 
Q 46.1875 38.140625 46.1875 30.125 
L 46.1875 0 
L 37.40625 0 
L 37.40625 33.6875 
Q 37.40625 39.546875 35.25 42.46875 
Q 33.109375 45.40625 28.21875 45.40625 
Q 24.515625 45.40625 21.359375 43.453125 
Q 18.21875 41.5 16.796875 37.734375 
Q 15.375 33.984375 15.375 26.90625 
L 15.375 0 
z
" id="ArialMT-6d"/>
      </defs>
      <g style="fill:#808080;" transform="translate(136.886524 331.226487)scale(0.08 -0.08)">
       <use xlink:href="#ArialMT-69"/>
       <use x="22.216797" xlink:href="#ArialMT-6e"/>
       <use x="77.832031" xlink:href="#ArialMT-73"/>
       <use x="127.832031" xlink:href="#ArialMT-74"/>
       <use x="155.615234" xlink:href="#ArialMT-72"/>
       <use x="188.916016" xlink:href="#ArialMT-75"/>
       <use x="244.53125" xlink:href="#ArialMT-6d"/>
       <use x="327.832031" xlink:href="#ArialMT-65"/>
       <use x="383.447266" xlink:href="#ArialMT-6e"/>
       <use x="439.0625" xlink:href="#ArialMT-74"/>
       <use x="466.845703" xlink:href="#ArialMT-61"/>
       <use x="522.460938" xlink:href="#ArialMT-6c"/>
       <use x="544.677734" xlink:href="#ArialMT-6e"/>
       <use x="600.292969" xlink:href="#ArialMT-65"/>
       <use x="655.908203" xlink:href="#ArialMT-73"/>
       <use x="705.908203" xlink:href="#ArialMT-73"/>
      </g>
     </g>
    </g>
    <g id="xtick_7">
     <g id="line2d_7">
      <path clip-path="url(#pf2ee9199c9)" d="M 288 208.279262 
L 132.591942 208.279262 
" style="fill:none;stroke:#ffffff;stroke-linecap:round;"/>
     </g>
     <g id="text_7">
      <!-- liveness -->
      <g style="fill:#808080;" transform="translate(102.600511 210.347387)scale(0.08 -0.08)">
       <use xlink:href="#ArialMT-6c"/>
       <use x="22.216797" xlink:href="#ArialMT-69"/>
       <use x="44.433594" xlink:href="#ArialMT-76"/>
       <use x="94.433594" xlink:href="#ArialMT-65"/>
       <use x="150.048828" xlink:href="#ArialMT-6e"/>
       <use x="205.664062" xlink:href="#ArialMT-65"/>
       <use x="261.279297" xlink:href="#ArialMT-73"/>
       <use x="311.279297" xlink:href="#ArialMT-73"/>
      </g>
     </g>
    </g>
    <g id="xtick_8">
     <g id="line2d_8">
      <path clip-path="url(#pf2ee9199c9)" d="M 288 208.279262 
L 178.109909 98.38917 
" style="fill:none;stroke:#ffffff;stroke-linecap:round;"/>
     </g>
     <g id="text_8">
      <!-- mode -->
      <g style="fill:#808080;" transform="translate(157.115899 89.468286)scale(0.08 -0.08)">
       <use xlink:href="#ArialMT-6d"/>
       <use x="83.300781" xlink:href="#ArialMT-6f"/>
       <use x="138.916016" xlink:href="#ArialMT-64"/>
       <use x="194.53125" xlink:href="#ArialMT-65"/>
      </g>
     </g>
    </g>
   </g>
   <g id="matplotlib.axis_2">
    <g id="ytick_1">
     <g id="line2d_9">
      <path clip-path="url(#pf2ee9199c9)" d="M 288 177.19765 
L 289.084733 177.216584 
L 290.168144 177.273363 
L 292.325724 177.500134 
L 294.46223 177.876858 
L 296.567253 178.401699 
L 298.630537 179.072101 
L 300.64203 179.884797 
L 302.591933 180.835828 
L 304.470745 181.92056 
L 306.269313 183.13371 
L 307.978875 184.469366 
L 309.591102 185.921021 
L 311.098139 187.481604 
L 312.492644 189.143511 
L 313.767824 190.898645 
L 314.917465 192.738456 
L 315.935967 194.65398 
L 316.818368 196.635885 
L 317.560369 198.674515 
L 318.158355 200.759939 
L 318.609412 202.881996 
L 318.911343 205.030349 
L 319.062677 207.194529 
L 319.062677 209.363994 
L 318.911343 211.528175 
L 318.609412 213.676527 
L 318.158355 215.798584 
L 317.560369 217.884008 
L 316.818368 219.922638 
L 315.935967 221.904543 
L 314.917465 223.820067 
L 313.767824 225.659878 
L 312.492644 227.415012 
L 311.098139 229.076919 
L 309.591102 230.637502 
L 307.978875 232.089157 
L 306.269313 233.424814 
L 304.470745 234.637963 
L 302.591933 235.722696 
L 300.64203 236.673727 
L 298.630537 237.486423 
L 296.567253 238.156824 
L 294.46223 238.681665 
L 292.325724 239.058389 
L 290.168144 239.28516 
L 288 239.360873 
L 285.831856 239.28516 
L 283.674276 239.058389 
L 281.53777 238.681665 
L 279.432747 238.156824 
L 277.369463 237.486423 
L 275.35797 236.673727 
L 273.408067 235.722696 
L 271.529255 234.637963 
L 269.730687 233.424814 
L 268.021125 232.089157 
L 266.408898 230.637502 
L 264.901861 229.076919 
L 263.507356 227.415012 
L 262.232176 225.659878 
L 261.082535 223.820067 
L 260.064033 221.904543 
L 259.181632 219.922638 
L 258.439631 217.884008 
L 257.841645 215.798584 
L 257.390588 213.676527 
L 257.088657 211.528175 
L 256.937323 209.363994 
L 256.937323 207.194529 
L 257.088657 205.030349 
L 257.390588 202.881996 
L 257.841645 200.759939 
L 258.439631 198.674515 
L 259.181632 196.635885 
L 260.064033 194.65398 
L 261.082535 192.738456 
L 262.232176 190.898645 
L 263.507356 189.143511 
L 264.901861 187.481604 
L 266.408898 185.921021 
L 268.021125 184.469366 
L 269.730687 183.13371 
L 271.529255 181.92056 
L 273.408067 180.835828 
L 275.35797 179.884797 
L 277.369463 179.072101 
L 279.432747 178.401699 
L 281.53777 177.876858 
L 283.674276 177.500134 
L 285.831856 177.273363 
L 288 177.19765 
L 288 177.19765 
" style="fill:none;stroke:#ffffff;stroke-linecap:round;"/>
     </g>
     <g id="text_9">
      <!-- 0.2 -->
      <defs>
       <path d="M 4.15625 35.296875 
Q 4.15625 48 6.765625 55.734375 
Q 9.375 63.484375 14.515625 67.671875 
Q 19.671875 71.875 27.484375 71.875 
Q 33.25 71.875 37.59375 69.546875 
Q 41.9375 67.234375 44.765625 62.859375 
Q 47.609375 58.5 49.21875 52.21875 
Q 50.828125 45.953125 50.828125 35.296875 
Q 50.828125 22.703125 48.234375 14.96875 
Q 45.65625 7.234375 40.5 3 
Q 35.359375 -1.21875 27.484375 -1.21875 
Q 17.140625 -1.21875 11.234375 6.203125 
Q 4.15625 15.140625 4.15625 35.296875 
M 13.1875 35.296875 
Q 13.1875 17.671875 17.3125 11.828125 
Q 21.4375 6 27.484375 6 
Q 33.546875 6 37.671875 11.859375 
Q 41.796875 17.71875 41.796875 35.296875 
Q 41.796875 52.984375 37.671875 58.78125 
Q 33.546875 64.59375 27.390625 64.59375 
Q 21.34375 64.59375 17.71875 59.46875 
Q 13.1875 52.9375 13.1875 35.296875 
" id="ArialMT-30"/>
       <path d="M 9.078125 0 
L 9.078125 10.015625 
L 19.09375 10.015625 
L 19.09375 0 
z
" id="ArialMT-2e"/>
       <path d="M 50.34375 8.453125 
L 50.34375 0 
L 3.03125 0 
Q 2.9375 3.171875 4.046875 6.109375 
Q 5.859375 10.9375 9.828125 15.625 
Q 13.8125 20.3125 21.34375 26.46875 
Q 33.015625 36.03125 37.109375 41.625 
Q 41.21875 47.21875 41.21875 52.203125 
Q 41.21875 57.421875 37.46875 61 
Q 33.734375 64.59375 27.734375 64.59375 
Q 21.390625 64.59375 17.578125 60.78125 
Q 13.765625 56.984375 13.71875 50.25 
L 4.6875 51.171875 
Q 5.609375 61.28125 11.65625 66.578125 
Q 17.71875 71.875 27.9375 71.875 
Q 38.234375 71.875 44.234375 66.15625 
Q 50.25 60.453125 50.25 52 
Q 50.25 47.703125 48.484375 43.546875 
Q 46.734375 39.40625 42.65625 34.8125 
Q 38.578125 30.21875 29.109375 22.21875 
Q 21.1875 15.578125 18.9375 13.203125 
Q 16.703125 10.84375 15.234375 8.453125 
z
" id="ArialMT-32"/>
      </defs>
      <g style="fill:#808080;" transform="translate(288 175.8064)scale(0.07 -0.07)">
       <use xlink:href="#ArialMT-30"/>
       <use x="55.615234" xlink:href="#ArialMT-2e"/>
       <use x="83.398438" xlink:href="#ArialMT-32"/>
      </g>
     </g>
    </g>
    <g id="ytick_2">
     <g id="line2d_10">
      <path clip-path="url(#pf2ee9199c9)" d="M 288 146.116039 
L 290.169465 146.153907 
L 292.336287 146.267465 
L 296.651449 146.721007 
L 300.924461 147.474454 
L 305.134506 148.524136 
L 309.261074 149.86494 
L 313.284061 151.490332 
L 317.183865 153.392393 
L 320.941489 155.561859 
L 324.538626 157.988158 
L 327.95775 160.65947 
L 331.182203 163.562781 
L 334.196278 166.683946 
L 336.985288 170.00776 
L 339.535648 173.518028 
L 341.83493 177.19765 
L 343.871935 181.028698 
L 345.636737 184.992508 
L 347.120738 189.069769 
L 348.31671 193.240617 
L 349.218824 197.484731 
L 349.822686 201.781435 
L 350.125355 206.109796 
L 350.125355 210.448727 
L 349.822686 214.777088 
L 349.218824 219.073792 
L 348.31671 223.317906 
L 347.120738 227.488754 
L 345.636737 231.566015 
L 343.871935 235.529825 
L 341.83493 239.360873 
L 339.535648 243.040495 
L 336.985288 246.550763 
L 334.196278 249.874577 
L 331.182203 252.995742 
L 327.95775 255.899053 
L 324.538626 258.570366 
L 320.941489 260.996665 
L 317.183865 263.16613 
L 313.284061 265.068192 
L 309.261074 266.693584 
L 305.134506 268.034387 
L 300.924461 269.084069 
L 296.651449 269.837517 
L 292.336287 270.291058 
L 288 270.442485 
L 283.663713 270.291058 
L 279.348551 269.837517 
L 275.075539 269.084069 
L 270.865494 268.034387 
L 266.738926 266.693584 
L 262.715939 265.068192 
L 258.816135 263.16613 
L 255.058511 260.996665 
L 251.461374 258.570366 
L 248.04225 255.899053 
L 244.817797 252.995742 
L 241.803722 249.874577 
L 239.014712 246.550763 
L 236.464352 243.040495 
L 234.16507 239.360873 
L 232.128065 235.529825 
L 230.363263 231.566015 
L 228.879262 227.488754 
L 227.68329 223.317906 
L 226.781176 219.073792 
L 226.177314 214.777088 
L 225.874645 210.448727 
L 225.874645 206.109796 
L 226.177314 201.781435 
L 226.781176 197.484731 
L 227.68329 193.240617 
L 228.879262 189.069769 
L 230.363263 184.992508 
L 232.128065 181.028698 
L 234.16507 177.19765 
L 236.464352 173.518028 
L 239.014712 170.00776 
L 241.803722 166.683946 
L 244.817797 163.562781 
L 248.04225 160.65947 
L 251.461374 157.988158 
L 255.058511 155.561859 
L 258.816135 153.392393 
L 262.715939 151.490332 
L 266.738926 149.86494 
L 270.865494 148.524136 
L 275.075539 147.474454 
L 279.348551 146.721007 
L 283.663713 146.267465 
L 288 146.116039 
L 288 146.116039 
" style="fill:none;stroke:#ffffff;stroke-linecap:round;"/>
     </g>
     <g id="text_10">
      <!-- 0.4 -->
      <defs>
       <path d="M 32.328125 0 
L 32.328125 17.140625 
L 1.265625 17.140625 
L 1.265625 25.203125 
L 33.9375 71.578125 
L 41.109375 71.578125 
L 41.109375 25.203125 
L 50.78125 25.203125 
L 50.78125 17.140625 
L 41.109375 17.140625 
L 41.109375 0 
z
M 32.328125 25.203125 
L 32.328125 57.46875 
L 9.90625 25.203125 
z
" id="ArialMT-34"/>
      </defs>
      <g style="fill:#808080;" transform="translate(288 144.724789)scale(0.07 -0.07)">
       <use xlink:href="#ArialMT-30"/>
       <use x="55.615234" xlink:href="#ArialMT-2e"/>
       <use x="83.398438" xlink:href="#ArialMT-34"/>
      </g>
     </g>
    </g>
    <g id="ytick_3">
     <g id="line2d_11">
      <path clip-path="url(#pf2ee9199c9)" d="M 288 115.034427 
L 291.254198 115.091229 
L 294.504431 115.261567 
L 297.746739 115.545232 
L 300.977173 115.941879 
L 304.191796 116.451026 
L 307.386691 117.07205 
L 310.557967 117.804197 
L 313.70176 118.646574 
L 316.814239 119.598154 
L 319.891612 120.657779 
L 322.93013 121.824156 
L 325.926091 123.095867 
L 328.875845 124.471359 
L 331.775798 125.948959 
L 334.622417 127.526866 
L 337.412234 129.203157 
L 340.14185 130.97579 
L 342.807939 132.842606 
L 345.407252 134.801329 
L 347.936624 136.849574 
L 350.392973 138.984845 
L 352.773305 141.204541 
L 355.074721 143.505957 
L 357.294416 145.886289 
L 359.429687 148.342637 
L 361.477932 150.872009 
L 363.436656 153.471323 
L 365.303471 156.137412 
L 367.076105 158.867027 
L 368.752396 161.656844 
L 370.330302 164.503463 
L 371.807902 167.403417 
L 373.183395 170.353171 
L 374.455105 173.349132 
L 375.621483 176.38765 
L 376.681108 179.465023 
L 377.632688 182.577502 
L 378.475065 185.721295 
L 379.207211 188.89257 
L 379.828236 192.087466 
L 380.337382 195.302089 
L 380.73403 198.532522 
L 381.017695 201.774831 
L 381.188032 205.025064 
L 381.244835 208.279262 
L 381.188032 211.533459 
L 381.017695 214.783693 
L 380.73403 218.026001 
L 380.337382 221.256434 
L 379.828236 224.471057 
L 379.207211 227.665953 
L 378.475065 230.837229 
L 377.632688 233.981021 
L 376.681108 237.0935 
L 375.621483 240.170873 
L 374.455105 243.209392 
L 373.183395 246.205353 
L 371.807902 249.155107 
L 370.330302 252.05506 
L 368.752396 254.901679 
L 367.076105 257.691496 
L 365.303471 260.421111 
L 363.436656 263.0872 
L 361.477932 265.686514 
L 359.429687 268.215886 
L 357.294416 270.672234 
L 355.074721 273.052567 
L 352.773305 275.353982 
L 350.392973 277.573678 
L 347.936624 279.708949 
L 345.407252 281.757194 
L 342.807939 283.715918 
L 340.14185 285.582733 
L 337.412234 287.355366 
L 334.622417 289.031657 
L 331.775798 290.609564 
L 328.875845 292.087164 
L 325.926091 293.462657 
L 322.93013 294.734367 
L 319.891612 295.900745 
L 316.814239 296.960369 
L 313.70176 297.91195 
L 310.557967 298.754326 
L 307.386691 299.486473 
L 304.191796 300.107498 
L 300.977173 300.616644 
L 297.746739 301.013291 
L 294.504431 301.296957 
L 291.254198 301.467294 
L 288 301.524096 
L 284.745802 301.467294 
L 281.495569 301.296957 
L 278.253261 301.013291 
L 275.022827 300.616644 
L 271.808204 300.107498 
L 268.613309 299.486473 
L 265.442033 298.754326 
L 262.29824 297.91195 
L 259.185761 296.960369 
L 256.108388 295.900745 
L 253.06987 294.734367 
L 250.073909 293.462657 
L 247.124155 292.087164 
L 244.224202 290.609564 
L 241.377583 289.031657 
L 238.587766 287.355366 
L 235.85815 285.582733 
L 233.192061 283.715918 
L 230.592748 281.757194 
L 228.063376 279.708949 
L 225.607027 277.573678 
L 223.226695 275.353982 
L 220.925279 273.052567 
L 218.705584 270.672234 
L 216.570313 268.215886 
L 214.522068 265.686514 
L 212.563344 263.0872 
L 210.696529 260.421111 
L 208.923895 257.691496 
L 207.247604 254.901679 
L 205.669698 252.05506 
L 204.192098 249.155107 
L 202.816605 246.205353 
L 201.544895 243.209392 
L 200.378517 240.170873 
L 199.318892 237.0935 
L 198.367312 233.981021 
L 197.524935 230.837229 
L 196.792789 227.665953 
L 196.171764 224.471057 
L 195.662618 221.256434 
L 195.26597 218.026001 
L 194.982305 214.783693 
L 194.811968 211.533459 
L 194.755165 208.279262 
L 194.811968 205.025064 
L 194.982305 201.774831 
L 195.26597 198.532522 
L 195.662618 195.302089 
L 196.171764 192.087466 
L 196.792789 188.89257 
L 197.524935 185.721295 
L 198.367312 182.577502 
L 199.318892 179.465023 
L 200.378517 176.38765 
L 201.544895 173.349132 
L 202.816605 170.353171 
L 204.192098 167.403417 
L 205.669698 164.503463 
L 207.247604 161.656844 
L 208.923895 158.867027 
L 210.696529 156.137412 
L 212.563344 153.471323 
L 214.522068 150.872009 
L 216.570313 148.342637 
L 218.705584 145.886289 
L 220.925279 143.505957 
L 223.226695 141.204541 
L 225.607027 138.984845 
L 228.063376 136.849574 
L 230.592748 134.801329 
L 233.192061 132.842606 
L 235.85815 130.97579 
L 238.587766 129.203157 
L 241.377583 127.526866 
L 244.224202 125.948959 
L 247.124155 124.471359 
L 250.073909 123.095867 
L 253.06987 121.824156 
L 256.108388 120.657779 
L 259.185761 119.598154 
L 262.29824 118.646574 
L 265.442033 117.804197 
L 268.613309 117.07205 
L 271.808204 116.451026 
L 275.022827 115.941879 
L 278.253261 115.545232 
L 281.495569 115.261567 
L 284.745802 115.091229 
L 288 115.034427 
L 288 115.034427 
" style="fill:none;stroke:#ffffff;stroke-linecap:round;"/>
     </g>
     <g id="text_11">
      <!-- 0.6 -->
      <defs>
       <path d="M 49.75 54.046875 
L 41.015625 53.375 
Q 39.84375 58.546875 37.703125 60.890625 
Q 34.125 64.65625 28.90625 64.65625 
Q 24.703125 64.65625 21.53125 62.3125 
Q 17.390625 59.28125 14.984375 53.46875 
Q 12.59375 47.65625 12.5 36.921875 
Q 15.671875 41.75 20.265625 44.09375 
Q 24.859375 46.4375 29.890625 46.4375 
Q 38.671875 46.4375 44.84375 39.96875 
Q 51.03125 33.5 51.03125 23.25 
Q 51.03125 16.5 48.125 10.71875 
Q 45.21875 4.9375 40.140625 1.859375 
Q 35.0625 -1.21875 28.609375 -1.21875 
Q 17.625 -1.21875 10.6875 6.859375 
Q 3.765625 14.9375 3.765625 33.5 
Q 3.765625 54.25 11.421875 63.671875 
Q 18.109375 71.875 29.4375 71.875 
Q 37.890625 71.875 43.28125 67.140625 
Q 48.6875 62.40625 49.75 54.046875 
M 13.875 23.1875 
Q 13.875 18.65625 15.796875 14.5 
Q 17.71875 10.359375 21.1875 8.171875 
Q 24.65625 6 28.46875 6 
Q 34.03125 6 38.03125 10.484375 
Q 42.046875 14.984375 42.046875 22.703125 
Q 42.046875 30.125 38.078125 34.390625 
Q 34.125 38.671875 28.125 38.671875 
Q 22.171875 38.671875 18.015625 34.390625 
Q 13.875 30.125 13.875 23.1875 
" id="ArialMT-36"/>
      </defs>
      <g style="fill:#808080;" transform="translate(288 113.643177)scale(0.07 -0.07)">
       <use xlink:href="#ArialMT-30"/>
       <use x="55.615234" xlink:href="#ArialMT-2e"/>
       <use x="83.398438" xlink:href="#ArialMT-36"/>
      </g>
     </g>
    </g>
    <g id="ytick_4">
     <g id="line2d_12">
      <path clip-path="url(#pf2ee9199c9)" d="M 288 83.952815 
L 292.33893 84.028552 
L 296.672574 84.255668 
L 300.995652 84.633889 
L 305.302897 85.162752 
L 309.589061 85.841614 
L 313.848922 86.669647 
L 318.07729 87.645842 
L 322.269013 88.769011 
L 326.418985 90.037785 
L 330.522149 91.450618 
L 334.573506 93.005788 
L 338.568121 94.701401 
L 342.501127 96.535392 
L 346.367731 98.505525 
L 350.163223 100.609401 
L 353.882979 102.844456 
L 357.522466 105.207966 
L 361.077252 107.697054 
L 364.543003 110.308685 
L 367.915499 113.039678 
L 371.19063 115.886706 
L 374.364407 118.846301 
L 377.432961 121.914855 
L 380.392555 125.088631 
L 383.239583 128.363762 
L 385.970577 131.736258 
L 388.582208 135.20201 
L 391.071295 138.756795 
L 393.434806 142.396283 
L 395.669861 146.116039 
L 397.773736 149.911531 
L 399.74387 153.778135 
L 401.57786 157.71114 
L 403.273474 161.705755 
L 404.828644 165.757113 
L 406.241477 169.860277 
L 407.510251 174.010249 
L 408.633419 178.201972 
L 409.609615 182.43034 
L 410.437648 186.690201 
L 411.11651 190.976365 
L 411.645373 195.283609 
L 412.023593 199.606687 
L 412.25071 203.940331 
L 412.326446 208.279262 
L 412.25071 212.618192 
L 412.023593 216.951836 
L 411.645373 221.274914 
L 411.11651 225.582159 
L 410.437648 229.868322 
L 409.609615 234.128183 
L 408.633419 238.356551 
L 407.510251 242.548275 
L 406.241477 246.698246 
L 404.828644 250.801411 
L 403.273474 254.852768 
L 401.57786 258.847383 
L 399.74387 262.780388 
L 397.773736 266.646993 
L 395.669861 270.442485 
L 393.434806 274.162241 
L 391.071295 277.801728 
L 388.582208 281.356513 
L 385.970577 284.822265 
L 383.239583 288.194761 
L 380.392555 291.469892 
L 377.432961 294.643668 
L 374.364407 297.712223 
L 371.19063 300.671817 
L 367.915499 303.518845 
L 364.543003 306.249838 
L 361.077252 308.86147 
L 357.522466 311.350557 
L 353.882979 313.714068 
L 350.163223 315.949122 
L 346.367731 318.052998 
L 342.501127 320.023131 
L 338.568121 321.857122 
L 334.573506 323.552735 
L 330.522149 325.107906 
L 326.418985 326.520738 
L 322.269013 327.789512 
L 318.07729 328.912681 
L 313.848922 329.888877 
L 309.589061 330.71691 
L 305.302897 331.395771 
L 300.995652 331.924635 
L 296.672574 332.302855 
L 292.33893 332.529972 
L 288 332.605708 
L 283.66107 332.529972 
L 279.327426 332.302855 
L 275.004348 331.924635 
L 270.697103 331.395771 
L 266.410939 330.71691 
L 262.151078 329.888877 
L 257.92271 328.912681 
L 253.730987 327.789512 
L 249.581015 326.520738 
L 245.477851 325.107906 
L 241.426494 323.552735 
L 237.431879 321.857122 
L 233.498873 320.023131 
L 229.632269 318.052998 
L 225.836777 315.949122 
L 222.117021 313.714068 
L 218.477534 311.350557 
L 214.922748 308.86147 
L 211.456997 306.249838 
L 208.084501 303.518845 
L 204.80937 300.671817 
L 201.635593 297.712223 
L 198.567039 294.643668 
L 195.607445 291.469892 
L 192.760417 288.194761 
L 190.029423 284.822265 
L 187.417792 281.356513 
L 184.928705 277.801728 
L 182.565194 274.162241 
L 180.330139 270.442485 
L 178.226264 266.646993 
L 176.25613 262.780388 
L 174.42214 258.847383 
L 172.726526 254.852768 
L 171.171356 250.801411 
L 169.758523 246.698246 
L 168.489749 242.548275 
L 167.366581 238.356551 
L 166.390385 234.128183 
L 165.562352 229.868322 
L 164.88349 225.582159 
L 164.354627 221.274914 
L 163.976407 216.951836 
L 163.74929 212.618192 
L 163.673554 208.279262 
L 163.74929 203.940331 
L 163.976407 199.606687 
L 164.354627 195.283609 
L 164.88349 190.976365 
L 165.562352 186.690201 
L 166.390385 182.43034 
L 167.366581 178.201972 
L 168.489749 174.010249 
L 169.758523 169.860277 
L 171.171356 165.757113 
L 172.726526 161.705755 
L 174.42214 157.71114 
L 176.25613 153.778135 
L 178.226264 149.911531 
L 180.330139 146.116039 
L 182.565194 142.396283 
L 184.928705 138.756795 
L 187.417792 135.20201 
L 190.029423 131.736258 
L 192.760417 128.363762 
L 195.607445 125.088631 
L 198.567039 121.914855 
L 201.635593 118.846301 
L 204.80937 115.886706 
L 208.084501 113.039678 
L 211.456997 110.308685 
L 214.922748 107.697054 
L 218.477534 105.207966 
L 222.117021 102.844456 
L 225.836777 100.609401 
L 229.632269 98.505525 
L 233.498873 96.535392 
L 237.431879 94.701401 
L 241.426494 93.005788 
L 245.477851 91.450618 
L 249.581015 90.037785 
L 253.730987 88.769011 
L 257.92271 87.645842 
L 262.151078 86.669647 
L 266.410939 85.841614 
L 270.697103 85.162752 
L 275.004348 84.633889 
L 279.327426 84.255668 
L 283.66107 84.028552 
L 288 83.952815 
L 288 83.952815 
" style="fill:none;stroke:#ffffff;stroke-linecap:round;"/>
     </g>
     <g id="text_12">
      <!-- 0.8 -->
      <defs>
       <path d="M 17.671875 38.8125 
Q 12.203125 40.828125 9.5625 44.53125 
Q 6.9375 48.25 6.9375 53.421875 
Q 6.9375 61.234375 12.546875 66.546875 
Q 18.171875 71.875 27.484375 71.875 
Q 36.859375 71.875 42.578125 66.421875 
Q 48.296875 60.984375 48.296875 53.171875 
Q 48.296875 48.1875 45.671875 44.5 
Q 43.0625 40.828125 37.75 38.8125 
Q 44.34375 36.671875 47.78125 31.875 
Q 51.21875 27.09375 51.21875 20.453125 
Q 51.21875 11.28125 44.71875 5.03125 
Q 38.234375 -1.21875 27.640625 -1.21875 
Q 17.046875 -1.21875 10.546875 5.046875 
Q 4.046875 11.328125 4.046875 20.703125 
Q 4.046875 27.6875 7.59375 32.390625 
Q 11.140625 37.109375 17.671875 38.8125 
M 15.921875 53.71875 
Q 15.921875 48.640625 19.1875 45.40625 
Q 22.46875 42.1875 27.6875 42.1875 
Q 32.765625 42.1875 36.015625 45.375 
Q 39.265625 48.578125 39.265625 53.21875 
Q 39.265625 58.0625 35.90625 61.359375 
Q 32.5625 64.65625 27.59375 64.65625 
Q 22.5625 64.65625 19.234375 61.421875 
Q 15.921875 58.203125 15.921875 53.71875 
M 13.09375 20.65625 
Q 13.09375 16.890625 14.875 13.375 
Q 16.65625 9.859375 20.171875 7.921875 
Q 23.6875 6 27.734375 6 
Q 34.03125 6 38.125 10.046875 
Q 42.234375 14.109375 42.234375 20.359375 
Q 42.234375 26.703125 38.015625 30.859375 
Q 33.796875 35.015625 27.4375 35.015625 
Q 21.234375 35.015625 17.15625 30.90625 
Q 13.09375 26.8125 13.09375 20.65625 
" id="ArialMT-38"/>
      </defs>
      <g style="fill:#808080;" transform="translate(288 82.561565)scale(0.07 -0.07)">
       <use xlink:href="#ArialMT-30"/>
       <use x="55.615234" xlink:href="#ArialMT-2e"/>
       <use x="83.398438" xlink:href="#ArialMT-38"/>
      </g>
     </g>
    </g>
   </g>
   <g id="patch_3">
    <path clip-path="url(#pf2ee9199c9)" d="M 288 147.442557 
L 356.673458 139.605804 
L 330.448601 208.279262 
L 297.344582 217.623844 
L 288 289.43557 
L 271.744116 224.535146 
L 258.87764 208.279262 
L 221.963904 142.243166 
z
" style="fill:#808080;opacity:0.5;stroke:#808080;stroke-linejoin:miter;stroke-width:0.3;"/>
   </g>
   <g id="patch_4">
    <path clip-path="url(#pf2ee9199c9)" d="M 288 115.656059 
L 354.043945 142.235317 
L 344.568533 208.279262 
L 302.615382 222.894644 
L 288 313.956741 
L 287.010989 209.268272 
L 257.850837 208.279262 
L 228.1099 148.389162 
z
" style="fill:#ff9f9a;opacity:0.5;stroke:#ff9f9a;stroke-linejoin:miter;stroke-width:0.3;"/>
   </g>
   <g id="line2d_13">
    <path clip-path="url(#pf2ee9199c9)" d="M 288 147.442557 
L 356.673458 139.605804 
L 330.448601 208.279262 
L 297.344582 217.623844 
L 288 289.43557 
L 271.744116 224.535146 
L 258.87764 208.279262 
L 221.963904 142.243166 
L 288 147.442557 
" style="fill:none;stroke:#808080;stroke-linecap:round;"/>
   </g>
   <g id="line2d_14">
    <path clip-path="url(#pf2ee9199c9)" d="M 288 115.656059 
L 354.043945 142.235317 
L 344.568533 208.279262 
L 302.615382 222.894644 
L 288 313.956741 
L 287.010989 209.268272 
L 257.850837 208.279262 
L 228.1099 148.389162 
L 288 115.656059 
" style="fill:none;stroke:#ff9f9a;stroke-linecap:round;"/>
   </g>
   <g id="patch_5">
    <path d="M 288 363.687319 
C 329.214699 363.687319 368.746899 347.312546 397.890091 318.169353 
C 427.033284 289.02616 443.408058 249.49396 443.408058 208.279262 
C 443.408058 167.064563 427.033284 127.532363 397.890091 98.38917 
C 368.746899 69.245977 329.214699 52.871204 288 52.871204 
C 246.785301 52.871204 207.253101 69.245977 178.109909 98.38917 
C 148.966716 127.532363 132.591942 167.064563 132.591942 208.279262 
C 132.591942 249.49396 148.966716 289.02616 178.109909 318.169353 
C 207.253101 347.312546 246.785301 363.687319 288 363.687319 
z
" style="fill:none;"/>
   </g>
   <g id="text_13">
    <!-- BROCKHAMPTON TOP BOIS -->
    <defs>
     <path d="M 7.328125 71.578125 
L 35.9375 71.578125 
Q 44.4375 71.578125 48.609375 70.875 
Q 52.78125 70.171875 56.078125 67.921875 
Q 59.375 65.671875 61.5625 61.9375 
Q 63.765625 58.203125 63.765625 53.5625 
Q 63.765625 48.53125 61.046875 44.328125 
Q 58.34375 40.140625 53.71875 38.03125 
Q 60.25 36.140625 63.765625 31.546875 
Q 67.28125 26.953125 67.28125 20.75 
Q 67.28125 15.875 65.015625 11.25 
Q 62.75 6.640625 58.8125 3.875 
Q 54.890625 1.125 49.125 0.484375 
Q 45.515625 0.09375 31.6875 0 
L 7.328125 0 
z
M 21.78125 59.671875 
L 21.78125 43.109375 
L 31.25 43.109375 
Q 39.703125 43.109375 41.75 43.359375 
Q 45.453125 43.796875 47.578125 45.921875 
Q 49.703125 48.046875 49.703125 51.515625 
Q 49.703125 54.828125 47.875 56.90625 
Q 46.046875 58.984375 42.4375 59.421875 
Q 40.28125 59.671875 30.078125 59.671875 
z
M 21.78125 31.203125 
L 21.78125 12.0625 
L 35.15625 12.0625 
Q 42.96875 12.0625 45.0625 12.5 
Q 48.296875 13.09375 50.3125 15.359375 
Q 52.34375 17.625 52.34375 21.4375 
Q 52.34375 24.65625 50.78125 26.90625 
Q 49.21875 29.15625 46.265625 30.171875 
Q 43.3125 31.203125 33.453125 31.203125 
z
" id="Arial-BoldMT-42"/>
     <path d="M 7.328125 0 
L 7.328125 71.578125 
L 37.75 71.578125 
Q 49.21875 71.578125 54.421875 69.640625 
Q 59.625 67.71875 62.75 62.78125 
Q 65.875 57.859375 65.875 51.515625 
Q 65.875 43.453125 61.125 38.203125 
Q 56.390625 32.953125 46.96875 31.59375 
Q 51.65625 28.859375 54.703125 25.578125 
Q 57.765625 22.3125 62.9375 13.96875 
L 71.6875 0 
L 54.390625 0 
L 43.953125 15.578125 
Q 38.375 23.921875 36.328125 26.09375 
Q 34.28125 28.265625 31.984375 29.078125 
Q 29.6875 29.890625 24.703125 29.890625 
L 21.78125 29.890625 
L 21.78125 0 
z
M 21.78125 41.3125 
L 32.46875 41.3125 
Q 42.875 41.3125 45.453125 42.1875 
Q 48.046875 43.0625 49.515625 45.203125 
Q 50.984375 47.359375 50.984375 50.59375 
Q 50.984375 54.203125 49.046875 56.421875 
Q 47.125 58.640625 43.609375 59.234375 
Q 41.84375 59.46875 33.0625 59.46875 
L 21.78125 59.46875 
z
" id="Arial-BoldMT-52"/>
     <path d="M 4.34375 35.359375 
Q 4.34375 46.296875 7.625 53.71875 
Q 10.0625 59.1875 14.28125 63.53125 
Q 18.5 67.875 23.53125 69.96875 
Q 30.21875 72.796875 38.96875 72.796875 
Q 54.78125 72.796875 64.28125 62.984375 
Q 73.78125 53.171875 73.78125 35.6875 
Q 73.78125 18.359375 64.359375 8.5625 
Q 54.9375 -1.21875 39.15625 -1.21875 
Q 23.1875 -1.21875 13.765625 8.515625 
Q 4.34375 18.265625 4.34375 35.359375 
M 19.234375 35.84375 
Q 19.234375 23.6875 24.84375 17.40625 
Q 30.46875 11.140625 39.109375 11.140625 
Q 47.75 11.140625 53.296875 17.359375 
Q 58.84375 23.578125 58.84375 36.03125 
Q 58.84375 48.34375 53.4375 54.390625 
Q 48.046875 60.453125 39.109375 60.453125 
Q 30.171875 60.453125 24.703125 54.3125 
Q 19.234375 48.1875 19.234375 35.84375 
" id="Arial-BoldMT-4f"/>
     <path d="M 53.078125 26.3125 
L 67.09375 21.875 
Q 63.875 10.15625 56.375 4.46875 
Q 48.875 -1.21875 37.359375 -1.21875 
Q 23.09375 -1.21875 13.90625 8.515625 
Q 4.734375 18.265625 4.734375 35.15625 
Q 4.734375 53.03125 13.953125 62.90625 
Q 23.1875 72.796875 38.234375 72.796875 
Q 51.375 72.796875 59.578125 65.046875 
Q 64.453125 60.453125 66.890625 51.859375 
L 52.59375 48.4375 
Q 51.3125 54 47.28125 57.21875 
Q 43.265625 60.453125 37.5 60.453125 
Q 29.546875 60.453125 24.578125 54.734375 
Q 19.625 49.03125 19.625 36.234375 
Q 19.625 22.65625 24.5 16.890625 
Q 29.390625 11.140625 37.203125 11.140625 
Q 42.96875 11.140625 47.109375 14.796875 
Q 51.265625 18.453125 53.078125 26.3125 
" id="Arial-BoldMT-43"/>
     <path d="M 7.46875 0 
L 7.46875 71.578125 
L 21.921875 71.578125 
L 21.921875 39.796875 
L 51.125 71.578125 
L 70.5625 71.578125 
L 43.609375 43.703125 
L 72.015625 0 
L 53.328125 0 
L 33.640625 33.59375 
L 21.921875 21.625 
L 21.921875 0 
z
" id="Arial-BoldMT-4b"/>
     <path d="M 7.328125 0 
L 7.328125 71.578125 
L 21.78125 71.578125 
L 21.78125 43.40625 
L 50.09375 43.40625 
L 50.09375 71.578125 
L 64.546875 71.578125 
L 64.546875 0 
L 50.09375 0 
L 50.09375 31.296875 
L 21.78125 31.296875 
L 21.78125 0 
z
" id="Arial-BoldMT-48"/>
     <path d="M 71.828125 0 
L 56.109375 0 
L 49.859375 16.265625 
L 21.234375 16.265625 
L 15.328125 0 
L 0 0 
L 27.875 71.578125 
L 43.171875 71.578125 
z
M 45.21875 28.328125 
L 35.359375 54.890625 
L 25.6875 28.328125 
z
" id="Arial-BoldMT-41"/>
     <path d="M 7.078125 0 
L 7.078125 71.578125 
L 28.71875 71.578125 
L 41.703125 22.75 
L 54.546875 71.578125 
L 76.21875 71.578125 
L 76.21875 0 
L 62.796875 0 
L 62.796875 56.34375 
L 48.578125 0 
L 34.671875 0 
L 20.515625 56.34375 
L 20.515625 0 
z
" id="Arial-BoldMT-4d"/>
     <path d="M 7.28125 0 
L 7.28125 71.578125 
L 30.46875 71.578125 
Q 43.65625 71.578125 47.65625 70.515625 
Q 53.8125 68.890625 57.953125 63.5 
Q 62.109375 58.109375 62.109375 49.5625 
Q 62.109375 42.96875 59.71875 38.46875 
Q 57.328125 33.984375 53.640625 31.421875 
Q 49.953125 28.859375 46.140625 28.03125 
Q 40.96875 27 31.15625 27 
L 21.734375 27 
L 21.734375 0 
z
M 21.734375 59.46875 
L 21.734375 39.15625 
L 29.640625 39.15625 
Q 38.1875 39.15625 41.0625 40.28125 
Q 43.953125 41.40625 45.578125 43.796875 
Q 47.21875 46.1875 47.21875 49.359375 
Q 47.21875 53.265625 44.921875 55.796875 
Q 42.625 58.34375 39.109375 58.984375 
Q 36.53125 59.46875 28.71875 59.46875 
z
" id="Arial-BoldMT-50"/>
     <path d="M 23.390625 0 
L 23.390625 59.46875 
L 2.15625 59.46875 
L 2.15625 71.578125 
L 59.03125 71.578125 
L 59.03125 59.46875 
L 37.84375 59.46875 
L 37.84375 0 
z
" id="Arial-BoldMT-54"/>
     <path d="M 7.421875 0 
L 7.421875 71.578125 
L 21.484375 71.578125 
L 50.78125 23.78125 
L 50.78125 71.578125 
L 64.203125 71.578125 
L 64.203125 0 
L 49.703125 0 
L 20.84375 46.6875 
L 20.84375 0 
z
" id="Arial-BoldMT-4e"/>
     <path id="Arial-BoldMT-20"/>
     <path d="M 6.84375 0 
L 6.84375 71.578125 
L 21.296875 71.578125 
L 21.296875 0 
z
" id="Arial-BoldMT-49"/>
     <path d="M 3.609375 23.296875 
L 17.671875 24.65625 
Q 18.953125 17.578125 22.828125 14.25 
Q 26.703125 10.9375 33.296875 10.9375 
Q 40.28125 10.9375 43.8125 13.890625 
Q 47.359375 16.84375 47.359375 20.796875 
Q 47.359375 23.34375 45.875 25.125 
Q 44.390625 26.90625 40.671875 28.21875 
Q 38.140625 29.109375 29.109375 31.34375 
Q 17.484375 34.234375 12.796875 38.421875 
Q 6.203125 44.34375 6.203125 52.828125 
Q 6.203125 58.296875 9.296875 63.0625 
Q 12.40625 67.828125 18.234375 70.3125 
Q 24.078125 72.796875 32.328125 72.796875 
Q 45.796875 72.796875 52.609375 66.890625 
Q 59.421875 60.984375 59.765625 51.125 
L 45.3125 50.484375 
Q 44.390625 56 41.328125 58.421875 
Q 38.28125 60.84375 32.171875 60.84375 
Q 25.875 60.84375 22.3125 58.25 
Q 20.015625 56.59375 20.015625 53.8125 
Q 20.015625 51.265625 22.171875 49.46875 
Q 24.90625 47.171875 35.453125 44.671875 
Q 46 42.1875 51.046875 39.515625 
Q 56.109375 36.859375 58.953125 32.25 
Q 61.8125 27.640625 61.8125 20.84375 
Q 61.8125 14.703125 58.390625 9.328125 
Q 54.984375 3.953125 48.734375 1.34375 
Q 42.484375 -1.265625 33.15625 -1.265625 
Q 19.578125 -1.265625 12.296875 5 
Q 5.03125 11.28125 3.609375 23.296875 
" id="Arial-BoldMT-53"/>
    </defs>
    <g style="fill:#ff9f9a;" transform="translate(191.558594 22.005915)scale(0.14 -0.14)">
     <use xlink:href="#Arial-BoldMT-42"/>
     <use x="72.216797" xlink:href="#Arial-BoldMT-52"/>
     <use x="144.433594" xlink:href="#Arial-BoldMT-4f"/>
     <use x="222.216797" xlink:href="#Arial-BoldMT-43"/>
     <use x="294.433594" xlink:href="#Arial-BoldMT-4b"/>
     <use x="366.650391" xlink:href="#Arial-BoldMT-48"/>
     <use x="438.867188" xlink:href="#Arial-BoldMT-41"/>
     <use x="511.083984" xlink:href="#Arial-BoldMT-4d"/>
     <use x="594.384766" xlink:href="#Arial-BoldMT-50"/>
     <use x="661.083984" xlink:href="#Arial-BoldMT-54"/>
     <use x="722.152344" xlink:href="#Arial-BoldMT-4f"/>
     <use x="799.935547" xlink:href="#Arial-BoldMT-4e"/>
     <use x="872.152344" xlink:href="#Arial-BoldMT-20"/>
     <use x="899.935547" xlink:href="#Arial-BoldMT-54"/>
     <use x="961.003906" xlink:href="#Arial-BoldMT-4f"/>
     <use x="1038.787109" xlink:href="#Arial-BoldMT-50"/>
     <use x="1105.470703" xlink:href="#Arial-BoldMT-20"/>
     <use x="1133.253906" xlink:href="#Arial-BoldMT-42"/>
     <use x="1205.470703" xlink:href="#Arial-BoldMT-4f"/>
     <use x="1283.253906" xlink:href="#Arial-BoldMT-49"/>
     <use x="1311.037109" xlink:href="#Arial-BoldMT-53"/>
    </g>
   </g>
  </g>
 </g>
 <defs>
  <clipPath id="pf2ee9199c9">
   <path d="M 288 363.687319 
C 329.214699 363.687319 368.746899 347.312546 397.890091 318.169353 
C 427.033284 289.02616 443.408058 249.49396 443.408058 208.279262 
C 443.408058 167.064563 427.033284 127.532363 397.890091 98.38917 
C 368.746899 69.245977 329.214699 52.871204 288 52.871204 
C 246.785301 52.871204 207.253101 69.245977 178.109909 98.38917 
C 148.966716 127.532363 132.591942 167.064563 132.591942 208.279262 
C 132.591942 249.49396 148.966716 289.02616 178.109909 318.169353 
C 207.253101 347.312546 246.785301 363.687319 288 363.687319 
z
"/>
  </clipPath>
 </defs>
</svg>
