<?xml version="1.0" encoding="utf-8" standalone="no"?>
<!DOCTYPE svg PUBLIC "-//W3C//DTD SVG 1.1//EN"
  "http://www.w3.org/Graphics/SVG/1.1/DTD/svg11.dtd">
<!-- Created with matplotlib (http://matplotlib.org/) -->
<svg height="396pt" version="1.1" viewBox="0 0 576 396" width="576pt" xmlns="http://www.w3.org/2000/svg" xmlns:xlink="http://www.w3.org/1999/xlink">
 <defs>
  <style type="text/css">
*{stroke-linecap:butt;stroke-linejoin:round;}
  </style>
 </defs>
 <g id="figure_1">
  <g id="patch_1">
   <path d="M 0 396 
L 576 396 
L 576 0 
L 0 0 
z
" style="fill:#ffffff;"/>
  </g>
  <g id="axes_1">
   <g id="patch_2">
    <path d="M 288 363.687553 
C 329.214779 363.687553 368.747056 347.312748 397.890306 318.169498 
C 427.033556 289.026248 443.408362 249.493971 443.408362 208.279192 
C 443.408362 167.064412 427.033556 127.532135 397.890306 98.388885 
C 368.747056 69.245635 329.214779 52.87083 288 52.87083 
C 246.785221 52.87083 207.252944 69.245635 178.109694 98.388885 
C 148.966444 127.532135 132.591638 167.064412 132.591638 208.279192 
C 132.591638 249.493971 148.966444 289.026248 178.109694 318.169498 
C 207.252944 347.312748 246.785221 363.687553 288 363.687553 
z
" style="fill:#eaeaf2;"/>
   </g>
   <g id="matplotlib.axis_1">
    <g id="xtick_1">
     <g id="line2d_1">
      <path clip-path="url(#pf1a23e3e80)" d="M 288 208.279192 
L 288 52.87083 
" style="fill:none;stroke:#ffffff;stroke-linecap:round;"/>
     </g>
     <g id="text_1">
      <!-- valence -->
      <defs>
       <path d="M 21 0 
L 1.265625 51.859375 
L 10.546875 51.859375 
L 21.6875 20.796875 
Q 23.484375 15.765625 25 10.359375 
Q 26.171875 14.453125 28.265625 20.21875 
L 39.796875 51.859375 
L 48.828125 51.859375 
L 29.203125 0 
z
" id="ArialMT-76"/>
       <path d="M 40.4375 6.390625 
Q 35.546875 2.25 31.03125 0.53125 
Q 26.515625 -1.171875 21.34375 -1.171875 
Q 12.796875 -1.171875 8.203125 3 
Q 3.609375 7.171875 3.609375 13.671875 
Q 3.609375 17.484375 5.34375 20.625 
Q 7.078125 23.78125 9.890625 25.6875 
Q 12.703125 27.59375 16.21875 28.5625 
Q 18.796875 29.25 24.03125 29.890625 
Q 34.671875 31.15625 39.703125 32.90625 
Q 39.75 34.71875 39.75 35.203125 
Q 39.75 40.578125 37.25 42.78125 
Q 33.890625 45.75 27.25 45.75 
Q 21.046875 45.75 18.09375 43.578125 
Q 15.140625 41.40625 13.71875 35.890625 
L 5.125 37.0625 
Q 6.296875 42.578125 8.984375 45.96875 
Q 11.671875 49.359375 16.75 51.1875 
Q 21.828125 53.03125 28.515625 53.03125 
Q 35.15625 53.03125 39.296875 51.46875 
Q 43.453125 49.90625 45.40625 47.53125 
Q 47.359375 45.171875 48.140625 41.546875 
Q 48.578125 39.3125 48.578125 33.453125 
L 48.578125 21.734375 
Q 48.578125 9.46875 49.140625 6.21875 
Q 49.703125 2.984375 51.375 0 
L 42.1875 0 
Q 40.828125 2.734375 40.4375 6.390625 
M 39.703125 26.03125 
Q 34.90625 24.078125 25.34375 22.703125 
Q 19.921875 21.921875 17.671875 20.9375 
Q 15.4375 19.96875 14.203125 18.09375 
Q 12.984375 16.21875 12.984375 13.921875 
Q 12.984375 10.40625 15.640625 8.0625 
Q 18.3125 5.71875 23.4375 5.71875 
Q 28.515625 5.71875 32.46875 7.9375 
Q 36.421875 10.15625 38.28125 14.015625 
Q 39.703125 17 39.703125 22.796875 
z
" id="ArialMT-61"/>
       <path d="M 6.390625 0 
L 6.390625 71.578125 
L 15.1875 71.578125 
L 15.1875 0 
z
" id="ArialMT-6c"/>
       <path d="M 42.09375 16.703125 
L 51.171875 15.578125 
Q 49.03125 7.625 43.21875 3.21875 
Q 37.40625 -1.171875 28.375 -1.171875 
Q 17 -1.171875 10.328125 5.828125 
Q 3.65625 12.84375 3.65625 25.484375 
Q 3.65625 38.578125 10.390625 45.796875 
Q 17.140625 53.03125 27.875 53.03125 
Q 38.28125 53.03125 44.875 45.953125 
Q 51.46875 38.875 51.46875 26.03125 
Q 51.46875 25.25 51.421875 23.6875 
L 12.75 23.6875 
Q 13.234375 15.140625 17.578125 10.59375 
Q 21.921875 6.0625 28.421875 6.0625 
Q 33.25 6.0625 36.671875 8.59375 
Q 40.09375 11.140625 42.09375 16.703125 
M 13.234375 30.90625 
L 42.1875 30.90625 
Q 41.609375 37.453125 38.875 40.71875 
Q 34.671875 45.796875 27.984375 45.796875 
Q 21.921875 45.796875 17.796875 41.75 
Q 13.671875 37.703125 13.234375 30.90625 
" id="ArialMT-65"/>
       <path d="M 6.59375 0 
L 6.59375 51.859375 
L 14.5 51.859375 
L 14.5 44.484375 
Q 20.21875 53.03125 31 53.03125 
Q 35.6875 53.03125 39.625 51.34375 
Q 43.5625 49.65625 45.515625 46.921875 
Q 47.46875 44.1875 48.25 40.4375 
Q 48.734375 37.984375 48.734375 31.890625 
L 48.734375 0 
L 39.9375 0 
L 39.9375 31.546875 
Q 39.9375 36.921875 38.90625 39.578125 
Q 37.890625 42.234375 35.28125 43.8125 
Q 32.671875 45.40625 29.15625 45.40625 
Q 23.53125 45.40625 19.453125 41.84375 
Q 15.375 38.28125 15.375 28.328125 
L 15.375 0 
z
" id="ArialMT-6e"/>
       <path d="M 40.4375 19 
L 49.078125 17.875 
Q 47.65625 8.9375 41.8125 3.875 
Q 35.984375 -1.171875 27.484375 -1.171875 
Q 16.84375 -1.171875 10.375 5.78125 
Q 3.90625 12.75 3.90625 25.734375 
Q 3.90625 34.125 6.6875 40.421875 
Q 9.46875 46.734375 15.15625 49.875 
Q 20.84375 53.03125 27.546875 53.03125 
Q 35.984375 53.03125 41.359375 48.75 
Q 46.734375 44.484375 48.25 36.625 
L 39.703125 35.296875 
Q 38.484375 40.53125 35.375 43.15625 
Q 32.28125 45.796875 27.875 45.796875 
Q 21.234375 45.796875 17.078125 41.03125 
Q 12.9375 36.28125 12.9375 25.984375 
Q 12.9375 15.53125 16.9375 10.796875 
Q 20.953125 6.0625 27.390625 6.0625 
Q 32.5625 6.0625 36.03125 9.234375 
Q 39.5 12.40625 40.4375 19 
" id="ArialMT-63"/>
      </defs>
      <g style="fill:#808080;" transform="translate(274.21375 39.398119)scale(0.08 -0.08)">
       <use xlink:href="#ArialMT-76"/>
       <use x="50" xlink:href="#ArialMT-61"/>
       <use x="105.615234" xlink:href="#ArialMT-6c"/>
       <use x="127.832031" xlink:href="#ArialMT-65"/>
       <use x="183.447266" xlink:href="#ArialMT-6e"/>
       <use x="239.0625" xlink:href="#ArialMT-63"/>
       <use x="289.0625" xlink:href="#ArialMT-65"/>
      </g>
     </g>
    </g>
    <g id="xtick_2">
     <g id="line2d_2">
      <path clip-path="url(#pf1a23e3e80)" d="M 288 208.279192 
L 397.890306 98.388885 
" style="fill:none;stroke:#ffffff;stroke-linecap:round;"/>
     </g>
     <g id="text_2">
      <!-- energy -->
      <defs>
       <path d="M 6.5 0 
L 6.5 51.859375 
L 14.40625 51.859375 
L 14.40625 44 
Q 17.4375 49.515625 20 51.265625 
Q 22.5625 53.03125 25.640625 53.03125 
Q 30.078125 53.03125 34.671875 50.203125 
L 31.640625 42.046875 
Q 28.421875 43.953125 25.203125 43.953125 
Q 22.3125 43.953125 20.015625 42.21875 
Q 17.71875 40.484375 16.75 37.40625 
Q 15.28125 32.71875 15.28125 27.15625 
L 15.28125 0 
z
" id="ArialMT-72"/>
       <path d="M 4.984375 -4.296875 
L 13.53125 -5.5625 
Q 14.0625 -9.515625 16.5 -11.328125 
Q 19.78125 -13.765625 25.4375 -13.765625 
Q 31.546875 -13.765625 34.859375 -11.328125 
Q 38.1875 -8.890625 39.359375 -4.5 
Q 40.046875 -1.8125 39.984375 6.78125 
Q 34.234375 0 25.640625 0 
Q 14.9375 0 9.078125 7.71875 
Q 3.21875 15.4375 3.21875 26.21875 
Q 3.21875 33.640625 5.90625 39.90625 
Q 8.59375 46.1875 13.6875 49.609375 
Q 18.796875 53.03125 25.6875 53.03125 
Q 34.859375 53.03125 40.828125 45.609375 
L 40.828125 51.859375 
L 48.921875 51.859375 
L 48.921875 7.03125 
Q 48.921875 -5.078125 46.453125 -10.125 
Q 44 -15.1875 38.640625 -18.109375 
Q 33.296875 -21.046875 25.484375 -21.046875 
Q 16.21875 -21.046875 10.5 -16.875 
Q 4.78125 -12.703125 4.984375 -4.296875 
M 12.25 26.859375 
Q 12.25 16.65625 16.296875 11.96875 
Q 20.359375 7.28125 26.46875 7.28125 
Q 32.515625 7.28125 36.609375 11.9375 
Q 40.71875 16.609375 40.71875 26.5625 
Q 40.71875 36.078125 36.5 40.90625 
Q 32.28125 45.75 26.3125 45.75 
Q 20.453125 45.75 16.34375 40.984375 
Q 12.25 36.234375 12.25 26.859375 
" id="ArialMT-67"/>
       <path d="M 6.203125 -19.96875 
L 5.21875 -11.71875 
Q 8.109375 -12.5 10.25 -12.5 
Q 13.1875 -12.5 14.9375 -11.515625 
Q 16.703125 -10.546875 17.828125 -8.796875 
Q 18.65625 -7.46875 20.515625 -2.25 
Q 20.75 -1.515625 21.296875 -0.09375 
L 1.609375 51.859375 
L 11.078125 51.859375 
L 21.875 21.828125 
Q 23.96875 16.109375 25.640625 9.8125 
Q 27.15625 15.875 29.25 21.625 
L 40.328125 51.859375 
L 49.125 51.859375 
L 29.390625 -0.875 
Q 26.21875 -9.421875 24.46875 -12.640625 
Q 22.125 -17 19.09375 -19.015625 
Q 16.0625 -21.046875 11.859375 -21.046875 
Q 9.328125 -21.046875 6.203125 -19.96875 
" id="ArialMT-79"/>
      </defs>
      <g style="fill:#808080;" transform="translate(396.649962 89.37423)scale(0.08 -0.08)">
       <use xlink:href="#ArialMT-65"/>
       <use x="55.615234" xlink:href="#ArialMT-6e"/>
       <use x="111.230469" xlink:href="#ArialMT-65"/>
       <use x="166.845703" xlink:href="#ArialMT-72"/>
       <use x="200.146484" xlink:href="#ArialMT-67"/>
       <use x="255.761719" xlink:href="#ArialMT-79"/>
      </g>
     </g>
    </g>
    <g id="xtick_3">
     <g id="line2d_3">
      <path clip-path="url(#pf1a23e3e80)" d="M 288 208.279192 
L 443.408362 208.279192 
" style="fill:none;stroke:#ffffff;stroke-linecap:round;"/>
     </g>
     <g id="text_3">
      <!-- acousticness -->
      <defs>
       <path d="M 3.328125 25.921875 
Q 3.328125 40.328125 11.328125 47.265625 
Q 18.015625 53.03125 27.640625 53.03125 
Q 38.328125 53.03125 45.109375 46.015625 
Q 51.90625 39.015625 51.90625 26.65625 
Q 51.90625 16.65625 48.90625 10.90625 
Q 45.90625 5.171875 40.15625 2 
Q 34.421875 -1.171875 27.640625 -1.171875 
Q 16.75 -1.171875 10.03125 5.8125 
Q 3.328125 12.796875 3.328125 25.921875 
M 12.359375 25.921875 
Q 12.359375 15.96875 16.703125 11.015625 
Q 21.046875 6.0625 27.640625 6.0625 
Q 34.1875 6.0625 38.53125 11.03125 
Q 42.875 16.015625 42.875 26.21875 
Q 42.875 35.84375 38.5 40.796875 
Q 34.125 45.75 27.640625 45.75 
Q 21.046875 45.75 16.703125 40.8125 
Q 12.359375 35.890625 12.359375 25.921875 
" id="ArialMT-6f"/>
       <path d="M 40.578125 0 
L 40.578125 7.625 
Q 34.515625 -1.171875 24.125 -1.171875 
Q 19.53125 -1.171875 15.546875 0.578125 
Q 11.578125 2.34375 9.640625 5 
Q 7.71875 7.671875 6.9375 11.53125 
Q 6.390625 14.109375 6.390625 19.734375 
L 6.390625 51.859375 
L 15.1875 51.859375 
L 15.1875 23.09375 
Q 15.1875 16.21875 15.71875 13.8125 
Q 16.546875 10.359375 19.234375 8.375 
Q 21.921875 6.390625 25.875 6.390625 
Q 29.828125 6.390625 33.296875 8.421875 
Q 36.765625 10.453125 38.203125 13.9375 
Q 39.65625 17.4375 39.65625 24.078125 
L 39.65625 51.859375 
L 48.4375 51.859375 
L 48.4375 0 
z
" id="ArialMT-75"/>
       <path d="M 3.078125 15.484375 
L 11.765625 16.84375 
Q 12.5 11.625 15.84375 8.84375 
Q 19.1875 6.0625 25.203125 6.0625 
Q 31.25 6.0625 34.171875 8.515625 
Q 37.109375 10.984375 37.109375 14.3125 
Q 37.109375 17.28125 34.515625 19 
Q 32.71875 20.171875 25.53125 21.96875 
Q 15.875 24.421875 12.140625 26.203125 
Q 8.40625 27.984375 6.46875 31.125 
Q 4.546875 34.28125 4.546875 38.09375 
Q 4.546875 41.546875 6.125 44.5 
Q 7.71875 47.46875 10.453125 49.421875 
Q 12.5 50.921875 16.03125 51.96875 
Q 19.578125 53.03125 23.640625 53.03125 
Q 29.734375 53.03125 34.34375 51.265625 
Q 38.96875 49.515625 41.15625 46.5 
Q 43.359375 43.5 44.1875 38.484375 
L 35.59375 37.3125 
Q 35.015625 41.3125 32.203125 43.546875 
Q 29.390625 45.796875 24.265625 45.796875 
Q 18.21875 45.796875 15.625 43.796875 
Q 13.03125 41.796875 13.03125 39.109375 
Q 13.03125 37.40625 14.109375 36.03125 
Q 15.1875 34.625 17.484375 33.6875 
Q 18.796875 33.203125 25.25 31.453125 
Q 34.578125 28.953125 38.25 27.359375 
Q 41.9375 25.78125 44.03125 22.75 
Q 46.140625 19.734375 46.140625 15.234375 
Q 46.140625 10.84375 43.578125 6.953125 
Q 41.015625 3.078125 36.171875 0.953125 
Q 31.34375 -1.171875 25.25 -1.171875 
Q 15.140625 -1.171875 9.84375 3.03125 
Q 4.546875 7.234375 3.078125 15.484375 
" id="ArialMT-73"/>
       <path d="M 25.78125 7.859375 
L 27.046875 0.09375 
Q 23.34375 -0.6875 20.40625 -0.6875 
Q 15.625 -0.6875 12.984375 0.828125 
Q 10.359375 2.34375 9.28125 4.8125 
Q 8.203125 7.28125 8.203125 15.1875 
L 8.203125 45.015625 
L 1.765625 45.015625 
L 1.765625 51.859375 
L 8.203125 51.859375 
L 8.203125 64.703125 
L 16.9375 69.96875 
L 16.9375 51.859375 
L 25.78125 51.859375 
L 25.78125 45.015625 
L 16.9375 45.015625 
L 16.9375 14.703125 
Q 16.9375 10.9375 17.40625 9.859375 
Q 17.875 8.796875 18.921875 8.15625 
Q 19.96875 7.515625 21.921875 7.515625 
Q 23.390625 7.515625 25.78125 7.859375 
" id="ArialMT-74"/>
       <path d="M 6.640625 61.46875 
L 6.640625 71.578125 
L 15.4375 71.578125 
L 15.4375 61.46875 
z
M 6.640625 0 
L 6.640625 51.859375 
L 15.4375 51.859375 
L 15.4375 0 
z
" id="ArialMT-69"/>
      </defs>
      <g style="fill:#808080;" transform="translate(435.827323 210.347317)scale(0.08 -0.08)">
       <use xlink:href="#ArialMT-61"/>
       <use x="55.615234" xlink:href="#ArialMT-63"/>
       <use x="105.615234" xlink:href="#ArialMT-6f"/>
       <use x="161.230469" xlink:href="#ArialMT-75"/>
       <use x="216.845703" xlink:href="#ArialMT-73"/>
       <use x="266.845703" xlink:href="#ArialMT-74"/>
       <use x="294.628906" xlink:href="#ArialMT-69"/>
       <use x="316.845703" xlink:href="#ArialMT-63"/>
       <use x="366.845703" xlink:href="#ArialMT-6e"/>
       <use x="422.460938" xlink:href="#ArialMT-65"/>
       <use x="478.076172" xlink:href="#ArialMT-73"/>
       <use x="528.076172" xlink:href="#ArialMT-73"/>
      </g>
     </g>
    </g>
    <g id="xtick_4">
     <g id="line2d_4">
      <path clip-path="url(#pf1a23e3e80)" d="M 288 208.279192 
L 397.890306 318.169498 
" style="fill:none;stroke:#ffffff;stroke-linecap:round;"/>
     </g>
     <g id="text_4">
      <!-- speechiness -->
      <defs>
       <path d="M 6.59375 -19.875 
L 6.59375 51.859375 
L 14.59375 51.859375 
L 14.59375 45.125 
Q 17.4375 49.078125 21 51.046875 
Q 24.5625 53.03125 29.640625 53.03125 
Q 36.28125 53.03125 41.359375 49.609375 
Q 46.4375 46.1875 49.015625 39.953125 
Q 51.609375 33.734375 51.609375 26.3125 
Q 51.609375 18.359375 48.75 11.984375 
Q 45.90625 5.609375 40.453125 2.21875 
Q 35.015625 -1.171875 29 -1.171875 
Q 24.609375 -1.171875 21.109375 0.6875 
Q 17.625 2.546875 15.375 5.375 
L 15.375 -19.875 
z
M 14.546875 25.640625 
Q 14.546875 15.625 18.59375 10.84375 
Q 22.65625 6.0625 28.421875 6.0625 
Q 34.28125 6.0625 38.453125 11.015625 
Q 42.625 15.96875 42.625 26.375 
Q 42.625 36.28125 38.546875 41.203125 
Q 34.46875 46.140625 28.8125 46.140625 
Q 23.1875 46.140625 18.859375 40.890625 
Q 14.546875 35.640625 14.546875 25.640625 
" id="ArialMT-70"/>
       <path d="M 6.59375 0 
L 6.59375 71.578125 
L 15.375 71.578125 
L 15.375 45.90625 
Q 21.53125 53.03125 30.90625 53.03125 
Q 36.671875 53.03125 40.921875 50.75 
Q 45.171875 48.484375 47 44.484375 
Q 48.828125 40.484375 48.828125 32.859375 
L 48.828125 0 
L 40.046875 0 
L 40.046875 32.859375 
Q 40.046875 39.453125 37.1875 42.453125 
Q 34.328125 45.453125 29.109375 45.453125 
Q 25.203125 45.453125 21.75 43.421875 
Q 18.3125 41.40625 16.84375 37.9375 
Q 15.375 34.46875 15.375 28.375 
L 15.375 0 
z
" id="ArialMT-68"/>
      </defs>
      <g style="fill:#808080;" transform="translate(386.644337 331.226653)scale(0.08 -0.08)">
       <use xlink:href="#ArialMT-73"/>
       <use x="50" xlink:href="#ArialMT-70"/>
       <use x="105.615234" xlink:href="#ArialMT-65"/>
       <use x="161.230469" xlink:href="#ArialMT-65"/>
       <use x="216.845703" xlink:href="#ArialMT-63"/>
       <use x="266.845703" xlink:href="#ArialMT-68"/>
       <use x="322.460938" xlink:href="#ArialMT-69"/>
       <use x="344.677734" xlink:href="#ArialMT-6e"/>
       <use x="400.292969" xlink:href="#ArialMT-65"/>
       <use x="455.908203" xlink:href="#ArialMT-73"/>
       <use x="505.908203" xlink:href="#ArialMT-73"/>
      </g>
     </g>
    </g>
    <g id="xtick_5">
     <g id="line2d_5">
      <path clip-path="url(#pf1a23e3e80)" d="M 288 208.279192 
L 288 363.687553 
" style="fill:none;stroke:#ffffff;stroke-linecap:round;"/>
     </g>
     <g id="text_5">
      <!-- danceability -->
      <defs>
       <path d="M 40.234375 0 
L 40.234375 6.546875 
Q 35.296875 -1.171875 25.734375 -1.171875 
Q 19.53125 -1.171875 14.328125 2.25 
Q 9.125 5.671875 6.265625 11.796875 
Q 3.421875 17.921875 3.421875 25.875 
Q 3.421875 33.640625 6 39.96875 
Q 8.59375 46.296875 13.765625 49.65625 
Q 18.953125 53.03125 25.34375 53.03125 
Q 30.03125 53.03125 33.6875 51.046875 
Q 37.359375 49.078125 39.65625 45.90625 
L 39.65625 71.578125 
L 48.390625 71.578125 
L 48.390625 0 
z
M 12.453125 25.875 
Q 12.453125 15.921875 16.640625 10.984375 
Q 20.84375 6.0625 26.5625 6.0625 
Q 32.328125 6.0625 36.34375 10.765625 
Q 40.375 15.484375 40.375 25.140625 
Q 40.375 35.796875 36.265625 40.765625 
Q 32.171875 45.75 26.171875 45.75 
Q 20.3125 45.75 16.375 40.96875 
Q 12.453125 36.1875 12.453125 25.875 
" id="ArialMT-64"/>
       <path d="M 14.703125 0 
L 6.546875 0 
L 6.546875 71.578125 
L 15.328125 71.578125 
L 15.328125 46.046875 
Q 20.90625 53.03125 29.546875 53.03125 
Q 34.328125 53.03125 38.59375 51.09375 
Q 42.875 49.171875 45.625 45.671875 
Q 48.390625 42.1875 49.953125 37.25 
Q 51.515625 32.328125 51.515625 26.703125 
Q 51.515625 13.375 44.921875 6.09375 
Q 38.328125 -1.171875 29.109375 -1.171875 
Q 19.921875 -1.171875 14.703125 6.5 
z
M 14.59375 26.3125 
Q 14.59375 17 17.140625 12.84375 
Q 21.296875 6.0625 28.375 6.0625 
Q 34.125 6.0625 38.328125 11.0625 
Q 42.53125 16.0625 42.53125 25.984375 
Q 42.53125 36.140625 38.5 40.96875 
Q 34.46875 45.796875 28.765625 45.796875 
Q 23 45.796875 18.796875 40.796875 
Q 14.59375 35.796875 14.59375 26.3125 
" id="ArialMT-62"/>
      </defs>
      <g style="fill:#808080;" transform="translate(266.87625 381.249639)scale(0.08 -0.08)">
       <use xlink:href="#ArialMT-64"/>
       <use x="55.615234" xlink:href="#ArialMT-61"/>
       <use x="111.230469" xlink:href="#ArialMT-6e"/>
       <use x="166.845703" xlink:href="#ArialMT-63"/>
       <use x="216.845703" xlink:href="#ArialMT-65"/>
       <use x="272.460938" xlink:href="#ArialMT-61"/>
       <use x="328.076172" xlink:href="#ArialMT-62"/>
       <use x="383.691406" xlink:href="#ArialMT-69"/>
       <use x="405.908203" xlink:href="#ArialMT-6c"/>
       <use x="428.125" xlink:href="#ArialMT-69"/>
       <use x="450.341797" xlink:href="#ArialMT-74"/>
       <use x="478.125" xlink:href="#ArialMT-79"/>
      </g>
     </g>
    </g>
    <g id="xtick_6">
     <g id="line2d_6">
      <path clip-path="url(#pf1a23e3e80)" d="M 288 208.279192 
L 178.109694 318.169498 
" style="fill:none;stroke:#ffffff;stroke-linecap:round;"/>
     </g>
     <g id="text_6">
      <!-- instrumentalness -->
      <defs>
       <path d="M 6.59375 0 
L 6.59375 51.859375 
L 14.453125 51.859375 
L 14.453125 44.578125 
Q 16.890625 48.390625 20.9375 50.703125 
Q 25 53.03125 30.171875 53.03125 
Q 35.9375 53.03125 39.625 50.640625 
Q 43.3125 48.25 44.828125 43.953125 
Q 50.984375 53.03125 60.84375 53.03125 
Q 68.5625 53.03125 72.703125 48.75 
Q 76.859375 44.484375 76.859375 35.59375 
L 76.859375 0 
L 68.109375 0 
L 68.109375 32.671875 
Q 68.109375 37.9375 67.25 40.25 
Q 66.40625 42.578125 64.15625 43.984375 
Q 61.921875 45.40625 58.890625 45.40625 
Q 53.421875 45.40625 49.796875 41.765625 
Q 46.1875 38.140625 46.1875 30.125 
L 46.1875 0 
L 37.40625 0 
L 37.40625 33.6875 
Q 37.40625 39.546875 35.25 42.46875 
Q 33.109375 45.40625 28.21875 45.40625 
Q 24.515625 45.40625 21.359375 43.453125 
Q 18.21875 41.5 16.796875 37.734375 
Q 15.375 33.984375 15.375 26.90625 
L 15.375 0 
z
" id="ArialMT-6d"/>
      </defs>
      <g style="fill:#808080;" transform="translate(136.886288 331.226653)scale(0.08 -0.08)">
       <use xlink:href="#ArialMT-69"/>
       <use x="22.216797" xlink:href="#ArialMT-6e"/>
       <use x="77.832031" xlink:href="#ArialMT-73"/>
       <use x="127.832031" xlink:href="#ArialMT-74"/>
       <use x="155.615234" xlink:href="#ArialMT-72"/>
       <use x="188.916016" xlink:href="#ArialMT-75"/>
       <use x="244.53125" xlink:href="#ArialMT-6d"/>
       <use x="327.832031" xlink:href="#ArialMT-65"/>
       <use x="383.447266" xlink:href="#ArialMT-6e"/>
       <use x="439.0625" xlink:href="#ArialMT-74"/>
       <use x="466.845703" xlink:href="#ArialMT-61"/>
       <use x="522.460938" xlink:href="#ArialMT-6c"/>
       <use x="544.677734" xlink:href="#ArialMT-6e"/>
       <use x="600.292969" xlink:href="#ArialMT-65"/>
       <use x="655.908203" xlink:href="#ArialMT-73"/>
       <use x="705.908203" xlink:href="#ArialMT-73"/>
      </g>
     </g>
    </g>
    <g id="xtick_7">
     <g id="line2d_7">
      <path clip-path="url(#pf1a23e3e80)" d="M 288 208.279192 
L 132.591638 208.279192 
" style="fill:none;stroke:#ffffff;stroke-linecap:round;"/>
     </g>
     <g id="text_7">
      <!-- liveness -->
      <g style="fill:#808080;" transform="translate(102.600177 210.347317)scale(0.08 -0.08)">
       <use xlink:href="#ArialMT-6c"/>
       <use x="22.216797" xlink:href="#ArialMT-69"/>
       <use x="44.433594" xlink:href="#ArialMT-76"/>
       <use x="94.433594" xlink:href="#ArialMT-65"/>
       <use x="150.048828" xlink:href="#ArialMT-6e"/>
       <use x="205.664062" xlink:href="#ArialMT-65"/>
       <use x="261.279297" xlink:href="#ArialMT-73"/>
       <use x="311.279297" xlink:href="#ArialMT-73"/>
      </g>
     </g>
    </g>
    <g id="xtick_8">
     <g id="line2d_8">
      <path clip-path="url(#pf1a23e3e80)" d="M 288 208.279192 
L 178.109694 98.388885 
" style="fill:none;stroke:#ffffff;stroke-linecap:round;"/>
     </g>
     <g id="text_8">
      <!-- mode -->
      <g style="fill:#808080;" transform="translate(157.115663 89.46798)scale(0.08 -0.08)">
       <use xlink:href="#ArialMT-6d"/>
       <use x="83.300781" xlink:href="#ArialMT-6f"/>
       <use x="138.916016" xlink:href="#ArialMT-64"/>
       <use x="194.53125" xlink:href="#ArialMT-65"/>
      </g>
     </g>
    </g>
   </g>
   <g id="matplotlib.axis_2">
    <g id="ytick_1">
     <g id="line2d_9">
      <path clip-path="url(#pf1a23e3e80)" d="M 288 177.197519 
L 289.084735 177.216453 
L 290.168148 177.273233 
L 292.325733 177.500004 
L 294.462243 177.876728 
L 296.56727 178.401571 
L 298.630558 179.071973 
L 300.642055 179.884671 
L 302.591961 180.835704 
L 304.470777 181.920439 
L 306.269349 183.13359 
L 307.978914 184.469249 
L 309.591144 185.920908 
L 311.098184 187.481493 
L 312.492692 189.143403 
L 313.767874 190.898541 
L 314.917518 192.738355 
L 315.936022 194.653883 
L 316.818425 196.635792 
L 317.560427 198.674427 
L 318.158414 200.759854 
L 318.609472 202.881916 
L 318.911404 205.030272 
L 319.062738 207.194457 
L 319.062738 209.363926 
L 318.911404 211.528111 
L 318.609472 213.676467 
L 318.158414 215.798529 
L 317.560427 217.883957 
L 316.818425 219.922591 
L 315.936022 221.9045 
L 314.917518 223.820028 
L 313.767874 225.659842 
L 312.492692 227.41498 
L 311.098184 229.07689 
L 309.591144 230.637476 
L 307.978914 232.089134 
L 306.269349 233.424793 
L 304.470777 234.637945 
L 302.591961 235.722679 
L 300.642055 236.673712 
L 298.630558 237.48641 
L 296.56727 238.156813 
L 294.462243 238.681655 
L 292.325733 239.058379 
L 290.168148 239.28515 
L 288 239.360864 
L 285.831852 239.28515 
L 283.674267 239.058379 
L 281.537757 238.681655 
L 279.43273 238.156813 
L 277.369442 237.48641 
L 275.357945 236.673712 
L 273.408039 235.722679 
L 271.529223 234.637945 
L 269.730651 233.424793 
L 268.021086 232.089134 
L 266.408856 230.637476 
L 264.901816 229.07689 
L 263.507308 227.41498 
L 262.232126 225.659842 
L 261.082482 223.820028 
L 260.063978 221.9045 
L 259.181575 219.922591 
L 258.439573 217.883957 
L 257.841586 215.798529 
L 257.390528 213.676467 
L 257.088596 211.528111 
L 256.937262 209.363926 
L 256.937262 207.194457 
L 257.088596 205.030272 
L 257.390528 202.881916 
L 257.841586 200.759854 
L 258.439573 198.674427 
L 259.181575 196.635792 
L 260.063978 194.653883 
L 261.082482 192.738355 
L 262.232126 190.898541 
L 263.507308 189.143403 
L 264.901816 187.481493 
L 266.408856 185.920908 
L 268.021086 184.469249 
L 269.730651 183.13359 
L 271.529223 181.920439 
L 273.408039 180.835704 
L 275.357945 179.884671 
L 277.369442 179.071973 
L 279.43273 178.401571 
L 281.537757 177.876728 
L 283.674267 177.500004 
L 285.831852 177.273233 
L 288 177.197519 
L 288 177.197519 
" style="fill:none;stroke:#ffffff;stroke-linecap:round;"/>
     </g>
     <g id="text_9">
      <!-- 0.2 -->
      <defs>
       <path d="M 4.15625 35.296875 
Q 4.15625 48 6.765625 55.734375 
Q 9.375 63.484375 14.515625 67.671875 
Q 19.671875 71.875 27.484375 71.875 
Q 33.25 71.875 37.59375 69.546875 
Q 41.9375 67.234375 44.765625 62.859375 
Q 47.609375 58.5 49.21875 52.21875 
Q 50.828125 45.953125 50.828125 35.296875 
Q 50.828125 22.703125 48.234375 14.96875 
Q 45.65625 7.234375 40.5 3 
Q 35.359375 -1.21875 27.484375 -1.21875 
Q 17.140625 -1.21875 11.234375 6.203125 
Q 4.15625 15.140625 4.15625 35.296875 
M 13.1875 35.296875 
Q 13.1875 17.671875 17.3125 11.828125 
Q 21.4375 6 27.484375 6 
Q 33.546875 6 37.671875 11.859375 
Q 41.796875 17.71875 41.796875 35.296875 
Q 41.796875 52.984375 37.671875 58.78125 
Q 33.546875 64.59375 27.390625 64.59375 
Q 21.34375 64.59375 17.71875 59.46875 
Q 13.1875 52.9375 13.1875 35.296875 
" id="ArialMT-30"/>
       <path d="M 9.078125 0 
L 9.078125 10.015625 
L 19.09375 10.015625 
L 19.09375 0 
z
" id="ArialMT-2e"/>
       <path d="M 50.34375 8.453125 
L 50.34375 0 
L 3.03125 0 
Q 2.9375 3.171875 4.046875 6.109375 
Q 5.859375 10.9375 9.828125 15.625 
Q 13.8125 20.3125 21.34375 26.46875 
Q 33.015625 36.03125 37.109375 41.625 
Q 41.21875 47.21875 41.21875 52.203125 
Q 41.21875 57.421875 37.46875 61 
Q 33.734375 64.59375 27.734375 64.59375 
Q 21.390625 64.59375 17.578125 60.78125 
Q 13.765625 56.984375 13.71875 50.25 
L 4.6875 51.171875 
Q 5.609375 61.28125 11.65625 66.578125 
Q 17.71875 71.875 27.9375 71.875 
Q 38.234375 71.875 44.234375 66.15625 
Q 50.25 60.453125 50.25 52 
Q 50.25 47.703125 48.484375 43.546875 
Q 46.734375 39.40625 42.65625 34.8125 
Q 38.578125 30.21875 29.109375 22.21875 
Q 21.1875 15.578125 18.9375 13.203125 
Q 16.703125 10.84375 15.234375 8.453125 
z
" id="ArialMT-32"/>
      </defs>
      <g style="fill:#808080;" transform="translate(288 175.806269)scale(0.07 -0.07)">
       <use xlink:href="#ArialMT-30"/>
       <use x="55.615234" xlink:href="#ArialMT-2e"/>
       <use x="83.398438" xlink:href="#ArialMT-32"/>
      </g>
     </g>
    </g>
    <g id="ytick_2">
     <g id="line2d_10">
      <path clip-path="url(#pf1a23e3e80)" d="M 288 146.115847 
L 290.169469 146.153715 
L 292.336296 146.267274 
L 296.651465 146.720816 
L 300.924486 147.474265 
L 305.13454 148.52395 
L 309.261116 149.864755 
L 313.28411 151.49015 
L 317.183923 153.392216 
L 320.941554 155.561686 
L 324.538697 157.987989 
L 327.957828 160.659307 
L 331.182288 163.562624 
L 334.196368 166.683795 
L 336.985384 170.007615 
L 339.535748 173.51789 
L 341.835036 177.197519 
L 343.872044 181.028575 
L 345.636849 184.992393 
L 347.120854 189.069662 
L 348.316828 193.240517 
L 349.218944 197.48464 
L 349.822807 201.781353 
L 350.125476 206.109722 
L 350.125476 210.448661 
L 349.822807 214.77703 
L 349.218944 219.073743 
L 348.316828 223.317866 
L 347.120854 227.488721 
L 345.636849 231.56599 
L 343.872044 235.529808 
L 341.835036 239.360864 
L 339.535748 243.040493 
L 336.985384 246.550768 
L 334.196368 249.874588 
L 331.182288 252.995759 
L 327.957828 255.899076 
L 324.538697 258.570394 
L 320.941554 260.996698 
L 317.183923 263.166167 
L 313.28411 265.068233 
L 309.261116 266.693628 
L 305.13454 268.034434 
L 300.924486 269.084118 
L 296.651465 269.837567 
L 292.336296 270.291109 
L 288 270.442536 
L 283.663704 270.291109 
L 279.348535 269.837567 
L 275.075514 269.084118 
L 270.86546 268.034434 
L 266.738884 266.693628 
L 262.71589 265.068233 
L 258.816077 263.166167 
L 255.058446 260.996698 
L 251.461303 258.570394 
L 248.042172 255.899076 
L 244.817712 252.995759 
L 241.803632 249.874588 
L 239.014616 246.550768 
L 236.464252 243.040493 
L 234.164964 239.360864 
L 232.127956 235.529808 
L 230.363151 231.56599 
L 228.879146 227.488721 
L 227.683172 223.317866 
L 226.781056 219.073743 
L 226.177193 214.77703 
L 225.874524 210.448661 
L 225.874524 206.109722 
L 226.177193 201.781353 
L 226.781056 197.48464 
L 227.683172 193.240517 
L 228.879146 189.069662 
L 230.363151 184.992393 
L 232.127956 181.028575 
L 234.164964 177.197519 
L 236.464252 173.51789 
L 239.014616 170.007615 
L 241.803632 166.683795 
L 244.817712 163.562624 
L 248.042172 160.659307 
L 251.461303 157.987989 
L 255.058446 155.561686 
L 258.816077 153.392216 
L 262.71589 151.49015 
L 266.738884 149.864755 
L 270.86546 148.52395 
L 275.075514 147.474265 
L 279.348535 146.720816 
L 283.663704 146.267274 
L 288 146.115847 
L 288 146.115847 
" style="fill:none;stroke:#ffffff;stroke-linecap:round;"/>
     </g>
     <g id="text_10">
      <!-- 0.4 -->
      <defs>
       <path d="M 32.328125 0 
L 32.328125 17.140625 
L 1.265625 17.140625 
L 1.265625 25.203125 
L 33.9375 71.578125 
L 41.109375 71.578125 
L 41.109375 25.203125 
L 50.78125 25.203125 
L 50.78125 17.140625 
L 41.109375 17.140625 
L 41.109375 0 
z
M 32.328125 25.203125 
L 32.328125 57.46875 
L 9.90625 25.203125 
z
" id="ArialMT-34"/>
      </defs>
      <g style="fill:#808080;" transform="translate(288 144.724597)scale(0.07 -0.07)">
       <use xlink:href="#ArialMT-30"/>
       <use x="55.615234" xlink:href="#ArialMT-2e"/>
       <use x="83.398438" xlink:href="#ArialMT-34"/>
      </g>
     </g>
    </g>
    <g id="ytick_3">
     <g id="line2d_11">
      <path clip-path="url(#pf1a23e3e80)" d="M 288 115.034175 
L 291.254204 115.090977 
L 294.504444 115.261315 
L 297.746758 115.544981 
L 300.977198 115.941629 
L 304.191827 116.450776 
L 307.386729 117.071802 
L 310.558011 117.80395 
L 313.70181 118.646328 
L 316.814295 119.597911 
L 319.891674 120.657537 
L 322.930198 121.823917 
L 325.926165 123.09563 
L 328.875925 124.471126 
L 331.775884 125.948728 
L 334.622508 127.526638 
L 337.412331 129.202933 
L 340.141952 130.975569 
L 342.808046 132.842388 
L 345.407365 134.801116 
L 347.936742 136.849365 
L 350.393095 138.98464 
L 352.773431 141.20434 
L 355.074852 143.50576 
L 357.294552 145.886097 
L 359.429827 148.34245 
L 361.478076 150.871827 
L 363.436803 153.471146 
L 365.303622 156.13724 
L 367.076259 158.866861 
L 368.752553 161.656683 
L 370.330463 164.503308 
L 371.808066 167.403267 
L 373.183562 170.353026 
L 374.455274 173.348993 
L 375.621654 176.387518 
L 376.681281 179.464897 
L 377.632863 182.577382 
L 378.475241 185.72118 
L 379.20739 188.892462 
L 379.828416 192.087364 
L 380.337563 195.301993 
L 380.734211 198.532433 
L 381.017877 201.774748 
L 381.188215 205.024987 
L 381.245017 208.279192 
L 381.188215 211.533396 
L 381.017877 214.783635 
L 380.734211 218.02595 
L 380.337563 221.25639 
L 379.828416 224.471019 
L 379.20739 227.665921 
L 378.475241 230.837203 
L 377.632863 233.981001 
L 376.681281 237.093486 
L 375.621654 240.170866 
L 374.455274 243.20939 
L 373.183562 246.205357 
L 371.808066 249.155117 
L 370.330463 252.055075 
L 368.752553 254.9017 
L 367.076259 257.691522 
L 365.303622 260.421143 
L 363.436803 263.087237 
L 361.478076 265.686556 
L 359.429827 268.215933 
L 357.294552 270.672286 
L 355.074852 273.052623 
L 352.773431 275.354043 
L 350.393095 277.573743 
L 347.936742 279.709019 
L 345.407365 281.757268 
L 342.808046 283.715995 
L 340.141952 285.582814 
L 337.412331 287.355451 
L 334.622508 289.031745 
L 331.775884 290.609655 
L 328.875925 292.087258 
L 325.926165 293.462753 
L 322.930198 294.734466 
L 319.891674 295.900846 
L 316.814295 296.960473 
L 313.70181 297.912055 
L 310.558011 298.754433 
L 307.386729 299.486581 
L 304.191827 300.107607 
L 300.977198 300.616754 
L 297.746758 301.013403 
L 294.504444 301.297068 
L 291.254204 301.467406 
L 288 301.524208 
L 284.745796 301.467406 
L 281.495556 301.297068 
L 278.253242 301.013403 
L 275.022802 300.616754 
L 271.808173 300.107607 
L 268.613271 299.486581 
L 265.441989 298.754433 
L 262.29819 297.912055 
L 259.185705 296.960473 
L 256.108326 295.900846 
L 253.069802 294.734466 
L 250.073835 293.462753 
L 247.124075 292.087258 
L 244.224116 290.609655 
L 241.377492 289.031745 
L 238.587669 287.355451 
L 235.858048 285.582814 
L 233.191954 283.715995 
L 230.592635 281.757268 
L 228.063258 279.709019 
L 225.606905 277.573743 
L 223.226569 275.354043 
L 220.925148 273.052623 
L 218.705448 270.672286 
L 216.570173 268.215933 
L 214.521924 265.686556 
L 212.563197 263.087237 
L 210.696378 260.421143 
L 208.923741 257.691522 
L 207.247447 254.9017 
L 205.669537 252.055075 
L 204.191934 249.155117 
L 202.816438 246.205357 
L 201.544726 243.20939 
L 200.378346 240.170866 
L 199.318719 237.093486 
L 198.367137 233.981001 
L 197.524759 230.837203 
L 196.79261 227.665921 
L 196.171584 224.471019 
L 195.662437 221.25639 
L 195.265789 218.02595 
L 194.982123 214.783635 
L 194.811785 211.533396 
L 194.754983 208.279192 
L 194.811785 205.024987 
L 194.982123 201.774748 
L 195.265789 198.532433 
L 195.662437 195.301993 
L 196.171584 192.087364 
L 196.79261 188.892462 
L 197.524759 185.72118 
L 198.367137 182.577382 
L 199.318719 179.464897 
L 200.378346 176.387518 
L 201.544726 173.348993 
L 202.816438 170.353026 
L 204.191934 167.403267 
L 205.669537 164.503308 
L 207.247447 161.656683 
L 208.923741 158.866861 
L 210.696378 156.13724 
L 212.563197 153.471146 
L 214.521924 150.871827 
L 216.570173 148.34245 
L 218.705448 145.886097 
L 220.925148 143.50576 
L 223.226569 141.20434 
L 225.606905 138.98464 
L 228.063258 136.849365 
L 230.592635 134.801116 
L 233.191954 132.842388 
L 235.858048 130.975569 
L 238.587669 129.202933 
L 241.377492 127.526638 
L 244.224116 125.948728 
L 247.124075 124.471126 
L 250.073835 123.09563 
L 253.069802 121.823917 
L 256.108326 120.657537 
L 259.185705 119.597911 
L 262.29819 118.646328 
L 265.441989 117.80395 
L 268.613271 117.071802 
L 271.808173 116.450776 
L 275.022802 115.941629 
L 278.253242 115.544981 
L 281.495556 115.261315 
L 284.745796 115.090977 
L 288 115.034175 
L 288 115.034175 
" style="fill:none;stroke:#ffffff;stroke-linecap:round;"/>
     </g>
     <g id="text_11">
      <!-- 0.6 -->
      <defs>
       <path d="M 49.75 54.046875 
L 41.015625 53.375 
Q 39.84375 58.546875 37.703125 60.890625 
Q 34.125 64.65625 28.90625 64.65625 
Q 24.703125 64.65625 21.53125 62.3125 
Q 17.390625 59.28125 14.984375 53.46875 
Q 12.59375 47.65625 12.5 36.921875 
Q 15.671875 41.75 20.265625 44.09375 
Q 24.859375 46.4375 29.890625 46.4375 
Q 38.671875 46.4375 44.84375 39.96875 
Q 51.03125 33.5 51.03125 23.25 
Q 51.03125 16.5 48.125 10.71875 
Q 45.21875 4.9375 40.140625 1.859375 
Q 35.0625 -1.21875 28.609375 -1.21875 
Q 17.625 -1.21875 10.6875 6.859375 
Q 3.765625 14.9375 3.765625 33.5 
Q 3.765625 54.25 11.421875 63.671875 
Q 18.109375 71.875 29.4375 71.875 
Q 37.890625 71.875 43.28125 67.140625 
Q 48.6875 62.40625 49.75 54.046875 
M 13.875 23.1875 
Q 13.875 18.65625 15.796875 14.5 
Q 17.71875 10.359375 21.1875 8.171875 
Q 24.65625 6 28.46875 6 
Q 34.03125 6 38.03125 10.484375 
Q 42.046875 14.984375 42.046875 22.703125 
Q 42.046875 30.125 38.078125 34.390625 
Q 34.125 38.671875 28.125 38.671875 
Q 22.171875 38.671875 18.015625 34.390625 
Q 13.875 30.125 13.875 23.1875 
" id="ArialMT-36"/>
      </defs>
      <g style="fill:#808080;" transform="translate(288 113.642925)scale(0.07 -0.07)">
       <use xlink:href="#ArialMT-30"/>
       <use x="55.615234" xlink:href="#ArialMT-2e"/>
       <use x="83.398438" xlink:href="#ArialMT-36"/>
      </g>
     </g>
    </g>
    <g id="ytick_4">
     <g id="line2d_12">
      <path clip-path="url(#pf1a23e3e80)" d="M 288 83.952502 
L 292.338939 84.028239 
L 296.672591 84.255356 
L 300.995678 84.633577 
L 305.302931 85.162441 
L 309.589103 85.841304 
L 313.848972 86.669339 
L 318.077348 87.645536 
L 322.26908 88.768707 
L 326.41906 90.037484 
L 330.522232 91.450319 
L 334.573598 93.005493 
L 338.56822 94.701109 
L 342.501233 96.535104 
L 346.367845 98.505241 
L 350.163345 100.60912 
L 353.883108 102.844179 
L 357.522602 105.207695 
L 361.077394 107.696787 
L 364.543153 110.308424 
L 367.915655 113.039422 
L 371.190793 115.886456 
L 374.364575 118.846056 
L 377.433136 121.914616 
L 380.392736 125.088399 
L 383.239769 128.363536 
L 385.970768 131.736039 
L 388.582404 135.201797 
L 391.071497 138.756589 
L 393.435012 142.396084 
L 395.670071 146.115847 
L 397.773951 149.911347 
L 399.744088 153.777958 
L 401.578082 157.710971 
L 403.273699 161.705594 
L 404.828872 165.75696 
L 406.241708 169.860132 
L 407.510484 174.010112 
L 408.633655 178.201843 
L 409.609853 182.430219 
L 410.437887 186.690089 
L 411.11675 190.976261 
L 411.645615 195.283514 
L 412.023836 199.6066 
L 412.250953 203.940253 
L 412.326689 208.279192 
L 412.250953 212.61813 
L 412.023836 216.951783 
L 411.645615 221.274869 
L 411.11675 225.582122 
L 410.437887 229.868295 
L 409.609853 234.128164 
L 408.633655 238.35654 
L 407.510484 242.548271 
L 406.241708 246.698251 
L 404.828872 250.801424 
L 403.273699 254.852789 
L 401.578082 258.847412 
L 399.744088 262.780425 
L 397.773951 266.647037 
L 395.670071 270.442536 
L 393.435012 274.162299 
L 391.071497 277.801794 
L 388.582404 281.356586 
L 385.970768 284.822344 
L 383.239769 288.194847 
L 380.392736 291.469985 
L 377.433136 294.643767 
L 374.364575 297.712327 
L 371.190793 300.671927 
L 367.915655 303.518961 
L 364.543153 306.24996 
L 361.077394 308.861596 
L 357.522602 311.350688 
L 353.883108 313.714204 
L 350.163345 315.949263 
L 346.367845 318.053143 
L 342.501233 320.02328 
L 338.56822 321.857274 
L 334.573598 323.55289 
L 330.522232 325.108064 
L 326.41906 326.520899 
L 322.26908 327.789676 
L 318.077348 328.912847 
L 313.848972 329.889044 
L 309.589103 330.717079 
L 305.302931 331.395942 
L 300.995678 331.924806 
L 296.672591 332.303027 
L 292.338939 332.530144 
L 288 332.605881 
L 283.661061 332.530144 
L 279.327409 332.303027 
L 275.004322 331.924806 
L 270.697069 331.395942 
L 266.410897 330.717079 
L 262.151028 329.889044 
L 257.922652 328.912847 
L 253.73092 327.789676 
L 249.58094 326.520899 
L 245.477768 325.108064 
L 241.426402 323.55289 
L 237.43178 321.857274 
L 233.498767 320.02328 
L 229.632155 318.053143 
L 225.836655 315.949263 
L 222.116892 313.714204 
L 218.477398 311.350688 
L 214.922606 308.861596 
L 211.456847 306.24996 
L 208.084345 303.518961 
L 204.809207 300.671927 
L 201.635425 297.712327 
L 198.566864 294.643767 
L 195.607264 291.469985 
L 192.760231 288.194847 
L 190.029232 284.822344 
L 187.417596 281.356586 
L 184.928503 277.801794 
L 182.564988 274.162299 
L 180.329929 270.442536 
L 178.226049 266.647037 
L 176.255912 262.780425 
L 174.421918 258.847412 
L 172.726301 254.852789 
L 171.171128 250.801424 
L 169.758292 246.698251 
L 168.489516 242.548271 
L 167.366345 238.35654 
L 166.390147 234.128164 
L 165.562113 229.868295 
L 164.88325 225.582122 
L 164.354385 221.274869 
L 163.976164 216.951783 
L 163.749047 212.61813 
L 163.673311 208.279192 
L 163.749047 203.940253 
L 163.976164 199.6066 
L 164.354385 195.283514 
L 164.88325 190.976261 
L 165.562113 186.690089 
L 166.390147 182.430219 
L 167.366345 178.201843 
L 168.489516 174.010112 
L 169.758292 169.860132 
L 171.171128 165.75696 
L 172.726301 161.705594 
L 174.421918 157.710971 
L 176.255912 153.777958 
L 178.226049 149.911347 
L 180.329929 146.115847 
L 182.564988 142.396084 
L 184.928503 138.756589 
L 187.417596 135.201797 
L 190.029232 131.736039 
L 192.760231 128.363536 
L 195.607264 125.088399 
L 198.566864 121.914616 
L 201.635425 118.846056 
L 204.809207 115.886456 
L 208.084345 113.039422 
L 211.456847 110.308424 
L 214.922606 107.696787 
L 218.477398 105.207695 
L 222.116892 102.844179 
L 225.836655 100.60912 
L 229.632155 98.505241 
L 233.498767 96.535104 
L 237.43178 94.701109 
L 241.426402 93.005493 
L 245.477768 91.450319 
L 249.58094 90.037484 
L 253.73092 88.768707 
L 257.922652 87.645536 
L 262.151028 86.669339 
L 266.410897 85.841304 
L 270.697069 85.162441 
L 275.004322 84.633577 
L 279.327409 84.255356 
L 283.661061 84.028239 
L 288 83.952502 
L 288 83.952502 
" style="fill:none;stroke:#ffffff;stroke-linecap:round;"/>
     </g>
     <g id="text_12">
      <!-- 0.8 -->
      <defs>
       <path d="M 17.671875 38.8125 
Q 12.203125 40.828125 9.5625 44.53125 
Q 6.9375 48.25 6.9375 53.421875 
Q 6.9375 61.234375 12.546875 66.546875 
Q 18.171875 71.875 27.484375 71.875 
Q 36.859375 71.875 42.578125 66.421875 
Q 48.296875 60.984375 48.296875 53.171875 
Q 48.296875 48.1875 45.671875 44.5 
Q 43.0625 40.828125 37.75 38.8125 
Q 44.34375 36.671875 47.78125 31.875 
Q 51.21875 27.09375 51.21875 20.453125 
Q 51.21875 11.28125 44.71875 5.03125 
Q 38.234375 -1.21875 27.640625 -1.21875 
Q 17.046875 -1.21875 10.546875 5.046875 
Q 4.046875 11.328125 4.046875 20.703125 
Q 4.046875 27.6875 7.59375 32.390625 
Q 11.140625 37.109375 17.671875 38.8125 
M 15.921875 53.71875 
Q 15.921875 48.640625 19.1875 45.40625 
Q 22.46875 42.1875 27.6875 42.1875 
Q 32.765625 42.1875 36.015625 45.375 
Q 39.265625 48.578125 39.265625 53.21875 
Q 39.265625 58.0625 35.90625 61.359375 
Q 32.5625 64.65625 27.59375 64.65625 
Q 22.5625 64.65625 19.234375 61.421875 
Q 15.921875 58.203125 15.921875 53.71875 
M 13.09375 20.65625 
Q 13.09375 16.890625 14.875 13.375 
Q 16.65625 9.859375 20.171875 7.921875 
Q 23.6875 6 27.734375 6 
Q 34.03125 6 38.125 10.046875 
Q 42.234375 14.109375 42.234375 20.359375 
Q 42.234375 26.703125 38.015625 30.859375 
Q 33.796875 35.015625 27.4375 35.015625 
Q 21.234375 35.015625 17.15625 30.90625 
Q 13.09375 26.8125 13.09375 20.65625 
" id="ArialMT-38"/>
      </defs>
      <g style="fill:#808080;" transform="translate(288 82.561252)scale(0.07 -0.07)">
       <use xlink:href="#ArialMT-30"/>
       <use x="55.615234" xlink:href="#ArialMT-2e"/>
       <use x="83.398438" xlink:href="#ArialMT-38"/>
      </g>
     </g>
    </g>
   </g>
   <g id="patch_3">
    <path clip-path="url(#pf1a23e3e80)" d="M 288 147.442368 
L 356.673592 139.605599 
L 330.448684 208.279192 
L 297.344601 217.623792 
L 288 289.435658 
L 271.744084 224.535108 
L 258.877583 208.279192 
L 221.963775 142.242967 
z
" style="fill:#808080;opacity:0.5;stroke:#808080;stroke-linejoin:miter;stroke-width:0.3;"/>
   </g>
   <g id="patch_4">
    <path clip-path="url(#pf1a23e3e80)" d="M 288 136.169712 
L 370.197949 126.081242 
L 305.09492 208.279192 
L 294.483528 214.76272 
L 288 277.280504 
L 278.329653 217.949539 
L 252.100668 208.279192 
L 211.076786 131.355977 
z
" style="fill:#d0bbff;opacity:0.5;stroke:#d0bbff;stroke-linejoin:miter;stroke-width:0.3;"/>
   </g>
   <g id="line2d_13">
    <path clip-path="url(#pf1a23e3e80)" d="M 288 147.442368 
L 356.673592 139.605599 
L 330.448684 208.279192 
L 297.344601 217.623792 
L 288 289.435658 
L 271.744084 224.535108 
L 258.877583 208.279192 
L 221.963775 142.242967 
L 288 147.442368 
" style="fill:none;stroke:#808080;stroke-linecap:round;"/>
   </g>
   <g id="line2d_14">
    <path clip-path="url(#pf1a23e3e80)" d="M 288 136.169712 
L 370.197949 126.081242 
L 305.09492 208.279192 
L 294.483528 214.76272 
L 288 277.280504 
L 278.329653 217.949539 
L 252.100668 208.279192 
L 211.076786 131.355977 
L 288 136.169712 
" style="fill:none;stroke:#d0bbff;stroke-linecap:round;"/>
   </g>
   <g id="patch_5">
    <path d="M 288 363.687553 
C 329.214779 363.687553 368.747056 347.312748 397.890306 318.169498 
C 427.033556 289.026248 443.408362 249.493971 443.408362 208.279192 
C 443.408362 167.064412 427.033556 127.532135 397.890306 98.388885 
C 368.747056 69.245635 329.214779 52.87083 288 52.87083 
C 246.785221 52.87083 207.252944 69.245635 178.109694 98.388885 
C 148.966444 127.532135 132.591638 167.064412 132.591638 208.279192 
C 132.591638 249.493971 148.966444 289.026248 178.109694 318.169498 
C 207.252944 347.312748 246.785221 363.687553 288 363.687553 
z
" style="fill:none;"/>
   </g>
   <g id="text_13">
    <!-- Classic rock  -->
    <defs>
     <path d="M 53.078125 26.3125 
L 67.09375 21.875 
Q 63.875 10.15625 56.375 4.46875 
Q 48.875 -1.21875 37.359375 -1.21875 
Q 23.09375 -1.21875 13.90625 8.515625 
Q 4.734375 18.265625 4.734375 35.15625 
Q 4.734375 53.03125 13.953125 62.90625 
Q 23.1875 72.796875 38.234375 72.796875 
Q 51.375 72.796875 59.578125 65.046875 
Q 64.453125 60.453125 66.890625 51.859375 
L 52.59375 48.4375 
Q 51.3125 54 47.28125 57.21875 
Q 43.265625 60.453125 37.5 60.453125 
Q 29.546875 60.453125 24.578125 54.734375 
Q 19.625 49.03125 19.625 36.234375 
Q 19.625 22.65625 24.5 16.890625 
Q 29.390625 11.140625 37.203125 11.140625 
Q 42.96875 11.140625 47.109375 14.796875 
Q 51.265625 18.453125 53.078125 26.3125 
" id="Arial-BoldMT-43"/>
     <path d="M 7.171875 0 
L 7.171875 71.578125 
L 20.90625 71.578125 
L 20.90625 0 
z
" id="Arial-BoldMT-6c"/>
     <path d="M 17.4375 36.03125 
L 4.984375 38.28125 
Q 7.078125 45.796875 12.203125 49.40625 
Q 17.328125 53.03125 27.4375 53.03125 
Q 36.625 53.03125 41.109375 50.859375 
Q 45.609375 48.6875 47.4375 45.34375 
Q 49.265625 42 49.265625 33.0625 
L 49.125 17.046875 
Q 49.125 10.203125 49.78125 6.953125 
Q 50.4375 3.71875 52.25 0 
L 38.671875 0 
Q 38.140625 1.375 37.359375 4.046875 
Q 37.015625 5.28125 36.859375 5.671875 
Q 33.34375 2.25 29.34375 0.53125 
Q 25.34375 -1.171875 20.796875 -1.171875 
Q 12.796875 -1.171875 8.171875 3.171875 
Q 3.5625 7.515625 3.5625 14.15625 
Q 3.5625 18.5625 5.65625 22 
Q 7.765625 25.4375 11.546875 27.265625 
Q 15.328125 29.109375 22.46875 30.46875 
Q 32.078125 32.28125 35.796875 33.84375 
L 35.796875 35.203125 
Q 35.796875 39.15625 33.84375 40.84375 
Q 31.890625 42.53125 26.46875 42.53125 
Q 22.796875 42.53125 20.75 41.09375 
Q 18.703125 39.65625 17.4375 36.03125 
M 35.796875 24.90625 
Q 33.15625 24.03125 27.4375 22.796875 
Q 21.734375 21.578125 19.96875 20.40625 
Q 17.28125 18.5 17.28125 15.578125 
Q 17.28125 12.703125 19.421875 10.59375 
Q 21.578125 8.5 24.90625 8.5 
Q 28.609375 8.5 31.984375 10.9375 
Q 34.46875 12.796875 35.25 15.484375 
Q 35.796875 17.234375 35.796875 22.171875 
z
" id="Arial-BoldMT-61"/>
     <path d="M 2.34375 14.796875 
L 16.109375 16.890625 
Q 17 12.890625 19.671875 10.8125 
Q 22.359375 8.734375 27.203125 8.734375 
Q 32.515625 8.734375 35.203125 10.6875 
Q 37.015625 12.0625 37.015625 14.359375 
Q 37.015625 15.921875 36.03125 16.9375 
Q 35.015625 17.921875 31.453125 18.75 
Q 14.84375 22.40625 10.40625 25.4375 
Q 4.25 29.640625 4.25 37.109375 
Q 4.25 43.84375 9.5625 48.4375 
Q 14.890625 53.03125 26.078125 53.03125 
Q 36.71875 53.03125 41.890625 49.5625 
Q 47.078125 46.09375 49.03125 39.3125 
L 36.078125 36.921875 
Q 35.25 39.9375 32.921875 41.546875 
Q 30.609375 43.171875 26.3125 43.171875 
Q 20.90625 43.171875 18.5625 41.65625 
Q 17 40.578125 17 38.875 
Q 17 37.40625 18.359375 36.375 
Q 20.21875 35.015625 31.171875 32.515625 
Q 42.140625 30.03125 46.484375 26.421875 
Q 50.78125 22.75 50.78125 16.21875 
Q 50.78125 9.078125 44.828125 3.953125 
Q 38.875 -1.171875 27.203125 -1.171875 
Q 16.609375 -1.171875 10.421875 3.125 
Q 4.25 7.421875 2.34375 14.796875 
" id="Arial-BoldMT-73"/>
     <path d="M 7.171875 58.890625 
L 7.171875 71.578125 
L 20.90625 71.578125 
L 20.90625 58.890625 
z
M 7.171875 0 
L 7.171875 51.859375 
L 20.90625 51.859375 
L 20.90625 0 
z
" id="Arial-BoldMT-69"/>
     <path d="M 52.390625 36.53125 
L 38.875 34.078125 
Q 38.1875 38.140625 35.765625 40.1875 
Q 33.34375 42.234375 29.5 42.234375 
Q 24.359375 42.234375 21.3125 38.6875 
Q 18.265625 35.15625 18.265625 26.859375 
Q 18.265625 17.625 21.359375 13.8125 
Q 24.46875 10.015625 29.6875 10.015625 
Q 33.59375 10.015625 36.078125 12.234375 
Q 38.578125 14.453125 39.59375 19.875 
L 53.078125 17.578125 
Q 50.984375 8.296875 45.015625 3.5625 
Q 39.0625 -1.171875 29.046875 -1.171875 
Q 17.671875 -1.171875 10.90625 6 
Q 4.15625 13.1875 4.15625 25.875 
Q 4.15625 38.71875 10.9375 45.875 
Q 17.71875 53.03125 29.296875 53.03125 
Q 38.765625 53.03125 44.359375 48.953125 
Q 49.953125 44.875 52.390625 36.53125 
" id="Arial-BoldMT-63"/>
     <path id="Arial-BoldMT-20"/>
     <path d="M 20.3125 0 
L 6.59375 0 
L 6.59375 51.859375 
L 19.34375 51.859375 
L 19.34375 44.484375 
Q 22.609375 49.703125 25.21875 51.359375 
Q 27.828125 53.03125 31.15625 53.03125 
Q 35.84375 53.03125 40.1875 50.4375 
L 35.9375 38.484375 
Q 32.46875 40.71875 29.5 40.71875 
Q 26.609375 40.71875 24.609375 39.125 
Q 22.609375 37.546875 21.453125 33.390625 
Q 20.3125 29.25 20.3125 16.015625 
z
" id="Arial-BoldMT-72"/>
     <path d="M 4 26.65625 
Q 4 33.5 7.375 39.890625 
Q 10.75 46.296875 16.921875 49.65625 
Q 23.09375 53.03125 30.71875 53.03125 
Q 42.484375 53.03125 50 45.390625 
Q 57.515625 37.75 57.515625 26.078125 
Q 57.515625 14.3125 49.921875 6.5625 
Q 42.328125 -1.171875 30.8125 -1.171875 
Q 23.6875 -1.171875 17.21875 2.046875 
Q 10.75 5.28125 7.375 11.5 
Q 4 17.71875 4 26.65625 
M 18.0625 25.921875 
Q 18.0625 18.21875 21.71875 14.109375 
Q 25.390625 10.015625 30.765625 10.015625 
Q 36.140625 10.015625 39.765625 14.109375 
Q 43.40625 18.21875 43.40625 26.03125 
Q 43.40625 33.640625 39.765625 37.734375 
Q 36.140625 41.84375 30.765625 41.84375 
Q 25.390625 41.84375 21.71875 37.734375 
Q 18.0625 33.640625 18.0625 25.921875 
" id="Arial-BoldMT-6f"/>
     <path d="M 6.6875 0 
L 6.6875 71.578125 
L 20.40625 71.578125 
L 20.40625 33.59375 
L 36.46875 51.859375 
L 53.375 51.859375 
L 35.640625 32.90625 
L 54.640625 0 
L 39.84375 0 
L 26.8125 23.296875 
L 20.40625 16.609375 
L 20.40625 0 
z
" id="Arial-BoldMT-6b"/>
    </defs>
    <g style="fill:#d0bbff;" transform="translate(244.81 22.005492)scale(0.14 -0.14)">
     <use xlink:href="#Arial-BoldMT-43"/>
     <use x="72.216797" xlink:href="#Arial-BoldMT-6c"/>
     <use x="100" xlink:href="#Arial-BoldMT-61"/>
     <use x="155.615234" xlink:href="#Arial-BoldMT-73"/>
     <use x="211.230469" xlink:href="#Arial-BoldMT-73"/>
     <use x="266.845703" xlink:href="#Arial-BoldMT-69"/>
     <use x="294.628906" xlink:href="#Arial-BoldMT-63"/>
     <use x="350.244141" xlink:href="#Arial-BoldMT-20"/>
     <use x="378.027344" xlink:href="#Arial-BoldMT-72"/>
     <use x="416.943359" xlink:href="#Arial-BoldMT-6f"/>
     <use x="478.027344" xlink:href="#Arial-BoldMT-63"/>
     <use x="533.642578" xlink:href="#Arial-BoldMT-6b"/>
     <use x="589.257812" xlink:href="#Arial-BoldMT-20"/>
    </g>
   </g>
  </g>
 </g>
 <defs>
  <clipPath id="pf1a23e3e80">
   <path d="M 288 363.687553 
C 329.214779 363.687553 368.747056 347.312748 397.890306 318.169498 
C 427.033556 289.026248 443.408362 249.493971 443.408362 208.279192 
C 443.408362 167.064412 427.033556 127.532135 397.890306 98.388885 
C 368.747056 69.245635 329.214779 52.87083 288 52.87083 
C 246.785221 52.87083 207.252944 69.245635 178.109694 98.388885 
C 148.966444 127.532135 132.591638 167.064412 132.591638 208.279192 
C 132.591638 249.493971 148.966444 289.026248 178.109694 318.169498 
C 207.252944 347.312748 246.785221 363.687553 288 363.687553 
z
"/>
  </clipPath>
 </defs>
</svg>
