<?xml version="1.0" encoding="utf-8" standalone="no"?>
<!DOCTYPE svg PUBLIC "-//W3C//DTD SVG 1.1//EN"
  "http://www.w3.org/Graphics/SVG/1.1/DTD/svg11.dtd">
<!-- Created with matplotlib (http://matplotlib.org/) -->
<svg height="345pt" version="1.1" viewBox="0 0 460 345" width="460pt" xmlns="http://www.w3.org/2000/svg" xmlns:xlink="http://www.w3.org/1999/xlink">
 <defs>
  <style type="text/css">
*{stroke-linecap:butt;stroke-linejoin:round;}
  </style>
 </defs>
 <g id="figure_1">
  <g id="patch_1">
   <path d="M 0 345.6 
L 460.8 345.6 
L 460.8 0 
L 0 0 
z
" style="fill:#ffffff;"/>
  </g>
  <g id="axes_1">
   <g id="patch_2">
    <path d="M 363.84352 182.52888 
C 363.84352 165.005237 360.391745 147.65199 353.685737 131.462255 
C 346.97973 115.27252 337.149905 100.561148 324.758818 88.170061 
C 312.367732 75.778975 297.656359 65.94915 281.466624 59.243142 
C 265.27689 52.537134 247.923643 49.085359 230.4 49.085359 
C 212.876357 49.085359 195.52311 52.537134 179.333376 59.243142 
C 163.143641 65.94915 148.432268 75.778975 136.041182 88.170061 
C 123.650095 100.561148 113.82027 115.27252 107.114263 131.462255 
C 100.408255 147.65199 96.95648 165.005237 96.95648 182.528879 
C 96.95648 200.052522 100.408255 217.405769 107.114263 233.595504 
C 113.82027 249.785239 123.650095 264.496611 136.041182 276.887698 
C 148.432268 289.278784 163.143641 299.108609 179.333376 305.814617 
C 195.52311 312.520625 212.876357 315.9724 230.4 315.9724 
C 247.923643 315.9724 265.27689 312.520625 281.466624 305.814617 
C 297.656359 299.108609 312.367732 289.278784 324.758818 276.887698 
C 337.149905 264.496611 346.97973 249.785239 353.685737 233.595504 
C 360.391745 217.405769 363.84352 200.052522 363.84352 182.52888 
M 230.4 182.52888 
C 230.4 182.52888 230.4 182.52888 230.4 182.52888 
C 230.4 182.52888 230.4 182.52888 230.4 182.52888 
C 230.4 182.52888 230.4 182.52888 230.4 182.52888 
C 230.4 182.52888 230.4 182.52888 230.4 182.52888 
C 230.4 182.52888 230.4 182.52888 230.4 182.52888 
C 230.4 182.52888 230.4 182.52888 230.4 182.52888 
C 230.4 182.52888 230.4 182.52888 230.4 182.52888 
C 230.4 182.52888 230.4 182.52888 230.4 182.52888 
C 230.4 182.52888 230.4 182.52888 230.4 182.52888 
C 230.4 182.52888 230.4 182.52888 230.4 182.52888 
C 230.4 182.52888 230.4 182.52888 230.4 182.52888 
C 230.4 182.52888 230.4 182.52888 230.4 182.52888 
C 230.4 182.52888 230.4 182.52888 230.4 182.52888 
C 230.4 182.52888 230.4 182.52888 230.4 182.52888 
C 230.4 182.52888 230.4 182.52888 230.4 182.52888 
C 230.4 182.52888 230.4 182.52888 230.4 182.52888 
M 363.84352 182.52888 
z
" style="fill:#eaeaf2;"/>
   </g>
   <g id="matplotlib.axis_1">
    <g id="xtick_1">
     <g id="line2d_1">
      <path clip-path="url(#pf86b948188)" d="M 230.4 182.528879 
L 230.4 49.085359 
" style="fill:none;stroke:#ffffff;stroke-linecap:round;"/>
     </g>
     <g id="text_1">
      <!-- valence -->
      <defs>
       <path d="M 21 0 
L 1.265625 51.859375 
L 10.546875 51.859375 
L 21.6875 20.796875 
Q 23.484375 15.765625 25 10.359375 
Q 26.171875 14.453125 28.265625 20.21875 
L 39.796875 51.859375 
L 48.828125 51.859375 
L 29.203125 0 
z
" id="ArialMT-76"/>
       <path d="M 40.4375 6.390625 
Q 35.546875 2.25 31.03125 0.53125 
Q 26.515625 -1.171875 21.34375 -1.171875 
Q 12.796875 -1.171875 8.203125 3 
Q 3.609375 7.171875 3.609375 13.671875 
Q 3.609375 17.484375 5.34375 20.625 
Q 7.078125 23.78125 9.890625 25.6875 
Q 12.703125 27.59375 16.21875 28.5625 
Q 18.796875 29.25 24.03125 29.890625 
Q 34.671875 31.15625 39.703125 32.90625 
Q 39.75 34.71875 39.75 35.203125 
Q 39.75 40.578125 37.25 42.78125 
Q 33.890625 45.75 27.25 45.75 
Q 21.046875 45.75 18.09375 43.578125 
Q 15.140625 41.40625 13.71875 35.890625 
L 5.125 37.0625 
Q 6.296875 42.578125 8.984375 45.96875 
Q 11.671875 49.359375 16.75 51.1875 
Q 21.828125 53.03125 28.515625 53.03125 
Q 35.15625 53.03125 39.296875 51.46875 
Q 43.453125 49.90625 45.40625 47.53125 
Q 47.359375 45.171875 48.140625 41.546875 
Q 48.578125 39.3125 48.578125 33.453125 
L 48.578125 21.734375 
Q 48.578125 9.46875 49.140625 6.21875 
Q 49.703125 2.984375 51.375 0 
L 42.1875 0 
Q 40.828125 2.734375 40.4375 6.390625 
z
M 39.703125 26.03125 
Q 34.90625 24.078125 25.34375 22.703125 
Q 19.921875 21.921875 17.671875 20.9375 
Q 15.4375 19.96875 14.203125 18.09375 
Q 12.984375 16.21875 12.984375 13.921875 
Q 12.984375 10.40625 15.640625 8.0625 
Q 18.3125 5.71875 23.4375 5.71875 
Q 28.515625 5.71875 32.46875 7.9375 
Q 36.421875 10.15625 38.28125 14.015625 
Q 39.703125 17 39.703125 22.796875 
z
" id="ArialMT-61"/>
       <path d="M 6.390625 0 
L 6.390625 71.578125 
L 15.1875 71.578125 
L 15.1875 0 
z
" id="ArialMT-6c"/>
       <path d="M 42.09375 16.703125 
L 51.171875 15.578125 
Q 49.03125 7.625 43.21875 3.21875 
Q 37.40625 -1.171875 28.375 -1.171875 
Q 17 -1.171875 10.328125 5.828125 
Q 3.65625 12.84375 3.65625 25.484375 
Q 3.65625 38.578125 10.390625 45.796875 
Q 17.140625 53.03125 27.875 53.03125 
Q 38.28125 53.03125 44.875 45.953125 
Q 51.46875 38.875 51.46875 26.03125 
Q 51.46875 25.25 51.421875 23.6875 
L 12.75 23.6875 
Q 13.234375 15.140625 17.578125 10.59375 
Q 21.921875 6.0625 28.421875 6.0625 
Q 33.25 6.0625 36.671875 8.59375 
Q 40.09375 11.140625 42.09375 16.703125 
z
M 13.234375 30.90625 
L 42.1875 30.90625 
Q 41.609375 37.453125 38.875 40.71875 
Q 34.671875 45.796875 27.984375 45.796875 
Q 21.921875 45.796875 17.796875 41.75 
Q 13.671875 37.703125 13.234375 30.90625 
z
" id="ArialMT-65"/>
       <path d="M 6.59375 0 
L 6.59375 51.859375 
L 14.5 51.859375 
L 14.5 44.484375 
Q 20.21875 53.03125 31 53.03125 
Q 35.6875 53.03125 39.625 51.34375 
Q 43.5625 49.65625 45.515625 46.921875 
Q 47.46875 44.1875 48.25 40.4375 
Q 48.734375 37.984375 48.734375 31.890625 
L 48.734375 0 
L 39.9375 0 
L 39.9375 31.546875 
Q 39.9375 36.921875 38.90625 39.578125 
Q 37.890625 42.234375 35.28125 43.8125 
Q 32.671875 45.40625 29.15625 45.40625 
Q 23.53125 45.40625 19.453125 41.84375 
Q 15.375 38.28125 15.375 28.328125 
L 15.375 0 
z
" id="ArialMT-6e"/>
       <path d="M 40.4375 19 
L 49.078125 17.875 
Q 47.65625 8.9375 41.8125 3.875 
Q 35.984375 -1.171875 27.484375 -1.171875 
Q 16.84375 -1.171875 10.375 5.78125 
Q 3.90625 12.75 3.90625 25.734375 
Q 3.90625 34.125 6.6875 40.421875 
Q 9.46875 46.734375 15.15625 49.875 
Q 20.84375 53.03125 27.546875 53.03125 
Q 35.984375 53.03125 41.359375 48.75 
Q 46.734375 44.484375 48.25 36.625 
L 39.703125 35.296875 
Q 38.484375 40.53125 35.375 43.15625 
Q 32.28125 45.796875 27.875 45.796875 
Q 21.234375 45.796875 17.078125 41.03125 
Q 12.9375 36.28125 12.9375 25.984375 
Q 12.9375 15.53125 16.9375 10.796875 
Q 20.953125 6.0625 27.390625 6.0625 
Q 32.5625 6.0625 36.03125 9.234375 
Q 39.5 12.40625 40.4375 19 
z
" id="ArialMT-63"/>
      </defs>
      <g style="fill:#808080;" transform="translate(216.61375 37.153484)scale(0.08 -0.08)">
       <use xlink:href="#ArialMT-76"/>
       <use x="50" xlink:href="#ArialMT-61"/>
       <use x="105.615234" xlink:href="#ArialMT-6c"/>
       <use x="127.832031" xlink:href="#ArialMT-65"/>
       <use x="183.447266" xlink:href="#ArialMT-6e"/>
       <use x="239.0625" xlink:href="#ArialMT-63"/>
       <use x="289.0625" xlink:href="#ArialMT-65"/>
      </g>
     </g>
    </g>
    <g id="xtick_2">
     <g id="line2d_2">
      <path clip-path="url(#pf86b948188)" d="M 230.4 182.528879 
L 324.758818 88.170061 
" style="fill:none;stroke:#ffffff;stroke-linecap:round;"/>
     </g>
     <g id="text_2">
      <!-- energy -->
      <defs>
       <path d="M 6.5 0 
L 6.5 51.859375 
L 14.40625 51.859375 
L 14.40625 44 
Q 17.4375 49.515625 20 51.265625 
Q 22.5625 53.03125 25.640625 53.03125 
Q 30.078125 53.03125 34.671875 50.203125 
L 31.640625 42.046875 
Q 28.421875 43.953125 25.203125 43.953125 
Q 22.3125 43.953125 20.015625 42.21875 
Q 17.71875 40.484375 16.75 37.40625 
Q 15.28125 32.71875 15.28125 27.15625 
L 15.28125 0 
z
" id="ArialMT-72"/>
       <path d="M 4.984375 -4.296875 
L 13.53125 -5.5625 
Q 14.0625 -9.515625 16.5 -11.328125 
Q 19.78125 -13.765625 25.4375 -13.765625 
Q 31.546875 -13.765625 34.859375 -11.328125 
Q 38.1875 -8.890625 39.359375 -4.5 
Q 40.046875 -1.8125 39.984375 6.78125 
Q 34.234375 0 25.640625 0 
Q 14.9375 0 9.078125 7.71875 
Q 3.21875 15.4375 3.21875 26.21875 
Q 3.21875 33.640625 5.90625 39.90625 
Q 8.59375 46.1875 13.6875 49.609375 
Q 18.796875 53.03125 25.6875 53.03125 
Q 34.859375 53.03125 40.828125 45.609375 
L 40.828125 51.859375 
L 48.921875 51.859375 
L 48.921875 7.03125 
Q 48.921875 -5.078125 46.453125 -10.125 
Q 44 -15.1875 38.640625 -18.109375 
Q 33.296875 -21.046875 25.484375 -21.046875 
Q 16.21875 -21.046875 10.5 -16.875 
Q 4.78125 -12.703125 4.984375 -4.296875 
z
M 12.25 26.859375 
Q 12.25 16.65625 16.296875 11.96875 
Q 20.359375 7.28125 26.46875 7.28125 
Q 32.515625 7.28125 36.609375 11.9375 
Q 40.71875 16.609375 40.71875 26.5625 
Q 40.71875 36.078125 36.5 40.90625 
Q 32.28125 45.75 26.3125 45.75 
Q 20.453125 45.75 16.34375 40.984375 
Q 12.25 36.234375 12.25 26.859375 
z
" id="ArialMT-67"/>
       <path d="M 6.203125 -19.96875 
L 5.21875 -11.71875 
Q 8.109375 -12.5 10.25 -12.5 
Q 13.1875 -12.5 14.9375 -11.515625 
Q 16.703125 -10.546875 17.828125 -8.796875 
Q 18.65625 -7.46875 20.515625 -2.25 
Q 20.75 -1.515625 21.296875 -0.09375 
L 1.609375 51.859375 
L 11.078125 51.859375 
L 21.875 21.828125 
Q 23.96875 16.109375 25.640625 9.8125 
Q 27.15625 15.875 29.25 21.625 
L 40.328125 51.859375 
L 49.125 51.859375 
L 29.390625 -0.875 
Q 26.21875 -9.421875 24.46875 -12.640625 
Q 22.125 -17 19.09375 -19.015625 
Q 16.0625 -21.046875 11.859375 -21.046875 
Q 9.328125 -21.046875 6.203125 -19.96875 
z
" id="ArialMT-79"/>
      </defs>
      <g style="fill:#808080;" transform="translate(322.428938 80.244941)scale(0.08 -0.08)">
       <use xlink:href="#ArialMT-65"/>
       <use x="55.615234" xlink:href="#ArialMT-6e"/>
       <use x="111.230469" xlink:href="#ArialMT-65"/>
       <use x="166.845703" xlink:href="#ArialMT-72"/>
       <use x="200.146484" xlink:href="#ArialMT-67"/>
       <use x="255.761719" xlink:href="#ArialMT-79"/>
      </g>
     </g>
    </g>
    <g id="xtick_3">
     <g id="line2d_3">
      <path clip-path="url(#pf86b948188)" d="M 230.4 182.528879 
L 363.84352 182.528879 
" style="fill:none;stroke:#ffffff;stroke-linecap:round;"/>
     </g>
     <g id="text_3">
      <!-- acousticness -->
      <defs>
       <path d="M 3.328125 25.921875 
Q 3.328125 40.328125 11.328125 47.265625 
Q 18.015625 53.03125 27.640625 53.03125 
Q 38.328125 53.03125 45.109375 46.015625 
Q 51.90625 39.015625 51.90625 26.65625 
Q 51.90625 16.65625 48.90625 10.90625 
Q 45.90625 5.171875 40.15625 2 
Q 34.421875 -1.171875 27.640625 -1.171875 
Q 16.75 -1.171875 10.03125 5.8125 
Q 3.328125 12.796875 3.328125 25.921875 
z
M 12.359375 25.921875 
Q 12.359375 15.96875 16.703125 11.015625 
Q 21.046875 6.0625 27.640625 6.0625 
Q 34.1875 6.0625 38.53125 11.03125 
Q 42.875 16.015625 42.875 26.21875 
Q 42.875 35.84375 38.5 40.796875 
Q 34.125 45.75 27.640625 45.75 
Q 21.046875 45.75 16.703125 40.8125 
Q 12.359375 35.890625 12.359375 25.921875 
z
" id="ArialMT-6f"/>
       <path d="M 40.578125 0 
L 40.578125 7.625 
Q 34.515625 -1.171875 24.125 -1.171875 
Q 19.53125 -1.171875 15.546875 0.578125 
Q 11.578125 2.34375 9.640625 5 
Q 7.71875 7.671875 6.9375 11.53125 
Q 6.390625 14.109375 6.390625 19.734375 
L 6.390625 51.859375 
L 15.1875 51.859375 
L 15.1875 23.09375 
Q 15.1875 16.21875 15.71875 13.8125 
Q 16.546875 10.359375 19.234375 8.375 
Q 21.921875 6.390625 25.875 6.390625 
Q 29.828125 6.390625 33.296875 8.421875 
Q 36.765625 10.453125 38.203125 13.9375 
Q 39.65625 17.4375 39.65625 24.078125 
L 39.65625 51.859375 
L 48.4375 51.859375 
L 48.4375 0 
z
" id="ArialMT-75"/>
       <path d="M 3.078125 15.484375 
L 11.765625 16.84375 
Q 12.5 11.625 15.84375 8.84375 
Q 19.1875 6.0625 25.203125 6.0625 
Q 31.25 6.0625 34.171875 8.515625 
Q 37.109375 10.984375 37.109375 14.3125 
Q 37.109375 17.28125 34.515625 19 
Q 32.71875 20.171875 25.53125 21.96875 
Q 15.875 24.421875 12.140625 26.203125 
Q 8.40625 27.984375 6.46875 31.125 
Q 4.546875 34.28125 4.546875 38.09375 
Q 4.546875 41.546875 6.125 44.5 
Q 7.71875 47.46875 10.453125 49.421875 
Q 12.5 50.921875 16.03125 51.96875 
Q 19.578125 53.03125 23.640625 53.03125 
Q 29.734375 53.03125 34.34375 51.265625 
Q 38.96875 49.515625 41.15625 46.5 
Q 43.359375 43.5 44.1875 38.484375 
L 35.59375 37.3125 
Q 35.015625 41.3125 32.203125 43.546875 
Q 29.390625 45.796875 24.265625 45.796875 
Q 18.21875 45.796875 15.625 43.796875 
Q 13.03125 41.796875 13.03125 39.109375 
Q 13.03125 37.40625 14.109375 36.03125 
Q 15.1875 34.625 17.484375 33.6875 
Q 18.796875 33.203125 25.25 31.453125 
Q 34.578125 28.953125 38.25 27.359375 
Q 41.9375 25.78125 44.03125 22.75 
Q 46.140625 19.734375 46.140625 15.234375 
Q 46.140625 10.84375 43.578125 6.953125 
Q 41.015625 3.078125 36.171875 0.953125 
Q 31.34375 -1.171875 25.25 -1.171875 
Q 15.140625 -1.171875 9.84375 3.03125 
Q 4.546875 7.234375 3.078125 15.484375 
z
" id="ArialMT-73"/>
       <path d="M 25.78125 7.859375 
L 27.046875 0.09375 
Q 23.34375 -0.6875 20.40625 -0.6875 
Q 15.625 -0.6875 12.984375 0.828125 
Q 10.359375 2.34375 9.28125 4.8125 
Q 8.203125 7.28125 8.203125 15.1875 
L 8.203125 45.015625 
L 1.765625 45.015625 
L 1.765625 51.859375 
L 8.203125 51.859375 
L 8.203125 64.703125 
L 16.9375 69.96875 
L 16.9375 51.859375 
L 25.78125 51.859375 
L 25.78125 45.015625 
L 16.9375 45.015625 
L 16.9375 14.703125 
Q 16.9375 10.9375 17.40625 9.859375 
Q 17.875 8.796875 18.921875 8.15625 
Q 19.96875 7.515625 21.921875 7.515625 
Q 23.390625 7.515625 25.78125 7.859375 
z
" id="ArialMT-74"/>
       <path d="M 6.640625 61.46875 
L 6.640625 71.578125 
L 15.4375 71.578125 
L 15.4375 61.46875 
z
M 6.640625 0 
L 6.640625 51.859375 
L 15.4375 51.859375 
L 15.4375 0 
z
" id="ArialMT-69"/>
      </defs>
      <g style="fill:#808080;" transform="translate(354.721645 184.597004)scale(0.08 -0.08)">
       <use xlink:href="#ArialMT-61"/>
       <use x="55.615234" xlink:href="#ArialMT-63"/>
       <use x="105.615234" xlink:href="#ArialMT-6f"/>
       <use x="161.230469" xlink:href="#ArialMT-75"/>
       <use x="216.845703" xlink:href="#ArialMT-73"/>
       <use x="266.845703" xlink:href="#ArialMT-74"/>
       <use x="294.628906" xlink:href="#ArialMT-69"/>
       <use x="316.845703" xlink:href="#ArialMT-63"/>
       <use x="366.845703" xlink:href="#ArialMT-6e"/>
       <use x="422.460938" xlink:href="#ArialMT-65"/>
       <use x="478.076172" xlink:href="#ArialMT-73"/>
       <use x="528.076172" xlink:href="#ArialMT-73"/>
      </g>
     </g>
    </g>
    <g id="xtick_4">
     <g id="line2d_4">
      <path clip-path="url(#pf86b948188)" d="M 230.4 182.528879 
L 324.758818 276.887698 
" style="fill:none;stroke:#ffffff;stroke-linecap:round;"/>
     </g>
     <g id="text_4">
      <!-- speechiness -->
      <defs>
       <path d="M 6.59375 -19.875 
L 6.59375 51.859375 
L 14.59375 51.859375 
L 14.59375 45.125 
Q 17.4375 49.078125 21 51.046875 
Q 24.5625 53.03125 29.640625 53.03125 
Q 36.28125 53.03125 41.359375 49.609375 
Q 46.4375 46.1875 49.015625 39.953125 
Q 51.609375 33.734375 51.609375 26.3125 
Q 51.609375 18.359375 48.75 11.984375 
Q 45.90625 5.609375 40.453125 2.21875 
Q 35.015625 -1.171875 29 -1.171875 
Q 24.609375 -1.171875 21.109375 0.6875 
Q 17.625 2.546875 15.375 5.375 
L 15.375 -19.875 
z
M 14.546875 25.640625 
Q 14.546875 15.625 18.59375 10.84375 
Q 22.65625 6.0625 28.421875 6.0625 
Q 34.28125 6.0625 38.453125 11.015625 
Q 42.625 15.96875 42.625 26.375 
Q 42.625 36.28125 38.546875 41.203125 
Q 34.46875 46.140625 28.8125 46.140625 
Q 23.1875 46.140625 18.859375 40.890625 
Q 14.546875 35.640625 14.546875 25.640625 
z
" id="ArialMT-70"/>
       <path d="M 6.59375 0 
L 6.59375 71.578125 
L 15.375 71.578125 
L 15.375 45.90625 
Q 21.53125 53.03125 30.90625 53.03125 
Q 36.671875 53.03125 40.921875 50.75 
Q 45.171875 48.484375 47 44.484375 
Q 48.828125 40.484375 48.828125 32.859375 
L 48.828125 0 
L 40.046875 0 
L 40.046875 32.859375 
Q 40.046875 39.453125 37.1875 42.453125 
Q 34.328125 45.453125 29.109375 45.453125 
Q 25.203125 45.453125 21.75 43.421875 
Q 18.3125 41.40625 16.84375 37.9375 
Q 15.375 34.46875 15.375 28.375 
L 15.375 0 
z
" id="ArialMT-68"/>
      </defs>
      <g style="fill:#808080;" transform="translate(312.423313 288.855318)scale(0.08 -0.08)">
       <use xlink:href="#ArialMT-73"/>
       <use x="50" xlink:href="#ArialMT-70"/>
       <use x="105.615234" xlink:href="#ArialMT-65"/>
       <use x="161.230469" xlink:href="#ArialMT-65"/>
       <use x="216.845703" xlink:href="#ArialMT-63"/>
       <use x="266.845703" xlink:href="#ArialMT-68"/>
       <use x="322.460938" xlink:href="#ArialMT-69"/>
       <use x="344.677734" xlink:href="#ArialMT-6e"/>
       <use x="400.292969" xlink:href="#ArialMT-65"/>
       <use x="455.908203" xlink:href="#ArialMT-73"/>
       <use x="505.908203" xlink:href="#ArialMT-73"/>
      </g>
     </g>
    </g>
    <g id="xtick_5">
     <g id="line2d_5">
      <path clip-path="url(#pf86b948188)" d="M 230.4 182.528879 
L 230.4 315.9724 
" style="fill:none;stroke:#ffffff;stroke-linecap:round;"/>
     </g>
     <g id="text_5">
      <!-- danceability -->
      <defs>
       <path d="M 40.234375 0 
L 40.234375 6.546875 
Q 35.296875 -1.171875 25.734375 -1.171875 
Q 19.53125 -1.171875 14.328125 2.25 
Q 9.125 5.671875 6.265625 11.796875 
Q 3.421875 17.921875 3.421875 25.875 
Q 3.421875 33.640625 6 39.96875 
Q 8.59375 46.296875 13.765625 49.65625 
Q 18.953125 53.03125 25.34375 53.03125 
Q 30.03125 53.03125 33.6875 51.046875 
Q 37.359375 49.078125 39.65625 45.90625 
L 39.65625 71.578125 
L 48.390625 71.578125 
L 48.390625 0 
z
M 12.453125 25.875 
Q 12.453125 15.921875 16.640625 10.984375 
Q 20.84375 6.0625 26.5625 6.0625 
Q 32.328125 6.0625 36.34375 10.765625 
Q 40.375 15.484375 40.375 25.140625 
Q 40.375 35.796875 36.265625 40.765625 
Q 32.171875 45.75 26.171875 45.75 
Q 20.3125 45.75 16.375 40.96875 
Q 12.453125 36.1875 12.453125 25.875 
z
" id="ArialMT-64"/>
       <path d="M 14.703125 0 
L 6.546875 0 
L 6.546875 71.578125 
L 15.328125 71.578125 
L 15.328125 46.046875 
Q 20.90625 53.03125 29.546875 53.03125 
Q 34.328125 53.03125 38.59375 51.09375 
Q 42.875 49.171875 45.625 45.671875 
Q 48.390625 42.1875 49.953125 37.25 
Q 51.515625 32.328125 51.515625 26.703125 
Q 51.515625 13.375 44.921875 6.09375 
Q 38.328125 -1.171875 29.109375 -1.171875 
Q 19.921875 -1.171875 14.703125 6.5 
z
M 14.59375 26.3125 
Q 14.59375 17 17.140625 12.84375 
Q 21.296875 6.0625 28.375 6.0625 
Q 34.125 6.0625 38.328125 11.0625 
Q 42.53125 16.0625 42.53125 25.984375 
Q 42.53125 36.140625 38.5 40.96875 
Q 34.46875 45.796875 28.765625 45.796875 
Q 23 45.796875 18.796875 40.796875 
Q 14.59375 35.796875 14.59375 26.3125 
z
" id="ArialMT-62"/>
      </defs>
      <g style="fill:#808080;" transform="translate(209.27625 331.99365)scale(0.08 -0.08)">
       <use xlink:href="#ArialMT-64"/>
       <use x="55.615234" xlink:href="#ArialMT-61"/>
       <use x="111.230469" xlink:href="#ArialMT-6e"/>
       <use x="166.845703" xlink:href="#ArialMT-63"/>
       <use x="216.845703" xlink:href="#ArialMT-65"/>
       <use x="272.460938" xlink:href="#ArialMT-61"/>
       <use x="328.076172" xlink:href="#ArialMT-62"/>
       <use x="383.691406" xlink:href="#ArialMT-69"/>
       <use x="405.908203" xlink:href="#ArialMT-6c"/>
       <use x="428.125" xlink:href="#ArialMT-69"/>
       <use x="450.341797" xlink:href="#ArialMT-74"/>
       <use x="478.125" xlink:href="#ArialMT-79"/>
      </g>
     </g>
    </g>
    <g id="xtick_6">
     <g id="line2d_6">
      <path clip-path="url(#pf86b948188)" d="M 230.4 182.528879 
L 136.041182 276.887698 
" style="fill:none;stroke:#ffffff;stroke-linecap:round;"/>
     </g>
     <g id="text_6">
      <!-- instrumentalness -->
      <defs>
       <path d="M 6.59375 0 
L 6.59375 51.859375 
L 14.453125 51.859375 
L 14.453125 44.578125 
Q 16.890625 48.390625 20.9375 50.703125 
Q 25 53.03125 30.171875 53.03125 
Q 35.9375 53.03125 39.625 50.640625 
Q 43.3125 48.25 44.828125 43.953125 
Q 50.984375 53.03125 60.84375 53.03125 
Q 68.5625 53.03125 72.703125 48.75 
Q 76.859375 44.484375 76.859375 35.59375 
L 76.859375 0 
L 68.109375 0 
L 68.109375 32.671875 
Q 68.109375 37.9375 67.25 40.25 
Q 66.40625 42.578125 64.15625 43.984375 
Q 61.921875 45.40625 58.890625 45.40625 
Q 53.421875 45.40625 49.796875 41.765625 
Q 46.1875 38.140625 46.1875 30.125 
L 46.1875 0 
L 37.40625 0 
L 37.40625 33.6875 
Q 37.40625 39.546875 35.25 42.46875 
Q 33.109375 45.40625 28.21875 45.40625 
Q 24.515625 45.40625 21.359375 43.453125 
Q 18.21875 41.5 16.796875 37.734375 
Q 15.375 33.984375 15.375 26.90625 
L 15.375 0 
z
" id="ArialMT-6d"/>
      </defs>
      <g style="fill:#808080;" transform="translate(95.907312 288.855318)scale(0.08 -0.08)">
       <use xlink:href="#ArialMT-69"/>
       <use x="22.216797" xlink:href="#ArialMT-6e"/>
       <use x="77.832031" xlink:href="#ArialMT-73"/>
       <use x="127.832031" xlink:href="#ArialMT-74"/>
       <use x="155.615234" xlink:href="#ArialMT-72"/>
       <use x="188.916016" xlink:href="#ArialMT-75"/>
       <use x="244.53125" xlink:href="#ArialMT-6d"/>
       <use x="327.832031" xlink:href="#ArialMT-65"/>
       <use x="383.447266" xlink:href="#ArialMT-6e"/>
       <use x="439.0625" xlink:href="#ArialMT-74"/>
       <use x="466.845703" xlink:href="#ArialMT-61"/>
       <use x="522.460938" xlink:href="#ArialMT-6c"/>
       <use x="544.677734" xlink:href="#ArialMT-6e"/>
       <use x="600.292969" xlink:href="#ArialMT-65"/>
       <use x="655.908203" xlink:href="#ArialMT-73"/>
       <use x="705.908203" xlink:href="#ArialMT-73"/>
      </g>
     </g>
    </g>
    <g id="xtick_7">
     <g id="line2d_7">
      <path clip-path="url(#pf86b948188)" d="M 230.4 182.528879 
L 96.95648 182.52888 
" style="fill:none;stroke:#ffffff;stroke-linecap:round;"/>
     </g>
     <g id="text_7">
      <!-- liveness -->
      <g style="fill:#808080;" transform="translate(68.505855 184.597005)scale(0.08 -0.08)">
       <use xlink:href="#ArialMT-6c"/>
       <use x="22.216797" xlink:href="#ArialMT-69"/>
       <use x="44.433594" xlink:href="#ArialMT-76"/>
       <use x="94.433594" xlink:href="#ArialMT-65"/>
       <use x="150.048828" xlink:href="#ArialMT-6e"/>
       <use x="205.664062" xlink:href="#ArialMT-65"/>
       <use x="261.279297" xlink:href="#ArialMT-73"/>
       <use x="311.279297" xlink:href="#ArialMT-73"/>
      </g>
     </g>
    </g>
    <g id="xtick_8">
     <g id="line2d_8">
      <path clip-path="url(#pf86b948188)" d="M 230.4 182.528879 
L 136.041182 88.170061 
" style="fill:none;stroke:#ffffff;stroke-linecap:round;"/>
     </g>
     <g id="text_8">
      <!-- mode -->
      <g style="fill:#808080;" transform="translate(116.136687 80.338691)scale(0.08 -0.08)">
       <use xlink:href="#ArialMT-6d"/>
       <use x="83.300781" xlink:href="#ArialMT-6f"/>
       <use x="138.916016" xlink:href="#ArialMT-64"/>
       <use x="194.53125" xlink:href="#ArialMT-65"/>
      </g>
     </g>
    </g>
   </g>
   <g id="matplotlib.axis_2">
    <g id="ytick_1">
     <g id="line2d_9">
      <path clip-path="url(#pf86b948188)" d="M 230.4 155.840175 
L 233.189729 155.986379 
L 235.948894 156.423388 
L 238.647263 157.146414 
L 241.255274 158.147535 
L 243.744352 159.415784 
L 246.087227 160.937264 
L 248.258229 162.695307 
L 250.233572 164.670651 
L 251.991615 166.841653 
L 253.513096 169.184527 
L 254.781344 171.673606 
L 255.782466 174.281616 
L 256.505492 176.979986 
L 256.942501 179.73915 
L 257.088704 182.528879 
L 256.942501 185.318609 
L 256.505492 188.077773 
L 255.782466 190.776143 
L 254.781344 193.384153 
L 253.513096 195.873232 
L 251.991615 198.216106 
L 250.233572 200.387108 
L 248.258229 202.362452 
L 246.087227 204.120495 
L 243.744352 205.641975 
L 241.255274 206.910224 
L 238.647263 207.911345 
L 235.948894 208.634371 
L 233.189729 209.07138 
L 230.4 209.217584 
L 227.610271 209.07138 
L 224.851106 208.634371 
L 222.152737 207.911345 
L 219.544726 206.910224 
L 217.055648 205.641975 
L 214.712773 204.120495 
L 212.541771 202.362452 
L 210.566428 200.387108 
L 208.808385 198.216106 
L 207.286904 195.873232 
L 206.018656 193.384153 
L 205.017534 190.776143 
L 204.294508 188.077773 
L 203.857499 185.318609 
L 203.711296 182.528879 
L 203.857499 179.73915 
L 204.294508 176.979986 
L 205.017534 174.281616 
L 206.018656 171.673606 
L 207.286904 169.184527 
L 208.808385 166.841653 
L 210.566428 164.670651 
L 212.541771 162.695307 
L 214.712773 160.937264 
L 217.055648 159.415784 
L 219.544726 158.147535 
L 222.152737 157.146414 
L 224.851106 156.423388 
L 227.610271 155.986379 
L 230.4 155.840175 
L 230.4 155.840175 
" style="fill:none;stroke:#ffffff;stroke-linecap:round;"/>
     </g>
     <g id="text_9">
      <!-- 0.2 -->
      <defs>
       <path d="M 4.15625 35.296875 
Q 4.15625 48 6.765625 55.734375 
Q 9.375 63.484375 14.515625 67.671875 
Q 19.671875 71.875 27.484375 71.875 
Q 33.25 71.875 37.59375 69.546875 
Q 41.9375 67.234375 44.765625 62.859375 
Q 47.609375 58.5 49.21875 52.21875 
Q 50.828125 45.953125 50.828125 35.296875 
Q 50.828125 22.703125 48.234375 14.96875 
Q 45.65625 7.234375 40.5 3 
Q 35.359375 -1.21875 27.484375 -1.21875 
Q 17.140625 -1.21875 11.234375 6.203125 
Q 4.15625 15.140625 4.15625 35.296875 
z
M 13.1875 35.296875 
Q 13.1875 17.671875 17.3125 11.828125 
Q 21.4375 6 27.484375 6 
Q 33.546875 6 37.671875 11.859375 
Q 41.796875 17.71875 41.796875 35.296875 
Q 41.796875 52.984375 37.671875 58.78125 
Q 33.546875 64.59375 27.390625 64.59375 
Q 21.34375 64.59375 17.71875 59.46875 
Q 13.1875 52.9375 13.1875 35.296875 
z
" id="ArialMT-30"/>
       <path d="M 9.078125 0 
L 9.078125 10.015625 
L 19.09375 10.015625 
L 19.09375 0 
z
" id="ArialMT-2e"/>
       <path d="M 50.34375 8.453125 
L 50.34375 0 
L 3.03125 0 
Q 2.9375 3.171875 4.046875 6.109375 
Q 5.859375 10.9375 9.828125 15.625 
Q 13.8125 20.3125 21.34375 26.46875 
Q 33.015625 36.03125 37.109375 41.625 
Q 41.21875 47.21875 41.21875 52.203125 
Q 41.21875 57.421875 37.46875 61 
Q 33.734375 64.59375 27.734375 64.59375 
Q 21.390625 64.59375 17.578125 60.78125 
Q 13.765625 56.984375 13.71875 50.25 
L 4.6875 51.171875 
Q 5.609375 61.28125 11.65625 66.578125 
Q 17.71875 71.875 27.9375 71.875 
Q 38.234375 71.875 44.234375 66.15625 
Q 50.25 60.453125 50.25 52 
Q 50.25 47.703125 48.484375 43.546875 
Q 46.734375 39.40625 42.65625 34.8125 
Q 38.578125 30.21875 29.109375 22.21875 
Q 21.1875 15.578125 18.9375 13.203125 
Q 16.703125 10.84375 15.234375 8.453125 
z
" id="ArialMT-32"/>
      </defs>
      <g style="fill:#808080;" transform="translate(230.4 154.448925)scale(0.07 -0.07)">
       <use xlink:href="#ArialMT-30"/>
       <use x="55.615234" xlink:href="#ArialMT-2e"/>
       <use x="83.398438" xlink:href="#ArialMT-32"/>
      </g>
     </g>
    </g>
    <g id="ytick_2">
     <g id="line2d_10">
      <path clip-path="url(#pf86b948188)" d="M 230.4 129.151471 
L 234.12342 129.281496 
L 237.828699 129.670937 
L 241.497787 130.317896 
L 245.112808 131.219222 
L 248.656149 132.370523 
L 252.110548 133.766191 
L 255.459175 135.399425 
L 258.685717 137.26227 
L 261.774453 139.345649 
L 264.710337 141.639413 
L 267.479063 144.132385 
L 270.067145 146.812422 
L 272.461972 149.666466 
L 274.651877 152.680612 
L 276.626191 155.840175 
L 278.375297 159.129764 
L 279.890671 162.53335 
L 281.164932 166.034353 
L 282.191871 169.615716 
L 282.966485 173.25999 
L 283.485001 176.949421 
L 283.744892 180.666035 
L 283.744892 184.391724 
L 283.485001 188.108338 
L 282.966485 191.797769 
L 282.191871 195.442043 
L 281.164932 199.023406 
L 279.890671 202.524409 
L 278.375297 205.927995 
L 276.626191 209.217584 
L 274.651877 212.377147 
L 272.461972 215.391293 
L 270.067145 218.245337 
L 267.479063 220.925374 
L 264.710337 223.418346 
L 261.774453 225.71211 
L 258.685717 227.795489 
L 255.459175 229.658334 
L 252.110548 231.291568 
L 248.656149 232.687236 
L 245.112808 233.838537 
L 241.497787 234.739863 
L 237.828699 235.386822 
L 234.12342 235.776263 
L 230.4 235.906288 
L 226.67658 235.776263 
L 222.971301 235.386822 
L 219.302213 234.739863 
L 215.687192 233.838537 
L 212.143851 232.687236 
L 208.689452 231.291568 
L 205.340825 229.658334 
L 202.114283 227.795489 
L 199.025547 225.71211 
L 196.089663 223.418346 
L 193.320937 220.925374 
L 190.732855 218.245337 
L 188.338028 215.391293 
L 186.148123 212.377147 
L 184.173809 209.217584 
L 182.424703 205.927995 
L 180.909329 202.524409 
L 179.635068 199.023406 
L 178.608129 195.442043 
L 177.833515 191.797769 
L 177.314999 188.108338 
L 177.055108 184.391724 
L 177.055108 180.666035 
L 177.314999 176.949421 
L 177.833515 173.25999 
L 178.608129 169.615716 
L 179.635068 166.034353 
L 180.909329 162.53335 
L 182.424703 159.129764 
L 184.173809 155.840175 
L 186.148123 152.680612 
L 188.338028 149.666466 
L 190.732855 146.812422 
L 193.320937 144.132385 
L 196.089663 141.639413 
L 199.025547 139.345649 
L 202.114283 137.26227 
L 205.340825 135.399425 
L 208.689452 133.766191 
L 212.143851 132.370523 
L 215.687192 131.219222 
L 219.302213 130.317896 
L 222.971301 129.670937 
L 226.67658 129.281496 
L 230.4 129.151471 
L 230.4 129.151471 
" style="fill:none;stroke:#ffffff;stroke-linecap:round;"/>
     </g>
     <g id="text_10">
      <!-- 0.4 -->
      <defs>
       <path d="M 32.328125 0 
L 32.328125 17.140625 
L 1.265625 17.140625 
L 1.265625 25.203125 
L 33.9375 71.578125 
L 41.109375 71.578125 
L 41.109375 25.203125 
L 50.78125 25.203125 
L 50.78125 17.140625 
L 41.109375 17.140625 
L 41.109375 0 
z
M 32.328125 25.203125 
L 32.328125 57.46875 
L 9.90625 25.203125 
z
" id="ArialMT-34"/>
      </defs>
      <g style="fill:#808080;" transform="translate(230.4 127.760221)scale(0.07 -0.07)">
       <use xlink:href="#ArialMT-30"/>
       <use x="55.615234" xlink:href="#ArialMT-2e"/>
       <use x="83.398438" xlink:href="#ArialMT-34"/>
      </g>
     </g>
    </g>
    <g id="ytick_3">
     <g id="line2d_11">
      <path clip-path="url(#pf86b948188)" d="M 230.4 102.462767 
L 235.98513 102.657804 
L 241.543049 103.241965 
L 247.046681 104.212404 
L 252.469211 105.564393 
L 257.784223 107.291345 
L 262.965822 109.384846 
L 267.988763 111.834698 
L 272.828575 114.628965 
L 277.46168 117.754034 
L 281.865505 121.194679 
L 286.018595 124.934138 
L 289.900717 128.954193 
L 293.492957 133.235259 
L 296.777815 137.756478 
L 299.739287 142.495823 
L 302.362945 147.430206 
L 304.636007 152.535586 
L 306.547398 157.78709 
L 308.087807 163.159134 
L 309.249728 168.625545 
L 310.027502 174.159692 
L 310.417338 179.734612 
L 310.417338 185.323147 
L 310.027502 190.898067 
L 309.249728 196.432214 
L 308.087807 201.898625 
L 306.547398 207.270669 
L 304.636007 212.522173 
L 302.362945 217.627553 
L 299.739287 222.561936 
L 296.777815 227.301281 
L 293.492957 231.8225 
L 289.900717 236.103566 
L 286.018595 240.123621 
L 281.865505 243.86308 
L 277.46168 247.303725 
L 272.828575 250.428794 
L 267.988763 253.223061 
L 262.965822 255.672913 
L 257.784223 257.766414 
L 252.469211 259.493366 
L 247.046681 260.845355 
L 241.543049 261.815794 
L 235.98513 262.399955 
L 230.4 262.594992 
L 224.81487 262.399955 
L 219.256951 261.815794 
L 213.753319 260.845355 
L 208.330789 259.493366 
L 203.015777 257.766414 
L 197.834178 255.672913 
L 192.811237 253.223061 
L 187.971425 250.428794 
L 183.33832 247.303725 
L 178.934495 243.86308 
L 174.781405 240.123621 
L 170.899283 236.103566 
L 167.307043 231.8225 
L 164.022185 227.301281 
L 161.060713 222.561936 
L 158.437055 217.627553 
L 156.163993 212.522173 
L 154.252602 207.270669 
L 152.712193 201.898625 
L 151.550272 196.432214 
L 150.772498 190.898067 
L 150.382662 185.323147 
L 150.382662 179.734612 
L 150.772498 174.159692 
L 151.550272 168.625545 
L 152.712193 163.159134 
L 154.252602 157.78709 
L 156.163993 152.535586 
L 158.437055 147.430206 
L 161.060713 142.495823 
L 164.022185 137.756478 
L 167.307043 133.235259 
L 170.899283 128.954193 
L 174.781405 124.934138 
L 178.934495 121.194679 
L 183.33832 117.754034 
L 187.971425 114.628965 
L 192.811237 111.834698 
L 197.834178 109.384846 
L 203.015777 107.291345 
L 208.330789 105.564393 
L 213.753319 104.212404 
L 219.256951 103.241965 
L 224.81487 102.657804 
L 230.4 102.462767 
L 230.4 102.462767 
" style="fill:none;stroke:#ffffff;stroke-linecap:round;"/>
     </g>
     <g id="text_11">
      <!-- 0.6 -->
      <defs>
       <path d="M 49.75 54.046875 
L 41.015625 53.375 
Q 39.84375 58.546875 37.703125 60.890625 
Q 34.125 64.65625 28.90625 64.65625 
Q 24.703125 64.65625 21.53125 62.3125 
Q 17.390625 59.28125 14.984375 53.46875 
Q 12.59375 47.65625 12.5 36.921875 
Q 15.671875 41.75 20.265625 44.09375 
Q 24.859375 46.4375 29.890625 46.4375 
Q 38.671875 46.4375 44.84375 39.96875 
Q 51.03125 33.5 51.03125 23.25 
Q 51.03125 16.5 48.125 10.71875 
Q 45.21875 4.9375 40.140625 1.859375 
Q 35.0625 -1.21875 28.609375 -1.21875 
Q 17.625 -1.21875 10.6875 6.859375 
Q 3.765625 14.9375 3.765625 33.5 
Q 3.765625 54.25 11.421875 63.671875 
Q 18.109375 71.875 29.4375 71.875 
Q 37.890625 71.875 43.28125 67.140625 
Q 48.6875 62.40625 49.75 54.046875 
z
M 13.875 23.1875 
Q 13.875 18.65625 15.796875 14.5 
Q 17.71875 10.359375 21.1875 8.171875 
Q 24.65625 6 28.46875 6 
Q 34.03125 6 38.03125 10.484375 
Q 42.046875 14.984375 42.046875 22.703125 
Q 42.046875 30.125 38.078125 34.390625 
Q 34.125 38.671875 28.125 38.671875 
Q 22.171875 38.671875 18.015625 34.390625 
Q 13.875 30.125 13.875 23.1875 
z
" id="ArialMT-36"/>
      </defs>
      <g style="fill:#808080;" transform="translate(230.4 101.071517)scale(0.07 -0.07)">
       <use xlink:href="#ArialMT-30"/>
       <use x="55.615234" xlink:href="#ArialMT-2e"/>
       <use x="83.398438" xlink:href="#ArialMT-36"/>
      </g>
     </g>
    </g>
    <g id="ytick_4">
     <g id="line2d_12">
      <path clip-path="url(#pf86b948188)" d="M 230.4 75.774063 
L 234.125689 75.839095 
L 237.84684 76.034112 
L 241.558917 76.358877 
L 245.257399 76.812994 
L 248.937779 77.395909 
L 252.595574 78.106912 
L 256.226328 78.945137 
L 259.825615 79.909564 
L 263.389052 80.999016 
L 266.912298 82.212166 
L 270.391058 83.547537 
L 273.821096 85.003502 
L 277.198231 86.578286 
L 280.51835 88.269971 
L 283.777408 90.076497 
L 286.971434 91.995661 
L 290.096536 94.025126 
L 293.148907 96.162419 
L 296.124828 98.404936 
L 299.020673 100.749946 
L 301.832915 103.19459 
L 304.558127 105.735891 
L 307.192988 108.370753 
L 309.734289 111.095964 
L 312.178934 113.908206 
L 314.523943 116.804052 
L 316.766461 119.779973 
L 318.903754 122.832344 
L 320.933219 125.957446 
L 322.852383 129.151471 
L 324.658908 132.410529 
L 326.350593 135.730648 
L 327.925378 139.107784 
L 329.381342 142.537821 
L 330.716713 146.016582 
L 331.929864 149.539827 
L 333.019316 153.103264 
L 333.983742 156.702552 
L 334.821968 160.333305 
L 335.532971 163.9911 
L 336.115886 167.671481 
L 336.570002 171.369963 
L 336.894767 175.08204 
L 337.089784 178.80319 
L 337.154816 182.528879 
L 337.089784 186.254569 
L 336.894767 189.975719 
L 336.570002 193.687796 
L 336.115886 197.386278 
L 335.532971 201.066659 
L 334.821968 204.724454 
L 333.983742 208.355207 
L 333.019316 211.954495 
L 331.929864 215.517932 
L 330.716713 219.041177 
L 329.381342 222.519938 
L 327.925378 225.949975 
L 326.350593 229.327111 
L 324.658908 232.64723 
L 322.852383 235.906288 
L 320.933219 239.100313 
L 318.903754 242.225415 
L 316.766461 245.277786 
L 314.523943 248.253707 
L 312.178934 251.149553 
L 309.734289 253.961795 
L 307.192988 256.687006 
L 304.558127 259.321868 
L 301.832915 261.863169 
L 299.020673 264.307813 
L 296.124828 266.652823 
L 293.148907 268.89534 
L 290.096536 271.032633 
L 286.971434 273.062098 
L 283.777408 274.981262 
L 280.51835 276.787788 
L 277.198231 278.479473 
L 273.821096 280.054257 
L 270.391058 281.510222 
L 266.912298 282.845593 
L 263.389052 284.058743 
L 259.825615 285.148195 
L 256.226328 286.112622 
L 252.595574 286.950847 
L 248.937779 287.66185 
L 245.257399 288.244765 
L 241.558917 288.698882 
L 237.84684 289.023647 
L 234.125689 289.218664 
L 230.4 289.283696 
L 226.674311 289.218664 
L 222.95316 289.023647 
L 219.241083 288.698882 
L 215.542601 288.244765 
L 211.862221 287.66185 
L 208.204426 286.950847 
L 204.573672 286.112622 
L 200.974385 285.148195 
L 197.410948 284.058743 
L 193.887702 282.845593 
L 190.408942 281.510222 
L 186.978904 280.054257 
L 183.601769 278.479473 
L 180.28165 276.787788 
L 177.022592 274.981262 
L 173.828566 273.062098 
L 170.703464 271.032633 
L 167.651093 268.89534 
L 164.675172 266.652823 
L 161.779327 264.307813 
L 158.967085 261.863169 
L 156.241873 259.321868 
L 153.607012 256.687006 
L 151.065711 253.961795 
L 148.621066 251.149553 
L 146.276057 248.253707 
L 144.033539 245.277786 
L 141.896246 242.225415 
L 139.866781 239.100313 
L 137.947617 235.906288 
L 136.141092 232.64723 
L 134.449407 229.327111 
L 132.874622 225.949975 
L 131.418658 222.519938 
L 130.083287 219.041177 
L 128.870136 215.517932 
L 127.780684 211.954495 
L 126.816258 208.355207 
L 125.978032 204.724454 
L 125.267029 201.066659 
L 124.684114 197.386278 
L 124.229998 193.687796 
L 123.905233 189.975719 
L 123.710216 186.254569 
L 123.645184 182.528879 
L 123.710216 178.80319 
L 123.905233 175.08204 
L 124.229998 171.369963 
L 124.684114 167.671481 
L 125.267029 163.9911 
L 125.978032 160.333305 
L 126.816258 156.702552 
L 127.780684 153.103264 
L 128.870136 149.539827 
L 130.083287 146.016582 
L 131.418658 142.537821 
L 132.874622 139.107784 
L 134.449407 135.730648 
L 136.141092 132.410529 
L 137.947617 129.151471 
L 139.866781 125.957446 
L 141.896246 122.832344 
L 144.033539 119.779973 
L 146.276057 116.804052 
L 148.621066 113.908206 
L 151.065711 111.095964 
L 153.607012 108.370753 
L 156.241873 105.735891 
L 158.967085 103.19459 
L 161.779327 100.749946 
L 164.675172 98.404936 
L 167.651093 96.162419 
L 170.703464 94.025126 
L 173.828566 91.995661 
L 177.022592 90.076497 
L 180.28165 88.269971 
L 183.601769 86.578286 
L 186.978904 85.003502 
L 190.408942 83.547537 
L 193.887702 82.212166 
L 197.410948 80.999016 
L 200.974385 79.909564 
L 204.573672 78.945137 
L 208.204426 78.106912 
L 211.862221 77.395909 
L 215.542601 76.812994 
L 219.241083 76.358877 
L 222.95316 76.034112 
L 226.674311 75.839095 
L 230.4 75.774063 
L 230.4 75.774063 
" style="fill:none;stroke:#ffffff;stroke-linecap:round;"/>
     </g>
     <g id="text_12">
      <!-- 0.8 -->
      <defs>
       <path d="M 17.671875 38.8125 
Q 12.203125 40.828125 9.5625 44.53125 
Q 6.9375 48.25 6.9375 53.421875 
Q 6.9375 61.234375 12.546875 66.546875 
Q 18.171875 71.875 27.484375 71.875 
Q 36.859375 71.875 42.578125 66.421875 
Q 48.296875 60.984375 48.296875 53.171875 
Q 48.296875 48.1875 45.671875 44.5 
Q 43.0625 40.828125 37.75 38.8125 
Q 44.34375 36.671875 47.78125 31.875 
Q 51.21875 27.09375 51.21875 20.453125 
Q 51.21875 11.28125 44.71875 5.03125 
Q 38.234375 -1.21875 27.640625 -1.21875 
Q 17.046875 -1.21875 10.546875 5.046875 
Q 4.046875 11.328125 4.046875 20.703125 
Q 4.046875 27.6875 7.59375 32.390625 
Q 11.140625 37.109375 17.671875 38.8125 
z
M 15.921875 53.71875 
Q 15.921875 48.640625 19.1875 45.40625 
Q 22.46875 42.1875 27.6875 42.1875 
Q 32.765625 42.1875 36.015625 45.375 
Q 39.265625 48.578125 39.265625 53.21875 
Q 39.265625 58.0625 35.90625 61.359375 
Q 32.5625 64.65625 27.59375 64.65625 
Q 22.5625 64.65625 19.234375 61.421875 
Q 15.921875 58.203125 15.921875 53.71875 
z
M 13.09375 20.65625 
Q 13.09375 16.890625 14.875 13.375 
Q 16.65625 9.859375 20.171875 7.921875 
Q 23.6875 6 27.734375 6 
Q 34.03125 6 38.125 10.046875 
Q 42.234375 14.109375 42.234375 20.359375 
Q 42.234375 26.703125 38.015625 30.859375 
Q 33.796875 35.015625 27.4375 35.015625 
Q 21.234375 35.015625 17.15625 30.90625 
Q 13.09375 26.8125 13.09375 20.65625 
z
" id="ArialMT-38"/>
      </defs>
      <g style="fill:#808080;" transform="translate(230.4 74.382813)scale(0.07 -0.07)">
       <use xlink:href="#ArialMT-30"/>
       <use x="55.615234" xlink:href="#ArialMT-2e"/>
       <use x="83.398438" xlink:href="#ArialMT-38"/>
      </g>
     </g>
    </g>
   </g>
   <g id="patch_3">
    <path clip-path="url(#pf86b948188)" d="M 230.4 130.228551 
L 289.421441 123.507439 
L 266.672808 182.528879 
L 238.41039 190.539269 
L 230.4 252.276948 
L 216.424785 196.504094 
L 205.498486 182.528879 
L 173.973427 126.102306 
z
" style="fill:#808080;opacity:0.5;stroke:#808080;stroke-linejoin:miter;stroke-width:0.3;"/>
   </g>
   <g id="patch_4">
    <path clip-path="url(#pf86b948188)" d="M 230.4 134.756099 
L 277.296333 135.632547 
L 301.125066 182.528879 
L 234.36307 186.49195 
L 230.4 248.183092 
L 208.320037 204.608843 
L 209.716254 182.528879 
L 156.422686 108.551566 
z
" style="fill:#fffea3;opacity:0.5;stroke:#fffea3;stroke-linejoin:miter;stroke-width:0.3;"/>
   </g>
   <g id="line2d_13">
    <path clip-path="url(#pf86b948188)" d="M 230.4 130.228551 
L 289.421441 123.507439 
L 266.672808 182.528879 
L 238.41039 190.539269 
L 230.4 252.276948 
L 216.424785 196.504094 
L 205.498486 182.528879 
L 173.973427 126.102306 
L 230.4 130.228551 
" style="fill:none;stroke:#808080;stroke-linecap:round;"/>
   </g>
   <g id="line2d_14">
    <path clip-path="url(#pf86b948188)" d="M 230.4 134.756099 
L 277.296333 135.632547 
L 301.125066 182.528879 
L 234.36307 186.49195 
L 230.4 248.183092 
L 208.320037 204.608843 
L 209.716254 182.528879 
L 156.422686 108.551566 
L 230.4 134.756099 
" style="fill:none;stroke:#fffea3;stroke-linecap:round;"/>
   </g>
   <g id="patch_5">
    <path d="M 230.4 49.085359 
C 212.876357 49.085359 195.52311 52.537134 179.333376 59.243142 
C 163.143641 65.94915 148.432268 75.778975 136.041182 88.170061 
C 123.650095 100.561148 113.82027 115.27252 107.114263 131.462255 
C 100.408255 147.65199 96.95648 165.005237 96.95648 182.52888 
C 96.95648 200.052522 100.408255 217.405769 107.114263 233.595504 
C 113.82027 249.785239 123.650095 264.496611 136.041182 276.887698 
C 148.432268 289.278784 163.143641 299.108609 179.333376 305.814617 
C 195.52311 312.520625 212.876357 315.9724 230.4 315.9724 
C 247.923643 315.9724 265.27689 312.520625 281.466624 305.814617 
C 297.656359 299.108609 312.367732 289.278784 324.758818 276.887698 
C 337.149905 264.496611 346.97973 249.785239 353.685737 233.595504 
C 360.391745 217.405769 363.84352 200.052522 363.84352 182.528879 
C 363.84352 165.005237 360.391745 147.65199 353.685737 131.462255 
C 346.97973 115.27252 337.149905 100.561148 324.758818 88.170061 
C 312.367732 75.778975 297.656359 65.94915 281.466624 59.243142 
C 265.27689 52.537134 247.923643 49.085359 230.4 49.085359 
" style="fill:none;"/>
   </g>
   <g id="text_13">
    <!-- Fall -->
    <defs>
     <path d="M 7.375 0 
L 7.375 71.578125 
L 56.453125 71.578125 
L 56.453125 59.46875 
L 21.828125 59.46875 
L 21.828125 42.53125 
L 51.703125 42.53125 
L 51.703125 30.421875 
L 21.828125 30.421875 
L 21.828125 0 
z
" id="Arial-BoldMT-46"/>
     <path d="M 17.4375 36.03125 
L 4.984375 38.28125 
Q 7.078125 45.796875 12.203125 49.40625 
Q 17.328125 53.03125 27.4375 53.03125 
Q 36.625 53.03125 41.109375 50.859375 
Q 45.609375 48.6875 47.4375 45.34375 
Q 49.265625 42 49.265625 33.0625 
L 49.125 17.046875 
Q 49.125 10.203125 49.78125 6.953125 
Q 50.4375 3.71875 52.25 0 
L 38.671875 0 
Q 38.140625 1.375 37.359375 4.046875 
Q 37.015625 5.28125 36.859375 5.671875 
Q 33.34375 2.25 29.34375 0.53125 
Q 25.34375 -1.171875 20.796875 -1.171875 
Q 12.796875 -1.171875 8.171875 3.171875 
Q 3.5625 7.515625 3.5625 14.15625 
Q 3.5625 18.5625 5.65625 22 
Q 7.765625 25.4375 11.546875 27.265625 
Q 15.328125 29.109375 22.46875 30.46875 
Q 32.078125 32.28125 35.796875 33.84375 
L 35.796875 35.203125 
Q 35.796875 39.15625 33.84375 40.84375 
Q 31.890625 42.53125 26.46875 42.53125 
Q 22.796875 42.53125 20.75 41.09375 
Q 18.703125 39.65625 17.4375 36.03125 
z
M 35.796875 24.90625 
Q 33.15625 24.03125 27.4375 22.796875 
Q 21.734375 21.578125 19.96875 20.40625 
Q 17.28125 18.5 17.28125 15.578125 
Q 17.28125 12.703125 19.421875 10.59375 
Q 21.578125 8.5 24.90625 8.5 
Q 28.609375 8.5 31.984375 10.9375 
Q 34.46875 12.796875 35.25 15.484375 
Q 35.796875 17.234375 35.796875 22.171875 
z
" id="Arial-BoldMT-61"/>
     <path d="M 7.171875 0 
L 7.171875 71.578125 
L 20.90625 71.578125 
L 20.90625 0 
z
" id="Arial-BoldMT-6c"/>
    </defs>
    <g style="fill:#fffea3;" transform="translate(218.3425 21.734396)scale(0.14 -0.14)">
     <use xlink:href="#Arial-BoldMT-46"/>
     <use x="61.083984" xlink:href="#Arial-BoldMT-61"/>
     <use x="116.699219" xlink:href="#Arial-BoldMT-6c"/>
     <use x="144.482422" xlink:href="#Arial-BoldMT-6c"/>
    </g>
   </g>
  </g>
 </g>
 <defs>
  <clipPath id="pf86b948188">
   <path d="M 363.84352 182.52888 
C 363.84352 165.005237 360.391745 147.65199 353.685737 131.462255 
C 346.97973 115.27252 337.149905 100.561148 324.758818 88.170061 
C 312.367732 75.778975 297.656359 65.94915 281.466624 59.243142 
C 265.27689 52.537134 247.923643 49.085359 230.4 49.085359 
C 212.876357 49.085359 195.52311 52.537134 179.333376 59.243142 
C 163.143641 65.94915 148.432268 75.778975 136.041182 88.170061 
C 123.650095 100.561148 113.82027 115.27252 107.114263 131.462255 
C 100.408255 147.65199 96.95648 165.005237 96.95648 182.528879 
C 96.95648 200.052522 100.408255 217.405769 107.114263 233.595504 
C 113.82027 249.785239 123.650095 264.496611 136.041182 276.887698 
C 148.432268 289.278784 163.143641 299.108609 179.333376 305.814617 
C 195.52311 312.520625 212.876357 315.9724 230.4 315.9724 
C 247.923643 315.9724 265.27689 312.520625 281.466624 305.814617 
C 297.656359 299.108609 312.367732 289.278784 324.758818 276.887698 
C 337.149905 264.496611 346.97973 249.785239 353.685737 233.595504 
C 360.391745 217.405769 363.84352 200.052522 363.84352 182.52888 
M 230.4 182.52888 
C 230.4 182.52888 230.4 182.52888 230.4 182.52888 
C 230.4 182.52888 230.4 182.52888 230.4 182.52888 
C 230.4 182.52888 230.4 182.52888 230.4 182.52888 
C 230.4 182.52888 230.4 182.52888 230.4 182.52888 
C 230.4 182.52888 230.4 182.52888 230.4 182.52888 
C 230.4 182.52888 230.4 182.52888 230.4 182.52888 
C 230.4 182.52888 230.4 182.52888 230.4 182.52888 
C 230.4 182.52888 230.4 182.52888 230.4 182.52888 
C 230.4 182.52888 230.4 182.52888 230.4 182.52888 
C 230.4 182.52888 230.4 182.52888 230.4 182.52888 
C 230.4 182.52888 230.4 182.52888 230.4 182.52888 
C 230.4 182.52888 230.4 182.52888 230.4 182.52888 
C 230.4 182.52888 230.4 182.52888 230.4 182.52888 
C 230.4 182.52888 230.4 182.52888 230.4 182.52888 
C 230.4 182.52888 230.4 182.52888 230.4 182.52888 
C 230.4 182.52888 230.4 182.52888 230.4 182.52888 
M 363.84352 182.52888 
z
"/>
  </clipPath>
 </defs>
</svg>
