<?xml version="1.0" encoding="utf-8" standalone="no"?>
<!DOCTYPE svg PUBLIC "-//W3C//DTD SVG 1.1//EN"
  "http://www.w3.org/Graphics/SVG/1.1/DTD/svg11.dtd">
<!-- Created with matplotlib (http://matplotlib.org/) -->
<svg height="345pt" version="1.1" viewBox="0 0 460 345" width="460pt" xmlns="http://www.w3.org/2000/svg" xmlns:xlink="http://www.w3.org/1999/xlink">
 <defs>
  <style type="text/css">
*{stroke-linecap:butt;stroke-linejoin:round;}
  </style>
 </defs>
 <g id="figure_1">
  <g id="patch_1">
   <path d="M 0 345.6 
L 460.8 345.6 
L 460.8 0 
L 0 0 
z
" style="fill:#ffffff;"/>
  </g>
  <g id="axes_1">
   <g id="patch_2">
    <path d="M 363.782095 182.590305 
C 363.782095 165.074728 360.331909 147.729469 353.628988 131.547186 
C 346.926067 115.364904 337.100767 100.660303 324.715384 88.27492 
C 312.330001 75.889538 297.625401 66.064237 281.443118 59.361316 
C 265.260836 52.658396 247.915576 49.208209 230.4 49.208209 
C 212.884424 49.208209 195.539164 52.658396 179.356882 59.361316 
C 163.174599 66.064237 148.469999 75.889538 136.084616 88.27492 
C 123.699233 100.660303 113.873933 115.364904 107.171012 131.547186 
C 100.468091 147.729469 97.017905 165.074728 97.017905 182.590304 
C 97.017905 200.105881 100.468091 217.45114 107.171012 233.633423 
C 113.873933 249.815705 123.699233 264.520306 136.084616 276.905689 
C 148.469999 289.291071 163.174599 299.116372 179.356882 305.819293 
C 195.539164 312.522213 212.884424 315.9724 230.4 315.9724 
C 247.915576 315.9724 265.260836 312.522213 281.443118 305.819293 
C 297.625401 299.116372 312.330001 289.291071 324.715384 276.905689 
C 337.100767 264.520306 346.926067 249.815705 353.628988 233.633423 
C 360.331909 217.45114 363.782095 200.105881 363.782095 182.590305 
M 230.4 182.590305 
C 230.4 182.590305 230.4 182.590305 230.4 182.590305 
C 230.4 182.590305 230.4 182.590305 230.4 182.590305 
C 230.4 182.590305 230.4 182.590305 230.4 182.590305 
C 230.4 182.590305 230.4 182.590305 230.4 182.590305 
C 230.4 182.590305 230.4 182.590305 230.4 182.590305 
C 230.4 182.590305 230.4 182.590305 230.4 182.590305 
C 230.4 182.590305 230.4 182.590305 230.4 182.590305 
C 230.4 182.590305 230.4 182.590305 230.4 182.590305 
C 230.4 182.590305 230.4 182.590305 230.4 182.590305 
C 230.4 182.590305 230.4 182.590305 230.4 182.590305 
C 230.4 182.590305 230.4 182.590305 230.4 182.590305 
C 230.4 182.590305 230.4 182.590305 230.4 182.590305 
C 230.4 182.590305 230.4 182.590305 230.4 182.590305 
C 230.4 182.590305 230.4 182.590305 230.4 182.590305 
C 230.4 182.590305 230.4 182.590305 230.4 182.590305 
C 230.4 182.590305 230.4 182.590305 230.4 182.590305 
M 363.782095 182.590305 
z
" style="fill:#eaeaf2;"/>
   </g>
   <g id="matplotlib.axis_1">
    <g id="xtick_1">
     <g id="line2d_1">
      <path clip-path="url(#p94967146c1)" d="M 230.4 182.590304 
L 230.4 49.208209 
" style="fill:none;stroke:#ffffff;stroke-linecap:round;"/>
     </g>
     <g id="text_1">
      <!-- valence -->
      <defs>
       <path d="M 21 0 
L 1.265625 51.859375 
L 10.546875 51.859375 
L 21.6875 20.796875 
Q 23.484375 15.765625 25 10.359375 
Q 26.171875 14.453125 28.265625 20.21875 
L 39.796875 51.859375 
L 48.828125 51.859375 
L 29.203125 0 
z
" id="ArialMT-76"/>
       <path d="M 40.4375 6.390625 
Q 35.546875 2.25 31.03125 0.53125 
Q 26.515625 -1.171875 21.34375 -1.171875 
Q 12.796875 -1.171875 8.203125 3 
Q 3.609375 7.171875 3.609375 13.671875 
Q 3.609375 17.484375 5.34375 20.625 
Q 7.078125 23.78125 9.890625 25.6875 
Q 12.703125 27.59375 16.21875 28.5625 
Q 18.796875 29.25 24.03125 29.890625 
Q 34.671875 31.15625 39.703125 32.90625 
Q 39.75 34.71875 39.75 35.203125 
Q 39.75 40.578125 37.25 42.78125 
Q 33.890625 45.75 27.25 45.75 
Q 21.046875 45.75 18.09375 43.578125 
Q 15.140625 41.40625 13.71875 35.890625 
L 5.125 37.0625 
Q 6.296875 42.578125 8.984375 45.96875 
Q 11.671875 49.359375 16.75 51.1875 
Q 21.828125 53.03125 28.515625 53.03125 
Q 35.15625 53.03125 39.296875 51.46875 
Q 43.453125 49.90625 45.40625 47.53125 
Q 47.359375 45.171875 48.140625 41.546875 
Q 48.578125 39.3125 48.578125 33.453125 
L 48.578125 21.734375 
Q 48.578125 9.46875 49.140625 6.21875 
Q 49.703125 2.984375 51.375 0 
L 42.1875 0 
Q 40.828125 2.734375 40.4375 6.390625 
z
M 39.703125 26.03125 
Q 34.90625 24.078125 25.34375 22.703125 
Q 19.921875 21.921875 17.671875 20.9375 
Q 15.4375 19.96875 14.203125 18.09375 
Q 12.984375 16.21875 12.984375 13.921875 
Q 12.984375 10.40625 15.640625 8.0625 
Q 18.3125 5.71875 23.4375 5.71875 
Q 28.515625 5.71875 32.46875 7.9375 
Q 36.421875 10.15625 38.28125 14.015625 
Q 39.703125 17 39.703125 22.796875 
z
" id="ArialMT-61"/>
       <path d="M 6.390625 0 
L 6.390625 71.578125 
L 15.1875 71.578125 
L 15.1875 0 
z
" id="ArialMT-6c"/>
       <path d="M 42.09375 16.703125 
L 51.171875 15.578125 
Q 49.03125 7.625 43.21875 3.21875 
Q 37.40625 -1.171875 28.375 -1.171875 
Q 17 -1.171875 10.328125 5.828125 
Q 3.65625 12.84375 3.65625 25.484375 
Q 3.65625 38.578125 10.390625 45.796875 
Q 17.140625 53.03125 27.875 53.03125 
Q 38.28125 53.03125 44.875 45.953125 
Q 51.46875 38.875 51.46875 26.03125 
Q 51.46875 25.25 51.421875 23.6875 
L 12.75 23.6875 
Q 13.234375 15.140625 17.578125 10.59375 
Q 21.921875 6.0625 28.421875 6.0625 
Q 33.25 6.0625 36.671875 8.59375 
Q 40.09375 11.140625 42.09375 16.703125 
z
M 13.234375 30.90625 
L 42.1875 30.90625 
Q 41.609375 37.453125 38.875 40.71875 
Q 34.671875 45.796875 27.984375 45.796875 
Q 21.921875 45.796875 17.796875 41.75 
Q 13.671875 37.703125 13.234375 30.90625 
z
" id="ArialMT-65"/>
       <path d="M 6.59375 0 
L 6.59375 51.859375 
L 14.5 51.859375 
L 14.5 44.484375 
Q 20.21875 53.03125 31 53.03125 
Q 35.6875 53.03125 39.625 51.34375 
Q 43.5625 49.65625 45.515625 46.921875 
Q 47.46875 44.1875 48.25 40.4375 
Q 48.734375 37.984375 48.734375 31.890625 
L 48.734375 0 
L 39.9375 0 
L 39.9375 31.546875 
Q 39.9375 36.921875 38.90625 39.578125 
Q 37.890625 42.234375 35.28125 43.8125 
Q 32.671875 45.40625 29.15625 45.40625 
Q 23.53125 45.40625 19.453125 41.84375 
Q 15.375 38.28125 15.375 28.328125 
L 15.375 0 
z
" id="ArialMT-6e"/>
       <path d="M 40.4375 19 
L 49.078125 17.875 
Q 47.65625 8.9375 41.8125 3.875 
Q 35.984375 -1.171875 27.484375 -1.171875 
Q 16.84375 -1.171875 10.375 5.78125 
Q 3.90625 12.75 3.90625 25.734375 
Q 3.90625 34.125 6.6875 40.421875 
Q 9.46875 46.734375 15.15625 49.875 
Q 20.84375 53.03125 27.546875 53.03125 
Q 35.984375 53.03125 41.359375 48.75 
Q 46.734375 44.484375 48.25 36.625 
L 39.703125 35.296875 
Q 38.484375 40.53125 35.375 43.15625 
Q 32.28125 45.796875 27.875 45.796875 
Q 21.234375 45.796875 17.078125 41.03125 
Q 12.9375 36.28125 12.9375 25.984375 
Q 12.9375 15.53125 16.9375 10.796875 
Q 20.953125 6.0625 27.390625 6.0625 
Q 32.5625 6.0625 36.03125 9.234375 
Q 39.5 12.40625 40.4375 19 
z
" id="ArialMT-63"/>
      </defs>
      <g style="fill:#808080;" transform="translate(216.61375 37.276334)scale(0.08 -0.08)">
       <use xlink:href="#ArialMT-76"/>
       <use x="50" xlink:href="#ArialMT-61"/>
       <use x="105.615234" xlink:href="#ArialMT-6c"/>
       <use x="127.832031" xlink:href="#ArialMT-65"/>
       <use x="183.447266" xlink:href="#ArialMT-6e"/>
       <use x="239.0625" xlink:href="#ArialMT-63"/>
       <use x="289.0625" xlink:href="#ArialMT-65"/>
      </g>
     </g>
    </g>
    <g id="xtick_2">
     <g id="line2d_2">
      <path clip-path="url(#p94967146c1)" d="M 230.4 182.590304 
L 324.715384 88.27492 
" style="fill:none;stroke:#ffffff;stroke-linecap:round;"/>
     </g>
     <g id="text_2">
      <!-- energy -->
      <defs>
       <path d="M 6.5 0 
L 6.5 51.859375 
L 14.40625 51.859375 
L 14.40625 44 
Q 17.4375 49.515625 20 51.265625 
Q 22.5625 53.03125 25.640625 53.03125 
Q 30.078125 53.03125 34.671875 50.203125 
L 31.640625 42.046875 
Q 28.421875 43.953125 25.203125 43.953125 
Q 22.3125 43.953125 20.015625 42.21875 
Q 17.71875 40.484375 16.75 37.40625 
Q 15.28125 32.71875 15.28125 27.15625 
L 15.28125 0 
z
" id="ArialMT-72"/>
       <path d="M 4.984375 -4.296875 
L 13.53125 -5.5625 
Q 14.0625 -9.515625 16.5 -11.328125 
Q 19.78125 -13.765625 25.4375 -13.765625 
Q 31.546875 -13.765625 34.859375 -11.328125 
Q 38.1875 -8.890625 39.359375 -4.5 
Q 40.046875 -1.8125 39.984375 6.78125 
Q 34.234375 0 25.640625 0 
Q 14.9375 0 9.078125 7.71875 
Q 3.21875 15.4375 3.21875 26.21875 
Q 3.21875 33.640625 5.90625 39.90625 
Q 8.59375 46.1875 13.6875 49.609375 
Q 18.796875 53.03125 25.6875 53.03125 
Q 34.859375 53.03125 40.828125 45.609375 
L 40.828125 51.859375 
L 48.921875 51.859375 
L 48.921875 7.03125 
Q 48.921875 -5.078125 46.453125 -10.125 
Q 44 -15.1875 38.640625 -18.109375 
Q 33.296875 -21.046875 25.484375 -21.046875 
Q 16.21875 -21.046875 10.5 -16.875 
Q 4.78125 -12.703125 4.984375 -4.296875 
z
M 12.25 26.859375 
Q 12.25 16.65625 16.296875 11.96875 
Q 20.359375 7.28125 26.46875 7.28125 
Q 32.515625 7.28125 36.609375 11.9375 
Q 40.71875 16.609375 40.71875 26.5625 
Q 40.71875 36.078125 36.5 40.90625 
Q 32.28125 45.75 26.3125 45.75 
Q 20.453125 45.75 16.34375 40.984375 
Q 12.25 36.234375 12.25 26.859375 
z
" id="ArialMT-67"/>
       <path d="M 6.203125 -19.96875 
L 5.21875 -11.71875 
Q 8.109375 -12.5 10.25 -12.5 
Q 13.1875 -12.5 14.9375 -11.515625 
Q 16.703125 -10.546875 17.828125 -8.796875 
Q 18.65625 -7.46875 20.515625 -2.25 
Q 20.75 -1.515625 21.296875 -0.09375 
L 1.609375 51.859375 
L 11.078125 51.859375 
L 21.875 21.828125 
Q 23.96875 16.109375 25.640625 9.8125 
Q 27.15625 15.875 29.25 21.625 
L 40.328125 51.859375 
L 49.125 51.859375 
L 29.390625 -0.875 
Q 26.21875 -9.421875 24.46875 -12.640625 
Q 22.125 -17 19.09375 -19.015625 
Q 16.0625 -21.046875 11.859375 -21.046875 
Q 9.328125 -21.046875 6.203125 -19.96875 
z
" id="ArialMT-79"/>
      </defs>
      <g style="fill:#808080;" transform="translate(322.385504 80.3498)scale(0.08 -0.08)">
       <use xlink:href="#ArialMT-65"/>
       <use x="55.615234" xlink:href="#ArialMT-6e"/>
       <use x="111.230469" xlink:href="#ArialMT-65"/>
       <use x="166.845703" xlink:href="#ArialMT-72"/>
       <use x="200.146484" xlink:href="#ArialMT-67"/>
       <use x="255.761719" xlink:href="#ArialMT-79"/>
      </g>
     </g>
    </g>
    <g id="xtick_3">
     <g id="line2d_3">
      <path clip-path="url(#p94967146c1)" d="M 230.4 182.590304 
L 363.782095 182.590304 
" style="fill:none;stroke:#ffffff;stroke-linecap:round;"/>
     </g>
     <g id="text_3">
      <!-- acousticness -->
      <defs>
       <path d="M 3.328125 25.921875 
Q 3.328125 40.328125 11.328125 47.265625 
Q 18.015625 53.03125 27.640625 53.03125 
Q 38.328125 53.03125 45.109375 46.015625 
Q 51.90625 39.015625 51.90625 26.65625 
Q 51.90625 16.65625 48.90625 10.90625 
Q 45.90625 5.171875 40.15625 2 
Q 34.421875 -1.171875 27.640625 -1.171875 
Q 16.75 -1.171875 10.03125 5.8125 
Q 3.328125 12.796875 3.328125 25.921875 
z
M 12.359375 25.921875 
Q 12.359375 15.96875 16.703125 11.015625 
Q 21.046875 6.0625 27.640625 6.0625 
Q 34.1875 6.0625 38.53125 11.03125 
Q 42.875 16.015625 42.875 26.21875 
Q 42.875 35.84375 38.5 40.796875 
Q 34.125 45.75 27.640625 45.75 
Q 21.046875 45.75 16.703125 40.8125 
Q 12.359375 35.890625 12.359375 25.921875 
z
" id="ArialMT-6f"/>
       <path d="M 40.578125 0 
L 40.578125 7.625 
Q 34.515625 -1.171875 24.125 -1.171875 
Q 19.53125 -1.171875 15.546875 0.578125 
Q 11.578125 2.34375 9.640625 5 
Q 7.71875 7.671875 6.9375 11.53125 
Q 6.390625 14.109375 6.390625 19.734375 
L 6.390625 51.859375 
L 15.1875 51.859375 
L 15.1875 23.09375 
Q 15.1875 16.21875 15.71875 13.8125 
Q 16.546875 10.359375 19.234375 8.375 
Q 21.921875 6.390625 25.875 6.390625 
Q 29.828125 6.390625 33.296875 8.421875 
Q 36.765625 10.453125 38.203125 13.9375 
Q 39.65625 17.4375 39.65625 24.078125 
L 39.65625 51.859375 
L 48.4375 51.859375 
L 48.4375 0 
z
" id="ArialMT-75"/>
       <path d="M 3.078125 15.484375 
L 11.765625 16.84375 
Q 12.5 11.625 15.84375 8.84375 
Q 19.1875 6.0625 25.203125 6.0625 
Q 31.25 6.0625 34.171875 8.515625 
Q 37.109375 10.984375 37.109375 14.3125 
Q 37.109375 17.28125 34.515625 19 
Q 32.71875 20.171875 25.53125 21.96875 
Q 15.875 24.421875 12.140625 26.203125 
Q 8.40625 27.984375 6.46875 31.125 
Q 4.546875 34.28125 4.546875 38.09375 
Q 4.546875 41.546875 6.125 44.5 
Q 7.71875 47.46875 10.453125 49.421875 
Q 12.5 50.921875 16.03125 51.96875 
Q 19.578125 53.03125 23.640625 53.03125 
Q 29.734375 53.03125 34.34375 51.265625 
Q 38.96875 49.515625 41.15625 46.5 
Q 43.359375 43.5 44.1875 38.484375 
L 35.59375 37.3125 
Q 35.015625 41.3125 32.203125 43.546875 
Q 29.390625 45.796875 24.265625 45.796875 
Q 18.21875 45.796875 15.625 43.796875 
Q 13.03125 41.796875 13.03125 39.109375 
Q 13.03125 37.40625 14.109375 36.03125 
Q 15.1875 34.625 17.484375 33.6875 
Q 18.796875 33.203125 25.25 31.453125 
Q 34.578125 28.953125 38.25 27.359375 
Q 41.9375 25.78125 44.03125 22.75 
Q 46.140625 19.734375 46.140625 15.234375 
Q 46.140625 10.84375 43.578125 6.953125 
Q 41.015625 3.078125 36.171875 0.953125 
Q 31.34375 -1.171875 25.25 -1.171875 
Q 15.140625 -1.171875 9.84375 3.03125 
Q 4.546875 7.234375 3.078125 15.484375 
z
" id="ArialMT-73"/>
       <path d="M 25.78125 7.859375 
L 27.046875 0.09375 
Q 23.34375 -0.6875 20.40625 -0.6875 
Q 15.625 -0.6875 12.984375 0.828125 
Q 10.359375 2.34375 9.28125 4.8125 
Q 8.203125 7.28125 8.203125 15.1875 
L 8.203125 45.015625 
L 1.765625 45.015625 
L 1.765625 51.859375 
L 8.203125 51.859375 
L 8.203125 64.703125 
L 16.9375 69.96875 
L 16.9375 51.859375 
L 25.78125 51.859375 
L 25.78125 45.015625 
L 16.9375 45.015625 
L 16.9375 14.703125 
Q 16.9375 10.9375 17.40625 9.859375 
Q 17.875 8.796875 18.921875 8.15625 
Q 19.96875 7.515625 21.921875 7.515625 
Q 23.390625 7.515625 25.78125 7.859375 
z
" id="ArialMT-74"/>
       <path d="M 6.640625 61.46875 
L 6.640625 71.578125 
L 15.4375 71.578125 
L 15.4375 61.46875 
z
M 6.640625 0 
L 6.640625 51.859375 
L 15.4375 51.859375 
L 15.4375 0 
z
" id="ArialMT-69"/>
      </defs>
      <g style="fill:#808080;" transform="translate(354.66022 184.658429)scale(0.08 -0.08)">
       <use xlink:href="#ArialMT-61"/>
       <use x="55.615234" xlink:href="#ArialMT-63"/>
       <use x="105.615234" xlink:href="#ArialMT-6f"/>
       <use x="161.230469" xlink:href="#ArialMT-75"/>
       <use x="216.845703" xlink:href="#ArialMT-73"/>
       <use x="266.845703" xlink:href="#ArialMT-74"/>
       <use x="294.628906" xlink:href="#ArialMT-69"/>
       <use x="316.845703" xlink:href="#ArialMT-63"/>
       <use x="366.845703" xlink:href="#ArialMT-6e"/>
       <use x="422.460938" xlink:href="#ArialMT-65"/>
       <use x="478.076172" xlink:href="#ArialMT-73"/>
       <use x="528.076172" xlink:href="#ArialMT-73"/>
      </g>
     </g>
    </g>
    <g id="xtick_4">
     <g id="line2d_4">
      <path clip-path="url(#p94967146c1)" d="M 230.4 182.590304 
L 324.715384 276.905689 
" style="fill:none;stroke:#ffffff;stroke-linecap:round;"/>
     </g>
     <g id="text_4">
      <!-- speechiness -->
      <defs>
       <path d="M 6.59375 -19.875 
L 6.59375 51.859375 
L 14.59375 51.859375 
L 14.59375 45.125 
Q 17.4375 49.078125 21 51.046875 
Q 24.5625 53.03125 29.640625 53.03125 
Q 36.28125 53.03125 41.359375 49.609375 
Q 46.4375 46.1875 49.015625 39.953125 
Q 51.609375 33.734375 51.609375 26.3125 
Q 51.609375 18.359375 48.75 11.984375 
Q 45.90625 5.609375 40.453125 2.21875 
Q 35.015625 -1.171875 29 -1.171875 
Q 24.609375 -1.171875 21.109375 0.6875 
Q 17.625 2.546875 15.375 5.375 
L 15.375 -19.875 
z
M 14.546875 25.640625 
Q 14.546875 15.625 18.59375 10.84375 
Q 22.65625 6.0625 28.421875 6.0625 
Q 34.28125 6.0625 38.453125 11.015625 
Q 42.625 15.96875 42.625 26.375 
Q 42.625 36.28125 38.546875 41.203125 
Q 34.46875 46.140625 28.8125 46.140625 
Q 23.1875 46.140625 18.859375 40.890625 
Q 14.546875 35.640625 14.546875 25.640625 
z
" id="ArialMT-70"/>
       <path d="M 6.59375 0 
L 6.59375 71.578125 
L 15.375 71.578125 
L 15.375 45.90625 
Q 21.53125 53.03125 30.90625 53.03125 
Q 36.671875 53.03125 40.921875 50.75 
Q 45.171875 48.484375 47 44.484375 
Q 48.828125 40.484375 48.828125 32.859375 
L 48.828125 0 
L 40.046875 0 
L 40.046875 32.859375 
Q 40.046875 39.453125 37.1875 42.453125 
Q 34.328125 45.453125 29.109375 45.453125 
Q 25.203125 45.453125 21.75 43.421875 
Q 18.3125 41.40625 16.84375 37.9375 
Q 15.375 34.46875 15.375 28.375 
L 15.375 0 
z
" id="ArialMT-68"/>
      </defs>
      <g style="fill:#808080;" transform="translate(312.379879 288.873309)scale(0.08 -0.08)">
       <use xlink:href="#ArialMT-73"/>
       <use x="50" xlink:href="#ArialMT-70"/>
       <use x="105.615234" xlink:href="#ArialMT-65"/>
       <use x="161.230469" xlink:href="#ArialMT-65"/>
       <use x="216.845703" xlink:href="#ArialMT-63"/>
       <use x="266.845703" xlink:href="#ArialMT-68"/>
       <use x="322.460938" xlink:href="#ArialMT-69"/>
       <use x="344.677734" xlink:href="#ArialMT-6e"/>
       <use x="400.292969" xlink:href="#ArialMT-65"/>
       <use x="455.908203" xlink:href="#ArialMT-73"/>
       <use x="505.908203" xlink:href="#ArialMT-73"/>
      </g>
     </g>
    </g>
    <g id="xtick_5">
     <g id="line2d_5">
      <path clip-path="url(#p94967146c1)" d="M 230.4 182.590304 
L 230.4 315.9724 
" style="fill:none;stroke:#ffffff;stroke-linecap:round;"/>
     </g>
     <g id="text_5">
      <!-- danceability -->
      <defs>
       <path d="M 40.234375 0 
L 40.234375 6.546875 
Q 35.296875 -1.171875 25.734375 -1.171875 
Q 19.53125 -1.171875 14.328125 2.25 
Q 9.125 5.671875 6.265625 11.796875 
Q 3.421875 17.921875 3.421875 25.875 
Q 3.421875 33.640625 6 39.96875 
Q 8.59375 46.296875 13.765625 49.65625 
Q 18.953125 53.03125 25.34375 53.03125 
Q 30.03125 53.03125 33.6875 51.046875 
Q 37.359375 49.078125 39.65625 45.90625 
L 39.65625 71.578125 
L 48.390625 71.578125 
L 48.390625 0 
z
M 12.453125 25.875 
Q 12.453125 15.921875 16.640625 10.984375 
Q 20.84375 6.0625 26.5625 6.0625 
Q 32.328125 6.0625 36.34375 10.765625 
Q 40.375 15.484375 40.375 25.140625 
Q 40.375 35.796875 36.265625 40.765625 
Q 32.171875 45.75 26.171875 45.75 
Q 20.3125 45.75 16.375 40.96875 
Q 12.453125 36.1875 12.453125 25.875 
z
" id="ArialMT-64"/>
       <path d="M 14.703125 0 
L 6.546875 0 
L 6.546875 71.578125 
L 15.328125 71.578125 
L 15.328125 46.046875 
Q 20.90625 53.03125 29.546875 53.03125 
Q 34.328125 53.03125 38.59375 51.09375 
Q 42.875 49.171875 45.625 45.671875 
Q 48.390625 42.1875 49.953125 37.25 
Q 51.515625 32.328125 51.515625 26.703125 
Q 51.515625 13.375 44.921875 6.09375 
Q 38.328125 -1.171875 29.109375 -1.171875 
Q 19.921875 -1.171875 14.703125 6.5 
z
M 14.59375 26.3125 
Q 14.59375 17 17.140625 12.84375 
Q 21.296875 6.0625 28.375 6.0625 
Q 34.125 6.0625 38.328125 11.0625 
Q 42.53125 16.0625 42.53125 25.984375 
Q 42.53125 36.140625 38.5 40.96875 
Q 34.46875 45.796875 28.765625 45.796875 
Q 23 45.796875 18.796875 40.796875 
Q 14.59375 35.796875 14.59375 26.3125 
z
" id="ArialMT-62"/>
      </defs>
      <g style="fill:#808080;" transform="translate(209.27625 331.99365)scale(0.08 -0.08)">
       <use xlink:href="#ArialMT-64"/>
       <use x="55.615234" xlink:href="#ArialMT-61"/>
       <use x="111.230469" xlink:href="#ArialMT-6e"/>
       <use x="166.845703" xlink:href="#ArialMT-63"/>
       <use x="216.845703" xlink:href="#ArialMT-65"/>
       <use x="272.460938" xlink:href="#ArialMT-61"/>
       <use x="328.076172" xlink:href="#ArialMT-62"/>
       <use x="383.691406" xlink:href="#ArialMT-69"/>
       <use x="405.908203" xlink:href="#ArialMT-6c"/>
       <use x="428.125" xlink:href="#ArialMT-69"/>
       <use x="450.341797" xlink:href="#ArialMT-74"/>
       <use x="478.125" xlink:href="#ArialMT-79"/>
      </g>
     </g>
    </g>
    <g id="xtick_6">
     <g id="line2d_6">
      <path clip-path="url(#p94967146c1)" d="M 230.4 182.590304 
L 136.084616 276.905689 
" style="fill:none;stroke:#ffffff;stroke-linecap:round;"/>
     </g>
     <g id="text_6">
      <!-- instrumentalness -->
      <defs>
       <path d="M 6.59375 0 
L 6.59375 51.859375 
L 14.453125 51.859375 
L 14.453125 44.578125 
Q 16.890625 48.390625 20.9375 50.703125 
Q 25 53.03125 30.171875 53.03125 
Q 35.9375 53.03125 39.625 50.640625 
Q 43.3125 48.25 44.828125 43.953125 
Q 50.984375 53.03125 60.84375 53.03125 
Q 68.5625 53.03125 72.703125 48.75 
Q 76.859375 44.484375 76.859375 35.59375 
L 76.859375 0 
L 68.109375 0 
L 68.109375 32.671875 
Q 68.109375 37.9375 67.25 40.25 
Q 66.40625 42.578125 64.15625 43.984375 
Q 61.921875 45.40625 58.890625 45.40625 
Q 53.421875 45.40625 49.796875 41.765625 
Q 46.1875 38.140625 46.1875 30.125 
L 46.1875 0 
L 37.40625 0 
L 37.40625 33.6875 
Q 37.40625 39.546875 35.25 42.46875 
Q 33.109375 45.40625 28.21875 45.40625 
Q 24.515625 45.40625 21.359375 43.453125 
Q 18.21875 41.5 16.796875 37.734375 
Q 15.375 33.984375 15.375 26.90625 
L 15.375 0 
z
" id="ArialMT-6d"/>
      </defs>
      <g style="fill:#808080;" transform="translate(95.950746 288.873309)scale(0.08 -0.08)">
       <use xlink:href="#ArialMT-69"/>
       <use x="22.216797" xlink:href="#ArialMT-6e"/>
       <use x="77.832031" xlink:href="#ArialMT-73"/>
       <use x="127.832031" xlink:href="#ArialMT-74"/>
       <use x="155.615234" xlink:href="#ArialMT-72"/>
       <use x="188.916016" xlink:href="#ArialMT-75"/>
       <use x="244.53125" xlink:href="#ArialMT-6d"/>
       <use x="327.832031" xlink:href="#ArialMT-65"/>
       <use x="383.447266" xlink:href="#ArialMT-6e"/>
       <use x="439.0625" xlink:href="#ArialMT-74"/>
       <use x="466.845703" xlink:href="#ArialMT-61"/>
       <use x="522.460938" xlink:href="#ArialMT-6c"/>
       <use x="544.677734" xlink:href="#ArialMT-6e"/>
       <use x="600.292969" xlink:href="#ArialMT-65"/>
       <use x="655.908203" xlink:href="#ArialMT-73"/>
       <use x="705.908203" xlink:href="#ArialMT-73"/>
      </g>
     </g>
    </g>
    <g id="xtick_7">
     <g id="line2d_7">
      <path clip-path="url(#p94967146c1)" d="M 230.4 182.590304 
L 97.017905 182.590305 
" style="fill:none;stroke:#ffffff;stroke-linecap:round;"/>
     </g>
     <g id="text_7">
      <!-- liveness -->
      <g style="fill:#808080;" transform="translate(68.56728 184.65843)scale(0.08 -0.08)">
       <use xlink:href="#ArialMT-6c"/>
       <use x="22.216797" xlink:href="#ArialMT-69"/>
       <use x="44.433594" xlink:href="#ArialMT-76"/>
       <use x="94.433594" xlink:href="#ArialMT-65"/>
       <use x="150.048828" xlink:href="#ArialMT-6e"/>
       <use x="205.664062" xlink:href="#ArialMT-65"/>
       <use x="261.279297" xlink:href="#ArialMT-73"/>
       <use x="311.279297" xlink:href="#ArialMT-73"/>
      </g>
     </g>
    </g>
    <g id="xtick_8">
     <g id="line2d_8">
      <path clip-path="url(#p94967146c1)" d="M 230.4 182.590304 
L 136.084616 88.27492 
" style="fill:none;stroke:#ffffff;stroke-linecap:round;"/>
     </g>
     <g id="text_8">
      <!-- mode -->
      <g style="fill:#808080;" transform="translate(116.180121 80.44355)scale(0.08 -0.08)">
       <use xlink:href="#ArialMT-6d"/>
       <use x="83.300781" xlink:href="#ArialMT-6f"/>
       <use x="138.916016" xlink:href="#ArialMT-64"/>
       <use x="194.53125" xlink:href="#ArialMT-65"/>
      </g>
     </g>
    </g>
   </g>
   <g id="matplotlib.axis_2">
    <g id="ytick_1">
     <g id="line2d_9">
      <path clip-path="url(#p94967146c1)" d="M 230.4 155.913885 
L 233.188445 156.060022 
L 235.946339 156.496829 
L 238.643467 157.219522 
L 241.250277 158.220183 
L 243.73821 159.487848 
L 246.080006 161.008628 
L 248.250008 162.765862 
L 250.224443 164.740296 
L 251.981676 166.910299 
L 253.502457 169.252095 
L 254.770121 171.740027 
L 255.770782 174.346838 
L 256.493475 177.043965 
L 256.930283 179.801859 
L 257.076419 182.590304 
L 256.930283 185.37875 
L 256.493475 188.136644 
L 255.770782 190.833771 
L 254.770121 193.440582 
L 253.502457 195.928514 
L 251.981676 198.27031 
L 250.224443 200.440313 
L 248.250008 202.414747 
L 246.080006 204.171981 
L 243.73821 205.692761 
L 241.250277 206.960426 
L 238.643467 207.961087 
L 235.946339 208.68378 
L 233.188445 209.120587 
L 230.4 209.266724 
L 227.611555 209.120587 
L 224.853661 208.68378 
L 222.156533 207.961087 
L 219.549723 206.960426 
L 217.06179 205.692761 
L 214.719994 204.171981 
L 212.549992 202.414747 
L 210.575557 200.440313 
L 208.818324 198.27031 
L 207.297543 195.928514 
L 206.029879 193.440582 
L 205.029218 190.833771 
L 204.306525 188.136644 
L 203.869717 185.37875 
L 203.723581 182.590304 
L 203.869717 179.801859 
L 204.306525 177.043965 
L 205.029218 174.346838 
L 206.029879 171.740027 
L 207.297543 169.252095 
L 208.818324 166.910299 
L 210.575557 164.740296 
L 212.549992 162.765862 
L 214.719994 161.008628 
L 217.06179 159.487848 
L 219.549723 158.220183 
L 222.156533 157.219522 
L 224.853661 156.496829 
L 227.611555 156.060022 
L 230.4 155.913885 
L 230.4 155.913885 
" style="fill:none;stroke:#ffffff;stroke-linecap:round;"/>
     </g>
     <g id="text_9">
      <!-- 0.2 -->
      <defs>
       <path d="M 4.15625 35.296875 
Q 4.15625 48 6.765625 55.734375 
Q 9.375 63.484375 14.515625 67.671875 
Q 19.671875 71.875 27.484375 71.875 
Q 33.25 71.875 37.59375 69.546875 
Q 41.9375 67.234375 44.765625 62.859375 
Q 47.609375 58.5 49.21875 52.21875 
Q 50.828125 45.953125 50.828125 35.296875 
Q 50.828125 22.703125 48.234375 14.96875 
Q 45.65625 7.234375 40.5 3 
Q 35.359375 -1.21875 27.484375 -1.21875 
Q 17.140625 -1.21875 11.234375 6.203125 
Q 4.15625 15.140625 4.15625 35.296875 
z
M 13.1875 35.296875 
Q 13.1875 17.671875 17.3125 11.828125 
Q 21.4375 6 27.484375 6 
Q 33.546875 6 37.671875 11.859375 
Q 41.796875 17.71875 41.796875 35.296875 
Q 41.796875 52.984375 37.671875 58.78125 
Q 33.546875 64.59375 27.390625 64.59375 
Q 21.34375 64.59375 17.71875 59.46875 
Q 13.1875 52.9375 13.1875 35.296875 
z
" id="ArialMT-30"/>
       <path d="M 9.078125 0 
L 9.078125 10.015625 
L 19.09375 10.015625 
L 19.09375 0 
z
" id="ArialMT-2e"/>
       <path d="M 50.34375 8.453125 
L 50.34375 0 
L 3.03125 0 
Q 2.9375 3.171875 4.046875 6.109375 
Q 5.859375 10.9375 9.828125 15.625 
Q 13.8125 20.3125 21.34375 26.46875 
Q 33.015625 36.03125 37.109375 41.625 
Q 41.21875 47.21875 41.21875 52.203125 
Q 41.21875 57.421875 37.46875 61 
Q 33.734375 64.59375 27.734375 64.59375 
Q 21.390625 64.59375 17.578125 60.78125 
Q 13.765625 56.984375 13.71875 50.25 
L 4.6875 51.171875 
Q 5.609375 61.28125 11.65625 66.578125 
Q 17.71875 71.875 27.9375 71.875 
Q 38.234375 71.875 44.234375 66.15625 
Q 50.25 60.453125 50.25 52 
Q 50.25 47.703125 48.484375 43.546875 
Q 46.734375 39.40625 42.65625 34.8125 
Q 38.578125 30.21875 29.109375 22.21875 
Q 21.1875 15.578125 18.9375 13.203125 
Q 16.703125 10.84375 15.234375 8.453125 
z
" id="ArialMT-32"/>
      </defs>
      <g style="fill:#808080;" transform="translate(230.4 154.522635)scale(0.07 -0.07)">
       <use xlink:href="#ArialMT-30"/>
       <use x="55.615234" xlink:href="#ArialMT-2e"/>
       <use x="83.398438" xlink:href="#ArialMT-32"/>
      </g>
     </g>
    </g>
    <g id="ytick_2">
     <g id="line2d_10">
      <path clip-path="url(#p94967146c1)" d="M 230.4 129.237466 
L 234.121706 129.367431 
L 237.82528 129.756692 
L 241.492679 130.403354 
L 245.106035 131.304265 
L 248.647745 132.455036 
L 252.100554 133.850062 
L 255.44764 135.482544 
L 258.672697 137.344532 
L 261.760011 139.426952 
L 264.694543 141.719659 
L 267.461996 144.211485 
L 270.048886 146.890288 
L 272.44261 149.743017 
L 274.631507 152.755776 
L 276.604913 155.913885 
L 278.353213 159.20196 
L 279.86789 162.60398 
L 281.141564 166.103371 
L 282.168031 169.683085 
L 282.942289 173.325681 
L 283.460566 177.013414 
L 283.720337 180.728317 
L 283.720337 184.452292 
L 283.460566 188.167195 
L 282.942289 191.854928 
L 282.168031 195.497524 
L 281.141564 199.077238 
L 279.86789 202.576629 
L 278.353213 205.978649 
L 276.604913 209.266724 
L 274.631507 212.424833 
L 272.44261 215.437592 
L 270.048886 218.290321 
L 267.461996 220.969124 
L 264.694543 223.46095 
L 261.760011 225.753657 
L 258.672697 227.836077 
L 255.44764 229.698065 
L 252.100554 231.330547 
L 248.647745 232.725573 
L 245.106035 233.876344 
L 241.492679 234.777255 
L 237.82528 235.423917 
L 234.121706 235.813178 
L 230.4 235.943143 
L 226.678294 235.813178 
L 222.97472 235.423917 
L 219.307321 234.777255 
L 215.693965 233.876344 
L 212.152255 232.725573 
L 208.699446 231.330547 
L 205.35236 229.698065 
L 202.127303 227.836077 
L 199.039989 225.753657 
L 196.105457 223.46095 
L 193.338004 220.969124 
L 190.751114 218.290321 
L 188.35739 215.437592 
L 186.168493 212.424833 
L 184.195087 209.266724 
L 182.446787 205.978649 
L 180.93211 202.576629 
L 179.658436 199.077238 
L 178.631969 195.497524 
L 177.857711 191.854928 
L 177.339434 188.167195 
L 177.079663 184.452292 
L 177.079663 180.728317 
L 177.339434 177.013414 
L 177.857711 173.325681 
L 178.631969 169.683085 
L 179.658436 166.103371 
L 180.93211 162.60398 
L 182.446787 159.20196 
L 184.195087 155.913885 
L 186.168493 152.755776 
L 188.35739 149.743017 
L 190.751114 146.890288 
L 193.338004 144.211485 
L 196.105457 141.719659 
L 199.039989 139.426952 
L 202.127303 137.344532 
L 205.35236 135.482544 
L 208.699446 133.850062 
L 212.152255 132.455036 
L 215.693965 131.304265 
L 219.307321 130.403354 
L 222.97472 129.756692 
L 226.678294 129.367431 
L 230.4 129.237466 
L 230.4 129.237466 
" style="fill:none;stroke:#ffffff;stroke-linecap:round;"/>
     </g>
     <g id="text_10">
      <!-- 0.4 -->
      <defs>
       <path d="M 32.328125 0 
L 32.328125 17.140625 
L 1.265625 17.140625 
L 1.265625 25.203125 
L 33.9375 71.578125 
L 41.109375 71.578125 
L 41.109375 25.203125 
L 50.78125 25.203125 
L 50.78125 17.140625 
L 41.109375 17.140625 
L 41.109375 0 
z
M 32.328125 25.203125 
L 32.328125 57.46875 
L 9.90625 25.203125 
z
" id="ArialMT-34"/>
      </defs>
      <g style="fill:#808080;" transform="translate(230.4 127.846216)scale(0.07 -0.07)">
       <use xlink:href="#ArialMT-30"/>
       <use x="55.615234" xlink:href="#ArialMT-2e"/>
       <use x="83.398438" xlink:href="#ArialMT-34"/>
      </g>
     </g>
    </g>
    <g id="ytick_3">
     <g id="line2d_11">
      <path clip-path="url(#p94967146c1)" d="M 230.4 102.561047 
L 235.982559 102.755994 
L 241.53792 103.339886 
L 247.039018 104.309878 
L 252.459053 105.661245 
L 257.771618 107.387402 
L 262.950831 109.47994 
L 267.97146 111.928664 
L 272.809045 114.721645 
L 277.440017 117.845275 
L 281.841815 121.284337 
L 285.992993 125.022075 
L 289.873328 129.040279 
L 293.463915 133.319374 
L 296.747261 137.838512 
L 299.70737 142.575676 
L 302.32982 147.507787 
L 304.601835 152.610817 
L 306.512347 157.859904 
L 308.052046 163.229475 
L 309.213433 168.69337 
L 309.990849 174.224969 
L 310.380506 179.797324 
L 310.380506 185.383285 
L 309.990849 190.95564 
L 309.213433 196.487239 
L 308.052046 201.951134 
L 306.512347 207.320705 
L 304.601835 212.569792 
L 302.32982 217.672822 
L 299.70737 222.604933 
L 296.747261 227.342097 
L 293.463915 231.861235 
L 289.873328 236.14033 
L 285.992993 240.158534 
L 281.841815 243.896272 
L 277.440017 247.335334 
L 272.809045 250.458964 
L 267.97146 253.251945 
L 262.950831 255.700669 
L 257.771618 257.793207 
L 252.459053 259.519364 
L 247.039018 260.870731 
L 241.53792 261.840723 
L 235.982559 262.424615 
L 230.4 262.619562 
L 224.817441 262.424615 
L 219.26208 261.840723 
L 213.760982 260.870731 
L 208.340947 259.519364 
L 203.028382 257.793207 
L 197.849169 255.700669 
L 192.82854 253.251945 
L 187.990955 250.458964 
L 183.359983 247.335334 
L 178.958185 243.896272 
L 174.807007 240.158534 
L 170.926672 236.14033 
L 167.336085 231.861235 
L 164.052739 227.342097 
L 161.09263 222.604933 
L 158.47018 217.672822 
L 156.198165 212.569792 
L 154.287653 207.320705 
L 152.747954 201.951134 
L 151.586567 196.487239 
L 150.809151 190.95564 
L 150.419494 185.383285 
L 150.419494 179.797324 
L 150.809151 174.224969 
L 151.586567 168.69337 
L 152.747954 163.229475 
L 154.287653 157.859904 
L 156.198165 152.610817 
L 158.47018 147.507787 
L 161.09263 142.575676 
L 164.052739 137.838512 
L 167.336085 133.319374 
L 170.926672 129.040279 
L 174.807007 125.022075 
L 178.958185 121.284337 
L 183.359983 117.845275 
L 187.990955 114.721645 
L 192.82854 111.928664 
L 197.849169 109.47994 
L 203.028382 107.387402 
L 208.340947 105.661245 
L 213.760982 104.309878 
L 219.26208 103.339886 
L 224.817441 102.755994 
L 230.4 102.561047 
L 230.4 102.561047 
" style="fill:none;stroke:#ffffff;stroke-linecap:round;"/>
     </g>
     <g id="text_11">
      <!-- 0.6 -->
      <defs>
       <path d="M 49.75 54.046875 
L 41.015625 53.375 
Q 39.84375 58.546875 37.703125 60.890625 
Q 34.125 64.65625 28.90625 64.65625 
Q 24.703125 64.65625 21.53125 62.3125 
Q 17.390625 59.28125 14.984375 53.46875 
Q 12.59375 47.65625 12.5 36.921875 
Q 15.671875 41.75 20.265625 44.09375 
Q 24.859375 46.4375 29.890625 46.4375 
Q 38.671875 46.4375 44.84375 39.96875 
Q 51.03125 33.5 51.03125 23.25 
Q 51.03125 16.5 48.125 10.71875 
Q 45.21875 4.9375 40.140625 1.859375 
Q 35.0625 -1.21875 28.609375 -1.21875 
Q 17.625 -1.21875 10.6875 6.859375 
Q 3.765625 14.9375 3.765625 33.5 
Q 3.765625 54.25 11.421875 63.671875 
Q 18.109375 71.875 29.4375 71.875 
Q 37.890625 71.875 43.28125 67.140625 
Q 48.6875 62.40625 49.75 54.046875 
z
M 13.875 23.1875 
Q 13.875 18.65625 15.796875 14.5 
Q 17.71875 10.359375 21.1875 8.171875 
Q 24.65625 6 28.46875 6 
Q 34.03125 6 38.03125 10.484375 
Q 42.046875 14.984375 42.046875 22.703125 
Q 42.046875 30.125 38.078125 34.390625 
Q 34.125 38.671875 28.125 38.671875 
Q 22.171875 38.671875 18.015625 34.390625 
Q 13.875 30.125 13.875 23.1875 
z
" id="ArialMT-36"/>
      </defs>
      <g style="fill:#808080;" transform="translate(230.4 101.169797)scale(0.07 -0.07)">
       <use xlink:href="#ArialMT-30"/>
       <use x="55.615234" xlink:href="#ArialMT-2e"/>
       <use x="83.398438" xlink:href="#ArialMT-36"/>
      </g>
     </g>
    </g>
    <g id="ytick_4">
     <g id="line2d_12">
      <path clip-path="url(#p94967146c1)" d="M 230.4 75.884628 
L 234.123974 75.94963 
L 237.843412 76.144558 
L 241.55378 76.469173 
L 245.25056 76.92308 
L 248.929246 77.505727 
L 252.585358 78.216403 
L 256.21444 79.054243 
L 259.81207 80.018225 
L 263.373867 81.107176 
L 266.895491 82.319768 
L 270.37265 83.654524 
L 273.801109 85.109819 
L 277.17669 86.683878 
L 280.495281 88.374784 
L 283.752838 90.180478 
L 286.945394 92.098759 
L 290.069057 94.12729 
L 293.120023 96.263599 
L 296.094574 98.505084 
L 298.989087 100.849014 
L 301.800034 103.292533 
L 304.523991 105.832665 
L 307.15764 108.466313 
L 309.697771 111.190271 
L 312.14129 114.001218 
L 314.48522 116.89573 
L 316.726706 119.870282 
L 318.863015 122.921247 
L 320.891546 126.044911 
L 322.809826 129.237466 
L 324.61552 132.495024 
L 326.306427 135.813615 
L 327.880486 139.189196 
L 329.33578 142.617655 
L 330.670537 146.094814 
L 331.883129 149.616437 
L 332.972079 153.178234 
L 333.936062 156.775865 
L 334.773901 160.404947 
L 335.484577 164.061058 
L 336.067224 167.739745 
L 336.521132 171.436524 
L 336.845747 175.146893 
L 337.040674 178.86633 
L 337.105676 182.590304 
L 337.040674 186.314279 
L 336.845747 190.033716 
L 336.521132 193.744085 
L 336.067224 197.440864 
L 335.484577 201.119551 
L 334.773901 204.775662 
L 333.936062 208.404744 
L 332.972079 212.002375 
L 331.883129 215.564172 
L 330.670537 219.085795 
L 329.33578 222.562954 
L 327.880486 225.991413 
L 326.306427 229.366994 
L 324.61552 232.685585 
L 322.809826 235.943143 
L 320.891546 239.135698 
L 318.863015 242.259362 
L 316.726706 245.310327 
L 314.48522 248.284879 
L 312.14129 251.179391 
L 309.697771 253.990338 
L 307.15764 256.714296 
L 304.523991 259.347944 
L 301.800034 261.888076 
L 298.989087 264.331595 
L 296.094574 266.675525 
L 293.120023 268.91701 
L 290.069057 271.053319 
L 286.945394 273.08185 
L 283.752838 275.000131 
L 280.495281 276.805825 
L 277.17669 278.496731 
L 273.801109 280.07079 
L 270.37265 281.526085 
L 266.895491 282.860841 
L 263.373867 284.073433 
L 259.81207 285.162384 
L 256.21444 286.126366 
L 252.585358 286.964206 
L 248.929246 287.674882 
L 245.25056 288.257529 
L 241.55378 288.711436 
L 237.843412 289.036051 
L 234.123974 289.230979 
L 230.4 289.295981 
L 226.676026 289.230979 
L 222.956588 289.036051 
L 219.24622 288.711436 
L 215.54944 288.257529 
L 211.870754 287.674882 
L 208.214642 286.964206 
L 204.58556 286.126366 
L 200.98793 285.162384 
L 197.426133 284.073433 
L 193.904509 282.860841 
L 190.42735 281.526085 
L 186.998891 280.07079 
L 183.62331 278.496731 
L 180.304719 276.805825 
L 177.047162 275.000131 
L 173.854606 273.08185 
L 170.730943 271.053319 
L 167.679977 268.91701 
L 164.705426 266.675525 
L 161.810913 264.331595 
L 158.999966 261.888076 
L 156.276009 259.347944 
L 153.64236 256.714296 
L 151.102229 253.990338 
L 148.65871 251.179391 
L 146.31478 248.284879 
L 144.073294 245.310327 
L 141.936985 242.259362 
L 139.908454 239.135698 
L 137.990174 235.943143 
L 136.18448 232.685585 
L 134.493573 229.366994 
L 132.919514 225.991413 
L 131.46422 222.562954 
L 130.129463 219.085795 
L 128.916871 215.564172 
L 127.827921 212.002375 
L 126.863938 208.404744 
L 126.026099 204.775662 
L 125.315423 201.119551 
L 124.732776 197.440864 
L 124.278868 193.744085 
L 123.954253 190.033716 
L 123.759326 186.314279 
L 123.694324 182.590304 
L 123.759326 178.86633 
L 123.954253 175.146893 
L 124.278868 171.436524 
L 124.732776 167.739745 
L 125.315423 164.061058 
L 126.026099 160.404947 
L 126.863938 156.775865 
L 127.827921 153.178234 
L 128.916871 149.616437 
L 130.129463 146.094814 
L 131.46422 142.617655 
L 132.919514 139.189196 
L 134.493573 135.813615 
L 136.18448 132.495024 
L 137.990174 129.237466 
L 139.908454 126.044911 
L 141.936985 122.921247 
L 144.073294 119.870282 
L 146.31478 116.89573 
L 148.65871 114.001218 
L 151.102229 111.190271 
L 153.64236 108.466313 
L 156.276009 105.832665 
L 158.999966 103.292533 
L 161.810913 100.849014 
L 164.705426 98.505084 
L 167.679977 96.263599 
L 170.730943 94.12729 
L 173.854606 92.098759 
L 177.047162 90.180478 
L 180.304719 88.374784 
L 183.62331 86.683878 
L 186.998891 85.109819 
L 190.42735 83.654524 
L 193.904509 82.319768 
L 197.426133 81.107176 
L 200.98793 80.018225 
L 204.58556 79.054243 
L 208.214642 78.216403 
L 211.870754 77.505727 
L 215.54944 76.92308 
L 219.24622 76.469173 
L 222.956588 76.144558 
L 226.676026 75.94963 
L 230.4 75.884628 
L 230.4 75.884628 
" style="fill:none;stroke:#ffffff;stroke-linecap:round;"/>
     </g>
     <g id="text_12">
      <!-- 0.8 -->
      <defs>
       <path d="M 17.671875 38.8125 
Q 12.203125 40.828125 9.5625 44.53125 
Q 6.9375 48.25 6.9375 53.421875 
Q 6.9375 61.234375 12.546875 66.546875 
Q 18.171875 71.875 27.484375 71.875 
Q 36.859375 71.875 42.578125 66.421875 
Q 48.296875 60.984375 48.296875 53.171875 
Q 48.296875 48.1875 45.671875 44.5 
Q 43.0625 40.828125 37.75 38.8125 
Q 44.34375 36.671875 47.78125 31.875 
Q 51.21875 27.09375 51.21875 20.453125 
Q 51.21875 11.28125 44.71875 5.03125 
Q 38.234375 -1.21875 27.640625 -1.21875 
Q 17.046875 -1.21875 10.546875 5.046875 
Q 4.046875 11.328125 4.046875 20.703125 
Q 4.046875 27.6875 7.59375 32.390625 
Q 11.140625 37.109375 17.671875 38.8125 
z
M 15.921875 53.71875 
Q 15.921875 48.640625 19.1875 45.40625 
Q 22.46875 42.1875 27.6875 42.1875 
Q 32.765625 42.1875 36.015625 45.375 
Q 39.265625 48.578125 39.265625 53.21875 
Q 39.265625 58.0625 35.90625 61.359375 
Q 32.5625 64.65625 27.59375 64.65625 
Q 22.5625 64.65625 19.234375 61.421875 
Q 15.921875 58.203125 15.921875 53.71875 
z
M 13.09375 20.65625 
Q 13.09375 16.890625 14.875 13.375 
Q 16.65625 9.859375 20.171875 7.921875 
Q 23.6875 6 27.734375 6 
Q 34.03125 6 38.125 10.046875 
Q 42.234375 14.109375 42.234375 20.359375 
Q 42.234375 26.703125 38.015625 30.859375 
Q 33.796875 35.015625 27.4375 35.015625 
Q 21.234375 35.015625 17.15625 30.90625 
Q 13.09375 26.8125 13.09375 20.65625 
z
" id="ArialMT-38"/>
      </defs>
      <g style="fill:#808080;" transform="translate(230.4 74.493378)scale(0.07 -0.07)">
       <use xlink:href="#ArialMT-30"/>
       <use x="55.615234" xlink:href="#ArialMT-2e"/>
       <use x="83.398438" xlink:href="#ArialMT-38"/>
      </g>
     </g>
    </g>
   </g>
   <g id="patch_3">
    <path clip-path="url(#p94967146c1)" d="M 230.4 130.31405 
L 289.394273 123.596032 
L 266.656112 182.590304 
L 238.406702 190.597007 
L 230.4 252.306268 
L 216.431218 196.559087 
L 205.509948 182.590304 
L 173.9994 126.189705 
z
" style="fill:#808080;opacity:0.5;stroke:#808080;stroke-linejoin:miter;stroke-width:0.3;"/>
   </g>
   <g id="patch_4">
    <path clip-path="url(#p94967146c1)" d="M 230.4 137.640538 
L 280.575784 132.41452 
L 289.888415 182.590304 
L 238.322492 190.512797 
L 230.4 271.022634 
L 212.197131 200.793174 
L 207.725044 182.590304 
L 167.491639 119.681943 
z
" style="fill:#ff9f9a;opacity:0.5;stroke:#ff9f9a;stroke-linejoin:miter;stroke-width:0.3;"/>
   </g>
   <g id="line2d_13">
    <path clip-path="url(#p94967146c1)" d="M 230.4 130.31405 
L 289.394273 123.596032 
L 266.656112 182.590304 
L 238.406702 190.597007 
L 230.4 252.306268 
L 216.431218 196.559087 
L 205.509948 182.590304 
L 173.9994 126.189705 
L 230.4 130.31405 
" style="fill:none;stroke:#808080;stroke-linecap:round;"/>
   </g>
   <g id="line2d_14">
    <path clip-path="url(#p94967146c1)" d="M 230.4 137.640538 
L 280.575784 132.41452 
L 289.888415 182.590304 
L 238.322492 190.512797 
L 230.4 271.022634 
L 212.197131 200.793174 
L 207.725044 182.590304 
L 167.491639 119.681943 
L 230.4 137.640538 
" style="fill:none;stroke:#ff9f9a;stroke-linecap:round;"/>
   </g>
   <g id="patch_5">
    <path d="M 230.4 49.208209 
C 212.884424 49.208209 195.539164 52.658396 179.356882 59.361316 
C 163.174599 66.064237 148.469999 75.889538 136.084616 88.27492 
C 123.699233 100.660303 113.873933 115.364904 107.171012 131.547186 
C 100.468091 147.729469 97.017905 165.074728 97.017905 182.590305 
C 97.017905 200.105881 100.468091 217.45114 107.171012 233.633423 
C 113.873933 249.815705 123.699233 264.520306 136.084616 276.905689 
C 148.469999 289.291071 163.174599 299.116372 179.356882 305.819293 
C 195.539164 312.522213 212.884424 315.9724 230.4 315.9724 
C 247.915576 315.9724 265.260836 312.522213 281.443118 305.819293 
C 297.625401 299.116372 312.330001 289.291071 324.715384 276.905689 
C 337.100767 264.520306 346.926067 249.815705 353.628988 233.633423 
C 360.331909 217.45114 363.782095 200.105881 363.782095 182.590304 
C 363.782095 165.074728 360.331909 147.729469 353.628988 131.547186 
C 346.926067 115.364904 337.100767 100.660303 324.715384 88.27492 
C 312.330001 75.889538 297.625401 66.064237 281.443118 59.361316 
C 265.260836 52.658396 247.915576 49.208209 230.4 49.208209 
" style="fill:none;"/>
   </g>
   <g id="text_13">
    <!-- february - woofer -->
    <defs>
     <path d="M 1.171875 51.859375 
L 8.796875 51.859375 
L 8.796875 55.765625 
Q 8.796875 62.3125 10.1875 65.53125 
Q 11.578125 68.75 15.3125 70.765625 
Q 19.046875 72.796875 24.75 72.796875 
Q 30.609375 72.796875 36.234375 71.046875 
L 34.375 61.46875 
Q 31.109375 62.25 28.078125 62.25 
Q 25.09375 62.25 23.796875 60.859375 
Q 22.515625 59.46875 22.515625 55.515625 
L 22.515625 51.859375 
L 32.765625 51.859375 
L 32.765625 41.0625 
L 22.515625 41.0625 
L 22.515625 0 
L 8.796875 0 
L 8.796875 41.0625 
L 1.171875 41.0625 
z
" id="Arial-BoldMT-66"/>
     <path d="M 37.203125 16.5 
L 50.875 14.203125 
Q 48.25 6.6875 42.546875 2.75 
Q 36.859375 -1.171875 28.328125 -1.171875 
Q 14.796875 -1.171875 8.296875 7.671875 
Q 3.171875 14.75 3.171875 25.53125 
Q 3.171875 38.421875 9.90625 45.71875 
Q 16.65625 53.03125 26.953125 53.03125 
Q 38.53125 53.03125 45.21875 45.390625 
Q 51.90625 37.75 51.609375 21.96875 
L 17.234375 21.96875 
Q 17.390625 15.875 20.5625 12.46875 
Q 23.734375 9.078125 28.46875 9.078125 
Q 31.6875 9.078125 33.875 10.828125 
Q 36.078125 12.59375 37.203125 16.5 
z
M 37.984375 30.375 
Q 37.84375 36.328125 34.90625 39.421875 
Q 31.984375 42.53125 27.78125 42.53125 
Q 23.296875 42.53125 20.359375 39.265625 
Q 17.4375 35.984375 17.484375 30.375 
z
" id="Arial-BoldMT-65"/>
     <path d="M 6.59375 0 
L 6.59375 71.578125 
L 20.3125 71.578125 
L 20.3125 45.796875 
Q 26.65625 53.03125 35.359375 53.03125 
Q 44.828125 53.03125 51.03125 46.171875 
Q 57.234375 39.3125 57.234375 26.46875 
Q 57.234375 13.1875 50.90625 6 
Q 44.578125 -1.171875 35.546875 -1.171875 
Q 31.109375 -1.171875 26.78125 1.046875 
Q 22.46875 3.265625 19.34375 7.625 
L 19.34375 0 
z
M 20.21875 27.046875 
Q 20.21875 19 22.75 15.140625 
Q 26.3125 9.671875 32.234375 9.671875 
Q 36.765625 9.671875 39.96875 13.546875 
Q 43.171875 17.4375 43.171875 25.78125 
Q 43.171875 34.671875 39.9375 38.59375 
Q 36.71875 42.53125 31.6875 42.53125 
Q 26.765625 42.53125 23.484375 38.6875 
Q 20.21875 34.859375 20.21875 27.046875 
z
" id="Arial-BoldMT-62"/>
     <path d="M 20.3125 0 
L 6.59375 0 
L 6.59375 51.859375 
L 19.34375 51.859375 
L 19.34375 44.484375 
Q 22.609375 49.703125 25.21875 51.359375 
Q 27.828125 53.03125 31.15625 53.03125 
Q 35.84375 53.03125 40.1875 50.4375 
L 35.9375 38.484375 
Q 32.46875 40.71875 29.5 40.71875 
Q 26.609375 40.71875 24.609375 39.125 
Q 22.609375 37.546875 21.453125 33.390625 
Q 20.3125 29.25 20.3125 16.015625 
z
" id="Arial-BoldMT-72"/>
     <path d="M 41.3125 0 
L 41.3125 7.765625 
Q 38.484375 3.609375 33.859375 1.21875 
Q 29.25 -1.171875 24.125 -1.171875 
Q 18.890625 -1.171875 14.734375 1.125 
Q 10.59375 3.421875 8.734375 7.5625 
Q 6.890625 11.71875 6.890625 19.046875 
L 6.890625 51.859375 
L 20.609375 51.859375 
L 20.609375 28.03125 
Q 20.609375 17.09375 21.359375 14.625 
Q 22.125 12.15625 24.125 10.71875 
Q 26.125 9.28125 29.203125 9.28125 
Q 32.71875 9.28125 35.5 11.203125 
Q 38.28125 13.140625 39.296875 15.984375 
Q 40.328125 18.84375 40.328125 29.984375 
L 40.328125 51.859375 
L 54.046875 51.859375 
L 54.046875 0 
z
" id="Arial-BoldMT-75"/>
     <path d="M 17.4375 36.03125 
L 4.984375 38.28125 
Q 7.078125 45.796875 12.203125 49.40625 
Q 17.328125 53.03125 27.4375 53.03125 
Q 36.625 53.03125 41.109375 50.859375 
Q 45.609375 48.6875 47.4375 45.34375 
Q 49.265625 42 49.265625 33.0625 
L 49.125 17.046875 
Q 49.125 10.203125 49.78125 6.953125 
Q 50.4375 3.71875 52.25 0 
L 38.671875 0 
Q 38.140625 1.375 37.359375 4.046875 
Q 37.015625 5.28125 36.859375 5.671875 
Q 33.34375 2.25 29.34375 0.53125 
Q 25.34375 -1.171875 20.796875 -1.171875 
Q 12.796875 -1.171875 8.171875 3.171875 
Q 3.5625 7.515625 3.5625 14.15625 
Q 3.5625 18.5625 5.65625 22 
Q 7.765625 25.4375 11.546875 27.265625 
Q 15.328125 29.109375 22.46875 30.46875 
Q 32.078125 32.28125 35.796875 33.84375 
L 35.796875 35.203125 
Q 35.796875 39.15625 33.84375 40.84375 
Q 31.890625 42.53125 26.46875 42.53125 
Q 22.796875 42.53125 20.75 41.09375 
Q 18.703125 39.65625 17.4375 36.03125 
z
M 35.796875 24.90625 
Q 33.15625 24.03125 27.4375 22.796875 
Q 21.734375 21.578125 19.96875 20.40625 
Q 17.28125 18.5 17.28125 15.578125 
Q 17.28125 12.703125 19.421875 10.59375 
Q 21.578125 8.5 24.90625 8.5 
Q 28.609375 8.5 31.984375 10.9375 
Q 34.46875 12.796875 35.25 15.484375 
Q 35.796875 17.234375 35.796875 22.171875 
z
" id="Arial-BoldMT-61"/>
     <path d="M 0.6875 51.859375 
L 15.28125 51.859375 
L 27.6875 15.046875 
L 39.796875 51.859375 
L 54 51.859375 
L 35.6875 1.953125 
L 32.421875 -7.078125 
Q 30.609375 -11.625 28.96875 -14.015625 
Q 27.34375 -16.40625 25.21875 -17.890625 
Q 23.09375 -19.390625 19.984375 -20.21875 
Q 16.890625 -21.046875 12.984375 -21.046875 
Q 9.03125 -21.046875 5.21875 -20.21875 
L 4 -9.46875 
Q 7.234375 -10.109375 9.8125 -10.109375 
Q 14.59375 -10.109375 16.890625 -7.296875 
Q 19.1875 -4.5 20.40625 -0.140625 
z
" id="Arial-BoldMT-79"/>
     <path id="Arial-BoldMT-20"/>
     <path d="M 5.609375 19.09375 
L 5.609375 32.8125 
L 32.5625 32.8125 
L 32.5625 19.09375 
z
" id="Arial-BoldMT-2d"/>
     <path d="M 16.84375 0 
L 0.4375 51.859375 
L 13.765625 51.859375 
L 23.484375 17.875 
L 32.421875 51.859375 
L 45.65625 51.859375 
L 54.296875 17.875 
L 64.203125 51.859375 
L 77.734375 51.859375 
L 61.078125 0 
L 47.90625 0 
L 38.96875 33.34375 
L 30.171875 0 
z
" id="Arial-BoldMT-77"/>
     <path d="M 4 26.65625 
Q 4 33.5 7.375 39.890625 
Q 10.75 46.296875 16.921875 49.65625 
Q 23.09375 53.03125 30.71875 53.03125 
Q 42.484375 53.03125 50 45.390625 
Q 57.515625 37.75 57.515625 26.078125 
Q 57.515625 14.3125 49.921875 6.5625 
Q 42.328125 -1.171875 30.8125 -1.171875 
Q 23.6875 -1.171875 17.21875 2.046875 
Q 10.75 5.28125 7.375 11.5 
Q 4 17.71875 4 26.65625 
z
M 18.0625 25.921875 
Q 18.0625 18.21875 21.71875 14.109375 
Q 25.390625 10.015625 30.765625 10.015625 
Q 36.140625 10.015625 39.765625 14.109375 
Q 43.40625 18.21875 43.40625 26.03125 
Q 43.40625 33.640625 39.765625 37.734375 
Q 36.140625 41.84375 30.765625 41.84375 
Q 25.390625 41.84375 21.71875 37.734375 
Q 18.0625 33.640625 18.0625 25.921875 
z
" id="Arial-BoldMT-6f"/>
    </defs>
    <g style="fill:#ff9f9a;" transform="translate(173.2275 21.867074)scale(0.14 -0.14)">
     <use xlink:href="#Arial-BoldMT-66"/>
     <use x="33.300781" xlink:href="#Arial-BoldMT-65"/>
     <use x="88.916016" xlink:href="#Arial-BoldMT-62"/>
     <use x="150" xlink:href="#Arial-BoldMT-72"/>
     <use x="188.916016" xlink:href="#Arial-BoldMT-75"/>
     <use x="250" xlink:href="#Arial-BoldMT-61"/>
     <use x="305.615234" xlink:href="#Arial-BoldMT-72"/>
     <use x="344.53125" xlink:href="#Arial-BoldMT-79"/>
     <use x="400.146484" xlink:href="#Arial-BoldMT-20"/>
     <use x="427.929688" xlink:href="#Arial-BoldMT-2d"/>
     <use x="461.230469" xlink:href="#Arial-BoldMT-20"/>
     <use x="489.013672" xlink:href="#Arial-BoldMT-77"/>
     <use x="566.796875" xlink:href="#Arial-BoldMT-6f"/>
     <use x="627.880859" xlink:href="#Arial-BoldMT-6f"/>
     <use x="688.964844" xlink:href="#Arial-BoldMT-66"/>
     <use x="722.265625" xlink:href="#Arial-BoldMT-65"/>
     <use x="777.880859" xlink:href="#Arial-BoldMT-72"/>
    </g>
   </g>
  </g>
 </g>
 <defs>
  <clipPath id="p94967146c1">
   <path d="M 363.782095 182.590305 
C 363.782095 165.074728 360.331909 147.729469 353.628988 131.547186 
C 346.926067 115.364904 337.100767 100.660303 324.715384 88.27492 
C 312.330001 75.889538 297.625401 66.064237 281.443118 59.361316 
C 265.260836 52.658396 247.915576 49.208209 230.4 49.208209 
C 212.884424 49.208209 195.539164 52.658396 179.356882 59.361316 
C 163.174599 66.064237 148.469999 75.889538 136.084616 88.27492 
C 123.699233 100.660303 113.873933 115.364904 107.171012 131.547186 
C 100.468091 147.729469 97.017905 165.074728 97.017905 182.590304 
C 97.017905 200.105881 100.468091 217.45114 107.171012 233.633423 
C 113.873933 249.815705 123.699233 264.520306 136.084616 276.905689 
C 148.469999 289.291071 163.174599 299.116372 179.356882 305.819293 
C 195.539164 312.522213 212.884424 315.9724 230.4 315.9724 
C 247.915576 315.9724 265.260836 312.522213 281.443118 305.819293 
C 297.625401 299.116372 312.330001 289.291071 324.715384 276.905689 
C 337.100767 264.520306 346.926067 249.815705 353.628988 233.633423 
C 360.331909 217.45114 363.782095 200.105881 363.782095 182.590305 
M 230.4 182.590305 
C 230.4 182.590305 230.4 182.590305 230.4 182.590305 
C 230.4 182.590305 230.4 182.590305 230.4 182.590305 
C 230.4 182.590305 230.4 182.590305 230.4 182.590305 
C 230.4 182.590305 230.4 182.590305 230.4 182.590305 
C 230.4 182.590305 230.4 182.590305 230.4 182.590305 
C 230.4 182.590305 230.4 182.590305 230.4 182.590305 
C 230.4 182.590305 230.4 182.590305 230.4 182.590305 
C 230.4 182.590305 230.4 182.590305 230.4 182.590305 
C 230.4 182.590305 230.4 182.590305 230.4 182.590305 
C 230.4 182.590305 230.4 182.590305 230.4 182.590305 
C 230.4 182.590305 230.4 182.590305 230.4 182.590305 
C 230.4 182.590305 230.4 182.590305 230.4 182.590305 
C 230.4 182.590305 230.4 182.590305 230.4 182.590305 
C 230.4 182.590305 230.4 182.590305 230.4 182.590305 
C 230.4 182.590305 230.4 182.590305 230.4 182.590305 
C 230.4 182.590305 230.4 182.590305 230.4 182.590305 
M 363.782095 182.590305 
z
"/>
  </clipPath>
 </defs>
</svg>
