<?xml version="1.0" encoding="utf-8" standalone="no"?>
<!DOCTYPE svg PUBLIC "-//W3C//DTD SVG 1.1//EN"
  "http://www.w3.org/Graphics/SVG/1.1/DTD/svg11.dtd">
<!-- Created with matplotlib (http://matplotlib.org/) -->
<svg height="396pt" version="1.1" viewBox="0 0 576 396" width="576pt" xmlns="http://www.w3.org/2000/svg" xmlns:xlink="http://www.w3.org/1999/xlink">
 <defs>
  <style type="text/css">
*{stroke-linecap:butt;stroke-linejoin:round;}
  </style>
 </defs>
 <g id="figure_1">
  <g id="patch_1">
   <path d="M 0 396 
L 576 396 
L 576 0 
L 0 0 
z
" style="fill:#ffffff;"/>
  </g>
  <g id="axes_1">
   <g id="patch_2">
    <path d="M 288 363.687548 
C 329.214778 363.687548 368.747053 347.312743 397.890302 318.169495 
C 427.03355 289.026246 443.408355 249.493971 443.408355 208.279193 
C 443.408355 167.064416 427.03355 127.53214 397.890302 98.388891 
C 368.747053 69.245643 329.214778 52.870838 288 52.870838 
C 246.785222 52.870838 207.252947 69.245643 178.109698 98.388891 
C 148.96645 127.53214 132.591645 167.064416 132.591645 208.279193 
C 132.591645 249.493971 148.96645 289.026246 178.109698 318.169495 
C 207.252947 347.312743 246.785222 363.687548 288 363.687548 
z
" style="fill:#eaeaf2;"/>
   </g>
   <g id="matplotlib.axis_1">
    <g id="xtick_1">
     <g id="line2d_1">
      <path clip-path="url(#p10c9460d96)" d="M 288 208.279193 
L 288 52.870838 
" style="fill:none;stroke:#ffffff;stroke-linecap:round;"/>
     </g>
     <g id="text_1">
      <!-- valence -->
      <defs>
       <path d="M 21 0 
L 1.265625 51.859375 
L 10.546875 51.859375 
L 21.6875 20.796875 
Q 23.484375 15.765625 25 10.359375 
Q 26.171875 14.453125 28.265625 20.21875 
L 39.796875 51.859375 
L 48.828125 51.859375 
L 29.203125 0 
z
" id="ArialMT-76"/>
       <path d="M 40.4375 6.390625 
Q 35.546875 2.25 31.03125 0.53125 
Q 26.515625 -1.171875 21.34375 -1.171875 
Q 12.796875 -1.171875 8.203125 3 
Q 3.609375 7.171875 3.609375 13.671875 
Q 3.609375 17.484375 5.34375 20.625 
Q 7.078125 23.78125 9.890625 25.6875 
Q 12.703125 27.59375 16.21875 28.5625 
Q 18.796875 29.25 24.03125 29.890625 
Q 34.671875 31.15625 39.703125 32.90625 
Q 39.75 34.71875 39.75 35.203125 
Q 39.75 40.578125 37.25 42.78125 
Q 33.890625 45.75 27.25 45.75 
Q 21.046875 45.75 18.09375 43.578125 
Q 15.140625 41.40625 13.71875 35.890625 
L 5.125 37.0625 
Q 6.296875 42.578125 8.984375 45.96875 
Q 11.671875 49.359375 16.75 51.1875 
Q 21.828125 53.03125 28.515625 53.03125 
Q 35.15625 53.03125 39.296875 51.46875 
Q 43.453125 49.90625 45.40625 47.53125 
Q 47.359375 45.171875 48.140625 41.546875 
Q 48.578125 39.3125 48.578125 33.453125 
L 48.578125 21.734375 
Q 48.578125 9.46875 49.140625 6.21875 
Q 49.703125 2.984375 51.375 0 
L 42.1875 0 
Q 40.828125 2.734375 40.4375 6.390625 
M 39.703125 26.03125 
Q 34.90625 24.078125 25.34375 22.703125 
Q 19.921875 21.921875 17.671875 20.9375 
Q 15.4375 19.96875 14.203125 18.09375 
Q 12.984375 16.21875 12.984375 13.921875 
Q 12.984375 10.40625 15.640625 8.0625 
Q 18.3125 5.71875 23.4375 5.71875 
Q 28.515625 5.71875 32.46875 7.9375 
Q 36.421875 10.15625 38.28125 14.015625 
Q 39.703125 17 39.703125 22.796875 
z
" id="ArialMT-61"/>
       <path d="M 6.390625 0 
L 6.390625 71.578125 
L 15.1875 71.578125 
L 15.1875 0 
z
" id="ArialMT-6c"/>
       <path d="M 42.09375 16.703125 
L 51.171875 15.578125 
Q 49.03125 7.625 43.21875 3.21875 
Q 37.40625 -1.171875 28.375 -1.171875 
Q 17 -1.171875 10.328125 5.828125 
Q 3.65625 12.84375 3.65625 25.484375 
Q 3.65625 38.578125 10.390625 45.796875 
Q 17.140625 53.03125 27.875 53.03125 
Q 38.28125 53.03125 44.875 45.953125 
Q 51.46875 38.875 51.46875 26.03125 
Q 51.46875 25.25 51.421875 23.6875 
L 12.75 23.6875 
Q 13.234375 15.140625 17.578125 10.59375 
Q 21.921875 6.0625 28.421875 6.0625 
Q 33.25 6.0625 36.671875 8.59375 
Q 40.09375 11.140625 42.09375 16.703125 
M 13.234375 30.90625 
L 42.1875 30.90625 
Q 41.609375 37.453125 38.875 40.71875 
Q 34.671875 45.796875 27.984375 45.796875 
Q 21.921875 45.796875 17.796875 41.75 
Q 13.671875 37.703125 13.234375 30.90625 
" id="ArialMT-65"/>
       <path d="M 6.59375 0 
L 6.59375 51.859375 
L 14.5 51.859375 
L 14.5 44.484375 
Q 20.21875 53.03125 31 53.03125 
Q 35.6875 53.03125 39.625 51.34375 
Q 43.5625 49.65625 45.515625 46.921875 
Q 47.46875 44.1875 48.25 40.4375 
Q 48.734375 37.984375 48.734375 31.890625 
L 48.734375 0 
L 39.9375 0 
L 39.9375 31.546875 
Q 39.9375 36.921875 38.90625 39.578125 
Q 37.890625 42.234375 35.28125 43.8125 
Q 32.671875 45.40625 29.15625 45.40625 
Q 23.53125 45.40625 19.453125 41.84375 
Q 15.375 38.28125 15.375 28.328125 
L 15.375 0 
z
" id="ArialMT-6e"/>
       <path d="M 40.4375 19 
L 49.078125 17.875 
Q 47.65625 8.9375 41.8125 3.875 
Q 35.984375 -1.171875 27.484375 -1.171875 
Q 16.84375 -1.171875 10.375 5.78125 
Q 3.90625 12.75 3.90625 25.734375 
Q 3.90625 34.125 6.6875 40.421875 
Q 9.46875 46.734375 15.15625 49.875 
Q 20.84375 53.03125 27.546875 53.03125 
Q 35.984375 53.03125 41.359375 48.75 
Q 46.734375 44.484375 48.25 36.625 
L 39.703125 35.296875 
Q 38.484375 40.53125 35.375 43.15625 
Q 32.28125 45.796875 27.875 45.796875 
Q 21.234375 45.796875 17.078125 41.03125 
Q 12.9375 36.28125 12.9375 25.984375 
Q 12.9375 15.53125 16.9375 10.796875 
Q 20.953125 6.0625 27.390625 6.0625 
Q 32.5625 6.0625 36.03125 9.234375 
Q 39.5 12.40625 40.4375 19 
" id="ArialMT-63"/>
      </defs>
      <g style="fill:#808080;" transform="translate(274.21375 39.398127)scale(0.08 -0.08)">
       <use xlink:href="#ArialMT-76"/>
       <use x="50" xlink:href="#ArialMT-61"/>
       <use x="105.615234" xlink:href="#ArialMT-6c"/>
       <use x="127.832031" xlink:href="#ArialMT-65"/>
       <use x="183.447266" xlink:href="#ArialMT-6e"/>
       <use x="239.0625" xlink:href="#ArialMT-63"/>
       <use x="289.0625" xlink:href="#ArialMT-65"/>
      </g>
     </g>
    </g>
    <g id="xtick_2">
     <g id="line2d_2">
      <path clip-path="url(#p10c9460d96)" d="M 288 208.279193 
L 397.890302 98.388891 
" style="fill:none;stroke:#ffffff;stroke-linecap:round;"/>
     </g>
     <g id="text_2">
      <!-- energy -->
      <defs>
       <path d="M 6.5 0 
L 6.5 51.859375 
L 14.40625 51.859375 
L 14.40625 44 
Q 17.4375 49.515625 20 51.265625 
Q 22.5625 53.03125 25.640625 53.03125 
Q 30.078125 53.03125 34.671875 50.203125 
L 31.640625 42.046875 
Q 28.421875 43.953125 25.203125 43.953125 
Q 22.3125 43.953125 20.015625 42.21875 
Q 17.71875 40.484375 16.75 37.40625 
Q 15.28125 32.71875 15.28125 27.15625 
L 15.28125 0 
z
" id="ArialMT-72"/>
       <path d="M 4.984375 -4.296875 
L 13.53125 -5.5625 
Q 14.0625 -9.515625 16.5 -11.328125 
Q 19.78125 -13.765625 25.4375 -13.765625 
Q 31.546875 -13.765625 34.859375 -11.328125 
Q 38.1875 -8.890625 39.359375 -4.5 
Q 40.046875 -1.8125 39.984375 6.78125 
Q 34.234375 0 25.640625 0 
Q 14.9375 0 9.078125 7.71875 
Q 3.21875 15.4375 3.21875 26.21875 
Q 3.21875 33.640625 5.90625 39.90625 
Q 8.59375 46.1875 13.6875 49.609375 
Q 18.796875 53.03125 25.6875 53.03125 
Q 34.859375 53.03125 40.828125 45.609375 
L 40.828125 51.859375 
L 48.921875 51.859375 
L 48.921875 7.03125 
Q 48.921875 -5.078125 46.453125 -10.125 
Q 44 -15.1875 38.640625 -18.109375 
Q 33.296875 -21.046875 25.484375 -21.046875 
Q 16.21875 -21.046875 10.5 -16.875 
Q 4.78125 -12.703125 4.984375 -4.296875 
M 12.25 26.859375 
Q 12.25 16.65625 16.296875 11.96875 
Q 20.359375 7.28125 26.46875 7.28125 
Q 32.515625 7.28125 36.609375 11.9375 
Q 40.71875 16.609375 40.71875 26.5625 
Q 40.71875 36.078125 36.5 40.90625 
Q 32.28125 45.75 26.3125 45.75 
Q 20.453125 45.75 16.34375 40.984375 
Q 12.25 36.234375 12.25 26.859375 
" id="ArialMT-67"/>
       <path d="M 6.203125 -19.96875 
L 5.21875 -11.71875 
Q 8.109375 -12.5 10.25 -12.5 
Q 13.1875 -12.5 14.9375 -11.515625 
Q 16.703125 -10.546875 17.828125 -8.796875 
Q 18.65625 -7.46875 20.515625 -2.25 
Q 20.75 -1.515625 21.296875 -0.09375 
L 1.609375 51.859375 
L 11.078125 51.859375 
L 21.875 21.828125 
Q 23.96875 16.109375 25.640625 9.8125 
Q 27.15625 15.875 29.25 21.625 
L 40.328125 51.859375 
L 49.125 51.859375 
L 29.390625 -0.875 
Q 26.21875 -9.421875 24.46875 -12.640625 
Q 22.125 -17 19.09375 -19.015625 
Q 16.0625 -21.046875 11.859375 -21.046875 
Q 9.328125 -21.046875 6.203125 -19.96875 
" id="ArialMT-79"/>
      </defs>
      <g style="fill:#808080;" transform="translate(396.649957 89.374236)scale(0.08 -0.08)">
       <use xlink:href="#ArialMT-65"/>
       <use x="55.615234" xlink:href="#ArialMT-6e"/>
       <use x="111.230469" xlink:href="#ArialMT-65"/>
       <use x="166.845703" xlink:href="#ArialMT-72"/>
       <use x="200.146484" xlink:href="#ArialMT-67"/>
       <use x="255.761719" xlink:href="#ArialMT-79"/>
      </g>
     </g>
    </g>
    <g id="xtick_3">
     <g id="line2d_3">
      <path clip-path="url(#p10c9460d96)" d="M 288 208.279193 
L 443.408355 208.279193 
" style="fill:none;stroke:#ffffff;stroke-linecap:round;"/>
     </g>
     <g id="text_3">
      <!-- acousticness -->
      <defs>
       <path d="M 3.328125 25.921875 
Q 3.328125 40.328125 11.328125 47.265625 
Q 18.015625 53.03125 27.640625 53.03125 
Q 38.328125 53.03125 45.109375 46.015625 
Q 51.90625 39.015625 51.90625 26.65625 
Q 51.90625 16.65625 48.90625 10.90625 
Q 45.90625 5.171875 40.15625 2 
Q 34.421875 -1.171875 27.640625 -1.171875 
Q 16.75 -1.171875 10.03125 5.8125 
Q 3.328125 12.796875 3.328125 25.921875 
M 12.359375 25.921875 
Q 12.359375 15.96875 16.703125 11.015625 
Q 21.046875 6.0625 27.640625 6.0625 
Q 34.1875 6.0625 38.53125 11.03125 
Q 42.875 16.015625 42.875 26.21875 
Q 42.875 35.84375 38.5 40.796875 
Q 34.125 45.75 27.640625 45.75 
Q 21.046875 45.75 16.703125 40.8125 
Q 12.359375 35.890625 12.359375 25.921875 
" id="ArialMT-6f"/>
       <path d="M 40.578125 0 
L 40.578125 7.625 
Q 34.515625 -1.171875 24.125 -1.171875 
Q 19.53125 -1.171875 15.546875 0.578125 
Q 11.578125 2.34375 9.640625 5 
Q 7.71875 7.671875 6.9375 11.53125 
Q 6.390625 14.109375 6.390625 19.734375 
L 6.390625 51.859375 
L 15.1875 51.859375 
L 15.1875 23.09375 
Q 15.1875 16.21875 15.71875 13.8125 
Q 16.546875 10.359375 19.234375 8.375 
Q 21.921875 6.390625 25.875 6.390625 
Q 29.828125 6.390625 33.296875 8.421875 
Q 36.765625 10.453125 38.203125 13.9375 
Q 39.65625 17.4375 39.65625 24.078125 
L 39.65625 51.859375 
L 48.4375 51.859375 
L 48.4375 0 
z
" id="ArialMT-75"/>
       <path d="M 3.078125 15.484375 
L 11.765625 16.84375 
Q 12.5 11.625 15.84375 8.84375 
Q 19.1875 6.0625 25.203125 6.0625 
Q 31.25 6.0625 34.171875 8.515625 
Q 37.109375 10.984375 37.109375 14.3125 
Q 37.109375 17.28125 34.515625 19 
Q 32.71875 20.171875 25.53125 21.96875 
Q 15.875 24.421875 12.140625 26.203125 
Q 8.40625 27.984375 6.46875 31.125 
Q 4.546875 34.28125 4.546875 38.09375 
Q 4.546875 41.546875 6.125 44.5 
Q 7.71875 47.46875 10.453125 49.421875 
Q 12.5 50.921875 16.03125 51.96875 
Q 19.578125 53.03125 23.640625 53.03125 
Q 29.734375 53.03125 34.34375 51.265625 
Q 38.96875 49.515625 41.15625 46.5 
Q 43.359375 43.5 44.1875 38.484375 
L 35.59375 37.3125 
Q 35.015625 41.3125 32.203125 43.546875 
Q 29.390625 45.796875 24.265625 45.796875 
Q 18.21875 45.796875 15.625 43.796875 
Q 13.03125 41.796875 13.03125 39.109375 
Q 13.03125 37.40625 14.109375 36.03125 
Q 15.1875 34.625 17.484375 33.6875 
Q 18.796875 33.203125 25.25 31.453125 
Q 34.578125 28.953125 38.25 27.359375 
Q 41.9375 25.78125 44.03125 22.75 
Q 46.140625 19.734375 46.140625 15.234375 
Q 46.140625 10.84375 43.578125 6.953125 
Q 41.015625 3.078125 36.171875 0.953125 
Q 31.34375 -1.171875 25.25 -1.171875 
Q 15.140625 -1.171875 9.84375 3.03125 
Q 4.546875 7.234375 3.078125 15.484375 
" id="ArialMT-73"/>
       <path d="M 25.78125 7.859375 
L 27.046875 0.09375 
Q 23.34375 -0.6875 20.40625 -0.6875 
Q 15.625 -0.6875 12.984375 0.828125 
Q 10.359375 2.34375 9.28125 4.8125 
Q 8.203125 7.28125 8.203125 15.1875 
L 8.203125 45.015625 
L 1.765625 45.015625 
L 1.765625 51.859375 
L 8.203125 51.859375 
L 8.203125 64.703125 
L 16.9375 69.96875 
L 16.9375 51.859375 
L 25.78125 51.859375 
L 25.78125 45.015625 
L 16.9375 45.015625 
L 16.9375 14.703125 
Q 16.9375 10.9375 17.40625 9.859375 
Q 17.875 8.796875 18.921875 8.15625 
Q 19.96875 7.515625 21.921875 7.515625 
Q 23.390625 7.515625 25.78125 7.859375 
" id="ArialMT-74"/>
       <path d="M 6.640625 61.46875 
L 6.640625 71.578125 
L 15.4375 71.578125 
L 15.4375 61.46875 
z
M 6.640625 0 
L 6.640625 51.859375 
L 15.4375 51.859375 
L 15.4375 0 
z
" id="ArialMT-69"/>
      </defs>
      <g style="fill:#808080;" transform="translate(435.827316 210.347318)scale(0.08 -0.08)">
       <use xlink:href="#ArialMT-61"/>
       <use x="55.615234" xlink:href="#ArialMT-63"/>
       <use x="105.615234" xlink:href="#ArialMT-6f"/>
       <use x="161.230469" xlink:href="#ArialMT-75"/>
       <use x="216.845703" xlink:href="#ArialMT-73"/>
       <use x="266.845703" xlink:href="#ArialMT-74"/>
       <use x="294.628906" xlink:href="#ArialMT-69"/>
       <use x="316.845703" xlink:href="#ArialMT-63"/>
       <use x="366.845703" xlink:href="#ArialMT-6e"/>
       <use x="422.460938" xlink:href="#ArialMT-65"/>
       <use x="478.076172" xlink:href="#ArialMT-73"/>
       <use x="528.076172" xlink:href="#ArialMT-73"/>
      </g>
     </g>
    </g>
    <g id="xtick_4">
     <g id="line2d_4">
      <path clip-path="url(#p10c9460d96)" d="M 288 208.279193 
L 397.890302 318.169495 
" style="fill:none;stroke:#ffffff;stroke-linecap:round;"/>
     </g>
     <g id="text_4">
      <!-- speechiness -->
      <defs>
       <path d="M 6.59375 -19.875 
L 6.59375 51.859375 
L 14.59375 51.859375 
L 14.59375 45.125 
Q 17.4375 49.078125 21 51.046875 
Q 24.5625 53.03125 29.640625 53.03125 
Q 36.28125 53.03125 41.359375 49.609375 
Q 46.4375 46.1875 49.015625 39.953125 
Q 51.609375 33.734375 51.609375 26.3125 
Q 51.609375 18.359375 48.75 11.984375 
Q 45.90625 5.609375 40.453125 2.21875 
Q 35.015625 -1.171875 29 -1.171875 
Q 24.609375 -1.171875 21.109375 0.6875 
Q 17.625 2.546875 15.375 5.375 
L 15.375 -19.875 
z
M 14.546875 25.640625 
Q 14.546875 15.625 18.59375 10.84375 
Q 22.65625 6.0625 28.421875 6.0625 
Q 34.28125 6.0625 38.453125 11.015625 
Q 42.625 15.96875 42.625 26.375 
Q 42.625 36.28125 38.546875 41.203125 
Q 34.46875 46.140625 28.8125 46.140625 
Q 23.1875 46.140625 18.859375 40.890625 
Q 14.546875 35.640625 14.546875 25.640625 
" id="ArialMT-70"/>
       <path d="M 6.59375 0 
L 6.59375 71.578125 
L 15.375 71.578125 
L 15.375 45.90625 
Q 21.53125 53.03125 30.90625 53.03125 
Q 36.671875 53.03125 40.921875 50.75 
Q 45.171875 48.484375 47 44.484375 
Q 48.828125 40.484375 48.828125 32.859375 
L 48.828125 0 
L 40.046875 0 
L 40.046875 32.859375 
Q 40.046875 39.453125 37.1875 42.453125 
Q 34.328125 45.453125 29.109375 45.453125 
Q 25.203125 45.453125 21.75 43.421875 
Q 18.3125 41.40625 16.84375 37.9375 
Q 15.375 34.46875 15.375 28.375 
L 15.375 0 
z
" id="ArialMT-68"/>
      </defs>
      <g style="fill:#808080;" transform="translate(386.644332 331.22665)scale(0.08 -0.08)">
       <use xlink:href="#ArialMT-73"/>
       <use x="50" xlink:href="#ArialMT-70"/>
       <use x="105.615234" xlink:href="#ArialMT-65"/>
       <use x="161.230469" xlink:href="#ArialMT-65"/>
       <use x="216.845703" xlink:href="#ArialMT-63"/>
       <use x="266.845703" xlink:href="#ArialMT-68"/>
       <use x="322.460938" xlink:href="#ArialMT-69"/>
       <use x="344.677734" xlink:href="#ArialMT-6e"/>
       <use x="400.292969" xlink:href="#ArialMT-65"/>
       <use x="455.908203" xlink:href="#ArialMT-73"/>
       <use x="505.908203" xlink:href="#ArialMT-73"/>
      </g>
     </g>
    </g>
    <g id="xtick_5">
     <g id="line2d_5">
      <path clip-path="url(#p10c9460d96)" d="M 288 208.279193 
L 288 363.687548 
" style="fill:none;stroke:#ffffff;stroke-linecap:round;"/>
     </g>
     <g id="text_5">
      <!-- danceability -->
      <defs>
       <path d="M 40.234375 0 
L 40.234375 6.546875 
Q 35.296875 -1.171875 25.734375 -1.171875 
Q 19.53125 -1.171875 14.328125 2.25 
Q 9.125 5.671875 6.265625 11.796875 
Q 3.421875 17.921875 3.421875 25.875 
Q 3.421875 33.640625 6 39.96875 
Q 8.59375 46.296875 13.765625 49.65625 
Q 18.953125 53.03125 25.34375 53.03125 
Q 30.03125 53.03125 33.6875 51.046875 
Q 37.359375 49.078125 39.65625 45.90625 
L 39.65625 71.578125 
L 48.390625 71.578125 
L 48.390625 0 
z
M 12.453125 25.875 
Q 12.453125 15.921875 16.640625 10.984375 
Q 20.84375 6.0625 26.5625 6.0625 
Q 32.328125 6.0625 36.34375 10.765625 
Q 40.375 15.484375 40.375 25.140625 
Q 40.375 35.796875 36.265625 40.765625 
Q 32.171875 45.75 26.171875 45.75 
Q 20.3125 45.75 16.375 40.96875 
Q 12.453125 36.1875 12.453125 25.875 
" id="ArialMT-64"/>
       <path d="M 14.703125 0 
L 6.546875 0 
L 6.546875 71.578125 
L 15.328125 71.578125 
L 15.328125 46.046875 
Q 20.90625 53.03125 29.546875 53.03125 
Q 34.328125 53.03125 38.59375 51.09375 
Q 42.875 49.171875 45.625 45.671875 
Q 48.390625 42.1875 49.953125 37.25 
Q 51.515625 32.328125 51.515625 26.703125 
Q 51.515625 13.375 44.921875 6.09375 
Q 38.328125 -1.171875 29.109375 -1.171875 
Q 19.921875 -1.171875 14.703125 6.5 
z
M 14.59375 26.3125 
Q 14.59375 17 17.140625 12.84375 
Q 21.296875 6.0625 28.375 6.0625 
Q 34.125 6.0625 38.328125 11.0625 
Q 42.53125 16.0625 42.53125 25.984375 
Q 42.53125 36.140625 38.5 40.96875 
Q 34.46875 45.796875 28.765625 45.796875 
Q 23 45.796875 18.796875 40.796875 
Q 14.59375 35.796875 14.59375 26.3125 
" id="ArialMT-62"/>
      </defs>
      <g style="fill:#808080;" transform="translate(266.87625 381.249634)scale(0.08 -0.08)">
       <use xlink:href="#ArialMT-64"/>
       <use x="55.615234" xlink:href="#ArialMT-61"/>
       <use x="111.230469" xlink:href="#ArialMT-6e"/>
       <use x="166.845703" xlink:href="#ArialMT-63"/>
       <use x="216.845703" xlink:href="#ArialMT-65"/>
       <use x="272.460938" xlink:href="#ArialMT-61"/>
       <use x="328.076172" xlink:href="#ArialMT-62"/>
       <use x="383.691406" xlink:href="#ArialMT-69"/>
       <use x="405.908203" xlink:href="#ArialMT-6c"/>
       <use x="428.125" xlink:href="#ArialMT-69"/>
       <use x="450.341797" xlink:href="#ArialMT-74"/>
       <use x="478.125" xlink:href="#ArialMT-79"/>
      </g>
     </g>
    </g>
    <g id="xtick_6">
     <g id="line2d_6">
      <path clip-path="url(#p10c9460d96)" d="M 288 208.279193 
L 178.109698 318.169495 
" style="fill:none;stroke:#ffffff;stroke-linecap:round;"/>
     </g>
     <g id="text_6">
      <!-- instrumentalness -->
      <defs>
       <path d="M 6.59375 0 
L 6.59375 51.859375 
L 14.453125 51.859375 
L 14.453125 44.578125 
Q 16.890625 48.390625 20.9375 50.703125 
Q 25 53.03125 30.171875 53.03125 
Q 35.9375 53.03125 39.625 50.640625 
Q 43.3125 48.25 44.828125 43.953125 
Q 50.984375 53.03125 60.84375 53.03125 
Q 68.5625 53.03125 72.703125 48.75 
Q 76.859375 44.484375 76.859375 35.59375 
L 76.859375 0 
L 68.109375 0 
L 68.109375 32.671875 
Q 68.109375 37.9375 67.25 40.25 
Q 66.40625 42.578125 64.15625 43.984375 
Q 61.921875 45.40625 58.890625 45.40625 
Q 53.421875 45.40625 49.796875 41.765625 
Q 46.1875 38.140625 46.1875 30.125 
L 46.1875 0 
L 37.40625 0 
L 37.40625 33.6875 
Q 37.40625 39.546875 35.25 42.46875 
Q 33.109375 45.40625 28.21875 45.40625 
Q 24.515625 45.40625 21.359375 43.453125 
Q 18.21875 41.5 16.796875 37.734375 
Q 15.375 33.984375 15.375 26.90625 
L 15.375 0 
z
" id="ArialMT-6d"/>
      </defs>
      <g style="fill:#808080;" transform="translate(136.886293 331.22665)scale(0.08 -0.08)">
       <use xlink:href="#ArialMT-69"/>
       <use x="22.216797" xlink:href="#ArialMT-6e"/>
       <use x="77.832031" xlink:href="#ArialMT-73"/>
       <use x="127.832031" xlink:href="#ArialMT-74"/>
       <use x="155.615234" xlink:href="#ArialMT-72"/>
       <use x="188.916016" xlink:href="#ArialMT-75"/>
       <use x="244.53125" xlink:href="#ArialMT-6d"/>
       <use x="327.832031" xlink:href="#ArialMT-65"/>
       <use x="383.447266" xlink:href="#ArialMT-6e"/>
       <use x="439.0625" xlink:href="#ArialMT-74"/>
       <use x="466.845703" xlink:href="#ArialMT-61"/>
       <use x="522.460938" xlink:href="#ArialMT-6c"/>
       <use x="544.677734" xlink:href="#ArialMT-6e"/>
       <use x="600.292969" xlink:href="#ArialMT-65"/>
       <use x="655.908203" xlink:href="#ArialMT-73"/>
       <use x="705.908203" xlink:href="#ArialMT-73"/>
      </g>
     </g>
    </g>
    <g id="xtick_7">
     <g id="line2d_7">
      <path clip-path="url(#p10c9460d96)" d="M 288 208.279193 
L 132.591645 208.279193 
" style="fill:none;stroke:#ffffff;stroke-linecap:round;"/>
     </g>
     <g id="text_7">
      <!-- liveness -->
      <g style="fill:#808080;" transform="translate(102.600184 210.347318)scale(0.08 -0.08)">
       <use xlink:href="#ArialMT-6c"/>
       <use x="22.216797" xlink:href="#ArialMT-69"/>
       <use x="44.433594" xlink:href="#ArialMT-76"/>
       <use x="94.433594" xlink:href="#ArialMT-65"/>
       <use x="150.048828" xlink:href="#ArialMT-6e"/>
       <use x="205.664062" xlink:href="#ArialMT-65"/>
       <use x="261.279297" xlink:href="#ArialMT-73"/>
       <use x="311.279297" xlink:href="#ArialMT-73"/>
      </g>
     </g>
    </g>
    <g id="xtick_8">
     <g id="line2d_8">
      <path clip-path="url(#p10c9460d96)" d="M 288 208.279193 
L 178.109698 98.388891 
" style="fill:none;stroke:#ffffff;stroke-linecap:round;"/>
     </g>
     <g id="text_8">
      <!-- mode -->
      <g style="fill:#808080;" transform="translate(157.115668 89.467986)scale(0.08 -0.08)">
       <use xlink:href="#ArialMT-6d"/>
       <use x="83.300781" xlink:href="#ArialMT-6f"/>
       <use x="138.916016" xlink:href="#ArialMT-64"/>
       <use x="194.53125" xlink:href="#ArialMT-65"/>
      </g>
     </g>
    </g>
   </g>
   <g id="matplotlib.axis_2">
    <g id="ytick_1">
     <g id="line2d_9">
      <path clip-path="url(#p10c9460d96)" d="M 288 177.197522 
L 289.084735 177.216456 
L 290.168148 177.273235 
L 292.325733 177.500007 
L 294.462243 177.876731 
L 296.56727 178.401573 
L 298.630558 179.071976 
L 300.642055 179.884674 
L 302.591961 180.835706 
L 304.470776 181.920441 
L 306.269348 183.133593 
L 307.978913 184.469252 
L 309.591143 185.92091 
L 311.098183 187.481496 
L 312.492691 189.143406 
L 313.767873 190.898543 
L 314.917517 192.738358 
L 315.936021 194.653885 
L 316.818424 196.635794 
L 317.560426 198.674428 
L 318.158413 200.759856 
L 318.609471 202.881918 
L 318.911402 205.030274 
L 319.062737 207.194458 
L 319.062737 209.363928 
L 318.911402 211.528112 
L 318.609471 213.676469 
L 318.158413 215.79853 
L 317.560426 217.883958 
L 316.818424 219.922592 
L 315.936021 221.904501 
L 314.917517 223.820029 
L 313.767873 225.659843 
L 312.492691 227.41498 
L 311.098183 229.07689 
L 309.591143 230.637476 
L 307.978913 232.089134 
L 306.269348 233.424793 
L 304.470776 234.637945 
L 302.591961 235.72268 
L 300.642055 236.673712 
L 298.630558 237.48641 
L 296.56727 238.156813 
L 294.462243 238.681655 
L 292.325733 239.058379 
L 290.168148 239.285151 
L 288 239.360864 
L 285.831852 239.285151 
L 283.674267 239.058379 
L 281.537757 238.681655 
L 279.43273 238.156813 
L 277.369442 237.48641 
L 275.357945 236.673712 
L 273.408039 235.72268 
L 271.529224 234.637945 
L 269.730652 233.424793 
L 268.021087 232.089134 
L 266.408857 230.637476 
L 264.901817 229.07689 
L 263.507309 227.41498 
L 262.232127 225.659843 
L 261.082483 223.820029 
L 260.063979 221.904501 
L 259.181576 219.922592 
L 258.439574 217.883958 
L 257.841587 215.79853 
L 257.390529 213.676469 
L 257.088598 211.528112 
L 256.937263 209.363928 
L 256.937263 207.194458 
L 257.088598 205.030274 
L 257.390529 202.881918 
L 257.841587 200.759856 
L 258.439574 198.674428 
L 259.181576 196.635794 
L 260.063979 194.653885 
L 261.082483 192.738358 
L 262.232127 190.898543 
L 263.507309 189.143406 
L 264.901817 187.481496 
L 266.408857 185.92091 
L 268.021087 184.469252 
L 269.730652 183.133593 
L 271.529224 181.920441 
L 273.408039 180.835706 
L 275.357945 179.884674 
L 277.369442 179.071976 
L 279.43273 178.401573 
L 281.537757 177.876731 
L 283.674267 177.500007 
L 285.831852 177.273235 
L 288 177.197522 
L 288 177.197522 
" style="fill:none;stroke:#ffffff;stroke-linecap:round;"/>
     </g>
     <g id="text_9">
      <!-- 0.2 -->
      <defs>
       <path d="M 4.15625 35.296875 
Q 4.15625 48 6.765625 55.734375 
Q 9.375 63.484375 14.515625 67.671875 
Q 19.671875 71.875 27.484375 71.875 
Q 33.25 71.875 37.59375 69.546875 
Q 41.9375 67.234375 44.765625 62.859375 
Q 47.609375 58.5 49.21875 52.21875 
Q 50.828125 45.953125 50.828125 35.296875 
Q 50.828125 22.703125 48.234375 14.96875 
Q 45.65625 7.234375 40.5 3 
Q 35.359375 -1.21875 27.484375 -1.21875 
Q 17.140625 -1.21875 11.234375 6.203125 
Q 4.15625 15.140625 4.15625 35.296875 
M 13.1875 35.296875 
Q 13.1875 17.671875 17.3125 11.828125 
Q 21.4375 6 27.484375 6 
Q 33.546875 6 37.671875 11.859375 
Q 41.796875 17.71875 41.796875 35.296875 
Q 41.796875 52.984375 37.671875 58.78125 
Q 33.546875 64.59375 27.390625 64.59375 
Q 21.34375 64.59375 17.71875 59.46875 
Q 13.1875 52.9375 13.1875 35.296875 
" id="ArialMT-30"/>
       <path d="M 9.078125 0 
L 9.078125 10.015625 
L 19.09375 10.015625 
L 19.09375 0 
z
" id="ArialMT-2e"/>
       <path d="M 50.34375 8.453125 
L 50.34375 0 
L 3.03125 0 
Q 2.9375 3.171875 4.046875 6.109375 
Q 5.859375 10.9375 9.828125 15.625 
Q 13.8125 20.3125 21.34375 26.46875 
Q 33.015625 36.03125 37.109375 41.625 
Q 41.21875 47.21875 41.21875 52.203125 
Q 41.21875 57.421875 37.46875 61 
Q 33.734375 64.59375 27.734375 64.59375 
Q 21.390625 64.59375 17.578125 60.78125 
Q 13.765625 56.984375 13.71875 50.25 
L 4.6875 51.171875 
Q 5.609375 61.28125 11.65625 66.578125 
Q 17.71875 71.875 27.9375 71.875 
Q 38.234375 71.875 44.234375 66.15625 
Q 50.25 60.453125 50.25 52 
Q 50.25 47.703125 48.484375 43.546875 
Q 46.734375 39.40625 42.65625 34.8125 
Q 38.578125 30.21875 29.109375 22.21875 
Q 21.1875 15.578125 18.9375 13.203125 
Q 16.703125 10.84375 15.234375 8.453125 
z
" id="ArialMT-32"/>
      </defs>
      <g style="fill:#808080;" transform="translate(288 175.806272)scale(0.07 -0.07)">
       <use xlink:href="#ArialMT-30"/>
       <use x="55.615234" xlink:href="#ArialMT-2e"/>
       <use x="83.398438" xlink:href="#ArialMT-32"/>
      </g>
     </g>
    </g>
    <g id="ytick_2">
     <g id="line2d_10">
      <path clip-path="url(#p10c9460d96)" d="M 288 146.115851 
L 290.169469 146.153719 
L 292.336296 146.267278 
L 296.651465 146.72082 
L 300.924486 147.474269 
L 305.134539 148.523953 
L 309.261115 149.864759 
L 313.284109 151.490154 
L 317.183921 153.39222 
L 320.941552 155.561689 
L 324.538696 157.987993 
L 327.957826 160.65931 
L 331.182286 163.562627 
L 334.196366 166.683798 
L 336.985382 170.007618 
L 339.535746 173.517893 
L 341.835033 177.197522 
L 343.872042 181.028578 
L 345.636847 184.992395 
L 347.120852 189.069664 
L 348.316825 193.24052 
L 349.218941 197.484642 
L 349.822805 201.781354 
L 350.125474 206.109724 
L 350.125474 210.448662 
L 349.822805 214.777032 
L 349.218941 219.073744 
L 348.316825 223.317867 
L 347.120852 227.488722 
L 345.636847 231.565991 
L 343.872042 235.529809 
L 341.835033 239.360864 
L 339.535746 243.040493 
L 336.985382 246.550768 
L 334.196366 249.874588 
L 331.182286 252.995759 
L 327.957826 255.899076 
L 324.538696 258.570393 
L 320.941552 260.996697 
L 317.183921 263.166166 
L 313.284109 265.068232 
L 309.261115 266.693627 
L 305.134539 268.034433 
L 300.924486 269.084117 
L 296.651465 269.837566 
L 292.336296 270.291108 
L 288 270.442535 
L 283.663704 270.291108 
L 279.348535 269.837566 
L 275.075514 269.084117 
L 270.865461 268.034433 
L 266.738885 266.693627 
L 262.715891 265.068232 
L 258.816079 263.166166 
L 255.058448 260.996697 
L 251.461304 258.570393 
L 248.042174 255.899076 
L 244.817714 252.995759 
L 241.803634 249.874588 
L 239.014618 246.550768 
L 236.464254 243.040493 
L 234.164967 239.360864 
L 232.127958 235.529809 
L 230.363153 231.565991 
L 228.879148 227.488722 
L 227.683175 223.317867 
L 226.781059 219.073744 
L 226.177195 214.777032 
L 225.874526 210.448662 
L 225.874526 206.109724 
L 226.177195 201.781354 
L 226.781059 197.484642 
L 227.683175 193.24052 
L 228.879148 189.069664 
L 230.363153 184.992395 
L 232.127958 181.028578 
L 234.164967 177.197522 
L 236.464254 173.517893 
L 239.014618 170.007618 
L 241.803634 166.683798 
L 244.817714 163.562627 
L 248.042174 160.65931 
L 251.461304 157.987993 
L 255.058448 155.561689 
L 258.816079 153.39222 
L 262.715891 151.490154 
L 266.738885 149.864759 
L 270.865461 148.523953 
L 275.075514 147.474269 
L 279.348535 146.72082 
L 283.663704 146.267278 
L 288 146.115851 
L 288 146.115851 
" style="fill:none;stroke:#ffffff;stroke-linecap:round;"/>
     </g>
     <g id="text_10">
      <!-- 0.4 -->
      <defs>
       <path d="M 32.328125 0 
L 32.328125 17.140625 
L 1.265625 17.140625 
L 1.265625 25.203125 
L 33.9375 71.578125 
L 41.109375 71.578125 
L 41.109375 25.203125 
L 50.78125 25.203125 
L 50.78125 17.140625 
L 41.109375 17.140625 
L 41.109375 0 
z
M 32.328125 25.203125 
L 32.328125 57.46875 
L 9.90625 25.203125 
z
" id="ArialMT-34"/>
      </defs>
      <g style="fill:#808080;" transform="translate(288 144.724601)scale(0.07 -0.07)">
       <use xlink:href="#ArialMT-30"/>
       <use x="55.615234" xlink:href="#ArialMT-2e"/>
       <use x="83.398438" xlink:href="#ArialMT-34"/>
      </g>
     </g>
    </g>
    <g id="ytick_3">
     <g id="line2d_11">
      <path clip-path="url(#p10c9460d96)" d="M 288 115.03418 
L 291.254204 115.090982 
L 294.504443 115.26132 
L 297.746758 115.544986 
L 300.977198 115.941634 
L 304.191827 116.450781 
L 307.386728 117.071807 
L 310.55801 117.803955 
L 313.701809 118.646334 
L 316.814294 119.597916 
L 319.891673 120.657542 
L 322.930197 121.823922 
L 325.926164 123.095635 
L 328.875923 124.47113 
L 331.775882 125.948733 
L 334.622507 127.526643 
L 337.412329 129.202937 
L 340.14195 130.975574 
L 342.808044 132.842393 
L 345.407362 134.80112 
L 347.936739 136.849369 
L 350.393092 138.984644 
L 352.773429 141.204344 
L 355.074849 143.505764 
L 357.294549 145.886101 
L 359.429824 148.342454 
L 361.478073 150.871831 
L 363.4368 153.47115 
L 365.303619 156.137243 
L 367.076256 158.866864 
L 368.75255 161.656687 
L 370.33046 164.503311 
L 371.808063 167.40327 
L 373.183558 170.353029 
L 374.455271 173.348996 
L 375.621651 176.38752 
L 376.681277 179.464899 
L 377.632859 182.577384 
L 378.475238 185.721183 
L 379.207386 188.892465 
L 379.828412 192.087366 
L 380.337559 195.301995 
L 380.734207 198.532435 
L 381.017873 201.77475 
L 381.188211 205.024989 
L 381.245013 208.279193 
L 381.188211 211.533397 
L 381.017873 214.783636 
L 380.734207 218.025951 
L 380.337559 221.256391 
L 379.828412 224.47102 
L 379.207386 227.665921 
L 378.475238 230.837203 
L 377.632859 233.981002 
L 376.681277 237.093487 
L 375.621651 240.170866 
L 374.455271 243.20939 
L 373.183558 246.205357 
L 371.808063 249.155116 
L 370.33046 252.055075 
L 368.75255 254.9017 
L 367.076256 257.691522 
L 365.303619 260.421143 
L 363.4368 263.087237 
L 361.478073 265.686555 
L 359.429824 268.215932 
L 357.294549 270.672285 
L 355.074849 273.052622 
L 352.773429 275.354042 
L 350.393092 277.573742 
L 347.936739 279.709017 
L 345.407362 281.757266 
L 342.808044 283.715993 
L 340.14195 285.582812 
L 337.412329 287.355449 
L 334.622507 289.031743 
L 331.775882 290.609653 
L 328.875923 292.087256 
L 325.926164 293.462751 
L 322.930197 294.734464 
L 319.891673 295.900844 
L 316.814294 296.96047 
L 313.701809 297.912052 
L 310.55801 298.754431 
L 307.386728 299.486579 
L 304.191827 300.107605 
L 300.977198 300.616752 
L 297.746758 301.0134 
L 294.504443 301.297066 
L 291.254204 301.467404 
L 288 301.524206 
L 284.745796 301.467404 
L 281.495557 301.297066 
L 278.253242 301.0134 
L 275.022802 300.616752 
L 271.808173 300.107605 
L 268.613272 299.486579 
L 265.44199 298.754431 
L 262.298191 297.912052 
L 259.185706 296.96047 
L 256.108327 295.900844 
L 253.069803 294.734464 
L 250.073836 293.462751 
L 247.124077 292.087256 
L 244.224118 290.609653 
L 241.377493 289.031743 
L 238.587671 287.355449 
L 235.85805 285.582812 
L 233.191956 283.715993 
L 230.592638 281.757266 
L 228.063261 279.709017 
L 225.606908 277.573742 
L 223.226571 275.354042 
L 220.925151 273.052622 
L 218.705451 270.672285 
L 216.570176 268.215932 
L 214.521927 265.686555 
L 212.5632 263.087237 
L 210.696381 260.421143 
L 208.923744 257.691522 
L 207.24745 254.9017 
L 205.66954 252.055075 
L 204.191937 249.155116 
L 202.816442 246.205357 
L 201.544729 243.20939 
L 200.378349 240.170866 
L 199.318723 237.093487 
L 198.367141 233.981002 
L 197.524762 230.837203 
L 196.792614 227.665921 
L 196.171588 224.47102 
L 195.662441 221.256391 
L 195.265793 218.025951 
L 194.982127 214.783636 
L 194.811789 211.533397 
L 194.754987 208.279193 
L 194.811789 205.024989 
L 194.982127 201.77475 
L 195.265793 198.532435 
L 195.662441 195.301995 
L 196.171588 192.087366 
L 196.792614 188.892465 
L 197.524762 185.721183 
L 198.367141 182.577384 
L 199.318723 179.464899 
L 200.378349 176.38752 
L 201.544729 173.348996 
L 202.816442 170.353029 
L 204.191937 167.40327 
L 205.66954 164.503311 
L 207.24745 161.656687 
L 208.923744 158.866864 
L 210.696381 156.137243 
L 212.5632 153.47115 
L 214.521927 150.871831 
L 216.570176 148.342454 
L 218.705451 145.886101 
L 220.925151 143.505764 
L 223.226571 141.204344 
L 225.606908 138.984644 
L 228.063261 136.849369 
L 230.592638 134.80112 
L 233.191956 132.842393 
L 235.85805 130.975574 
L 238.587671 129.202937 
L 241.377493 127.526643 
L 244.224118 125.948733 
L 247.124077 124.47113 
L 250.073836 123.095635 
L 253.069803 121.823922 
L 256.108327 120.657542 
L 259.185706 119.597916 
L 262.298191 118.646334 
L 265.44199 117.803955 
L 268.613272 117.071807 
L 271.808173 116.450781 
L 275.022802 115.941634 
L 278.253242 115.544986 
L 281.495557 115.26132 
L 284.745796 115.090982 
L 288 115.03418 
L 288 115.03418 
" style="fill:none;stroke:#ffffff;stroke-linecap:round;"/>
     </g>
     <g id="text_11">
      <!-- 0.6 -->
      <defs>
       <path d="M 49.75 54.046875 
L 41.015625 53.375 
Q 39.84375 58.546875 37.703125 60.890625 
Q 34.125 64.65625 28.90625 64.65625 
Q 24.703125 64.65625 21.53125 62.3125 
Q 17.390625 59.28125 14.984375 53.46875 
Q 12.59375 47.65625 12.5 36.921875 
Q 15.671875 41.75 20.265625 44.09375 
Q 24.859375 46.4375 29.890625 46.4375 
Q 38.671875 46.4375 44.84375 39.96875 
Q 51.03125 33.5 51.03125 23.25 
Q 51.03125 16.5 48.125 10.71875 
Q 45.21875 4.9375 40.140625 1.859375 
Q 35.0625 -1.21875 28.609375 -1.21875 
Q 17.625 -1.21875 10.6875 6.859375 
Q 3.765625 14.9375 3.765625 33.5 
Q 3.765625 54.25 11.421875 63.671875 
Q 18.109375 71.875 29.4375 71.875 
Q 37.890625 71.875 43.28125 67.140625 
Q 48.6875 62.40625 49.75 54.046875 
M 13.875 23.1875 
Q 13.875 18.65625 15.796875 14.5 
Q 17.71875 10.359375 21.1875 8.171875 
Q 24.65625 6 28.46875 6 
Q 34.03125 6 38.03125 10.484375 
Q 42.046875 14.984375 42.046875 22.703125 
Q 42.046875 30.125 38.078125 34.390625 
Q 34.125 38.671875 28.125 38.671875 
Q 22.171875 38.671875 18.015625 34.390625 
Q 13.875 30.125 13.875 23.1875 
" id="ArialMT-36"/>
      </defs>
      <g style="fill:#808080;" transform="translate(288 113.64293)scale(0.07 -0.07)">
       <use xlink:href="#ArialMT-30"/>
       <use x="55.615234" xlink:href="#ArialMT-2e"/>
       <use x="83.398438" xlink:href="#ArialMT-36"/>
      </g>
     </g>
    </g>
    <g id="ytick_4">
     <g id="line2d_12">
      <path clip-path="url(#p10c9460d96)" d="M 288 83.952509 
L 292.338939 84.028245 
L 296.672591 84.255363 
L 300.995677 84.633584 
L 305.30293 85.162448 
L 309.589102 85.841311 
L 313.848971 86.669345 
L 318.077347 87.645543 
L 322.269078 88.768714 
L 326.419058 90.03749 
L 330.52223 91.450325 
L 334.573596 93.005499 
L 338.568218 94.701116 
L 342.501231 96.53511 
L 346.367843 98.505247 
L 350.163342 100.609126 
L 353.883105 102.844185 
L 357.522599 105.207701 
L 361.077391 107.696793 
L 364.54315 110.308429 
L 367.915652 113.039428 
L 371.19079 115.886461 
L 374.364572 118.846061 
L 377.433132 121.914621 
L 380.392732 125.088404 
L 383.239765 128.363541 
L 385.970764 131.736043 
L 388.5824 135.201802 
L 391.071492 138.756594 
L 393.435008 142.396088 
L 395.670067 146.115851 
L 397.773946 149.91135 
L 399.744083 153.777962 
L 401.578078 157.710975 
L 403.273694 161.705597 
L 404.828868 165.756963 
L 406.241703 169.860135 
L 407.510479 174.010115 
L 408.63365 178.201846 
L 409.609848 182.430222 
L 410.437882 186.690091 
L 411.116745 190.976263 
L 411.64561 195.283516 
L 412.023831 199.606602 
L 412.250948 203.940254 
L 412.326684 208.279193 
L 412.250948 212.618132 
L 412.023831 216.951784 
L 411.64561 221.27487 
L 411.116745 225.582123 
L 410.437882 229.868295 
L 409.609848 234.128164 
L 408.63365 238.35654 
L 407.510479 242.548272 
L 406.241703 246.698251 
L 404.828868 250.801423 
L 403.273694 254.852789 
L 401.578078 258.847411 
L 399.744083 262.780424 
L 397.773946 266.647036 
L 395.670067 270.442535 
L 393.435008 274.162298 
L 391.071492 277.801793 
L 388.5824 281.356584 
L 385.970764 284.822343 
L 383.239765 288.194845 
L 380.392732 291.469983 
L 377.433132 294.643765 
L 374.364572 297.712325 
L 371.19079 300.671925 
L 367.915652 303.518959 
L 364.54315 306.249957 
L 361.077391 308.861593 
L 357.522599 311.350685 
L 353.883105 313.714201 
L 350.163342 315.94926 
L 346.367843 318.05314 
L 342.501231 320.023277 
L 338.568218 321.857271 
L 334.573596 323.552887 
L 330.52223 325.108061 
L 326.419058 326.520896 
L 322.269078 327.789672 
L 318.077347 328.912843 
L 313.848971 329.889041 
L 309.589102 330.717075 
L 305.30293 331.395938 
L 300.995677 331.924803 
L 296.672591 332.303024 
L 292.338939 332.530141 
L 288 332.605877 
L 283.661061 332.530141 
L 279.327409 332.303024 
L 275.004323 331.924803 
L 270.69707 331.395938 
L 266.410898 330.717075 
L 262.151029 329.889041 
L 257.922653 328.912843 
L 253.730922 327.789672 
L 249.580942 326.520896 
L 245.47777 325.108061 
L 241.426404 323.552887 
L 237.431782 321.857271 
L 233.498769 320.023277 
L 229.632157 318.05314 
L 225.836658 315.94926 
L 222.116895 313.714201 
L 218.477401 311.350685 
L 214.922609 308.861593 
L 211.45685 306.249957 
L 208.084348 303.518959 
L 204.80921 300.671925 
L 201.635428 297.712325 
L 198.566868 294.643765 
L 195.607268 291.469983 
L 192.760235 288.194845 
L 190.029236 284.822343 
L 187.4176 281.356584 
L 184.928508 277.801793 
L 182.564992 274.162298 
L 180.329933 270.442535 
L 178.226054 266.647036 
L 176.255917 262.780424 
L 174.421922 258.847411 
L 172.726306 254.852789 
L 171.171132 250.801423 
L 169.758297 246.698251 
L 168.489521 242.548272 
L 167.36635 238.35654 
L 166.390152 234.128164 
L 165.562118 229.868295 
L 164.883255 225.582123 
L 164.35439 221.27487 
L 163.976169 216.951784 
L 163.749052 212.618132 
L 163.673316 208.279193 
L 163.749052 203.940254 
L 163.976169 199.606602 
L 164.35439 195.283516 
L 164.883255 190.976263 
L 165.562118 186.690091 
L 166.390152 182.430222 
L 167.36635 178.201846 
L 168.489521 174.010115 
L 169.758297 169.860135 
L 171.171132 165.756963 
L 172.726306 161.705597 
L 174.421922 157.710975 
L 176.255917 153.777962 
L 178.226054 149.91135 
L 180.329933 146.115851 
L 182.564992 142.396088 
L 184.928508 138.756594 
L 187.4176 135.201802 
L 190.029236 131.736043 
L 192.760235 128.363541 
L 195.607268 125.088404 
L 198.566868 121.914621 
L 201.635428 118.846061 
L 204.80921 115.886461 
L 208.084348 113.039428 
L 211.45685 110.308429 
L 214.922609 107.696793 
L 218.477401 105.207701 
L 222.116895 102.844185 
L 225.836658 100.609126 
L 229.632157 98.505247 
L 233.498769 96.53511 
L 237.431782 94.701116 
L 241.426404 93.005499 
L 245.47777 91.450325 
L 249.580942 90.03749 
L 253.730922 88.768714 
L 257.922653 87.645543 
L 262.151029 86.669345 
L 266.410898 85.841311 
L 270.69707 85.162448 
L 275.004323 84.633584 
L 279.327409 84.255363 
L 283.661061 84.028245 
L 288 83.952509 
L 288 83.952509 
" style="fill:none;stroke:#ffffff;stroke-linecap:round;"/>
     </g>
     <g id="text_12">
      <!-- 0.8 -->
      <defs>
       <path d="M 17.671875 38.8125 
Q 12.203125 40.828125 9.5625 44.53125 
Q 6.9375 48.25 6.9375 53.421875 
Q 6.9375 61.234375 12.546875 66.546875 
Q 18.171875 71.875 27.484375 71.875 
Q 36.859375 71.875 42.578125 66.421875 
Q 48.296875 60.984375 48.296875 53.171875 
Q 48.296875 48.1875 45.671875 44.5 
Q 43.0625 40.828125 37.75 38.8125 
Q 44.34375 36.671875 47.78125 31.875 
Q 51.21875 27.09375 51.21875 20.453125 
Q 51.21875 11.28125 44.71875 5.03125 
Q 38.234375 -1.21875 27.640625 -1.21875 
Q 17.046875 -1.21875 10.546875 5.046875 
Q 4.046875 11.328125 4.046875 20.703125 
Q 4.046875 27.6875 7.59375 32.390625 
Q 11.140625 37.109375 17.671875 38.8125 
M 15.921875 53.71875 
Q 15.921875 48.640625 19.1875 45.40625 
Q 22.46875 42.1875 27.6875 42.1875 
Q 32.765625 42.1875 36.015625 45.375 
Q 39.265625 48.578125 39.265625 53.21875 
Q 39.265625 58.0625 35.90625 61.359375 
Q 32.5625 64.65625 27.59375 64.65625 
Q 22.5625 64.65625 19.234375 61.421875 
Q 15.921875 58.203125 15.921875 53.71875 
M 13.09375 20.65625 
Q 13.09375 16.890625 14.875 13.375 
Q 16.65625 9.859375 20.171875 7.921875 
Q 23.6875 6 27.734375 6 
Q 34.03125 6 38.125 10.046875 
Q 42.234375 14.109375 42.234375 20.359375 
Q 42.234375 26.703125 38.015625 30.859375 
Q 33.796875 35.015625 27.4375 35.015625 
Q 21.234375 35.015625 17.15625 30.90625 
Q 13.09375 26.8125 13.09375 20.65625 
" id="ArialMT-38"/>
      </defs>
      <g style="fill:#808080;" transform="translate(288 82.561259)scale(0.07 -0.07)">
       <use xlink:href="#ArialMT-30"/>
       <use x="55.615234" xlink:href="#ArialMT-2e"/>
       <use x="83.398438" xlink:href="#ArialMT-38"/>
      </g>
     </g>
    </g>
   </g>
   <g id="patch_3">
    <path clip-path="url(#p10c9460d96)" d="M 288 147.442372 
L 356.673589 139.605604 
L 330.448682 208.279193 
L 297.3446 217.623793 
L 288 289.435656 
L 271.744085 224.535108 
L 258.877584 208.279193 
L 221.963778 142.242971 
z
" style="fill:#808080;opacity:0.5;stroke:#808080;stroke-linejoin:miter;stroke-width:0.3;"/>
   </g>
   <g id="patch_4">
    <path clip-path="url(#p10c9460d96)" d="M 288 171.602821 
L 379.20895 117.070243 
L 288.621633 208.279193 
L 295.25276 215.531953 
L 288 255.367925 
L 263.934024 232.345169 
L 261.425171 208.279193 
L 212.835034 133.114227 
z
" style="fill:#fffea3;opacity:0.5;stroke:#fffea3;stroke-linejoin:miter;stroke-width:0.3;"/>
   </g>
   <g id="line2d_13">
    <path clip-path="url(#p10c9460d96)" d="M 288 147.442372 
L 356.673589 139.605604 
L 330.448682 208.279193 
L 297.3446 217.623793 
L 288 289.435656 
L 271.744085 224.535108 
L 258.877584 208.279193 
L 221.963778 142.242971 
L 288 147.442372 
" style="fill:none;stroke:#808080;stroke-linecap:round;"/>
   </g>
   <g id="line2d_14">
    <path clip-path="url(#p10c9460d96)" d="M 288 171.602821 
L 379.20895 117.070243 
L 288.621633 208.279193 
L 295.25276 215.531953 
L 288 255.367925 
L 263.934024 232.345169 
L 261.425171 208.279193 
L 212.835034 133.114227 
L 288 171.602821 
" style="fill:none;stroke:#fffea3;stroke-linecap:round;"/>
   </g>
   <g id="patch_5">
    <path d="M 288 363.687548 
C 329.214778 363.687548 368.747053 347.312743 397.890302 318.169495 
C 427.03355 289.026246 443.408355 249.493971 443.408355 208.279193 
C 443.408355 167.064416 427.03355 127.53214 397.890302 98.388891 
C 368.747053 69.245643 329.214778 52.870838 288 52.870838 
C 246.785222 52.870838 207.252947 69.245643 178.109698 98.388891 
C 148.96645 127.53214 132.591645 167.064416 132.591645 208.279193 
C 132.591645 249.493971 148.96645 289.026246 178.109698 318.169495 
C 207.252947 347.312743 246.785222 363.687548 288 363.687548 
z
" style="fill:none;"/>
   </g>
   <g id="text_13">
    <!-- i've watched you change  -->
    <defs>
     <path d="M 7.171875 58.890625 
L 7.171875 71.578125 
L 20.90625 71.578125 
L 20.90625 58.890625 
z
M 7.171875 0 
L 7.171875 51.859375 
L 20.90625 51.859375 
L 20.90625 0 
z
" id="Arial-BoldMT-69"/>
     <path d="M 7.078125 46.140625 
L 4.5 59.46875 
L 4.5 71.578125 
L 19.4375 71.578125 
L 19.4375 59.46875 
L 17.1875 46.140625 
z
" id="Arial-BoldMT-27"/>
     <path d="M 21.4375 0 
L 0.53125 51.859375 
L 14.9375 51.859375 
L 24.703125 25.390625 
L 27.546875 16.546875 
Q 28.65625 19.921875 28.953125 21 
Q 29.640625 23.1875 30.421875 25.390625 
L 40.28125 51.859375 
L 54.390625 51.859375 
L 33.796875 0 
z
" id="Arial-BoldMT-76"/>
     <path d="M 37.203125 16.5 
L 50.875 14.203125 
Q 48.25 6.6875 42.546875 2.75 
Q 36.859375 -1.171875 28.328125 -1.171875 
Q 14.796875 -1.171875 8.296875 7.671875 
Q 3.171875 14.75 3.171875 25.53125 
Q 3.171875 38.421875 9.90625 45.71875 
Q 16.65625 53.03125 26.953125 53.03125 
Q 38.53125 53.03125 45.21875 45.390625 
Q 51.90625 37.75 51.609375 21.96875 
L 17.234375 21.96875 
Q 17.390625 15.875 20.5625 12.46875 
Q 23.734375 9.078125 28.46875 9.078125 
Q 31.6875 9.078125 33.875 10.828125 
Q 36.078125 12.59375 37.203125 16.5 
M 37.984375 30.375 
Q 37.84375 36.328125 34.90625 39.421875 
Q 31.984375 42.53125 27.78125 42.53125 
Q 23.296875 42.53125 20.359375 39.265625 
Q 17.4375 35.984375 17.484375 30.375 
z
" id="Arial-BoldMT-65"/>
     <path id="Arial-BoldMT-20"/>
     <path d="M 16.84375 0 
L 0.4375 51.859375 
L 13.765625 51.859375 
L 23.484375 17.875 
L 32.421875 51.859375 
L 45.65625 51.859375 
L 54.296875 17.875 
L 64.203125 51.859375 
L 77.734375 51.859375 
L 61.078125 0 
L 47.90625 0 
L 38.96875 33.34375 
L 30.171875 0 
z
" id="Arial-BoldMT-77"/>
     <path d="M 17.4375 36.03125 
L 4.984375 38.28125 
Q 7.078125 45.796875 12.203125 49.40625 
Q 17.328125 53.03125 27.4375 53.03125 
Q 36.625 53.03125 41.109375 50.859375 
Q 45.609375 48.6875 47.4375 45.34375 
Q 49.265625 42 49.265625 33.0625 
L 49.125 17.046875 
Q 49.125 10.203125 49.78125 6.953125 
Q 50.4375 3.71875 52.25 0 
L 38.671875 0 
Q 38.140625 1.375 37.359375 4.046875 
Q 37.015625 5.28125 36.859375 5.671875 
Q 33.34375 2.25 29.34375 0.53125 
Q 25.34375 -1.171875 20.796875 -1.171875 
Q 12.796875 -1.171875 8.171875 3.171875 
Q 3.5625 7.515625 3.5625 14.15625 
Q 3.5625 18.5625 5.65625 22 
Q 7.765625 25.4375 11.546875 27.265625 
Q 15.328125 29.109375 22.46875 30.46875 
Q 32.078125 32.28125 35.796875 33.84375 
L 35.796875 35.203125 
Q 35.796875 39.15625 33.84375 40.84375 
Q 31.890625 42.53125 26.46875 42.53125 
Q 22.796875 42.53125 20.75 41.09375 
Q 18.703125 39.65625 17.4375 36.03125 
M 35.796875 24.90625 
Q 33.15625 24.03125 27.4375 22.796875 
Q 21.734375 21.578125 19.96875 20.40625 
Q 17.28125 18.5 17.28125 15.578125 
Q 17.28125 12.703125 19.421875 10.59375 
Q 21.578125 8.5 24.90625 8.5 
Q 28.609375 8.5 31.984375 10.9375 
Q 34.46875 12.796875 35.25 15.484375 
Q 35.796875 17.234375 35.796875 22.171875 
z
" id="Arial-BoldMT-61"/>
     <path d="M 30.953125 51.859375 
L 30.953125 40.921875 
L 21.578125 40.921875 
L 21.578125 20.015625 
Q 21.578125 13.671875 21.84375 12.625 
Q 22.125 11.578125 23.078125 10.890625 
Q 24.03125 10.203125 25.390625 10.203125 
Q 27.296875 10.203125 30.90625 11.53125 
L 32.078125 0.875 
Q 27.296875 -1.171875 21.234375 -1.171875 
Q 17.53125 -1.171875 14.546875 0.0625 
Q 11.578125 1.3125 10.1875 3.296875 
Q 8.796875 5.28125 8.25 8.640625 
Q 7.8125 11.03125 7.8125 18.3125 
L 7.8125 40.921875 
L 1.515625 40.921875 
L 1.515625 51.859375 
L 7.8125 51.859375 
L 7.8125 62.15625 
L 21.578125 70.171875 
L 21.578125 51.859375 
z
" id="Arial-BoldMT-74"/>
     <path d="M 52.390625 36.53125 
L 38.875 34.078125 
Q 38.1875 38.140625 35.765625 40.1875 
Q 33.34375 42.234375 29.5 42.234375 
Q 24.359375 42.234375 21.3125 38.6875 
Q 18.265625 35.15625 18.265625 26.859375 
Q 18.265625 17.625 21.359375 13.8125 
Q 24.46875 10.015625 29.6875 10.015625 
Q 33.59375 10.015625 36.078125 12.234375 
Q 38.578125 14.453125 39.59375 19.875 
L 53.078125 17.578125 
Q 50.984375 8.296875 45.015625 3.5625 
Q 39.0625 -1.171875 29.046875 -1.171875 
Q 17.671875 -1.171875 10.90625 6 
Q 4.15625 13.1875 4.15625 25.875 
Q 4.15625 38.71875 10.9375 45.875 
Q 17.71875 53.03125 29.296875 53.03125 
Q 38.765625 53.03125 44.359375 48.953125 
Q 49.953125 44.875 52.390625 36.53125 
" id="Arial-BoldMT-63"/>
     <path d="M 20.84375 71.578125 
L 20.84375 45.265625 
Q 27.484375 53.03125 36.71875 53.03125 
Q 41.453125 53.03125 45.265625 51.265625 
Q 49.078125 49.515625 51 46.78125 
Q 52.9375 44.046875 53.640625 40.71875 
Q 54.34375 37.40625 54.34375 30.421875 
L 54.34375 0 
L 40.625 0 
L 40.625 27.390625 
Q 40.625 35.546875 39.84375 37.734375 
Q 39.0625 39.9375 37.078125 41.234375 
Q 35.109375 42.53125 32.125 42.53125 
Q 28.71875 42.53125 26.03125 40.859375 
Q 23.34375 39.203125 22.09375 35.859375 
Q 20.84375 32.515625 20.84375 25.984375 
L 20.84375 0 
L 7.125 0 
L 7.125 71.578125 
z
" id="Arial-BoldMT-68"/>
     <path d="M 54.734375 0 
L 42 0 
L 42 7.625 
Q 38.8125 3.171875 34.484375 1 
Q 30.171875 -1.171875 25.78125 -1.171875 
Q 16.84375 -1.171875 10.46875 6.03125 
Q 4.109375 13.234375 4.109375 26.125 
Q 4.109375 39.3125 10.296875 46.171875 
Q 16.5 53.03125 25.984375 53.03125 
Q 34.671875 53.03125 41.015625 45.796875 
L 41.015625 71.578125 
L 54.734375 71.578125 
z
M 18.109375 27.046875 
Q 18.109375 18.75 20.40625 15.046875 
Q 23.734375 9.671875 29.6875 9.671875 
Q 34.421875 9.671875 37.734375 13.6875 
Q 41.0625 17.71875 41.0625 25.734375 
Q 41.0625 34.671875 37.84375 38.59375 
Q 34.625 42.53125 29.59375 42.53125 
Q 24.703125 42.53125 21.40625 38.640625 
Q 18.109375 34.765625 18.109375 27.046875 
" id="Arial-BoldMT-64"/>
     <path d="M 0.6875 51.859375 
L 15.28125 51.859375 
L 27.6875 15.046875 
L 39.796875 51.859375 
L 54 51.859375 
L 35.6875 1.953125 
L 32.421875 -7.078125 
Q 30.609375 -11.625 28.96875 -14.015625 
Q 27.34375 -16.40625 25.21875 -17.890625 
Q 23.09375 -19.390625 19.984375 -20.21875 
Q 16.890625 -21.046875 12.984375 -21.046875 
Q 9.03125 -21.046875 5.21875 -20.21875 
L 4 -9.46875 
Q 7.234375 -10.109375 9.8125 -10.109375 
Q 14.59375 -10.109375 16.890625 -7.296875 
Q 19.1875 -4.5 20.40625 -0.140625 
z
" id="Arial-BoldMT-79"/>
     <path d="M 4 26.65625 
Q 4 33.5 7.375 39.890625 
Q 10.75 46.296875 16.921875 49.65625 
Q 23.09375 53.03125 30.71875 53.03125 
Q 42.484375 53.03125 50 45.390625 
Q 57.515625 37.75 57.515625 26.078125 
Q 57.515625 14.3125 49.921875 6.5625 
Q 42.328125 -1.171875 30.8125 -1.171875 
Q 23.6875 -1.171875 17.21875 2.046875 
Q 10.75 5.28125 7.375 11.5 
Q 4 17.71875 4 26.65625 
M 18.0625 25.921875 
Q 18.0625 18.21875 21.71875 14.109375 
Q 25.390625 10.015625 30.765625 10.015625 
Q 36.140625 10.015625 39.765625 14.109375 
Q 43.40625 18.21875 43.40625 26.03125 
Q 43.40625 33.640625 39.765625 37.734375 
Q 36.140625 41.84375 30.765625 41.84375 
Q 25.390625 41.84375 21.71875 37.734375 
Q 18.0625 33.640625 18.0625 25.921875 
" id="Arial-BoldMT-6f"/>
     <path d="M 41.3125 0 
L 41.3125 7.765625 
Q 38.484375 3.609375 33.859375 1.21875 
Q 29.25 -1.171875 24.125 -1.171875 
Q 18.890625 -1.171875 14.734375 1.125 
Q 10.59375 3.421875 8.734375 7.5625 
Q 6.890625 11.71875 6.890625 19.046875 
L 6.890625 51.859375 
L 20.609375 51.859375 
L 20.609375 28.03125 
Q 20.609375 17.09375 21.359375 14.625 
Q 22.125 12.15625 24.125 10.71875 
Q 26.125 9.28125 29.203125 9.28125 
Q 32.71875 9.28125 35.5 11.203125 
Q 38.28125 13.140625 39.296875 15.984375 
Q 40.328125 18.84375 40.328125 29.984375 
L 40.328125 51.859375 
L 54.046875 51.859375 
L 54.046875 0 
z
" id="Arial-BoldMT-75"/>
     <path d="M 54.34375 0 
L 40.625 0 
L 40.625 26.46875 
Q 40.625 34.859375 39.75 37.328125 
Q 38.875 39.796875 36.890625 41.15625 
Q 34.90625 42.53125 32.125 42.53125 
Q 28.5625 42.53125 25.734375 40.578125 
Q 22.90625 38.625 21.84375 35.390625 
Q 20.796875 32.171875 20.796875 23.484375 
L 20.796875 0 
L 7.078125 0 
L 7.078125 51.859375 
L 19.828125 51.859375 
L 19.828125 44.234375 
Q 26.609375 53.03125 36.921875 53.03125 
Q 41.453125 53.03125 45.203125 51.390625 
Q 48.96875 49.75 50.890625 47.203125 
Q 52.828125 44.671875 53.578125 41.453125 
Q 54.34375 38.234375 54.34375 32.234375 
z
" id="Arial-BoldMT-6e"/>
     <path d="M 5.90625 -3.421875 
L 21.578125 -5.328125 
Q 21.96875 -8.0625 23.390625 -9.078125 
Q 25.34375 -10.546875 29.546875 -10.546875 
Q 34.90625 -10.546875 37.59375 -8.9375 
Q 39.40625 -7.859375 40.328125 -5.46875 
Q 40.96875 -3.765625 40.96875 0.828125 
L 40.96875 8.40625 
Q 34.8125 0 25.4375 0 
Q 14.984375 0 8.890625 8.84375 
Q 4.109375 15.828125 4.109375 26.21875 
Q 4.109375 39.265625 10.375 46.140625 
Q 16.65625 53.03125 25.984375 53.03125 
Q 35.59375 53.03125 41.84375 44.578125 
L 41.84375 51.859375 
L 54.6875 51.859375 
L 54.6875 5.328125 
Q 54.6875 -3.859375 53.171875 -8.390625 
Q 51.65625 -12.9375 48.921875 -15.515625 
Q 46.1875 -18.109375 41.625 -19.578125 
Q 37.0625 -21.046875 30.078125 -21.046875 
Q 16.890625 -21.046875 11.375 -16.53125 
Q 5.859375 -12.015625 5.859375 -5.078125 
Q 5.859375 -4.390625 5.90625 -3.421875 
M 18.171875 27 
Q 18.171875 18.75 21.359375 14.90625 
Q 24.5625 11.078125 29.25 11.078125 
Q 34.28125 11.078125 37.75 15.015625 
Q 41.21875 18.953125 41.21875 26.65625 
Q 41.21875 34.71875 37.890625 38.625 
Q 34.578125 42.53125 29.5 42.53125 
Q 24.5625 42.53125 21.359375 38.6875 
Q 18.171875 34.859375 18.171875 27 
" id="Arial-BoldMT-67"/>
    </defs>
    <g style="fill:#fffea3;" transform="translate(203.874219 22.005501)scale(0.14 -0.14)">
     <use xlink:href="#Arial-BoldMT-69"/>
     <use x="27.783203" xlink:href="#Arial-BoldMT-27"/>
     <use x="51.5625" xlink:href="#Arial-BoldMT-76"/>
     <use x="107.177734" xlink:href="#Arial-BoldMT-65"/>
     <use x="162.792969" xlink:href="#Arial-BoldMT-20"/>
     <use x="190.576172" xlink:href="#Arial-BoldMT-77"/>
     <use x="268.359375" xlink:href="#Arial-BoldMT-61"/>
     <use x="323.974609" xlink:href="#Arial-BoldMT-74"/>
     <use x="357.275391" xlink:href="#Arial-BoldMT-63"/>
     <use x="412.890625" xlink:href="#Arial-BoldMT-68"/>
     <use x="473.974609" xlink:href="#Arial-BoldMT-65"/>
     <use x="529.589844" xlink:href="#Arial-BoldMT-64"/>
     <use x="590.673828" xlink:href="#Arial-BoldMT-20"/>
     <use x="618.457031" xlink:href="#Arial-BoldMT-79"/>
     <use x="674.072266" xlink:href="#Arial-BoldMT-6f"/>
     <use x="735.15625" xlink:href="#Arial-BoldMT-75"/>
     <use x="796.240234" xlink:href="#Arial-BoldMT-20"/>
     <use x="824.023438" xlink:href="#Arial-BoldMT-63"/>
     <use x="879.638672" xlink:href="#Arial-BoldMT-68"/>
     <use x="940.722656" xlink:href="#Arial-BoldMT-61"/>
     <use x="996.337891" xlink:href="#Arial-BoldMT-6e"/>
     <use x="1057.421875" xlink:href="#Arial-BoldMT-67"/>
     <use x="1118.505859" xlink:href="#Arial-BoldMT-65"/>
     <use x="1174.121094" xlink:href="#Arial-BoldMT-20"/>
    </g>
   </g>
  </g>
 </g>
 <defs>
  <clipPath id="p10c9460d96">
   <path d="M 288 363.687548 
C 329.214778 363.687548 368.747053 347.312743 397.890302 318.169495 
C 427.03355 289.026246 443.408355 249.493971 443.408355 208.279193 
C 443.408355 167.064416 427.03355 127.53214 397.890302 98.388891 
C 368.747053 69.245643 329.214778 52.870838 288 52.870838 
C 246.785222 52.870838 207.252947 69.245643 178.109698 98.388891 
C 148.96645 127.53214 132.591645 167.064416 132.591645 208.279193 
C 132.591645 249.493971 148.96645 289.026246 178.109698 318.169495 
C 207.252947 347.312743 246.785222 363.687548 288 363.687548 
z
"/>
  </clipPath>
 </defs>
</svg>
