<?xml version="1.0" encoding="utf-8" standalone="no"?>
<!DOCTYPE svg PUBLIC "-//W3C//DTD SVG 1.1//EN"
  "http://www.w3.org/Graphics/SVG/1.1/DTD/svg11.dtd">
<!-- Created with matplotlib (http://matplotlib.org/) -->
<svg height="396pt" version="1.1" viewBox="0 0 576 396" width="576pt" xmlns="http://www.w3.org/2000/svg" xmlns:xlink="http://www.w3.org/1999/xlink">
 <defs>
  <style type="text/css">
*{stroke-linecap:butt;stroke-linejoin:round;}
  </style>
 </defs>
 <g id="figure_1">
  <g id="patch_1">
   <path d="M 0 396 
L 576 396 
L 576 0 
L 0 0 
z
" style="fill:#ffffff;"/>
  </g>
  <g id="axes_1">
   <g id="patch_2">
    <path d="M 288 363.687556 
C 329.19849 363.687556 368.715143 347.319223 397.846875 318.187491 
C 426.978607 289.055759 443.346941 249.539106 443.346941 208.340616 
C 443.346941 167.142125 426.978607 127.625472 397.846875 98.493741 
C 368.715143 69.362009 329.19849 52.993675 288 52.993675 
C 246.80151 52.993675 207.284857 69.362009 178.153125 98.493741 
C 149.021393 127.625472 132.653059 167.142125 132.653059 208.340616 
C 132.653059 249.539106 149.021393 289.055759 178.153125 318.187491 
C 207.284857 347.319223 246.80151 363.687556 288 363.687556 
z
" style="fill:#eaeaf2;"/>
   </g>
   <g id="matplotlib.axis_1">
    <g id="xtick_1">
     <g id="line2d_1">
      <path clip-path="url(#p97be6c9475)" d="M 288 208.340616 
L 288 52.993675 
" style="fill:none;stroke:#ffffff;stroke-linecap:round;"/>
     </g>
     <g id="text_1">
      <!-- valence -->
      <defs>
       <path d="M 21 0 
L 1.265625 51.859375 
L 10.546875 51.859375 
L 21.6875 20.796875 
Q 23.484375 15.765625 25 10.359375 
Q 26.171875 14.453125 28.265625 20.21875 
L 39.796875 51.859375 
L 48.828125 51.859375 
L 29.203125 0 
z
" id="ArialMT-76"/>
       <path d="M 40.4375 6.390625 
Q 35.546875 2.25 31.03125 0.53125 
Q 26.515625 -1.171875 21.34375 -1.171875 
Q 12.796875 -1.171875 8.203125 3 
Q 3.609375 7.171875 3.609375 13.671875 
Q 3.609375 17.484375 5.34375 20.625 
Q 7.078125 23.78125 9.890625 25.6875 
Q 12.703125 27.59375 16.21875 28.5625 
Q 18.796875 29.25 24.03125 29.890625 
Q 34.671875 31.15625 39.703125 32.90625 
Q 39.75 34.71875 39.75 35.203125 
Q 39.75 40.578125 37.25 42.78125 
Q 33.890625 45.75 27.25 45.75 
Q 21.046875 45.75 18.09375 43.578125 
Q 15.140625 41.40625 13.71875 35.890625 
L 5.125 37.0625 
Q 6.296875 42.578125 8.984375 45.96875 
Q 11.671875 49.359375 16.75 51.1875 
Q 21.828125 53.03125 28.515625 53.03125 
Q 35.15625 53.03125 39.296875 51.46875 
Q 43.453125 49.90625 45.40625 47.53125 
Q 47.359375 45.171875 48.140625 41.546875 
Q 48.578125 39.3125 48.578125 33.453125 
L 48.578125 21.734375 
Q 48.578125 9.46875 49.140625 6.21875 
Q 49.703125 2.984375 51.375 0 
L 42.1875 0 
Q 40.828125 2.734375 40.4375 6.390625 
M 39.703125 26.03125 
Q 34.90625 24.078125 25.34375 22.703125 
Q 19.921875 21.921875 17.671875 20.9375 
Q 15.4375 19.96875 14.203125 18.09375 
Q 12.984375 16.21875 12.984375 13.921875 
Q 12.984375 10.40625 15.640625 8.0625 
Q 18.3125 5.71875 23.4375 5.71875 
Q 28.515625 5.71875 32.46875 7.9375 
Q 36.421875 10.15625 38.28125 14.015625 
Q 39.703125 17 39.703125 22.796875 
z
" id="ArialMT-61"/>
       <path d="M 6.390625 0 
L 6.390625 71.578125 
L 15.1875 71.578125 
L 15.1875 0 
z
" id="ArialMT-6c"/>
       <path d="M 42.09375 16.703125 
L 51.171875 15.578125 
Q 49.03125 7.625 43.21875 3.21875 
Q 37.40625 -1.171875 28.375 -1.171875 
Q 17 -1.171875 10.328125 5.828125 
Q 3.65625 12.84375 3.65625 25.484375 
Q 3.65625 38.578125 10.390625 45.796875 
Q 17.140625 53.03125 27.875 53.03125 
Q 38.28125 53.03125 44.875 45.953125 
Q 51.46875 38.875 51.46875 26.03125 
Q 51.46875 25.25 51.421875 23.6875 
L 12.75 23.6875 
Q 13.234375 15.140625 17.578125 10.59375 
Q 21.921875 6.0625 28.421875 6.0625 
Q 33.25 6.0625 36.671875 8.59375 
Q 40.09375 11.140625 42.09375 16.703125 
M 13.234375 30.90625 
L 42.1875 30.90625 
Q 41.609375 37.453125 38.875 40.71875 
Q 34.671875 45.796875 27.984375 45.796875 
Q 21.921875 45.796875 17.796875 41.75 
Q 13.671875 37.703125 13.234375 30.90625 
" id="ArialMT-65"/>
       <path d="M 6.59375 0 
L 6.59375 51.859375 
L 14.5 51.859375 
L 14.5 44.484375 
Q 20.21875 53.03125 31 53.03125 
Q 35.6875 53.03125 39.625 51.34375 
Q 43.5625 49.65625 45.515625 46.921875 
Q 47.46875 44.1875 48.25 40.4375 
Q 48.734375 37.984375 48.734375 31.890625 
L 48.734375 0 
L 39.9375 0 
L 39.9375 31.546875 
Q 39.9375 36.921875 38.90625 39.578125 
Q 37.890625 42.234375 35.28125 43.8125 
Q 32.671875 45.40625 29.15625 45.40625 
Q 23.53125 45.40625 19.453125 41.84375 
Q 15.375 38.28125 15.375 28.328125 
L 15.375 0 
z
" id="ArialMT-6e"/>
       <path d="M 40.4375 19 
L 49.078125 17.875 
Q 47.65625 8.9375 41.8125 3.875 
Q 35.984375 -1.171875 27.484375 -1.171875 
Q 16.84375 -1.171875 10.375 5.78125 
Q 3.90625 12.75 3.90625 25.734375 
Q 3.90625 34.125 6.6875 40.421875 
Q 9.46875 46.734375 15.15625 49.875 
Q 20.84375 53.03125 27.546875 53.03125 
Q 35.984375 53.03125 41.359375 48.75 
Q 46.734375 44.484375 48.25 36.625 
L 39.703125 35.296875 
Q 38.484375 40.53125 35.375 43.15625 
Q 32.28125 45.796875 27.875 45.796875 
Q 21.234375 45.796875 17.078125 41.03125 
Q 12.9375 36.28125 12.9375 25.984375 
Q 12.9375 15.53125 16.9375 10.796875 
Q 20.953125 6.0625 27.390625 6.0625 
Q 32.5625 6.0625 36.03125 9.234375 
Q 39.5 12.40625 40.4375 19 
" id="ArialMT-63"/>
      </defs>
      <g style="fill:#808080;" transform="translate(274.21375 39.527106)scale(0.08 -0.08)">
       <use xlink:href="#ArialMT-76"/>
       <use x="50" xlink:href="#ArialMT-61"/>
       <use x="105.615234" xlink:href="#ArialMT-6c"/>
       <use x="127.832031" xlink:href="#ArialMT-65"/>
       <use x="183.447266" xlink:href="#ArialMT-6e"/>
       <use x="239.0625" xlink:href="#ArialMT-63"/>
       <use x="289.0625" xlink:href="#ArialMT-65"/>
      </g>
     </g>
    </g>
    <g id="xtick_2">
     <g id="line2d_2">
      <path clip-path="url(#p97be6c9475)" d="M 288 208.340616 
L 397.846875 98.493741 
" style="fill:none;stroke:#ffffff;stroke-linecap:round;"/>
     </g>
     <g id="text_2">
      <!-- energy -->
      <defs>
       <path d="M 6.5 0 
L 6.5 51.859375 
L 14.40625 51.859375 
L 14.40625 44 
Q 17.4375 49.515625 20 51.265625 
Q 22.5625 53.03125 25.640625 53.03125 
Q 30.078125 53.03125 34.671875 50.203125 
L 31.640625 42.046875 
Q 28.421875 43.953125 25.203125 43.953125 
Q 22.3125 43.953125 20.015625 42.21875 
Q 17.71875 40.484375 16.75 37.40625 
Q 15.28125 32.71875 15.28125 27.15625 
L 15.28125 0 
z
" id="ArialMT-72"/>
       <path d="M 4.984375 -4.296875 
L 13.53125 -5.5625 
Q 14.0625 -9.515625 16.5 -11.328125 
Q 19.78125 -13.765625 25.4375 -13.765625 
Q 31.546875 -13.765625 34.859375 -11.328125 
Q 38.1875 -8.890625 39.359375 -4.5 
Q 40.046875 -1.8125 39.984375 6.78125 
Q 34.234375 0 25.640625 0 
Q 14.9375 0 9.078125 7.71875 
Q 3.21875 15.4375 3.21875 26.21875 
Q 3.21875 33.640625 5.90625 39.90625 
Q 8.59375 46.1875 13.6875 49.609375 
Q 18.796875 53.03125 25.6875 53.03125 
Q 34.859375 53.03125 40.828125 45.609375 
L 40.828125 51.859375 
L 48.921875 51.859375 
L 48.921875 7.03125 
Q 48.921875 -5.078125 46.453125 -10.125 
Q 44 -15.1875 38.640625 -18.109375 
Q 33.296875 -21.046875 25.484375 -21.046875 
Q 16.21875 -21.046875 10.5 -16.875 
Q 4.78125 -12.703125 4.984375 -4.296875 
M 12.25 26.859375 
Q 12.25 16.65625 16.296875 11.96875 
Q 20.359375 7.28125 26.46875 7.28125 
Q 32.515625 7.28125 36.609375 11.9375 
Q 40.71875 16.609375 40.71875 26.5625 
Q 40.71875 36.078125 36.5 40.90625 
Q 32.28125 45.75 26.3125 45.75 
Q 20.453125 45.75 16.34375 40.984375 
Q 12.25 36.234375 12.25 26.859375 
" id="ArialMT-67"/>
       <path d="M 6.203125 -19.96875 
L 5.21875 -11.71875 
Q 8.109375 -12.5 10.25 -12.5 
Q 13.1875 -12.5 14.9375 -11.515625 
Q 16.703125 -10.546875 17.828125 -8.796875 
Q 18.65625 -7.46875 20.515625 -2.25 
Q 20.75 -1.515625 21.296875 -0.09375 
L 1.609375 51.859375 
L 11.078125 51.859375 
L 21.875 21.828125 
Q 23.96875 16.109375 25.640625 9.8125 
Q 27.15625 15.875 29.25 21.625 
L 40.328125 51.859375 
L 49.125 51.859375 
L 29.390625 -0.875 
Q 26.21875 -9.421875 24.46875 -12.640625 
Q 22.125 -17 19.09375 -19.015625 
Q 16.0625 -21.046875 11.859375 -21.046875 
Q 9.328125 -21.046875 6.203125 -19.96875 
" id="ArialMT-79"/>
      </defs>
      <g style="fill:#808080;" transform="translate(396.602188 89.483428)scale(0.08 -0.08)">
       <use xlink:href="#ArialMT-65"/>
       <use x="55.615234" xlink:href="#ArialMT-6e"/>
       <use x="111.230469" xlink:href="#ArialMT-65"/>
       <use x="166.845703" xlink:href="#ArialMT-72"/>
       <use x="200.146484" xlink:href="#ArialMT-67"/>
       <use x="255.761719" xlink:href="#ArialMT-79"/>
      </g>
     </g>
    </g>
    <g id="xtick_3">
     <g id="line2d_3">
      <path clip-path="url(#p97be6c9475)" d="M 288 208.340616 
L 443.346941 208.340616 
" style="fill:none;stroke:#ffffff;stroke-linecap:round;"/>
     </g>
     <g id="text_3">
      <!-- acousticness -->
      <defs>
       <path d="M 3.328125 25.921875 
Q 3.328125 40.328125 11.328125 47.265625 
Q 18.015625 53.03125 27.640625 53.03125 
Q 38.328125 53.03125 45.109375 46.015625 
Q 51.90625 39.015625 51.90625 26.65625 
Q 51.90625 16.65625 48.90625 10.90625 
Q 45.90625 5.171875 40.15625 2 
Q 34.421875 -1.171875 27.640625 -1.171875 
Q 16.75 -1.171875 10.03125 5.8125 
Q 3.328125 12.796875 3.328125 25.921875 
M 12.359375 25.921875 
Q 12.359375 15.96875 16.703125 11.015625 
Q 21.046875 6.0625 27.640625 6.0625 
Q 34.1875 6.0625 38.53125 11.03125 
Q 42.875 16.015625 42.875 26.21875 
Q 42.875 35.84375 38.5 40.796875 
Q 34.125 45.75 27.640625 45.75 
Q 21.046875 45.75 16.703125 40.8125 
Q 12.359375 35.890625 12.359375 25.921875 
" id="ArialMT-6f"/>
       <path d="M 40.578125 0 
L 40.578125 7.625 
Q 34.515625 -1.171875 24.125 -1.171875 
Q 19.53125 -1.171875 15.546875 0.578125 
Q 11.578125 2.34375 9.640625 5 
Q 7.71875 7.671875 6.9375 11.53125 
Q 6.390625 14.109375 6.390625 19.734375 
L 6.390625 51.859375 
L 15.1875 51.859375 
L 15.1875 23.09375 
Q 15.1875 16.21875 15.71875 13.8125 
Q 16.546875 10.359375 19.234375 8.375 
Q 21.921875 6.390625 25.875 6.390625 
Q 29.828125 6.390625 33.296875 8.421875 
Q 36.765625 10.453125 38.203125 13.9375 
Q 39.65625 17.4375 39.65625 24.078125 
L 39.65625 51.859375 
L 48.4375 51.859375 
L 48.4375 0 
z
" id="ArialMT-75"/>
       <path d="M 3.078125 15.484375 
L 11.765625 16.84375 
Q 12.5 11.625 15.84375 8.84375 
Q 19.1875 6.0625 25.203125 6.0625 
Q 31.25 6.0625 34.171875 8.515625 
Q 37.109375 10.984375 37.109375 14.3125 
Q 37.109375 17.28125 34.515625 19 
Q 32.71875 20.171875 25.53125 21.96875 
Q 15.875 24.421875 12.140625 26.203125 
Q 8.40625 27.984375 6.46875 31.125 
Q 4.546875 34.28125 4.546875 38.09375 
Q 4.546875 41.546875 6.125 44.5 
Q 7.71875 47.46875 10.453125 49.421875 
Q 12.5 50.921875 16.03125 51.96875 
Q 19.578125 53.03125 23.640625 53.03125 
Q 29.734375 53.03125 34.34375 51.265625 
Q 38.96875 49.515625 41.15625 46.5 
Q 43.359375 43.5 44.1875 38.484375 
L 35.59375 37.3125 
Q 35.015625 41.3125 32.203125 43.546875 
Q 29.390625 45.796875 24.265625 45.796875 
Q 18.21875 45.796875 15.625 43.796875 
Q 13.03125 41.796875 13.03125 39.109375 
Q 13.03125 37.40625 14.109375 36.03125 
Q 15.1875 34.625 17.484375 33.6875 
Q 18.796875 33.203125 25.25 31.453125 
Q 34.578125 28.953125 38.25 27.359375 
Q 41.9375 25.78125 44.03125 22.75 
Q 46.140625 19.734375 46.140625 15.234375 
Q 46.140625 10.84375 43.578125 6.953125 
Q 41.015625 3.078125 36.171875 0.953125 
Q 31.34375 -1.171875 25.25 -1.171875 
Q 15.140625 -1.171875 9.84375 3.03125 
Q 4.546875 7.234375 3.078125 15.484375 
" id="ArialMT-73"/>
       <path d="M 25.78125 7.859375 
L 27.046875 0.09375 
Q 23.34375 -0.6875 20.40625 -0.6875 
Q 15.625 -0.6875 12.984375 0.828125 
Q 10.359375 2.34375 9.28125 4.8125 
Q 8.203125 7.28125 8.203125 15.1875 
L 8.203125 45.015625 
L 1.765625 45.015625 
L 1.765625 51.859375 
L 8.203125 51.859375 
L 8.203125 64.703125 
L 16.9375 69.96875 
L 16.9375 51.859375 
L 25.78125 51.859375 
L 25.78125 45.015625 
L 16.9375 45.015625 
L 16.9375 14.703125 
Q 16.9375 10.9375 17.40625 9.859375 
Q 17.875 8.796875 18.921875 8.15625 
Q 19.96875 7.515625 21.921875 7.515625 
Q 23.390625 7.515625 25.78125 7.859375 
" id="ArialMT-74"/>
       <path d="M 6.640625 61.46875 
L 6.640625 71.578125 
L 15.4375 71.578125 
L 15.4375 61.46875 
z
M 6.640625 0 
L 6.640625 51.859375 
L 15.4375 51.859375 
L 15.4375 0 
z
" id="ArialMT-69"/>
      </defs>
      <g style="fill:#808080;" transform="translate(435.75976 210.408741)scale(0.08 -0.08)">
       <use xlink:href="#ArialMT-61"/>
       <use x="55.615234" xlink:href="#ArialMT-63"/>
       <use x="105.615234" xlink:href="#ArialMT-6f"/>
       <use x="161.230469" xlink:href="#ArialMT-75"/>
       <use x="216.845703" xlink:href="#ArialMT-73"/>
       <use x="266.845703" xlink:href="#ArialMT-74"/>
       <use x="294.628906" xlink:href="#ArialMT-69"/>
       <use x="316.845703" xlink:href="#ArialMT-63"/>
       <use x="366.845703" xlink:href="#ArialMT-6e"/>
       <use x="422.460938" xlink:href="#ArialMT-65"/>
       <use x="478.076172" xlink:href="#ArialMT-73"/>
       <use x="528.076172" xlink:href="#ArialMT-73"/>
      </g>
     </g>
    </g>
    <g id="xtick_4">
     <g id="line2d_4">
      <path clip-path="url(#p97be6c9475)" d="M 288 208.340616 
L 397.846875 318.187491 
" style="fill:none;stroke:#ffffff;stroke-linecap:round;"/>
     </g>
     <g id="text_4">
      <!-- speechiness -->
      <defs>
       <path d="M 6.59375 -19.875 
L 6.59375 51.859375 
L 14.59375 51.859375 
L 14.59375 45.125 
Q 17.4375 49.078125 21 51.046875 
Q 24.5625 53.03125 29.640625 53.03125 
Q 36.28125 53.03125 41.359375 49.609375 
Q 46.4375 46.1875 49.015625 39.953125 
Q 51.609375 33.734375 51.609375 26.3125 
Q 51.609375 18.359375 48.75 11.984375 
Q 45.90625 5.609375 40.453125 2.21875 
Q 35.015625 -1.171875 29 -1.171875 
Q 24.609375 -1.171875 21.109375 0.6875 
Q 17.625 2.546875 15.375 5.375 
L 15.375 -19.875 
z
M 14.546875 25.640625 
Q 14.546875 15.625 18.59375 10.84375 
Q 22.65625 6.0625 28.421875 6.0625 
Q 34.28125 6.0625 38.453125 11.015625 
Q 42.625 15.96875 42.625 26.375 
Q 42.625 36.28125 38.546875 41.203125 
Q 34.46875 46.140625 28.8125 46.140625 
Q 23.1875 46.140625 18.859375 40.890625 
Q 14.546875 35.640625 14.546875 25.640625 
" id="ArialMT-70"/>
       <path d="M 6.59375 0 
L 6.59375 71.578125 
L 15.375 71.578125 
L 15.375 45.90625 
Q 21.53125 53.03125 30.90625 53.03125 
Q 36.671875 53.03125 40.921875 50.75 
Q 45.171875 48.484375 47 44.484375 
Q 48.828125 40.484375 48.828125 32.859375 
L 48.828125 0 
L 40.046875 0 
L 40.046875 32.859375 
Q 40.046875 39.453125 37.1875 42.453125 
Q 34.328125 45.453125 29.109375 45.453125 
Q 25.203125 45.453125 21.75 43.421875 
Q 18.3125 41.40625 16.84375 37.9375 
Q 15.375 34.46875 15.375 28.375 
L 15.375 0 
z
" id="ArialMT-68"/>
      </defs>
      <g style="fill:#808080;" transform="translate(386.596563 331.240303)scale(0.08 -0.08)">
       <use xlink:href="#ArialMT-73"/>
       <use x="50" xlink:href="#ArialMT-70"/>
       <use x="105.615234" xlink:href="#ArialMT-65"/>
       <use x="161.230469" xlink:href="#ArialMT-65"/>
       <use x="216.845703" xlink:href="#ArialMT-63"/>
       <use x="266.845703" xlink:href="#ArialMT-68"/>
       <use x="322.460938" xlink:href="#ArialMT-69"/>
       <use x="344.677734" xlink:href="#ArialMT-6e"/>
       <use x="400.292969" xlink:href="#ArialMT-65"/>
       <use x="455.908203" xlink:href="#ArialMT-73"/>
       <use x="505.908203" xlink:href="#ArialMT-73"/>
      </g>
     </g>
    </g>
    <g id="xtick_5">
     <g id="line2d_5">
      <path clip-path="url(#p97be6c9475)" d="M 288 208.340616 
L 288 363.687556 
" style="fill:none;stroke:#ffffff;stroke-linecap:round;"/>
     </g>
     <g id="text_5">
      <!-- danceability -->
      <defs>
       <path d="M 40.234375 0 
L 40.234375 6.546875 
Q 35.296875 -1.171875 25.734375 -1.171875 
Q 19.53125 -1.171875 14.328125 2.25 
Q 9.125 5.671875 6.265625 11.796875 
Q 3.421875 17.921875 3.421875 25.875 
Q 3.421875 33.640625 6 39.96875 
Q 8.59375 46.296875 13.765625 49.65625 
Q 18.953125 53.03125 25.34375 53.03125 
Q 30.03125 53.03125 33.6875 51.046875 
Q 37.359375 49.078125 39.65625 45.90625 
L 39.65625 71.578125 
L 48.390625 71.578125 
L 48.390625 0 
z
M 12.453125 25.875 
Q 12.453125 15.921875 16.640625 10.984375 
Q 20.84375 6.0625 26.5625 6.0625 
Q 32.328125 6.0625 36.34375 10.765625 
Q 40.375 15.484375 40.375 25.140625 
Q 40.375 35.796875 36.265625 40.765625 
Q 32.171875 45.75 26.171875 45.75 
Q 20.3125 45.75 16.375 40.96875 
Q 12.453125 36.1875 12.453125 25.875 
" id="ArialMT-64"/>
       <path d="M 14.703125 0 
L 6.546875 0 
L 6.546875 71.578125 
L 15.328125 71.578125 
L 15.328125 46.046875 
Q 20.90625 53.03125 29.546875 53.03125 
Q 34.328125 53.03125 38.59375 51.09375 
Q 42.875 49.171875 45.625 45.671875 
Q 48.390625 42.1875 49.953125 37.25 
Q 51.515625 32.328125 51.515625 26.703125 
Q 51.515625 13.375 44.921875 6.09375 
Q 38.328125 -1.171875 29.109375 -1.171875 
Q 19.921875 -1.171875 14.703125 6.5 
z
M 14.59375 26.3125 
Q 14.59375 17 17.140625 12.84375 
Q 21.296875 6.0625 28.375 6.0625 
Q 34.125 6.0625 38.328125 11.0625 
Q 42.53125 16.0625 42.53125 25.984375 
Q 42.53125 36.140625 38.5 40.96875 
Q 34.46875 45.796875 28.765625 45.796875 
Q 23 45.796875 18.796875 40.796875 
Q 14.59375 35.796875 14.59375 26.3125 
" id="ArialMT-62"/>
      </defs>
      <g style="fill:#808080;" transform="translate(266.87625 381.2435)scale(0.08 -0.08)">
       <use xlink:href="#ArialMT-64"/>
       <use x="55.615234" xlink:href="#ArialMT-61"/>
       <use x="111.230469" xlink:href="#ArialMT-6e"/>
       <use x="166.845703" xlink:href="#ArialMT-63"/>
       <use x="216.845703" xlink:href="#ArialMT-65"/>
       <use x="272.460938" xlink:href="#ArialMT-61"/>
       <use x="328.076172" xlink:href="#ArialMT-62"/>
       <use x="383.691406" xlink:href="#ArialMT-69"/>
       <use x="405.908203" xlink:href="#ArialMT-6c"/>
       <use x="428.125" xlink:href="#ArialMT-69"/>
       <use x="450.341797" xlink:href="#ArialMT-74"/>
       <use x="478.125" xlink:href="#ArialMT-79"/>
      </g>
     </g>
    </g>
    <g id="xtick_6">
     <g id="line2d_6">
      <path clip-path="url(#p97be6c9475)" d="M 288 208.340616 
L 178.153125 318.187491 
" style="fill:none;stroke:#ffffff;stroke-linecap:round;"/>
     </g>
     <g id="text_6">
      <!-- instrumentalness -->
      <defs>
       <path d="M 6.59375 0 
L 6.59375 51.859375 
L 14.453125 51.859375 
L 14.453125 44.578125 
Q 16.890625 48.390625 20.9375 50.703125 
Q 25 53.03125 30.171875 53.03125 
Q 35.9375 53.03125 39.625 50.640625 
Q 43.3125 48.25 44.828125 43.953125 
Q 50.984375 53.03125 60.84375 53.03125 
Q 68.5625 53.03125 72.703125 48.75 
Q 76.859375 44.484375 76.859375 35.59375 
L 76.859375 0 
L 68.109375 0 
L 68.109375 32.671875 
Q 68.109375 37.9375 67.25 40.25 
Q 66.40625 42.578125 64.15625 43.984375 
Q 61.921875 45.40625 58.890625 45.40625 
Q 53.421875 45.40625 49.796875 41.765625 
Q 46.1875 38.140625 46.1875 30.125 
L 46.1875 0 
L 37.40625 0 
L 37.40625 33.6875 
Q 37.40625 39.546875 35.25 42.46875 
Q 33.109375 45.40625 28.21875 45.40625 
Q 24.515625 45.40625 21.359375 43.453125 
Q 18.21875 41.5 16.796875 37.734375 
Q 15.375 33.984375 15.375 26.90625 
L 15.375 0 
z
" id="ArialMT-6d"/>
      </defs>
      <g style="fill:#808080;" transform="translate(136.934062 331.240303)scale(0.08 -0.08)">
       <use xlink:href="#ArialMT-69"/>
       <use x="22.216797" xlink:href="#ArialMT-6e"/>
       <use x="77.832031" xlink:href="#ArialMT-73"/>
       <use x="127.832031" xlink:href="#ArialMT-74"/>
       <use x="155.615234" xlink:href="#ArialMT-72"/>
       <use x="188.916016" xlink:href="#ArialMT-75"/>
       <use x="244.53125" xlink:href="#ArialMT-6d"/>
       <use x="327.832031" xlink:href="#ArialMT-65"/>
       <use x="383.447266" xlink:href="#ArialMT-6e"/>
       <use x="439.0625" xlink:href="#ArialMT-74"/>
       <use x="466.845703" xlink:href="#ArialMT-61"/>
       <use x="522.460938" xlink:href="#ArialMT-6c"/>
       <use x="544.677734" xlink:href="#ArialMT-6e"/>
       <use x="600.292969" xlink:href="#ArialMT-65"/>
       <use x="655.908203" xlink:href="#ArialMT-73"/>
       <use x="705.908203" xlink:href="#ArialMT-73"/>
      </g>
     </g>
    </g>
    <g id="xtick_7">
     <g id="line2d_7">
      <path clip-path="url(#p97be6c9475)" d="M 288 208.340616 
L 132.653059 208.340616 
" style="fill:none;stroke:#ffffff;stroke-linecap:round;"/>
     </g>
     <g id="text_7">
      <!-- liveness -->
      <g style="fill:#808080;" transform="translate(102.66774 210.408741)scale(0.08 -0.08)">
       <use xlink:href="#ArialMT-6c"/>
       <use x="22.216797" xlink:href="#ArialMT-69"/>
       <use x="44.433594" xlink:href="#ArialMT-76"/>
       <use x="94.433594" xlink:href="#ArialMT-65"/>
       <use x="150.048828" xlink:href="#ArialMT-6e"/>
       <use x="205.664062" xlink:href="#ArialMT-65"/>
       <use x="261.279297" xlink:href="#ArialMT-73"/>
       <use x="311.279297" xlink:href="#ArialMT-73"/>
      </g>
     </g>
    </g>
    <g id="xtick_8">
     <g id="line2d_8">
      <path clip-path="url(#p97be6c9475)" d="M 288 208.340616 
L 178.153125 98.493741 
" style="fill:none;stroke:#ffffff;stroke-linecap:round;"/>
     </g>
     <g id="text_8">
      <!-- mode -->
      <g style="fill:#808080;" transform="translate(157.163437 89.577178)scale(0.08 -0.08)">
       <use xlink:href="#ArialMT-6d"/>
       <use x="83.300781" xlink:href="#ArialMT-6f"/>
       <use x="138.916016" xlink:href="#ArialMT-64"/>
       <use x="194.53125" xlink:href="#ArialMT-65"/>
      </g>
     </g>
    </g>
   </g>
   <g id="matplotlib.axis_2">
    <g id="ytick_1">
     <g id="line2d_9">
      <path clip-path="url(#p97be6c9475)" d="M 288 177.271228 
L 289.084306 177.290154 
L 290.167291 177.346911 
L 292.324023 177.573593 
L 294.459689 177.950168 
L 296.563884 178.474803 
L 298.626357 179.144941 
L 300.637059 179.957317 
L 302.586194 180.907974 
L 304.464267 181.99228 
L 306.262128 183.204953 
L 307.971018 184.540084 
L 309.582611 185.991168 
L 311.089055 187.551137 
L 312.483012 189.21239 
L 313.75769 190.966834 
L 314.906879 192.805922 
L 315.924981 194.720692 
L 316.807035 196.701818 
L 317.548744 198.739647 
L 318.146494 200.82425 
L 318.597374 202.945473 
L 318.899187 205.09298 
L 319.050461 207.25631 
L 319.050461 209.424922 
L 318.899187 211.588251 
L 318.597374 213.735758 
L 318.146494 215.856981 
L 317.548744 217.941585 
L 316.807035 219.979413 
L 315.924981 221.960539 
L 314.906879 223.87531 
L 313.75769 225.714397 
L 312.483012 227.468841 
L 311.089055 229.130094 
L 309.582611 230.690063 
L 307.971018 232.141148 
L 306.262128 233.476279 
L 304.464267 234.688951 
L 302.586194 235.773257 
L 300.637059 236.723914 
L 298.626357 237.53629 
L 296.563884 238.206428 
L 294.459689 238.731063 
L 292.324023 239.107639 
L 290.167291 239.33432 
L 288 239.410004 
L 285.832709 239.33432 
L 283.675977 239.107639 
L 281.540311 238.731063 
L 279.436116 238.206428 
L 277.373643 237.53629 
L 275.362941 236.723914 
L 273.413806 235.773257 
L 271.535733 234.688951 
L 269.737872 233.476279 
L 268.028982 232.141148 
L 266.417389 230.690063 
L 264.910945 229.130094 
L 263.516988 227.468841 
L 262.24231 225.714397 
L 261.093121 223.87531 
L 260.075019 221.960539 
L 259.192965 219.979413 
L 258.451256 217.941585 
L 257.853506 215.856981 
L 257.402626 213.735758 
L 257.100813 211.588251 
L 256.949539 209.424922 
L 256.949539 207.25631 
L 257.100813 205.09298 
L 257.402626 202.945473 
L 257.853506 200.82425 
L 258.451256 198.739647 
L 259.192965 196.701818 
L 260.075019 194.720692 
L 261.093121 192.805922 
L 262.24231 190.966834 
L 263.516988 189.21239 
L 264.910945 187.551137 
L 266.417389 185.991168 
L 268.028982 184.540084 
L 269.737872 183.204953 
L 271.535733 181.99228 
L 273.413806 180.907974 
L 275.362941 179.957317 
L 277.373643 179.144941 
L 279.436116 178.474803 
L 281.540311 177.950168 
L 283.675977 177.573593 
L 285.832709 177.346911 
L 288 177.271228 
L 288 177.271228 
" style="fill:none;stroke:#ffffff;stroke-linecap:round;"/>
     </g>
     <g id="text_9">
      <!-- 0.2 -->
      <defs>
       <path d="M 4.15625 35.296875 
Q 4.15625 48 6.765625 55.734375 
Q 9.375 63.484375 14.515625 67.671875 
Q 19.671875 71.875 27.484375 71.875 
Q 33.25 71.875 37.59375 69.546875 
Q 41.9375 67.234375 44.765625 62.859375 
Q 47.609375 58.5 49.21875 52.21875 
Q 50.828125 45.953125 50.828125 35.296875 
Q 50.828125 22.703125 48.234375 14.96875 
Q 45.65625 7.234375 40.5 3 
Q 35.359375 -1.21875 27.484375 -1.21875 
Q 17.140625 -1.21875 11.234375 6.203125 
Q 4.15625 15.140625 4.15625 35.296875 
M 13.1875 35.296875 
Q 13.1875 17.671875 17.3125 11.828125 
Q 21.4375 6 27.484375 6 
Q 33.546875 6 37.671875 11.859375 
Q 41.796875 17.71875 41.796875 35.296875 
Q 41.796875 52.984375 37.671875 58.78125 
Q 33.546875 64.59375 27.390625 64.59375 
Q 21.34375 64.59375 17.71875 59.46875 
Q 13.1875 52.9375 13.1875 35.296875 
" id="ArialMT-30"/>
       <path d="M 9.078125 0 
L 9.078125 10.015625 
L 19.09375 10.015625 
L 19.09375 0 
z
" id="ArialMT-2e"/>
       <path d="M 50.34375 8.453125 
L 50.34375 0 
L 3.03125 0 
Q 2.9375 3.171875 4.046875 6.109375 
Q 5.859375 10.9375 9.828125 15.625 
Q 13.8125 20.3125 21.34375 26.46875 
Q 33.015625 36.03125 37.109375 41.625 
Q 41.21875 47.21875 41.21875 52.203125 
Q 41.21875 57.421875 37.46875 61 
Q 33.734375 64.59375 27.734375 64.59375 
Q 21.390625 64.59375 17.578125 60.78125 
Q 13.765625 56.984375 13.71875 50.25 
L 4.6875 51.171875 
Q 5.609375 61.28125 11.65625 66.578125 
Q 17.71875 71.875 27.9375 71.875 
Q 38.234375 71.875 44.234375 66.15625 
Q 50.25 60.453125 50.25 52 
Q 50.25 47.703125 48.484375 43.546875 
Q 46.734375 39.40625 42.65625 34.8125 
Q 38.578125 30.21875 29.109375 22.21875 
Q 21.1875 15.578125 18.9375 13.203125 
Q 16.703125 10.84375 15.234375 8.453125 
z
" id="ArialMT-32"/>
      </defs>
      <g style="fill:#808080;" transform="translate(288 175.879978)scale(0.07 -0.07)">
       <use xlink:href="#ArialMT-30"/>
       <use x="55.615234" xlink:href="#ArialMT-2e"/>
       <use x="83.398438" xlink:href="#ArialMT-32"/>
      </g>
     </g>
    </g>
    <g id="ytick_2">
     <g id="line2d_10">
      <path clip-path="url(#p97be6c9475)" d="M 288 146.201839 
L 290.168612 146.239693 
L 292.334582 146.353206 
L 296.648046 146.80657 
L 300.919378 147.559721 
L 305.127768 148.60899 
L 309.252713 149.949266 
L 313.274117 151.574019 
L 317.172388 153.475333 
L 320.928535 155.643945 
L 324.524256 158.06929 
L 327.942035 160.739551 
L 331.165221 163.641721 
L 334.17811 166.761659 
L 336.966024 170.084165 
L 339.51538 173.593053 
L 341.813759 177.271228 
L 343.849962 181.100769 
L 345.61407 185.06302 
L 347.097488 189.138678 
L 348.292989 193.307885 
L 349.194749 197.55033 
L 349.798373 201.845345 
L 350.100923 206.172004 
L 350.100923 210.509228 
L 349.798373 214.835886 
L 349.194749 219.130901 
L 348.292989 223.373346 
L 347.097488 227.542554 
L 345.61407 231.618211 
L 343.849962 235.580462 
L 341.813759 239.410004 
L 339.51538 243.088178 
L 336.966024 246.597066 
L 334.17811 249.919573 
L 331.165221 253.039511 
L 327.942035 255.94168 
L 324.524256 258.611942 
L 320.928535 261.037287 
L 317.172388 263.205899 
L 313.274117 265.107212 
L 309.252713 266.731965 
L 305.127768 268.072241 
L 300.919378 269.121511 
L 296.648046 269.874662 
L 292.334582 270.328025 
L 288 270.479392 
L 283.665418 270.328025 
L 279.351954 269.874662 
L 275.080622 269.121511 
L 270.872232 268.072241 
L 266.747287 266.731965 
L 262.725883 265.107212 
L 258.827612 263.205899 
L 255.071465 261.037287 
L 251.475744 258.611942 
L 248.057965 255.94168 
L 244.834779 253.039511 
L 241.82189 249.919573 
L 239.033976 246.597066 
L 236.48462 243.088178 
L 234.186241 239.410004 
L 232.150038 235.580462 
L 230.38593 231.618211 
L 228.902512 227.542554 
L 227.707011 223.373346 
L 226.805251 219.130901 
L 226.201627 214.835886 
L 225.899077 210.509228 
L 225.899077 206.172004 
L 226.201627 201.845345 
L 226.805251 197.55033 
L 227.707011 193.307885 
L 228.902512 189.138678 
L 230.38593 185.06302 
L 232.150038 181.100769 
L 234.186241 177.271228 
L 236.48462 173.593053 
L 239.033976 170.084165 
L 241.82189 166.761659 
L 244.834779 163.641721 
L 248.057965 160.739551 
L 251.475744 158.06929 
L 255.071465 155.643945 
L 258.827612 153.475333 
L 262.725883 151.574019 
L 266.747287 149.949266 
L 270.872232 148.60899 
L 275.080622 147.559721 
L 279.351954 146.80657 
L 283.665418 146.353206 
L 288 146.201839 
L 288 146.201839 
" style="fill:none;stroke:#ffffff;stroke-linecap:round;"/>
     </g>
     <g id="text_10">
      <!-- 0.4 -->
      <defs>
       <path d="M 32.328125 0 
L 32.328125 17.140625 
L 1.265625 17.140625 
L 1.265625 25.203125 
L 33.9375 71.578125 
L 41.109375 71.578125 
L 41.109375 25.203125 
L 50.78125 25.203125 
L 50.78125 17.140625 
L 41.109375 17.140625 
L 41.109375 0 
z
M 32.328125 25.203125 
L 32.328125 57.46875 
L 9.90625 25.203125 
z
" id="ArialMT-34"/>
      </defs>
      <g style="fill:#808080;" transform="translate(288 144.810589)scale(0.07 -0.07)">
       <use xlink:href="#ArialMT-30"/>
       <use x="55.615234" xlink:href="#ArialMT-2e"/>
       <use x="83.398438" xlink:href="#ArialMT-34"/>
      </g>
     </g>
    </g>
    <g id="ytick_3">
     <g id="line2d_11">
      <path clip-path="url(#p97be6c9475)" d="M 288 115.132451 
L 291.252918 115.189231 
L 294.501873 115.359502 
L 297.742906 115.643055 
L 300.972069 116.039547 
L 304.185428 116.548493 
L 307.379067 117.169273 
L 310.549096 117.901132 
L 313.691652 118.743178 
L 316.802907 119.694384 
L 319.87907 120.753591 
L 322.916393 121.919511 
L 325.911176 123.190721 
L 328.85977 124.565673 
L 331.758583 126.042691 
L 334.604082 127.619978 
L 337.392802 129.295609 
L 340.121344 131.067545 
L 342.786384 132.933627 
L 345.384676 134.89158 
L 347.913053 136.939019 
L 350.368435 139.073451 
L 352.747832 141.292273 
L 355.048342 143.592784 
L 357.267165 145.97218 
L 359.401596 148.427563 
L 361.449036 150.95594 
L 363.406989 153.554231 
L 365.27307 156.219272 
L 367.045006 158.947814 
L 368.720638 161.736534 
L 370.297924 164.582033 
L 371.774943 167.480846 
L 373.149895 170.42944 
L 374.421105 173.424223 
L 375.587024 176.461546 
L 376.646232 179.537709 
L 377.597438 182.648964 
L 378.439483 185.79152 
L 379.171342 188.961549 
L 379.792123 192.155188 
L 380.301069 195.368546 
L 380.69756 198.597709 
L 380.981114 201.838743 
L 381.151384 205.087698 
L 381.208164 208.340616 
L 381.151384 211.593534 
L 380.981114 214.842489 
L 380.69756 218.083522 
L 380.301069 221.312685 
L 379.792123 224.526044 
L 379.171342 227.719683 
L 378.439483 230.889711 
L 377.597438 234.032268 
L 376.646232 237.143522 
L 375.587024 240.219685 
L 374.421105 243.257009 
L 373.149895 246.251792 
L 371.774943 249.200386 
L 370.297924 252.099198 
L 368.720638 254.944698 
L 367.045006 257.733418 
L 365.27307 260.46196 
L 363.406989 263.127 
L 361.449036 265.725292 
L 359.401596 268.253669 
L 357.267165 270.709051 
L 355.048342 273.088447 
L 352.747832 275.388958 
L 350.368435 277.607781 
L 347.913053 279.742212 
L 345.384676 281.789651 
L 342.786384 283.747605 
L 340.121344 285.613686 
L 337.392802 287.385622 
L 334.604082 289.061254 
L 331.758583 290.63854 
L 328.85977 292.115559 
L 325.911176 293.490511 
L 322.916393 294.761721 
L 319.87907 295.92764 
L 316.802907 296.986848 
L 313.691652 297.938054 
L 310.549096 298.780099 
L 307.379067 299.511958 
L 304.185428 300.132739 
L 300.972069 300.641685 
L 297.742906 301.038176 
L 294.501873 301.32173 
L 291.252918 301.492 
L 288 301.54878 
L 284.747082 301.492 
L 281.498127 301.32173 
L 278.257094 301.038176 
L 275.027931 300.641685 
L 271.814572 300.132739 
L 268.620933 299.511958 
L 265.450904 298.780099 
L 262.308348 297.938054 
L 259.197093 296.986848 
L 256.12093 295.92764 
L 253.083607 294.761721 
L 250.088824 293.490511 
L 247.14023 292.115559 
L 244.241417 290.63854 
L 241.395918 289.061254 
L 238.607198 287.385622 
L 235.878656 285.613686 
L 233.213616 283.747605 
L 230.615324 281.789651 
L 228.086947 279.742212 
L 225.631565 277.607781 
L 223.252168 275.388958 
L 220.951658 273.088447 
L 218.732835 270.709051 
L 216.598404 268.253669 
L 214.550964 265.725292 
L 212.593011 263.127 
L 210.72693 260.46196 
L 208.954994 257.733418 
L 207.279362 254.944698 
L 205.702076 252.099198 
L 204.225057 249.200386 
L 202.850105 246.251792 
L 201.578895 243.257009 
L 200.412976 240.219685 
L 199.353768 237.143522 
L 198.402562 234.032268 
L 197.560517 230.889711 
L 196.828658 227.719683 
L 196.207877 224.526044 
L 195.698931 221.312685 
L 195.30244 218.083522 
L 195.018886 214.842489 
L 194.848616 211.593534 
L 194.791836 208.340616 
L 194.848616 205.087698 
L 195.018886 201.838743 
L 195.30244 198.597709 
L 195.698931 195.368546 
L 196.207877 192.155188 
L 196.828658 188.961549 
L 197.560517 185.79152 
L 198.402562 182.648964 
L 199.353768 179.537709 
L 200.412976 176.461546 
L 201.578895 173.424223 
L 202.850105 170.42944 
L 204.225057 167.480846 
L 205.702076 164.582033 
L 207.279362 161.736534 
L 208.954994 158.947814 
L 210.72693 156.219272 
L 212.593011 153.554231 
L 214.550964 150.95594 
L 216.598404 148.427563 
L 218.732835 145.97218 
L 220.951658 143.592784 
L 223.252168 141.292273 
L 225.631565 139.073451 
L 228.086947 136.939019 
L 230.615324 134.89158 
L 233.213616 132.933627 
L 235.878656 131.067545 
L 238.607198 129.295609 
L 241.395918 127.619978 
L 244.241417 126.042691 
L 247.14023 124.565673 
L 250.088824 123.190721 
L 253.083607 121.919511 
L 256.12093 120.753591 
L 259.197093 119.694384 
L 262.308348 118.743178 
L 265.450904 117.901132 
L 268.620933 117.169273 
L 271.814572 116.548493 
L 275.027931 116.039547 
L 278.257094 115.643055 
L 281.498127 115.359502 
L 284.747082 115.189231 
L 288 115.132451 
L 288 115.132451 
" style="fill:none;stroke:#ffffff;stroke-linecap:round;"/>
     </g>
     <g id="text_11">
      <!-- 0.6 -->
      <defs>
       <path d="M 49.75 54.046875 
L 41.015625 53.375 
Q 39.84375 58.546875 37.703125 60.890625 
Q 34.125 64.65625 28.90625 64.65625 
Q 24.703125 64.65625 21.53125 62.3125 
Q 17.390625 59.28125 14.984375 53.46875 
Q 12.59375 47.65625 12.5 36.921875 
Q 15.671875 41.75 20.265625 44.09375 
Q 24.859375 46.4375 29.890625 46.4375 
Q 38.671875 46.4375 44.84375 39.96875 
Q 51.03125 33.5 51.03125 23.25 
Q 51.03125 16.5 48.125 10.71875 
Q 45.21875 4.9375 40.140625 1.859375 
Q 35.0625 -1.21875 28.609375 -1.21875 
Q 17.625 -1.21875 10.6875 6.859375 
Q 3.765625 14.9375 3.765625 33.5 
Q 3.765625 54.25 11.421875 63.671875 
Q 18.109375 71.875 29.4375 71.875 
Q 37.890625 71.875 43.28125 67.140625 
Q 48.6875 62.40625 49.75 54.046875 
M 13.875 23.1875 
Q 13.875 18.65625 15.796875 14.5 
Q 17.71875 10.359375 21.1875 8.171875 
Q 24.65625 6 28.46875 6 
Q 34.03125 6 38.03125 10.484375 
Q 42.046875 14.984375 42.046875 22.703125 
Q 42.046875 30.125 38.078125 34.390625 
Q 34.125 38.671875 28.125 38.671875 
Q 22.171875 38.671875 18.015625 34.390625 
Q 13.875 30.125 13.875 23.1875 
" id="ArialMT-36"/>
      </defs>
      <g style="fill:#808080;" transform="translate(288 113.741201)scale(0.07 -0.07)">
       <use xlink:href="#ArialMT-30"/>
       <use x="55.615234" xlink:href="#ArialMT-2e"/>
       <use x="83.398438" xlink:href="#ArialMT-36"/>
      </g>
     </g>
    </g>
    <g id="ytick_4">
     <g id="line2d_12">
      <path clip-path="url(#p97be6c9475)" d="M 288 84.063063 
L 292.337224 84.13877 
L 296.669164 84.365797 
L 300.990542 84.743869 
L 305.296092 85.272524 
L 309.58057 85.951119 
L 313.838756 86.778826 
L 318.065461 87.754638 
L 322.255536 88.877365 
L 326.403876 90.14564 
L 330.505426 91.557917 
L 334.555191 93.112476 
L 338.548234 94.807422 
L 342.479693 96.640691 
L 346.344777 98.61005 
L 350.138776 100.713098 
L 353.857069 102.947274 
L 357.495125 105.309855 
L 361.048512 107.797964 
L 364.512901 110.408568 
L 367.884071 113.138487 
L 371.157914 115.984396 
L 374.330442 118.942826 
L 377.39779 122.010174 
L 380.35622 125.182702 
L 383.202128 128.456545 
L 385.932048 131.827714 
L 388.542652 135.292103 
L 391.03076 138.84549 
L 393.393342 142.483547 
L 395.627517 146.201839 
L 397.730566 149.995839 
L 399.699924 153.860922 
L 401.533193 157.792381 
L 403.22814 161.785425 
L 404.782699 165.835189 
L 406.194976 169.93674 
L 407.463251 174.08508 
L 408.585978 178.275155 
L 409.56179 182.50186 
L 410.389497 186.760045 
L 411.068092 191.044523 
L 411.596747 195.350074 
L 411.974819 199.671452 
L 412.201846 204.003392 
L 412.277552 208.340616 
L 412.201846 212.67784 
L 411.974819 217.009779 
L 411.596747 221.331157 
L 411.068092 225.636708 
L 410.389497 229.921186 
L 409.56179 234.179372 
L 408.585978 238.406077 
L 407.463251 242.596152 
L 406.194976 246.744491 
L 404.782699 250.846042 
L 403.22814 254.895806 
L 401.533193 258.88885 
L 399.699924 262.820309 
L 397.730566 266.685392 
L 395.627517 270.479392 
L 393.393342 274.197685 
L 391.03076 277.835741 
L 388.542652 281.389128 
L 385.932048 284.853517 
L 383.202128 288.224686 
L 380.35622 291.49853 
L 377.39779 294.671058 
L 374.330442 297.738405 
L 371.157914 300.696836 
L 367.884071 303.542744 
L 364.512901 306.272663 
L 361.048512 308.883268 
L 357.495125 311.371376 
L 353.857069 313.733957 
L 350.138776 315.968133 
L 346.344777 318.071181 
L 342.479693 320.04054 
L 338.548234 321.873809 
L 334.555191 323.568756 
L 330.505426 325.123315 
L 326.403876 326.535592 
L 322.255536 327.803866 
L 318.065461 328.926594 
L 313.838756 329.902405 
L 309.58057 330.730113 
L 305.296092 331.408707 
L 300.990542 331.937363 
L 296.669164 332.315434 
L 292.337224 332.542462 
L 288 332.618168 
L 283.662776 332.542462 
L 279.330836 332.315434 
L 275.009458 331.937363 
L 270.703908 331.408707 
L 266.41943 330.730113 
L 262.161244 329.902405 
L 257.934539 328.926594 
L 253.744464 327.803866 
L 249.596124 326.535592 
L 245.494574 325.123315 
L 241.444809 323.568756 
L 237.451766 321.873809 
L 233.520307 320.04054 
L 229.655223 318.071181 
L 225.861224 315.968133 
L 222.142931 313.733957 
L 218.504875 311.371376 
L 214.951488 308.883268 
L 211.487099 306.272663 
L 208.115929 303.542744 
L 204.842086 300.696836 
L 201.669558 297.738405 
L 198.60221 294.671058 
L 195.64378 291.49853 
L 192.797872 288.224686 
L 190.067952 284.853517 
L 187.457348 281.389128 
L 184.96924 277.835741 
L 182.606658 274.197685 
L 180.372483 270.479392 
L 178.269434 266.685392 
L 176.300076 262.820309 
L 174.466807 258.88885 
L 172.77186 254.895806 
L 171.217301 250.846042 
L 169.805024 246.744491 
L 168.536749 242.596152 
L 167.414022 238.406077 
L 166.43821 234.179372 
L 165.610503 229.921186 
L 164.931908 225.636708 
L 164.403253 221.331157 
L 164.025181 217.009779 
L 163.798154 212.67784 
L 163.722448 208.340616 
L 163.798154 204.003392 
L 164.025181 199.671452 
L 164.403253 195.350074 
L 164.931908 191.044523 
L 165.610503 186.760045 
L 166.43821 182.50186 
L 167.414022 178.275155 
L 168.536749 174.08508 
L 169.805024 169.93674 
L 171.217301 165.835189 
L 172.77186 161.785425 
L 174.466807 157.792381 
L 176.300076 153.860922 
L 178.269434 149.995839 
L 180.372483 146.201839 
L 182.606658 142.483547 
L 184.96924 138.84549 
L 187.457348 135.292103 
L 190.067952 131.827714 
L 192.797872 128.456545 
L 195.64378 125.182702 
L 198.60221 122.010174 
L 201.669558 118.942826 
L 204.842086 115.984396 
L 208.115929 113.138487 
L 211.487099 110.408568 
L 214.951488 107.797964 
L 218.504875 105.309855 
L 222.142931 102.947274 
L 225.861224 100.713098 
L 229.655223 98.61005 
L 233.520307 96.640691 
L 237.451766 94.807422 
L 241.444809 93.112476 
L 245.494574 91.557917 
L 249.596124 90.14564 
L 253.744464 88.877365 
L 257.934539 87.754638 
L 262.161244 86.778826 
L 266.41943 85.951119 
L 270.703908 85.272524 
L 275.009458 84.743869 
L 279.330836 84.365797 
L 283.662776 84.13877 
L 288 84.063063 
L 288 84.063063 
" style="fill:none;stroke:#ffffff;stroke-linecap:round;"/>
     </g>
     <g id="text_12">
      <!-- 0.8 -->
      <defs>
       <path d="M 17.671875 38.8125 
Q 12.203125 40.828125 9.5625 44.53125 
Q 6.9375 48.25 6.9375 53.421875 
Q 6.9375 61.234375 12.546875 66.546875 
Q 18.171875 71.875 27.484375 71.875 
Q 36.859375 71.875 42.578125 66.421875 
Q 48.296875 60.984375 48.296875 53.171875 
Q 48.296875 48.1875 45.671875 44.5 
Q 43.0625 40.828125 37.75 38.8125 
Q 44.34375 36.671875 47.78125 31.875 
Q 51.21875 27.09375 51.21875 20.453125 
Q 51.21875 11.28125 44.71875 5.03125 
Q 38.234375 -1.21875 27.640625 -1.21875 
Q 17.046875 -1.21875 10.546875 5.046875 
Q 4.046875 11.328125 4.046875 20.703125 
Q 4.046875 27.6875 7.59375 32.390625 
Q 11.140625 37.109375 17.671875 38.8125 
M 15.921875 53.71875 
Q 15.921875 48.640625 19.1875 45.40625 
Q 22.46875 42.1875 27.6875 42.1875 
Q 32.765625 42.1875 36.015625 45.375 
Q 39.265625 48.578125 39.265625 53.21875 
Q 39.265625 58.0625 35.90625 61.359375 
Q 32.5625 64.65625 27.59375 64.65625 
Q 22.5625 64.65625 19.234375 61.421875 
Q 15.921875 58.203125 15.921875 53.71875 
M 13.09375 20.65625 
Q 13.09375 16.890625 14.875 13.375 
Q 16.65625 9.859375 20.171875 7.921875 
Q 23.6875 6 27.734375 6 
Q 34.03125 6 38.125 10.046875 
Q 42.234375 14.109375 42.234375 20.359375 
Q 42.234375 26.703125 38.015625 30.859375 
Q 33.796875 35.015625 27.4375 35.015625 
Q 21.234375 35.015625 17.15625 30.90625 
Q 13.09375 26.8125 13.09375 20.65625 
" id="ArialMT-38"/>
      </defs>
      <g style="fill:#808080;" transform="translate(288 82.671813)scale(0.07 -0.07)">
       <use xlink:href="#ArialMT-30"/>
       <use x="55.615234" xlink:href="#ArialMT-2e"/>
       <use x="83.398438" xlink:href="#ArialMT-38"/>
      </g>
     </g>
    </g>
   </g>
   <g id="patch_3">
    <path clip-path="url(#p97be6c9475)" d="M 288 147.527837 
L 356.646451 139.694165 
L 330.431907 208.340616 
L 297.340907 217.681523 
L 288 289.465007 
L 271.750509 224.590107 
L 258.889093 208.340616 
L 221.989874 142.33049 
z
" style="fill:#808080;opacity:0.5;stroke:#808080;stroke-linejoin:miter;stroke-width:0.3;"/>
   </g>
   <g id="patch_4">
    <path clip-path="url(#p97be6c9475)" d="M 288 160.804452 
L 387.631116 108.7095 
L 291.262286 208.340616 
L 300.193003 220.533619 
L 288 271.256127 
L 246.038494 250.302122 
L 250.250693 208.340616 
L 236.481816 156.822431 
z
" style="fill:#97f0aa;opacity:0.5;stroke:#97f0aa;stroke-linejoin:miter;stroke-width:0.3;"/>
   </g>
   <g id="line2d_13">
    <path clip-path="url(#p97be6c9475)" d="M 288 147.527837 
L 356.646451 139.694165 
L 330.431907 208.340616 
L 297.340907 217.681523 
L 288 289.465007 
L 271.750509 224.590107 
L 258.889093 208.340616 
L 221.989874 142.33049 
L 288 147.527837 
" style="fill:none;stroke:#808080;stroke-linecap:round;"/>
   </g>
   <g id="line2d_14">
    <path clip-path="url(#p97be6c9475)" d="M 288 160.804452 
L 387.631116 108.7095 
L 291.262286 208.340616 
L 300.193003 220.533619 
L 288 271.256127 
L 246.038494 250.302122 
L 250.250693 208.340616 
L 236.481816 156.822431 
L 288 160.804452 
" style="fill:none;stroke:#97f0aa;stroke-linecap:round;"/>
   </g>
   <g id="patch_5">
    <path d="M 288 363.687556 
C 329.19849 363.687556 368.715143 347.319223 397.846875 318.187491 
C 426.978607 289.055759 443.346941 249.539106 443.346941 208.340616 
C 443.346941 167.142125 426.978607 127.625472 397.846875 98.493741 
C 368.715143 69.362009 329.19849 52.993675 288 52.993675 
C 246.80151 52.993675 207.284857 69.362009 178.153125 98.493741 
C 149.021393 127.625472 132.653059 167.142125 132.653059 208.340616 
C 132.653059 249.539106 149.021393 289.055759 178.153125 318.187491 
C 207.284857 347.319223 246.80151 363.687556 288 363.687556 
z
" style="fill:none;"/>
   </g>
   <g id="text_13">
    <!-- prog af -->
    <defs>
     <path d="M 6.78125 51.859375 
L 19.578125 51.859375 
L 19.578125 44.234375 
Q 22.078125 48.140625 26.3125 50.578125 
Q 30.5625 53.03125 35.75 53.03125 
Q 44.78125 53.03125 51.078125 45.953125 
Q 57.375 38.875 57.375 26.21875 
Q 57.375 13.234375 51.015625 6.03125 
Q 44.671875 -1.171875 35.640625 -1.171875 
Q 31.34375 -1.171875 27.84375 0.53125 
Q 24.359375 2.25 20.515625 6.390625 
L 20.515625 -19.734375 
L 6.78125 -19.734375 
z
M 20.359375 26.8125 
Q 20.359375 18.0625 23.828125 13.890625 
Q 27.296875 9.71875 32.28125 9.71875 
Q 37.0625 9.71875 40.234375 13.546875 
Q 43.40625 17.390625 43.40625 26.125 
Q 43.40625 34.28125 40.125 38.234375 
Q 36.859375 42.1875 32.03125 42.1875 
Q 27 42.1875 23.671875 38.296875 
Q 20.359375 34.421875 20.359375 26.8125 
" id="Arial-BoldMT-70"/>
     <path d="M 20.3125 0 
L 6.59375 0 
L 6.59375 51.859375 
L 19.34375 51.859375 
L 19.34375 44.484375 
Q 22.609375 49.703125 25.21875 51.359375 
Q 27.828125 53.03125 31.15625 53.03125 
Q 35.84375 53.03125 40.1875 50.4375 
L 35.9375 38.484375 
Q 32.46875 40.71875 29.5 40.71875 
Q 26.609375 40.71875 24.609375 39.125 
Q 22.609375 37.546875 21.453125 33.390625 
Q 20.3125 29.25 20.3125 16.015625 
z
" id="Arial-BoldMT-72"/>
     <path d="M 4 26.65625 
Q 4 33.5 7.375 39.890625 
Q 10.75 46.296875 16.921875 49.65625 
Q 23.09375 53.03125 30.71875 53.03125 
Q 42.484375 53.03125 50 45.390625 
Q 57.515625 37.75 57.515625 26.078125 
Q 57.515625 14.3125 49.921875 6.5625 
Q 42.328125 -1.171875 30.8125 -1.171875 
Q 23.6875 -1.171875 17.21875 2.046875 
Q 10.75 5.28125 7.375 11.5 
Q 4 17.71875 4 26.65625 
M 18.0625 25.921875 
Q 18.0625 18.21875 21.71875 14.109375 
Q 25.390625 10.015625 30.765625 10.015625 
Q 36.140625 10.015625 39.765625 14.109375 
Q 43.40625 18.21875 43.40625 26.03125 
Q 43.40625 33.640625 39.765625 37.734375 
Q 36.140625 41.84375 30.765625 41.84375 
Q 25.390625 41.84375 21.71875 37.734375 
Q 18.0625 33.640625 18.0625 25.921875 
" id="Arial-BoldMT-6f"/>
     <path d="M 5.90625 -3.421875 
L 21.578125 -5.328125 
Q 21.96875 -8.0625 23.390625 -9.078125 
Q 25.34375 -10.546875 29.546875 -10.546875 
Q 34.90625 -10.546875 37.59375 -8.9375 
Q 39.40625 -7.859375 40.328125 -5.46875 
Q 40.96875 -3.765625 40.96875 0.828125 
L 40.96875 8.40625 
Q 34.8125 0 25.4375 0 
Q 14.984375 0 8.890625 8.84375 
Q 4.109375 15.828125 4.109375 26.21875 
Q 4.109375 39.265625 10.375 46.140625 
Q 16.65625 53.03125 25.984375 53.03125 
Q 35.59375 53.03125 41.84375 44.578125 
L 41.84375 51.859375 
L 54.6875 51.859375 
L 54.6875 5.328125 
Q 54.6875 -3.859375 53.171875 -8.390625 
Q 51.65625 -12.9375 48.921875 -15.515625 
Q 46.1875 -18.109375 41.625 -19.578125 
Q 37.0625 -21.046875 30.078125 -21.046875 
Q 16.890625 -21.046875 11.375 -16.53125 
Q 5.859375 -12.015625 5.859375 -5.078125 
Q 5.859375 -4.390625 5.90625 -3.421875 
M 18.171875 27 
Q 18.171875 18.75 21.359375 14.90625 
Q 24.5625 11.078125 29.25 11.078125 
Q 34.28125 11.078125 37.75 15.015625 
Q 41.21875 18.953125 41.21875 26.65625 
Q 41.21875 34.71875 37.890625 38.625 
Q 34.578125 42.53125 29.5 42.53125 
Q 24.5625 42.53125 21.359375 38.6875 
Q 18.171875 34.859375 18.171875 27 
" id="Arial-BoldMT-67"/>
     <path id="Arial-BoldMT-20"/>
     <path d="M 17.4375 36.03125 
L 4.984375 38.28125 
Q 7.078125 45.796875 12.203125 49.40625 
Q 17.328125 53.03125 27.4375 53.03125 
Q 36.625 53.03125 41.109375 50.859375 
Q 45.609375 48.6875 47.4375 45.34375 
Q 49.265625 42 49.265625 33.0625 
L 49.125 17.046875 
Q 49.125 10.203125 49.78125 6.953125 
Q 50.4375 3.71875 52.25 0 
L 38.671875 0 
Q 38.140625 1.375 37.359375 4.046875 
Q 37.015625 5.28125 36.859375 5.671875 
Q 33.34375 2.25 29.34375 0.53125 
Q 25.34375 -1.171875 20.796875 -1.171875 
Q 12.796875 -1.171875 8.171875 3.171875 
Q 3.5625 7.515625 3.5625 14.15625 
Q 3.5625 18.5625 5.65625 22 
Q 7.765625 25.4375 11.546875 27.265625 
Q 15.328125 29.109375 22.46875 30.46875 
Q 32.078125 32.28125 35.796875 33.84375 
L 35.796875 35.203125 
Q 35.796875 39.15625 33.84375 40.84375 
Q 31.890625 42.53125 26.46875 42.53125 
Q 22.796875 42.53125 20.75 41.09375 
Q 18.703125 39.65625 17.4375 36.03125 
M 35.796875 24.90625 
Q 33.15625 24.03125 27.4375 22.796875 
Q 21.734375 21.578125 19.96875 20.40625 
Q 17.28125 18.5 17.28125 15.578125 
Q 17.28125 12.703125 19.421875 10.59375 
Q 21.578125 8.5 24.90625 8.5 
Q 28.609375 8.5 31.984375 10.9375 
Q 34.46875 12.796875 35.25 15.484375 
Q 35.796875 17.234375 35.796875 22.171875 
z
" id="Arial-BoldMT-61"/>
     <path d="M 1.171875 51.859375 
L 8.796875 51.859375 
L 8.796875 55.765625 
Q 8.796875 62.3125 10.1875 65.53125 
Q 11.578125 68.75 15.3125 70.765625 
Q 19.046875 72.796875 24.75 72.796875 
Q 30.609375 72.796875 36.234375 71.046875 
L 34.375 61.46875 
Q 31.109375 62.25 28.078125 62.25 
Q 25.09375 62.25 23.796875 60.859375 
Q 22.515625 59.46875 22.515625 55.515625 
L 22.515625 51.859375 
L 32.765625 51.859375 
L 32.765625 41.0625 
L 22.515625 41.0625 
L 22.515625 0 
L 8.796875 0 
L 8.796875 41.0625 
L 1.171875 41.0625 
z
" id="Arial-BoldMT-66"/>
    </defs>
    <g style="fill:#97f0aa;" transform="translate(264.280937 22.138165)scale(0.14 -0.14)">
     <use xlink:href="#Arial-BoldMT-70"/>
     <use x="61.083984" xlink:href="#Arial-BoldMT-72"/>
     <use x="100" xlink:href="#Arial-BoldMT-6f"/>
     <use x="161.083984" xlink:href="#Arial-BoldMT-67"/>
     <use x="222.167969" xlink:href="#Arial-BoldMT-20"/>
     <use x="249.951172" xlink:href="#Arial-BoldMT-61"/>
     <use x="305.566406" xlink:href="#Arial-BoldMT-66"/>
    </g>
   </g>
  </g>
 </g>
 <defs>
  <clipPath id="p97be6c9475">
   <path d="M 288 363.687556 
C 329.19849 363.687556 368.715143 347.319223 397.846875 318.187491 
C 426.978607 289.055759 443.346941 249.539106 443.346941 208.340616 
C 443.346941 167.142125 426.978607 127.625472 397.846875 98.493741 
C 368.715143 69.362009 329.19849 52.993675 288 52.993675 
C 246.80151 52.993675 207.284857 69.362009 178.153125 98.493741 
C 149.021393 127.625472 132.653059 167.142125 132.653059 208.340616 
C 132.653059 249.539106 149.021393 289.055759 178.153125 318.187491 
C 207.284857 347.319223 246.80151 363.687556 288 363.687556 
z
"/>
  </clipPath>
 </defs>
</svg>
