<?xml version="1.0" encoding="utf-8" standalone="no"?>
<!DOCTYPE svg PUBLIC "-//W3C//DTD SVG 1.1//EN"
  "http://www.w3.org/Graphics/SVG/1.1/DTD/svg11.dtd">
<!-- Created with matplotlib (http://matplotlib.org/) -->
<svg height="396pt" version="1.1" viewBox="0 0 576 396" width="576pt" xmlns="http://www.w3.org/2000/svg" xmlns:xlink="http://www.w3.org/1999/xlink">
 <defs>
  <style type="text/css">
*{stroke-linecap:butt;stroke-linejoin:round;}
  </style>
 </defs>
 <g id="figure_1">
  <g id="patch_1">
   <path d="M 0 396 
L 576 396 
L 576 0 
L 0 0 
z
" style="fill:#ffffff;"/>
  </g>
  <g id="axes_1">
   <g id="patch_2">
    <path d="M 288 363.686942 
C 329.214569 363.686942 368.746644 347.31222 397.889744 318.169119 
C 427.032845 289.026018 443.407567 249.493943 443.407567 208.279375 
C 443.407567 167.064806 427.032845 127.532731 397.889744 98.38963 
C 368.746644 69.24653 329.214569 52.871808 288 52.871808 
C 246.785431 52.871808 207.253356 69.24653 178.110256 98.38963 
C 148.967155 127.532731 132.592433 167.064806 132.592433 208.279375 
C 132.592433 249.493943 148.967155 289.026018 178.110256 318.169119 
C 207.253356 347.31222 246.785431 363.686942 288 363.686942 
z
" style="fill:#eaeaf2;"/>
   </g>
   <g id="matplotlib.axis_1">
    <g id="xtick_1">
     <g id="line2d_1">
      <path clip-path="url(#p72a91c6a47)" d="M 288 208.279375 
L 288 52.871808 
" style="fill:none;stroke:#ffffff;stroke-linecap:round;"/>
     </g>
     <g id="text_1">
      <!-- valence -->
      <defs>
       <path d="M 21 0 
L 1.265625 51.859375 
L 10.546875 51.859375 
L 21.6875 20.796875 
Q 23.484375 15.765625 25 10.359375 
Q 26.171875 14.453125 28.265625 20.21875 
L 39.796875 51.859375 
L 48.828125 51.859375 
L 29.203125 0 
z
" id="ArialMT-76"/>
       <path d="M 40.4375 6.390625 
Q 35.546875 2.25 31.03125 0.53125 
Q 26.515625 -1.171875 21.34375 -1.171875 
Q 12.796875 -1.171875 8.203125 3 
Q 3.609375 7.171875 3.609375 13.671875 
Q 3.609375 17.484375 5.34375 20.625 
Q 7.078125 23.78125 9.890625 25.6875 
Q 12.703125 27.59375 16.21875 28.5625 
Q 18.796875 29.25 24.03125 29.890625 
Q 34.671875 31.15625 39.703125 32.90625 
Q 39.75 34.71875 39.75 35.203125 
Q 39.75 40.578125 37.25 42.78125 
Q 33.890625 45.75 27.25 45.75 
Q 21.046875 45.75 18.09375 43.578125 
Q 15.140625 41.40625 13.71875 35.890625 
L 5.125 37.0625 
Q 6.296875 42.578125 8.984375 45.96875 
Q 11.671875 49.359375 16.75 51.1875 
Q 21.828125 53.03125 28.515625 53.03125 
Q 35.15625 53.03125 39.296875 51.46875 
Q 43.453125 49.90625 45.40625 47.53125 
Q 47.359375 45.171875 48.140625 41.546875 
Q 48.578125 39.3125 48.578125 33.453125 
L 48.578125 21.734375 
Q 48.578125 9.46875 49.140625 6.21875 
Q 49.703125 2.984375 51.375 0 
L 42.1875 0 
Q 40.828125 2.734375 40.4375 6.390625 
M 39.703125 26.03125 
Q 34.90625 24.078125 25.34375 22.703125 
Q 19.921875 21.921875 17.671875 20.9375 
Q 15.4375 19.96875 14.203125 18.09375 
Q 12.984375 16.21875 12.984375 13.921875 
Q 12.984375 10.40625 15.640625 8.0625 
Q 18.3125 5.71875 23.4375 5.71875 
Q 28.515625 5.71875 32.46875 7.9375 
Q 36.421875 10.15625 38.28125 14.015625 
Q 39.703125 17 39.703125 22.796875 
z
" id="ArialMT-61"/>
       <path d="M 6.390625 0 
L 6.390625 71.578125 
L 15.1875 71.578125 
L 15.1875 0 
z
" id="ArialMT-6c"/>
       <path d="M 42.09375 16.703125 
L 51.171875 15.578125 
Q 49.03125 7.625 43.21875 3.21875 
Q 37.40625 -1.171875 28.375 -1.171875 
Q 17 -1.171875 10.328125 5.828125 
Q 3.65625 12.84375 3.65625 25.484375 
Q 3.65625 38.578125 10.390625 45.796875 
Q 17.140625 53.03125 27.875 53.03125 
Q 38.28125 53.03125 44.875 45.953125 
Q 51.46875 38.875 51.46875 26.03125 
Q 51.46875 25.25 51.421875 23.6875 
L 12.75 23.6875 
Q 13.234375 15.140625 17.578125 10.59375 
Q 21.921875 6.0625 28.421875 6.0625 
Q 33.25 6.0625 36.671875 8.59375 
Q 40.09375 11.140625 42.09375 16.703125 
M 13.234375 30.90625 
L 42.1875 30.90625 
Q 41.609375 37.453125 38.875 40.71875 
Q 34.671875 45.796875 27.984375 45.796875 
Q 21.921875 45.796875 17.796875 41.75 
Q 13.671875 37.703125 13.234375 30.90625 
" id="ArialMT-65"/>
       <path d="M 6.59375 0 
L 6.59375 51.859375 
L 14.5 51.859375 
L 14.5 44.484375 
Q 20.21875 53.03125 31 53.03125 
Q 35.6875 53.03125 39.625 51.34375 
Q 43.5625 49.65625 45.515625 46.921875 
Q 47.46875 44.1875 48.25 40.4375 
Q 48.734375 37.984375 48.734375 31.890625 
L 48.734375 0 
L 39.9375 0 
L 39.9375 31.546875 
Q 39.9375 36.921875 38.90625 39.578125 
Q 37.890625 42.234375 35.28125 43.8125 
Q 32.671875 45.40625 29.15625 45.40625 
Q 23.53125 45.40625 19.453125 41.84375 
Q 15.375 38.28125 15.375 28.328125 
L 15.375 0 
z
" id="ArialMT-6e"/>
       <path d="M 40.4375 19 
L 49.078125 17.875 
Q 47.65625 8.9375 41.8125 3.875 
Q 35.984375 -1.171875 27.484375 -1.171875 
Q 16.84375 -1.171875 10.375 5.78125 
Q 3.90625 12.75 3.90625 25.734375 
Q 3.90625 34.125 6.6875 40.421875 
Q 9.46875 46.734375 15.15625 49.875 
Q 20.84375 53.03125 27.546875 53.03125 
Q 35.984375 53.03125 41.359375 48.75 
Q 46.734375 44.484375 48.25 36.625 
L 39.703125 35.296875 
Q 38.484375 40.53125 35.375 43.15625 
Q 32.28125 45.796875 27.875 45.796875 
Q 21.234375 45.796875 17.078125 41.03125 
Q 12.9375 36.28125 12.9375 25.984375 
Q 12.9375 15.53125 16.9375 10.796875 
Q 20.953125 6.0625 27.390625 6.0625 
Q 32.5625 6.0625 36.03125 9.234375 
Q 39.5 12.40625 40.4375 19 
" id="ArialMT-63"/>
      </defs>
      <g style="fill:#808080;" transform="translate(274.21375 39.399176)scale(0.08 -0.08)">
       <use xlink:href="#ArialMT-76"/>
       <use x="50" xlink:href="#ArialMT-61"/>
       <use x="105.615234" xlink:href="#ArialMT-6c"/>
       <use x="127.832031" xlink:href="#ArialMT-65"/>
       <use x="183.447266" xlink:href="#ArialMT-6e"/>
       <use x="239.0625" xlink:href="#ArialMT-63"/>
       <use x="289.0625" xlink:href="#ArialMT-65"/>
      </g>
     </g>
    </g>
    <g id="xtick_2">
     <g id="line2d_2">
      <path clip-path="url(#p72a91c6a47)" d="M 288 208.279375 
L 397.889744 98.38963 
" style="fill:none;stroke:#ffffff;stroke-linecap:round;"/>
     </g>
     <g id="text_2">
      <!-- energy -->
      <defs>
       <path d="M 6.5 0 
L 6.5 51.859375 
L 14.40625 51.859375 
L 14.40625 44 
Q 17.4375 49.515625 20 51.265625 
Q 22.5625 53.03125 25.640625 53.03125 
Q 30.078125 53.03125 34.671875 50.203125 
L 31.640625 42.046875 
Q 28.421875 43.953125 25.203125 43.953125 
Q 22.3125 43.953125 20.015625 42.21875 
Q 17.71875 40.484375 16.75 37.40625 
Q 15.28125 32.71875 15.28125 27.15625 
L 15.28125 0 
z
" id="ArialMT-72"/>
       <path d="M 4.984375 -4.296875 
L 13.53125 -5.5625 
Q 14.0625 -9.515625 16.5 -11.328125 
Q 19.78125 -13.765625 25.4375 -13.765625 
Q 31.546875 -13.765625 34.859375 -11.328125 
Q 38.1875 -8.890625 39.359375 -4.5 
Q 40.046875 -1.8125 39.984375 6.78125 
Q 34.234375 0 25.640625 0 
Q 14.9375 0 9.078125 7.71875 
Q 3.21875 15.4375 3.21875 26.21875 
Q 3.21875 33.640625 5.90625 39.90625 
Q 8.59375 46.1875 13.6875 49.609375 
Q 18.796875 53.03125 25.6875 53.03125 
Q 34.859375 53.03125 40.828125 45.609375 
L 40.828125 51.859375 
L 48.921875 51.859375 
L 48.921875 7.03125 
Q 48.921875 -5.078125 46.453125 -10.125 
Q 44 -15.1875 38.640625 -18.109375 
Q 33.296875 -21.046875 25.484375 -21.046875 
Q 16.21875 -21.046875 10.5 -16.875 
Q 4.78125 -12.703125 4.984375 -4.296875 
M 12.25 26.859375 
Q 12.25 16.65625 16.296875 11.96875 
Q 20.359375 7.28125 26.46875 7.28125 
Q 32.515625 7.28125 36.609375 11.9375 
Q 40.71875 16.609375 40.71875 26.5625 
Q 40.71875 36.078125 36.5 40.90625 
Q 32.28125 45.75 26.3125 45.75 
Q 20.453125 45.75 16.34375 40.984375 
Q 12.25 36.234375 12.25 26.859375 
" id="ArialMT-67"/>
       <path d="M 6.203125 -19.96875 
L 5.21875 -11.71875 
Q 8.109375 -12.5 10.25 -12.5 
Q 13.1875 -12.5 14.9375 -11.515625 
Q 16.703125 -10.546875 17.828125 -8.796875 
Q 18.65625 -7.46875 20.515625 -2.25 
Q 20.75 -1.515625 21.296875 -0.09375 
L 1.609375 51.859375 
L 11.078125 51.859375 
L 21.875 21.828125 
Q 23.96875 16.109375 25.640625 9.8125 
Q 27.15625 15.875 29.25 21.625 
L 40.328125 51.859375 
L 49.125 51.859375 
L 29.390625 -0.875 
Q 26.21875 -9.421875 24.46875 -12.640625 
Q 22.125 -17 19.09375 -19.015625 
Q 16.0625 -21.046875 11.859375 -21.046875 
Q 9.328125 -21.046875 6.203125 -19.96875 
" id="ArialMT-79"/>
      </defs>
      <g style="fill:#808080;" transform="translate(396.649344 89.375031)scale(0.08 -0.08)">
       <use xlink:href="#ArialMT-65"/>
       <use x="55.615234" xlink:href="#ArialMT-6e"/>
       <use x="111.230469" xlink:href="#ArialMT-65"/>
       <use x="166.845703" xlink:href="#ArialMT-72"/>
       <use x="200.146484" xlink:href="#ArialMT-67"/>
       <use x="255.761719" xlink:href="#ArialMT-79"/>
      </g>
     </g>
    </g>
    <g id="xtick_3">
     <g id="line2d_3">
      <path clip-path="url(#p72a91c6a47)" d="M 288 208.279375 
L 443.407567 208.279375 
" style="fill:none;stroke:#ffffff;stroke-linecap:round;"/>
     </g>
     <g id="text_3">
      <!-- acousticness -->
      <defs>
       <path d="M 3.328125 25.921875 
Q 3.328125 40.328125 11.328125 47.265625 
Q 18.015625 53.03125 27.640625 53.03125 
Q 38.328125 53.03125 45.109375 46.015625 
Q 51.90625 39.015625 51.90625 26.65625 
Q 51.90625 16.65625 48.90625 10.90625 
Q 45.90625 5.171875 40.15625 2 
Q 34.421875 -1.171875 27.640625 -1.171875 
Q 16.75 -1.171875 10.03125 5.8125 
Q 3.328125 12.796875 3.328125 25.921875 
M 12.359375 25.921875 
Q 12.359375 15.96875 16.703125 11.015625 
Q 21.046875 6.0625 27.640625 6.0625 
Q 34.1875 6.0625 38.53125 11.03125 
Q 42.875 16.015625 42.875 26.21875 
Q 42.875 35.84375 38.5 40.796875 
Q 34.125 45.75 27.640625 45.75 
Q 21.046875 45.75 16.703125 40.8125 
Q 12.359375 35.890625 12.359375 25.921875 
" id="ArialMT-6f"/>
       <path d="M 40.578125 0 
L 40.578125 7.625 
Q 34.515625 -1.171875 24.125 -1.171875 
Q 19.53125 -1.171875 15.546875 0.578125 
Q 11.578125 2.34375 9.640625 5 
Q 7.71875 7.671875 6.9375 11.53125 
Q 6.390625 14.109375 6.390625 19.734375 
L 6.390625 51.859375 
L 15.1875 51.859375 
L 15.1875 23.09375 
Q 15.1875 16.21875 15.71875 13.8125 
Q 16.546875 10.359375 19.234375 8.375 
Q 21.921875 6.390625 25.875 6.390625 
Q 29.828125 6.390625 33.296875 8.421875 
Q 36.765625 10.453125 38.203125 13.9375 
Q 39.65625 17.4375 39.65625 24.078125 
L 39.65625 51.859375 
L 48.4375 51.859375 
L 48.4375 0 
z
" id="ArialMT-75"/>
       <path d="M 3.078125 15.484375 
L 11.765625 16.84375 
Q 12.5 11.625 15.84375 8.84375 
Q 19.1875 6.0625 25.203125 6.0625 
Q 31.25 6.0625 34.171875 8.515625 
Q 37.109375 10.984375 37.109375 14.3125 
Q 37.109375 17.28125 34.515625 19 
Q 32.71875 20.171875 25.53125 21.96875 
Q 15.875 24.421875 12.140625 26.203125 
Q 8.40625 27.984375 6.46875 31.125 
Q 4.546875 34.28125 4.546875 38.09375 
Q 4.546875 41.546875 6.125 44.5 
Q 7.71875 47.46875 10.453125 49.421875 
Q 12.5 50.921875 16.03125 51.96875 
Q 19.578125 53.03125 23.640625 53.03125 
Q 29.734375 53.03125 34.34375 51.265625 
Q 38.96875 49.515625 41.15625 46.5 
Q 43.359375 43.5 44.1875 38.484375 
L 35.59375 37.3125 
Q 35.015625 41.3125 32.203125 43.546875 
Q 29.390625 45.796875 24.265625 45.796875 
Q 18.21875 45.796875 15.625 43.796875 
Q 13.03125 41.796875 13.03125 39.109375 
Q 13.03125 37.40625 14.109375 36.03125 
Q 15.1875 34.625 17.484375 33.6875 
Q 18.796875 33.203125 25.25 31.453125 
Q 34.578125 28.953125 38.25 27.359375 
Q 41.9375 25.78125 44.03125 22.75 
Q 46.140625 19.734375 46.140625 15.234375 
Q 46.140625 10.84375 43.578125 6.953125 
Q 41.015625 3.078125 36.171875 0.953125 
Q 31.34375 -1.171875 25.25 -1.171875 
Q 15.140625 -1.171875 9.84375 3.03125 
Q 4.546875 7.234375 3.078125 15.484375 
" id="ArialMT-73"/>
       <path d="M 25.78125 7.859375 
L 27.046875 0.09375 
Q 23.34375 -0.6875 20.40625 -0.6875 
Q 15.625 -0.6875 12.984375 0.828125 
Q 10.359375 2.34375 9.28125 4.8125 
Q 8.203125 7.28125 8.203125 15.1875 
L 8.203125 45.015625 
L 1.765625 45.015625 
L 1.765625 51.859375 
L 8.203125 51.859375 
L 8.203125 64.703125 
L 16.9375 69.96875 
L 16.9375 51.859375 
L 25.78125 51.859375 
L 25.78125 45.015625 
L 16.9375 45.015625 
L 16.9375 14.703125 
Q 16.9375 10.9375 17.40625 9.859375 
Q 17.875 8.796875 18.921875 8.15625 
Q 19.96875 7.515625 21.921875 7.515625 
Q 23.390625 7.515625 25.78125 7.859375 
" id="ArialMT-74"/>
       <path d="M 6.640625 61.46875 
L 6.640625 71.578125 
L 15.4375 71.578125 
L 15.4375 61.46875 
z
M 6.640625 0 
L 6.640625 51.859375 
L 15.4375 51.859375 
L 15.4375 0 
z
" id="ArialMT-69"/>
      </defs>
      <g style="fill:#808080;" transform="translate(435.826449 210.3475)scale(0.08 -0.08)">
       <use xlink:href="#ArialMT-61"/>
       <use x="55.615234" xlink:href="#ArialMT-63"/>
       <use x="105.615234" xlink:href="#ArialMT-6f"/>
       <use x="161.230469" xlink:href="#ArialMT-75"/>
       <use x="216.845703" xlink:href="#ArialMT-73"/>
       <use x="266.845703" xlink:href="#ArialMT-74"/>
       <use x="294.628906" xlink:href="#ArialMT-69"/>
       <use x="316.845703" xlink:href="#ArialMT-63"/>
       <use x="366.845703" xlink:href="#ArialMT-6e"/>
       <use x="422.460938" xlink:href="#ArialMT-65"/>
       <use x="478.076172" xlink:href="#ArialMT-73"/>
       <use x="528.076172" xlink:href="#ArialMT-73"/>
      </g>
     </g>
    </g>
    <g id="xtick_4">
     <g id="line2d_4">
      <path clip-path="url(#p72a91c6a47)" d="M 288 208.279375 
L 397.889744 318.169119 
" style="fill:none;stroke:#ffffff;stroke-linecap:round;"/>
     </g>
     <g id="text_4">
      <!-- speechiness -->
      <defs>
       <path d="M 6.59375 -19.875 
L 6.59375 51.859375 
L 14.59375 51.859375 
L 14.59375 45.125 
Q 17.4375 49.078125 21 51.046875 
Q 24.5625 53.03125 29.640625 53.03125 
Q 36.28125 53.03125 41.359375 49.609375 
Q 46.4375 46.1875 49.015625 39.953125 
Q 51.609375 33.734375 51.609375 26.3125 
Q 51.609375 18.359375 48.75 11.984375 
Q 45.90625 5.609375 40.453125 2.21875 
Q 35.015625 -1.171875 29 -1.171875 
Q 24.609375 -1.171875 21.109375 0.6875 
Q 17.625 2.546875 15.375 5.375 
L 15.375 -19.875 
z
M 14.546875 25.640625 
Q 14.546875 15.625 18.59375 10.84375 
Q 22.65625 6.0625 28.421875 6.0625 
Q 34.28125 6.0625 38.453125 11.015625 
Q 42.625 15.96875 42.625 26.375 
Q 42.625 36.28125 38.546875 41.203125 
Q 34.46875 46.140625 28.8125 46.140625 
Q 23.1875 46.140625 18.859375 40.890625 
Q 14.546875 35.640625 14.546875 25.640625 
" id="ArialMT-70"/>
       <path d="M 6.59375 0 
L 6.59375 71.578125 
L 15.375 71.578125 
L 15.375 45.90625 
Q 21.53125 53.03125 30.90625 53.03125 
Q 36.671875 53.03125 40.921875 50.75 
Q 45.171875 48.484375 47 44.484375 
Q 48.828125 40.484375 48.828125 32.859375 
L 48.828125 0 
L 40.046875 0 
L 40.046875 32.859375 
Q 40.046875 39.453125 37.1875 42.453125 
Q 34.328125 45.453125 29.109375 45.453125 
Q 25.203125 45.453125 21.75 43.421875 
Q 18.3125 41.40625 16.84375 37.9375 
Q 15.375 34.46875 15.375 28.375 
L 15.375 0 
z
" id="ArialMT-68"/>
      </defs>
      <g style="fill:#808080;" transform="translate(386.643719 331.226219)scale(0.08 -0.08)">
       <use xlink:href="#ArialMT-73"/>
       <use x="50" xlink:href="#ArialMT-70"/>
       <use x="105.615234" xlink:href="#ArialMT-65"/>
       <use x="161.230469" xlink:href="#ArialMT-65"/>
       <use x="216.845703" xlink:href="#ArialMT-63"/>
       <use x="266.845703" xlink:href="#ArialMT-68"/>
       <use x="322.460938" xlink:href="#ArialMT-69"/>
       <use x="344.677734" xlink:href="#ArialMT-6e"/>
       <use x="400.292969" xlink:href="#ArialMT-65"/>
       <use x="455.908203" xlink:href="#ArialMT-73"/>
       <use x="505.908203" xlink:href="#ArialMT-73"/>
      </g>
     </g>
    </g>
    <g id="xtick_5">
     <g id="line2d_5">
      <path clip-path="url(#p72a91c6a47)" d="M 288 208.279375 
L 288 363.686942 
" style="fill:none;stroke:#ffffff;stroke-linecap:round;"/>
     </g>
     <g id="text_5">
      <!-- danceability -->
      <defs>
       <path d="M 40.234375 0 
L 40.234375 6.546875 
Q 35.296875 -1.171875 25.734375 -1.171875 
Q 19.53125 -1.171875 14.328125 2.25 
Q 9.125 5.671875 6.265625 11.796875 
Q 3.421875 17.921875 3.421875 25.875 
Q 3.421875 33.640625 6 39.96875 
Q 8.59375 46.296875 13.765625 49.65625 
Q 18.953125 53.03125 25.34375 53.03125 
Q 30.03125 53.03125 33.6875 51.046875 
Q 37.359375 49.078125 39.65625 45.90625 
L 39.65625 71.578125 
L 48.390625 71.578125 
L 48.390625 0 
z
M 12.453125 25.875 
Q 12.453125 15.921875 16.640625 10.984375 
Q 20.84375 6.0625 26.5625 6.0625 
Q 32.328125 6.0625 36.34375 10.765625 
Q 40.375 15.484375 40.375 25.140625 
Q 40.375 35.796875 36.265625 40.765625 
Q 32.171875 45.75 26.171875 45.75 
Q 20.3125 45.75 16.375 40.96875 
Q 12.453125 36.1875 12.453125 25.875 
" id="ArialMT-64"/>
       <path d="M 14.703125 0 
L 6.546875 0 
L 6.546875 71.578125 
L 15.328125 71.578125 
L 15.328125 46.046875 
Q 20.90625 53.03125 29.546875 53.03125 
Q 34.328125 53.03125 38.59375 51.09375 
Q 42.875 49.171875 45.625 45.671875 
Q 48.390625 42.1875 49.953125 37.25 
Q 51.515625 32.328125 51.515625 26.703125 
Q 51.515625 13.375 44.921875 6.09375 
Q 38.328125 -1.171875 29.109375 -1.171875 
Q 19.921875 -1.171875 14.703125 6.5 
z
M 14.59375 26.3125 
Q 14.59375 17 17.140625 12.84375 
Q 21.296875 6.0625 28.375 6.0625 
Q 34.125 6.0625 38.328125 11.0625 
Q 42.53125 16.0625 42.53125 25.984375 
Q 42.53125 36.140625 38.5 40.96875 
Q 34.46875 45.796875 28.765625 45.796875 
Q 23 45.796875 18.796875 40.796875 
Q 14.59375 35.796875 14.59375 26.3125 
" id="ArialMT-62"/>
      </defs>
      <g style="fill:#808080;" transform="translate(266.87625 381.248949)scale(0.08 -0.08)">
       <use xlink:href="#ArialMT-64"/>
       <use x="55.615234" xlink:href="#ArialMT-61"/>
       <use x="111.230469" xlink:href="#ArialMT-6e"/>
       <use x="166.845703" xlink:href="#ArialMT-63"/>
       <use x="216.845703" xlink:href="#ArialMT-65"/>
       <use x="272.460938" xlink:href="#ArialMT-61"/>
       <use x="328.076172" xlink:href="#ArialMT-62"/>
       <use x="383.691406" xlink:href="#ArialMT-69"/>
       <use x="405.908203" xlink:href="#ArialMT-6c"/>
       <use x="428.125" xlink:href="#ArialMT-69"/>
       <use x="450.341797" xlink:href="#ArialMT-74"/>
       <use x="478.125" xlink:href="#ArialMT-79"/>
      </g>
     </g>
    </g>
    <g id="xtick_6">
     <g id="line2d_6">
      <path clip-path="url(#p72a91c6a47)" d="M 288 208.279375 
L 178.110256 318.169119 
" style="fill:none;stroke:#ffffff;stroke-linecap:round;"/>
     </g>
     <g id="text_6">
      <!-- instrumentalness -->
      <defs>
       <path d="M 6.59375 0 
L 6.59375 51.859375 
L 14.453125 51.859375 
L 14.453125 44.578125 
Q 16.890625 48.390625 20.9375 50.703125 
Q 25 53.03125 30.171875 53.03125 
Q 35.9375 53.03125 39.625 50.640625 
Q 43.3125 48.25 44.828125 43.953125 
Q 50.984375 53.03125 60.84375 53.03125 
Q 68.5625 53.03125 72.703125 48.75 
Q 76.859375 44.484375 76.859375 35.59375 
L 76.859375 0 
L 68.109375 0 
L 68.109375 32.671875 
Q 68.109375 37.9375 67.25 40.25 
Q 66.40625 42.578125 64.15625 43.984375 
Q 61.921875 45.40625 58.890625 45.40625 
Q 53.421875 45.40625 49.796875 41.765625 
Q 46.1875 38.140625 46.1875 30.125 
L 46.1875 0 
L 37.40625 0 
L 37.40625 33.6875 
Q 37.40625 39.546875 35.25 42.46875 
Q 33.109375 45.40625 28.21875 45.40625 
Q 24.515625 45.40625 21.359375 43.453125 
Q 18.21875 41.5 16.796875 37.734375 
Q 15.375 33.984375 15.375 26.90625 
L 15.375 0 
z
" id="ArialMT-6d"/>
      </defs>
      <g style="fill:#808080;" transform="translate(136.886906 331.226219)scale(0.08 -0.08)">
       <use xlink:href="#ArialMT-69"/>
       <use x="22.216797" xlink:href="#ArialMT-6e"/>
       <use x="77.832031" xlink:href="#ArialMT-73"/>
       <use x="127.832031" xlink:href="#ArialMT-74"/>
       <use x="155.615234" xlink:href="#ArialMT-72"/>
       <use x="188.916016" xlink:href="#ArialMT-75"/>
       <use x="244.53125" xlink:href="#ArialMT-6d"/>
       <use x="327.832031" xlink:href="#ArialMT-65"/>
       <use x="383.447266" xlink:href="#ArialMT-6e"/>
       <use x="439.0625" xlink:href="#ArialMT-74"/>
       <use x="466.845703" xlink:href="#ArialMT-61"/>
       <use x="522.460938" xlink:href="#ArialMT-6c"/>
       <use x="544.677734" xlink:href="#ArialMT-6e"/>
       <use x="600.292969" xlink:href="#ArialMT-65"/>
       <use x="655.908203" xlink:href="#ArialMT-73"/>
       <use x="705.908203" xlink:href="#ArialMT-73"/>
      </g>
     </g>
    </g>
    <g id="xtick_7">
     <g id="line2d_7">
      <path clip-path="url(#p72a91c6a47)" d="M 288 208.279375 
L 132.592433 208.279375 
" style="fill:none;stroke:#ffffff;stroke-linecap:round;"/>
     </g>
     <g id="text_7">
      <!-- liveness -->
      <g style="fill:#808080;" transform="translate(102.601051 210.3475)scale(0.08 -0.08)">
       <use xlink:href="#ArialMT-6c"/>
       <use x="22.216797" xlink:href="#ArialMT-69"/>
       <use x="44.433594" xlink:href="#ArialMT-76"/>
       <use x="94.433594" xlink:href="#ArialMT-65"/>
       <use x="150.048828" xlink:href="#ArialMT-6e"/>
       <use x="205.664062" xlink:href="#ArialMT-65"/>
       <use x="261.279297" xlink:href="#ArialMT-73"/>
       <use x="311.279297" xlink:href="#ArialMT-73"/>
      </g>
     </g>
    </g>
    <g id="xtick_8">
     <g id="line2d_8">
      <path clip-path="url(#p72a91c6a47)" d="M 288 208.279375 
L 178.110256 98.38963 
" style="fill:none;stroke:#ffffff;stroke-linecap:round;"/>
     </g>
     <g id="text_8">
      <!-- mode -->
      <g style="fill:#808080;" transform="translate(157.116281 89.468781)scale(0.08 -0.08)">
       <use xlink:href="#ArialMT-6d"/>
       <use x="83.300781" xlink:href="#ArialMT-6f"/>
       <use x="138.916016" xlink:href="#ArialMT-64"/>
       <use x="194.53125" xlink:href="#ArialMT-65"/>
      </g>
     </g>
    </g>
   </g>
   <g id="matplotlib.axis_2">
    <g id="ytick_1">
     <g id="line2d_9">
      <path clip-path="url(#p72a91c6a47)" d="M 288 177.197862 
L 289.084729 177.216796 
L 290.168137 177.273575 
L 292.325711 177.500345 
L 294.46221 177.877067 
L 296.567226 178.401907 
L 298.630504 179.072306 
L 300.64199 179.885 
L 302.591887 180.836027 
L 304.470693 181.920757 
L 306.269255 183.133902 
L 307.978812 184.469554 
L 309.591033 185.921205 
L 311.098066 187.481783 
L 312.492567 189.143685 
L 313.767742 190.898813 
L 314.91738 192.738618 
L 315.935879 194.654136 
L 316.818277 196.636035 
L 317.560276 198.674659 
L 318.15826 200.760076 
L 318.609315 202.882127 
L 318.911246 205.030472 
L 319.062579 207.194646 
L 319.062579 209.364104 
L 318.911246 211.528278 
L 318.609315 213.676623 
L 318.15826 215.798674 
L 317.560276 217.884091 
L 316.818277 219.922715 
L 315.935879 221.904614 
L 314.91738 223.820132 
L 313.767742 225.659937 
L 312.492567 227.415065 
L 311.098066 229.076967 
L 309.591033 230.637545 
L 307.978812 232.089196 
L 306.269255 233.424847 
L 304.470693 234.637993 
L 302.591887 235.722722 
L 300.64199 236.67375 
L 298.630504 237.486444 
L 296.567226 238.156843 
L 294.46221 238.681683 
L 292.325711 239.058405 
L 290.168137 239.285175 
L 288 239.360888 
L 285.831863 239.285175 
L 283.674289 239.058405 
L 281.53779 238.681683 
L 279.432774 238.156843 
L 277.369496 237.486444 
L 275.35801 236.67375 
L 273.408113 235.722722 
L 271.529307 234.637993 
L 269.730745 233.424847 
L 268.021188 232.089196 
L 266.408967 230.637545 
L 264.901934 229.076967 
L 263.507433 227.415065 
L 262.232258 225.659937 
L 261.08262 223.820132 
L 260.064121 221.904614 
L 259.181723 219.922715 
L 258.439724 217.884091 
L 257.84174 215.798674 
L 257.390685 213.676623 
L 257.088754 211.528278 
L 256.937421 209.364104 
L 256.937421 207.194646 
L 257.088754 205.030472 
L 257.390685 202.882127 
L 257.84174 200.760076 
L 258.439724 198.674659 
L 259.181723 196.636035 
L 260.064121 194.654136 
L 261.08262 192.738618 
L 262.232258 190.898813 
L 263.507433 189.143685 
L 264.901934 187.481783 
L 266.408967 185.921205 
L 268.021188 184.469554 
L 269.730745 183.133902 
L 271.529307 181.920757 
L 273.408113 180.836027 
L 275.35801 179.885 
L 277.369496 179.072306 
L 279.432774 178.401907 
L 281.53779 177.877067 
L 283.674289 177.500345 
L 285.831863 177.273575 
L 288 177.197862 
L 288 177.197862 
" style="fill:none;stroke:#ffffff;stroke-linecap:round;"/>
     </g>
     <g id="text_9">
      <!-- 0.2 -->
      <defs>
       <path d="M 4.15625 35.296875 
Q 4.15625 48 6.765625 55.734375 
Q 9.375 63.484375 14.515625 67.671875 
Q 19.671875 71.875 27.484375 71.875 
Q 33.25 71.875 37.59375 69.546875 
Q 41.9375 67.234375 44.765625 62.859375 
Q 47.609375 58.5 49.21875 52.21875 
Q 50.828125 45.953125 50.828125 35.296875 
Q 50.828125 22.703125 48.234375 14.96875 
Q 45.65625 7.234375 40.5 3 
Q 35.359375 -1.21875 27.484375 -1.21875 
Q 17.140625 -1.21875 11.234375 6.203125 
Q 4.15625 15.140625 4.15625 35.296875 
M 13.1875 35.296875 
Q 13.1875 17.671875 17.3125 11.828125 
Q 21.4375 6 27.484375 6 
Q 33.546875 6 37.671875 11.859375 
Q 41.796875 17.71875 41.796875 35.296875 
Q 41.796875 52.984375 37.671875 58.78125 
Q 33.546875 64.59375 27.390625 64.59375 
Q 21.34375 64.59375 17.71875 59.46875 
Q 13.1875 52.9375 13.1875 35.296875 
" id="ArialMT-30"/>
       <path d="M 9.078125 0 
L 9.078125 10.015625 
L 19.09375 10.015625 
L 19.09375 0 
z
" id="ArialMT-2e"/>
       <path d="M 50.34375 8.453125 
L 50.34375 0 
L 3.03125 0 
Q 2.9375 3.171875 4.046875 6.109375 
Q 5.859375 10.9375 9.828125 15.625 
Q 13.8125 20.3125 21.34375 26.46875 
Q 33.015625 36.03125 37.109375 41.625 
Q 41.21875 47.21875 41.21875 52.203125 
Q 41.21875 57.421875 37.46875 61 
Q 33.734375 64.59375 27.734375 64.59375 
Q 21.390625 64.59375 17.578125 60.78125 
Q 13.765625 56.984375 13.71875 50.25 
L 4.6875 51.171875 
Q 5.609375 61.28125 11.65625 66.578125 
Q 17.71875 71.875 27.9375 71.875 
Q 38.234375 71.875 44.234375 66.15625 
Q 50.25 60.453125 50.25 52 
Q 50.25 47.703125 48.484375 43.546875 
Q 46.734375 39.40625 42.65625 34.8125 
Q 38.578125 30.21875 29.109375 22.21875 
Q 21.1875 15.578125 18.9375 13.203125 
Q 16.703125 10.84375 15.234375 8.453125 
z
" id="ArialMT-32"/>
      </defs>
      <g style="fill:#808080;" transform="translate(288 175.806612)scale(0.07 -0.07)">
       <use xlink:href="#ArialMT-30"/>
       <use x="55.615234" xlink:href="#ArialMT-2e"/>
       <use x="83.398438" xlink:href="#ArialMT-32"/>
      </g>
     </g>
    </g>
    <g id="ytick_2">
     <g id="line2d_10">
      <path clip-path="url(#p72a91c6a47)" d="M 288 146.116348 
L 290.169458 146.154216 
L 292.336274 146.267774 
L 296.651421 146.721314 
L 300.92442 147.474759 
L 305.134452 148.524438 
L 309.261007 149.865237 
L 313.283981 151.490624 
L 317.183773 153.39268 
L 320.941385 155.562138 
L 324.53851 157.98843 
L 327.957623 160.659734 
L 331.182067 163.563036 
L 334.196132 166.684191 
L 336.985134 170.007994 
L 339.535485 173.518251 
L 341.83476 177.197862 
L 343.871758 181.028898 
L 345.636555 184.992695 
L 347.120552 189.069943 
L 348.316519 193.240778 
L 349.218631 197.484879 
L 349.822491 201.781569 
L 350.125159 206.109917 
L 350.125159 210.448833 
L 349.822491 214.777181 
L 349.218631 219.073871 
L 348.316519 223.317972 
L 347.120552 227.488807 
L 345.636555 231.566055 
L 343.871758 235.529852 
L 341.83476 239.360888 
L 339.535485 243.040498 
L 336.985134 246.550756 
L 334.196132 249.874559 
L 331.182067 252.995714 
L 327.957623 255.899016 
L 324.53851 258.57032 
L 320.941385 260.996611 
L 317.183773 263.16607 
L 313.283981 265.068126 
L 309.261007 266.693512 
L 305.134452 268.034311 
L 300.92442 269.08399 
L 296.651421 269.837435 
L 292.336274 270.290976 
L 288 270.442402 
L 283.663726 270.290976 
L 279.348579 269.837435 
L 275.07558 269.08399 
L 270.865548 268.034311 
L 266.738993 266.693512 
L 262.716019 265.068126 
L 258.816227 263.16607 
L 255.058615 260.996611 
L 251.46149 258.57032 
L 248.042377 255.899016 
L 244.817933 252.995714 
L 241.803868 249.874559 
L 239.014866 246.550756 
L 236.464515 243.040498 
L 234.16524 239.360888 
L 232.128242 235.529852 
L 230.363445 231.566055 
L 228.879448 227.488807 
L 227.683481 223.317972 
L 226.781369 219.073871 
L 226.177509 214.777181 
L 225.874841 210.448833 
L 225.874841 206.109917 
L 226.177509 201.781569 
L 226.781369 197.484879 
L 227.683481 193.240778 
L 228.879448 189.069943 
L 230.363445 184.992695 
L 232.128242 181.028898 
L 234.16524 177.197862 
L 236.464515 173.518251 
L 239.014866 170.007994 
L 241.803868 166.684191 
L 244.817933 163.563036 
L 248.042377 160.659734 
L 251.46149 157.98843 
L 255.058615 155.562138 
L 258.816227 153.39268 
L 262.716019 151.490624 
L 266.738993 149.865237 
L 270.865548 148.524438 
L 275.07558 147.474759 
L 279.348579 146.721314 
L 283.663726 146.267774 
L 288 146.116348 
L 288 146.116348 
" style="fill:none;stroke:#ffffff;stroke-linecap:round;"/>
     </g>
     <g id="text_10">
      <!-- 0.4 -->
      <defs>
       <path d="M 32.328125 0 
L 32.328125 17.140625 
L 1.265625 17.140625 
L 1.265625 25.203125 
L 33.9375 71.578125 
L 41.109375 71.578125 
L 41.109375 25.203125 
L 50.78125 25.203125 
L 50.78125 17.140625 
L 41.109375 17.140625 
L 41.109375 0 
z
M 32.328125 25.203125 
L 32.328125 57.46875 
L 9.90625 25.203125 
z
" id="ArialMT-34"/>
      </defs>
      <g style="fill:#808080;" transform="translate(288 144.725098)scale(0.07 -0.07)">
       <use xlink:href="#ArialMT-30"/>
       <use x="55.615234" xlink:href="#ArialMT-2e"/>
       <use x="83.398438" xlink:href="#ArialMT-34"/>
      </g>
     </g>
    </g>
    <g id="ytick_3">
     <g id="line2d_11">
      <path clip-path="url(#p72a91c6a47)" d="M 288 115.034835 
L 291.254188 115.091637 
L 294.50441 115.261974 
L 297.746708 115.545638 
L 300.977132 115.942284 
L 304.191744 116.451429 
L 307.38663 117.072452 
L 310.557896 117.804596 
L 313.701679 118.64697 
L 316.814148 119.598547 
L 319.891511 120.658169 
L 322.93002 121.824543 
L 325.925971 123.096249 
L 328.875716 124.471737 
L 331.77566 125.949333 
L 334.62227 127.527234 
L 337.412078 129.20352 
L 340.141685 130.976148 
L 342.807766 132.842957 
L 345.407071 134.801675 
L 347.936435 136.849913 
L 350.392776 138.985177 
L 352.7731 141.204866 
L 355.074509 143.506275 
L 357.294198 145.886599 
L 359.429462 148.34294 
L 361.4777 150.872304 
L 363.436418 153.471609 
L 365.303227 156.13769 
L 367.075855 158.867297 
L 368.752141 161.657105 
L 370.330042 164.503715 
L 371.807638 167.403659 
L 373.183126 170.353404 
L 374.454832 173.349355 
L 375.621206 176.387864 
L 376.680828 179.465227 
L 377.632405 182.577696 
L 378.474779 185.721479 
L 379.206923 188.892745 
L 379.827946 192.08763 
L 380.337091 195.302243 
L 380.733737 198.532666 
L 381.017401 201.774965 
L 381.187738 205.025187 
L 381.24454 208.279375 
L 381.187738 211.533562 
L 381.017401 214.783785 
L 380.733737 218.026083 
L 380.337091 221.256507 
L 379.827946 224.471119 
L 379.206923 227.666005 
L 378.474779 230.837271 
L 377.632405 233.981053 
L 376.680828 237.093522 
L 375.621206 240.170886 
L 374.454832 243.209394 
L 373.183126 246.205346 
L 371.807638 249.155091 
L 370.330042 252.055035 
L 368.752141 254.901645 
L 367.075855 257.691453 
L 365.303227 260.42106 
L 363.436418 263.087141 
L 361.4777 265.686446 
L 359.429462 268.21581 
L 357.294198 270.672151 
L 355.074509 273.052475 
L 352.7731 275.353884 
L 350.392776 277.573572 
L 347.936435 279.708837 
L 345.407071 281.757075 
L 342.807766 283.715793 
L 340.141685 285.582602 
L 337.412078 287.35523 
L 334.62227 289.031515 
L 331.77566 290.609417 
L 328.875716 292.087012 
L 325.925971 293.462501 
L 322.93002 294.734207 
L 319.891511 295.900581 
L 316.814148 296.960202 
L 313.701679 297.91178 
L 310.557896 298.754154 
L 307.38663 299.486298 
L 304.191744 300.107321 
L 300.977132 300.616466 
L 297.746708 301.013112 
L 294.50441 301.296776 
L 291.254188 301.467113 
L 288 301.523915 
L 284.745812 301.467113 
L 281.49559 301.296776 
L 278.253292 301.013112 
L 275.022868 300.616466 
L 271.808256 300.107321 
L 268.61337 299.486298 
L 265.442104 298.754154 
L 262.298321 297.91178 
L 259.185852 296.960202 
L 256.108489 295.900581 
L 253.06998 294.734207 
L 250.074029 293.462501 
L 247.124284 292.087012 
L 244.22434 290.609417 
L 241.37773 289.031515 
L 238.587922 287.35523 
L 235.858315 285.582602 
L 233.192234 283.715793 
L 230.592929 281.757075 
L 228.063565 279.708837 
L 225.607224 277.573572 
L 223.2269 275.353884 
L 220.925491 273.052475 
L 218.705802 270.672151 
L 216.570538 268.21581 
L 214.5223 265.686446 
L 212.563582 263.087141 
L 210.696773 260.42106 
L 208.924145 257.691453 
L 207.247859 254.901645 
L 205.669958 252.055035 
L 204.192362 249.155091 
L 202.816874 246.205346 
L 201.545168 243.209394 
L 200.378794 240.170886 
L 199.319172 237.093522 
L 198.367595 233.981053 
L 197.525221 230.837271 
L 196.793077 227.666005 
L 196.172054 224.471119 
L 195.662909 221.256507 
L 195.266263 218.026083 
L 194.982599 214.783785 
L 194.812262 211.533562 
L 194.75546 208.279375 
L 194.812262 205.025187 
L 194.982599 201.774965 
L 195.266263 198.532666 
L 195.662909 195.302243 
L 196.172054 192.08763 
L 196.793077 188.892745 
L 197.525221 185.721479 
L 198.367595 182.577696 
L 199.319172 179.465227 
L 200.378794 176.387864 
L 201.545168 173.349355 
L 202.816874 170.353404 
L 204.192362 167.403659 
L 205.669958 164.503715 
L 207.247859 161.657105 
L 208.924145 158.867297 
L 210.696773 156.13769 
L 212.563582 153.471609 
L 214.5223 150.872304 
L 216.570538 148.34294 
L 218.705802 145.886599 
L 220.925491 143.506275 
L 223.2269 141.204866 
L 225.607224 138.985177 
L 228.063565 136.849913 
L 230.592929 134.801675 
L 233.192234 132.842957 
L 235.858315 130.976148 
L 238.587922 129.20352 
L 241.37773 127.527234 
L 244.22434 125.949333 
L 247.124284 124.471737 
L 250.074029 123.096249 
L 253.06998 121.824543 
L 256.108489 120.658169 
L 259.185852 119.598547 
L 262.298321 118.64697 
L 265.442104 117.804596 
L 268.61337 117.072452 
L 271.808256 116.451429 
L 275.022868 115.942284 
L 278.253292 115.545638 
L 281.49559 115.261974 
L 284.745812 115.091637 
L 288 115.034835 
L 288 115.034835 
" style="fill:none;stroke:#ffffff;stroke-linecap:round;"/>
     </g>
     <g id="text_11">
      <!-- 0.6 -->
      <defs>
       <path d="M 49.75 54.046875 
L 41.015625 53.375 
Q 39.84375 58.546875 37.703125 60.890625 
Q 34.125 64.65625 28.90625 64.65625 
Q 24.703125 64.65625 21.53125 62.3125 
Q 17.390625 59.28125 14.984375 53.46875 
Q 12.59375 47.65625 12.5 36.921875 
Q 15.671875 41.75 20.265625 44.09375 
Q 24.859375 46.4375 29.890625 46.4375 
Q 38.671875 46.4375 44.84375 39.96875 
Q 51.03125 33.5 51.03125 23.25 
Q 51.03125 16.5 48.125 10.71875 
Q 45.21875 4.9375 40.140625 1.859375 
Q 35.0625 -1.21875 28.609375 -1.21875 
Q 17.625 -1.21875 10.6875 6.859375 
Q 3.765625 14.9375 3.765625 33.5 
Q 3.765625 54.25 11.421875 63.671875 
Q 18.109375 71.875 29.4375 71.875 
Q 37.890625 71.875 43.28125 67.140625 
Q 48.6875 62.40625 49.75 54.046875 
M 13.875 23.1875 
Q 13.875 18.65625 15.796875 14.5 
Q 17.71875 10.359375 21.1875 8.171875 
Q 24.65625 6 28.46875 6 
Q 34.03125 6 38.03125 10.484375 
Q 42.046875 14.984375 42.046875 22.703125 
Q 42.046875 30.125 38.078125 34.390625 
Q 34.125 38.671875 28.125 38.671875 
Q 22.171875 38.671875 18.015625 34.390625 
Q 13.875 30.125 13.875 23.1875 
" id="ArialMT-36"/>
      </defs>
      <g style="fill:#808080;" transform="translate(288 113.643585)scale(0.07 -0.07)">
       <use xlink:href="#ArialMT-30"/>
       <use x="55.615234" xlink:href="#ArialMT-2e"/>
       <use x="83.398438" xlink:href="#ArialMT-36"/>
      </g>
     </g>
    </g>
    <g id="ytick_4">
     <g id="line2d_12">
      <path clip-path="url(#p72a91c6a47)" d="M 288 83.953321 
L 292.338917 84.029057 
L 296.672547 84.256173 
L 300.995611 84.634392 
L 305.302842 85.163254 
L 309.588993 85.842113 
L 313.84884 86.670144 
L 318.077195 87.646336 
L 322.268905 88.769502 
L 326.418863 90.038272 
L 330.522015 91.4511 
L 334.573359 93.006265 
L 338.567962 94.701873 
L 342.500955 96.535858 
L 346.367547 98.505985 
L 350.163027 100.609854 
L 353.882771 102.844902 
L 357.522247 105.208405 
L 361.077021 107.697485 
L 364.542762 110.309108 
L 367.915247 113.040092 
L 371.190368 115.887112 
L 374.364134 118.846696 
L 377.432679 121.915241 
L 380.392263 125.089007 
L 383.239282 128.364128 
L 385.970267 131.736613 
L 388.58189 135.202354 
L 391.07097 138.757128 
L 393.434473 142.396604 
L 395.669521 146.116348 
L 397.77339 149.911828 
L 399.743517 153.77842 
L 401.577502 157.711413 
L 403.27311 161.706016 
L 404.828275 165.75736 
L 406.241103 169.860512 
L 407.509873 174.01047 
L 408.633038 178.20218 
L 409.609231 182.430535 
L 410.437261 186.690382 
L 411.116121 190.976533 
L 411.644982 195.283764 
L 412.023202 199.606828 
L 412.250318 203.940458 
L 412.326054 208.279375 
L 412.250318 212.618292 
L 412.023202 216.951922 
L 411.644982 221.274986 
L 411.116121 225.582217 
L 410.437261 229.868368 
L 409.609231 234.128215 
L 408.633038 238.356569 
L 407.509873 242.54828 
L 406.241103 246.698238 
L 404.828275 250.80139 
L 403.27311 254.852734 
L 401.577502 258.847337 
L 399.743517 262.78033 
L 397.77339 266.646922 
L 395.669521 270.442402 
L 393.434473 274.162146 
L 391.07097 277.801622 
L 388.58189 281.356396 
L 385.970267 284.822136 
L 383.239282 288.194622 
L 380.392263 291.469743 
L 377.432679 294.643509 
L 374.364134 297.712053 
L 371.190368 300.671638 
L 367.915247 303.518657 
L 364.542762 306.249642 
L 361.077021 308.861265 
L 357.522247 311.350345 
L 353.882771 313.713848 
L 350.163027 315.948896 
L 346.367547 318.052765 
L 342.500955 320.022892 
L 338.567962 321.856876 
L 334.573359 323.552485 
L 330.522015 325.10765 
L 326.418863 326.520478 
L 322.268905 327.789248 
L 318.077195 328.912413 
L 313.84884 329.888606 
L 309.588993 330.716636 
L 305.302842 331.395496 
L 300.995611 331.924357 
L 296.672547 332.302576 
L 292.338917 332.529692 
L 288 332.605429 
L 283.661083 332.529692 
L 279.327453 332.302576 
L 275.004389 331.924357 
L 270.697158 331.395496 
L 266.411007 330.716636 
L 262.15116 329.888606 
L 257.922805 328.912413 
L 253.731095 327.789248 
L 249.581137 326.520478 
L 245.477985 325.10765 
L 241.426641 323.552485 
L 237.432038 321.856876 
L 233.499045 320.022892 
L 229.632453 318.052765 
L 225.836973 315.948896 
L 222.117229 313.713848 
L 218.477753 311.350345 
L 214.922979 308.861265 
L 211.457238 306.249642 
L 208.084753 303.518657 
L 204.809632 300.671638 
L 201.635866 297.712053 
L 198.567321 294.643509 
L 195.607737 291.469743 
L 192.760718 288.194622 
L 190.029733 284.822136 
L 187.41811 281.356396 
L 184.92903 277.801622 
L 182.565527 274.162146 
L 180.330479 270.442402 
L 178.22661 266.646922 
L 176.256483 262.78033 
L 174.422498 258.847337 
L 172.72689 254.852734 
L 171.171725 250.80139 
L 169.758897 246.698238 
L 168.490127 242.54828 
L 167.366962 238.356569 
L 166.390769 234.128215 
L 165.562739 229.868368 
L 164.883879 225.582217 
L 164.355018 221.274986 
L 163.976798 216.951922 
L 163.749682 212.618292 
L 163.673946 208.279375 
L 163.749682 203.940458 
L 163.976798 199.606828 
L 164.355018 195.283764 
L 164.883879 190.976533 
L 165.562739 186.690382 
L 166.390769 182.430535 
L 167.366962 178.20218 
L 168.490127 174.01047 
L 169.758897 169.860512 
L 171.171725 165.75736 
L 172.72689 161.706016 
L 174.422498 157.711413 
L 176.256483 153.77842 
L 178.22661 149.911828 
L 180.330479 146.116348 
L 182.565527 142.396604 
L 184.92903 138.757128 
L 187.41811 135.202354 
L 190.029733 131.736613 
L 192.760718 128.364128 
L 195.607737 125.089007 
L 198.567321 121.915241 
L 201.635866 118.846696 
L 204.809632 115.887112 
L 208.084753 113.040092 
L 211.457238 110.309108 
L 214.922979 107.697485 
L 218.477753 105.208405 
L 222.117229 102.844902 
L 225.836973 100.609854 
L 229.632453 98.505985 
L 233.499045 96.535858 
L 237.432038 94.701873 
L 241.426641 93.006265 
L 245.477985 91.4511 
L 249.581137 90.038272 
L 253.731095 88.769502 
L 257.922805 87.646336 
L 262.15116 86.670144 
L 266.411007 85.842113 
L 270.697158 85.163254 
L 275.004389 84.634392 
L 279.327453 84.256173 
L 283.661083 84.029057 
L 288 83.953321 
L 288 83.953321 
" style="fill:none;stroke:#ffffff;stroke-linecap:round;"/>
     </g>
     <g id="text_12">
      <!-- 0.8 -->
      <defs>
       <path d="M 17.671875 38.8125 
Q 12.203125 40.828125 9.5625 44.53125 
Q 6.9375 48.25 6.9375 53.421875 
Q 6.9375 61.234375 12.546875 66.546875 
Q 18.171875 71.875 27.484375 71.875 
Q 36.859375 71.875 42.578125 66.421875 
Q 48.296875 60.984375 48.296875 53.171875 
Q 48.296875 48.1875 45.671875 44.5 
Q 43.0625 40.828125 37.75 38.8125 
Q 44.34375 36.671875 47.78125 31.875 
Q 51.21875 27.09375 51.21875 20.453125 
Q 51.21875 11.28125 44.71875 5.03125 
Q 38.234375 -1.21875 27.640625 -1.21875 
Q 17.046875 -1.21875 10.546875 5.046875 
Q 4.046875 11.328125 4.046875 20.703125 
Q 4.046875 27.6875 7.59375 32.390625 
Q 11.140625 37.109375 17.671875 38.8125 
M 15.921875 53.71875 
Q 15.921875 48.640625 19.1875 45.40625 
Q 22.46875 42.1875 27.6875 42.1875 
Q 32.765625 42.1875 36.015625 45.375 
Q 39.265625 48.578125 39.265625 53.21875 
Q 39.265625 58.0625 35.90625 61.359375 
Q 32.5625 64.65625 27.59375 64.65625 
Q 22.5625 64.65625 19.234375 61.421875 
Q 15.921875 58.203125 15.921875 53.71875 
M 13.09375 20.65625 
Q 13.09375 16.890625 14.875 13.375 
Q 16.65625 9.859375 20.171875 7.921875 
Q 23.6875 6 27.734375 6 
Q 34.03125 6 38.125 10.046875 
Q 42.234375 14.109375 42.234375 20.359375 
Q 42.234375 26.703125 38.015625 30.859375 
Q 33.796875 35.015625 27.4375 35.015625 
Q 21.234375 35.015625 17.15625 30.90625 
Q 13.09375 26.8125 13.09375 20.65625 
" id="ArialMT-38"/>
      </defs>
      <g style="fill:#808080;" transform="translate(288 82.562071)scale(0.07 -0.07)">
       <use xlink:href="#ArialMT-30"/>
       <use x="55.615234" xlink:href="#ArialMT-2e"/>
       <use x="83.398438" xlink:href="#ArialMT-38"/>
      </g>
     </g>
    </g>
   </g>
   <g id="patch_3">
    <path clip-path="url(#p72a91c6a47)" d="M 288 147.442863 
L 356.673241 139.606134 
L 330.448467 208.279375 
L 297.344553 217.623928 
L 288 289.435427 
L 271.744167 224.535208 
L 258.877732 208.279375 
L 221.964113 142.243488 
z
" style="fill:#808080;opacity:0.5;stroke:#808080;stroke-linejoin:miter;stroke-width:0.3;"/>
   </g>
   <g id="patch_4">
    <path clip-path="url(#p72a91c6a47)" d="M 288 137.413524 
L 373.714001 122.565374 
L 304.162387 208.279375 
L 301.736218 222.015593 
L 288 296.240058 
L 274.703341 221.576034 
L 255.675226 208.279375 
L 240.197961 160.477336 
z
" style="fill:#ff9f9a;opacity:0.5;stroke:#ff9f9a;stroke-linejoin:miter;stroke-width:0.3;"/>
   </g>
   <g id="line2d_13">
    <path clip-path="url(#p72a91c6a47)" d="M 288 147.442863 
L 356.673241 139.606134 
L 330.448467 208.279375 
L 297.344553 217.623928 
L 288 289.435427 
L 271.744167 224.535208 
L 258.877732 208.279375 
L 221.964113 142.243488 
L 288 147.442863 
" style="fill:none;stroke:#808080;stroke-linecap:round;"/>
   </g>
   <g id="line2d_14">
    <path clip-path="url(#p72a91c6a47)" d="M 288 137.413524 
L 373.714001 122.565374 
L 304.162387 208.279375 
L 301.736218 222.015593 
L 288 296.240058 
L 274.703341 221.576034 
L 255.675226 208.279375 
L 240.197961 160.477336 
L 288 137.413524 
" style="fill:none;stroke:#ff9f9a;stroke-linecap:round;"/>
   </g>
   <g id="patch_5">
    <path d="M 288 363.686942 
C 329.214569 363.686942 368.746644 347.31222 397.889744 318.169119 
C 427.032845 289.026018 443.407567 249.493943 443.407567 208.279375 
C 443.407567 167.064806 427.032845 127.532731 397.889744 98.38963 
C 368.746644 69.24653 329.214569 52.871808 288 52.871808 
C 246.785431 52.871808 207.253356 69.24653 178.110256 98.38963 
C 148.967155 127.532731 132.592433 167.064806 132.592433 208.279375 
C 132.592433 249.493943 148.967155 289.026018 178.110256 318.169119 
C 207.253356 347.31222 246.785431 363.686942 288 363.686942 
z
" style="fill:none;"/>
   </g>
   <g id="text_13">
    <!-- running -->
    <defs>
     <path d="M 20.3125 0 
L 6.59375 0 
L 6.59375 51.859375 
L 19.34375 51.859375 
L 19.34375 44.484375 
Q 22.609375 49.703125 25.21875 51.359375 
Q 27.828125 53.03125 31.15625 53.03125 
Q 35.84375 53.03125 40.1875 50.4375 
L 35.9375 38.484375 
Q 32.46875 40.71875 29.5 40.71875 
Q 26.609375 40.71875 24.609375 39.125 
Q 22.609375 37.546875 21.453125 33.390625 
Q 20.3125 29.25 20.3125 16.015625 
z
" id="Arial-BoldMT-72"/>
     <path d="M 41.3125 0 
L 41.3125 7.765625 
Q 38.484375 3.609375 33.859375 1.21875 
Q 29.25 -1.171875 24.125 -1.171875 
Q 18.890625 -1.171875 14.734375 1.125 
Q 10.59375 3.421875 8.734375 7.5625 
Q 6.890625 11.71875 6.890625 19.046875 
L 6.890625 51.859375 
L 20.609375 51.859375 
L 20.609375 28.03125 
Q 20.609375 17.09375 21.359375 14.625 
Q 22.125 12.15625 24.125 10.71875 
Q 26.125 9.28125 29.203125 9.28125 
Q 32.71875 9.28125 35.5 11.203125 
Q 38.28125 13.140625 39.296875 15.984375 
Q 40.328125 18.84375 40.328125 29.984375 
L 40.328125 51.859375 
L 54.046875 51.859375 
L 54.046875 0 
z
" id="Arial-BoldMT-75"/>
     <path d="M 54.34375 0 
L 40.625 0 
L 40.625 26.46875 
Q 40.625 34.859375 39.75 37.328125 
Q 38.875 39.796875 36.890625 41.15625 
Q 34.90625 42.53125 32.125 42.53125 
Q 28.5625 42.53125 25.734375 40.578125 
Q 22.90625 38.625 21.84375 35.390625 
Q 20.796875 32.171875 20.796875 23.484375 
L 20.796875 0 
L 7.078125 0 
L 7.078125 51.859375 
L 19.828125 51.859375 
L 19.828125 44.234375 
Q 26.609375 53.03125 36.921875 53.03125 
Q 41.453125 53.03125 45.203125 51.390625 
Q 48.96875 49.75 50.890625 47.203125 
Q 52.828125 44.671875 53.578125 41.453125 
Q 54.34375 38.234375 54.34375 32.234375 
z
" id="Arial-BoldMT-6e"/>
     <path d="M 7.171875 58.890625 
L 7.171875 71.578125 
L 20.90625 71.578125 
L 20.90625 58.890625 
z
M 7.171875 0 
L 7.171875 51.859375 
L 20.90625 51.859375 
L 20.90625 0 
z
" id="Arial-BoldMT-69"/>
     <path d="M 5.90625 -3.421875 
L 21.578125 -5.328125 
Q 21.96875 -8.0625 23.390625 -9.078125 
Q 25.34375 -10.546875 29.546875 -10.546875 
Q 34.90625 -10.546875 37.59375 -8.9375 
Q 39.40625 -7.859375 40.328125 -5.46875 
Q 40.96875 -3.765625 40.96875 0.828125 
L 40.96875 8.40625 
Q 34.8125 0 25.4375 0 
Q 14.984375 0 8.890625 8.84375 
Q 4.109375 15.828125 4.109375 26.21875 
Q 4.109375 39.265625 10.375 46.140625 
Q 16.65625 53.03125 25.984375 53.03125 
Q 35.59375 53.03125 41.84375 44.578125 
L 41.84375 51.859375 
L 54.6875 51.859375 
L 54.6875 5.328125 
Q 54.6875 -3.859375 53.171875 -8.390625 
Q 51.65625 -12.9375 48.921875 -15.515625 
Q 46.1875 -18.109375 41.625 -19.578125 
Q 37.0625 -21.046875 30.078125 -21.046875 
Q 16.890625 -21.046875 11.375 -16.53125 
Q 5.859375 -12.015625 5.859375 -5.078125 
Q 5.859375 -4.390625 5.90625 -3.421875 
M 18.171875 27 
Q 18.171875 18.75 21.359375 14.90625 
Q 24.5625 11.078125 29.25 11.078125 
Q 34.28125 11.078125 37.75 15.015625 
Q 41.21875 18.953125 41.21875 26.65625 
Q 41.21875 34.71875 37.890625 38.625 
Q 34.578125 42.53125 29.5 42.53125 
Q 24.5625 42.53125 21.359375 38.6875 
Q 18.171875 34.859375 18.171875 27 
" id="Arial-BoldMT-67"/>
    </defs>
    <g style="fill:#ff9f9a;" transform="translate(261.953438 22.006597)scale(0.14 -0.14)">
     <use xlink:href="#Arial-BoldMT-72"/>
     <use x="38.916016" xlink:href="#Arial-BoldMT-75"/>
     <use x="100" xlink:href="#Arial-BoldMT-6e"/>
     <use x="161.083984" xlink:href="#Arial-BoldMT-6e"/>
     <use x="222.167969" xlink:href="#Arial-BoldMT-69"/>
     <use x="249.951172" xlink:href="#Arial-BoldMT-6e"/>
     <use x="311.035156" xlink:href="#Arial-BoldMT-67"/>
    </g>
   </g>
  </g>
 </g>
 <defs>
  <clipPath id="p72a91c6a47">
   <path d="M 288 363.686942 
C 329.214569 363.686942 368.746644 347.31222 397.889744 318.169119 
C 427.032845 289.026018 443.407567 249.493943 443.407567 208.279375 
C 443.407567 167.064806 427.032845 127.532731 397.889744 98.38963 
C 368.746644 69.24653 329.214569 52.871808 288 52.871808 
C 246.785431 52.871808 207.253356 69.24653 178.110256 98.38963 
C 148.967155 127.532731 132.592433 167.064806 132.592433 208.279375 
C 132.592433 249.493943 148.967155 289.026018 178.110256 318.169119 
C 207.253356 347.31222 246.785431 363.686942 288 363.686942 
z
"/>
  </clipPath>
 </defs>
</svg>
